<?xml version="1.0" encoding="UTF-8"?>
<svg id="Camada_2" data-name="Camada 2" xmlns="http://www.w3.org/2000/svg" viewBox="0 0 306.1 69.06">
  <defs>
    <style>
      .cls-1 {
        fill: #fff;
      }
    </style>
  </defs>
  <g id="Camada_1-2" data-name="Camada 1">
    <g>
      <g>
        <polygon class="cls-1" points="306.1 69.06 306.1 57.16 295.17 69.06 306.1 69.06"/>
        <polygon class="cls-1" points="306.1 .57 295.3 .57 306.1 12.33 306.1 .57"/>
        <polygon class="cls-1" points="288.14 34.78 256.66 69.06 274.61 69.06 306.1 34.78 274.67 .57 256.72 .57 288.14 34.78"/>
        <polygon class="cls-1" points="237.99 1.06 237.99 20.98 250.67 34.78 237.99 48.58 237.99 68.5 268.97 34.78 237.99 1.06"/>
      </g>
      <g>
        <path class="cls-1" d="M28.11,50.55c-5.36,10.08-12.91,14.42-20.86,14.42-8.44,0-9.05-5.16-4.22-14.26,1.83-3.44,3.81-6.55,5.36-8.85l7.67.98c-1.59,2.38-3.14,4.83-4.28,6.96-2.83,5.33-2.67,6.72-.71,6.72,1.8,0,3.53-1.39,5.57-5.24l.92-1.72c2.48-4.67,3.44-8.93,1.55-15.4-1.93-6.39-1.31-11.55,2.52-18.76l.52-.98C26.53,6.23,33.03,0,42.37,0s8.71,5.65,4.14,14.26c-1.66,3.11-3.08,5.33-4.71,7.78l-7.75-.98c1.38-2.13,1.8-2.62,3.55-5.9,2.92-5.49,2.8-6.8,1.08-6.8s-3.03,1.23-4.99,4.92l-.7,1.31c-1.92,3.6-2.48,7.29-1.25,12.21,1.7,6.96,1.3,14.5-2.97,22.53l-.65,1.23Z"/>
        <path class="cls-1" d="M87.76,41.46h-2.46l-11.98,22.53h-10.9L95.88,1.06h12.94c9.34,0,11.27,5,3.34,19.91-8.36,15.73-16.71,20.48-24.41,20.48ZM103.31,9.75h-1.15l-12.24,23.02h1.23c2.46,0,5.4-2.46,10.41-11.88,4.66-8.77,4.45-11.14,1.75-11.14Z"/>
        <path class="cls-1" d="M123.05,63.99h-10.98l3.84-8.77h-6.47l-5.48,8.77h-9.09L136.44,1.06h11.72l-25.1,62.92ZM119.51,46.45l11.36-25.07-15.87,25.07h4.51Z"/>
        <path class="cls-1" d="M143.51,64.97c-8.11,0-11.01-4.1-6.09-13.35l20.17-37.93c4.84-9.09,12.35-13.68,20.3-13.68,7.21,0,11.1,2.54,5.09,13.85-1.66,3.11-3.64,6.23-5.23,8.6l-7.93-.66c1.5-2.21,2.97-4.51,4.15-6.72,3.14-5.9,2.18-6.72.21-6.72s-3.3.82-5,4.01l-21.35,40.15c-1.52,2.87-1.48,4.18.97,4.18,1.8,0,3.69-1.23,6.87-7.21,1.05-1.97,2.06-4.34,3-6.72l8.71-.66c-.89,2.29-2,5-3.96,8.68-6.14,11.55-12.78,14.17-19.91,14.17Z"/>
        <path class="cls-1" d="M188.6,63.99h-22.12L199.93,1.06h22.04l-4.62,8.68h-11.14l-9.28,17.45h9.26l-4.7,8.85h-9.26l-10.24,19.25h11.22l-4.62,8.68Z"/>
      </g>
    </g>
  </g>
</svg>