<svg width="394" height="316" viewBox="0 0 394 316" fill="none" xmlns="http://www.w3.org/2000/svg">
<path d="M0.0878534 52.9235C0.101806 53.3467 0.0678697 55.049 0.0737538 55.7858C-0.0738034 54.9505 0.0371909 51.397 0.0878534 52.9235ZM10.8029 128.512C10.7664 127.9 10.73 127.289 10.6935 126.677C10.6698 128.415 10.6966 130.75 10.6619 132.363C10.6561 132.626 10.5505 131.942 10.5458 132.566C10.5411 133.19 10.6854 133.07 10.7009 133.978C10.7177 134.996 10.6172 139.658 10.6196 141.273C10.6294 147.312 10.7118 153.403 10.6519 159.454C10.5451 153.207 10.4364 159.502 10.4827 161.252C10.4934 161.639 10.7617 161.577 10.6942 167.845C10.6513 171.828 10.2676 168.149 10.4598 174.796C10.7282 169.685 10.7094 174.711 10.7183 178.717C10.7199 179.408 10.6796 184.986 10.6915 187.45C10.6956 188.293 10.8362 189.578 10.8398 190.696C10.8423 191.466 10.7654 192.048 10.7694 193.191C10.7867 198.518 10.7926 203.757 10.7667 209.094C10.4055 205.975 10.6127 211.541 10.5955 211.791C10.4974 213.063 10.4695 207.313 10.4081 209.587C10.4193 212.765 10.4305 215.943 10.4417 219.121C10.4861 216.512 10.7459 222.574 10.6277 223.689C10.9469 223.198 10.3499 238.174 10.4565 240.453C10.479 240.928 10.6367 237.82 10.5646 245.03C10.5566 245.811 10.4603 245.515 10.4692 245.925C10.4746 246.17 10.7807 247.654 10.6116 249.236C10.5498 249.814 10.3488 246.119 10.4296 254.232C10.7411 251.001 10.5983 265.483 10.5203 268.147C10.5621 267.615 10.604 267.083 10.6458 266.55C10.5329 269.184 10.6388 269.66 10.6331 270.253C10.6166 271.95 10.558 274.099 10.5289 276C10.517 276.673 10.5324 277.298 10.5691 277.855C10.7634 280.081 10.9328 280.07 11.3771 282.617C11.2828 282.006 11.209 281.4 11.1532 280.786C11.427 282.546 11.8604 284.282 12.4475 285.965C10.9356 282.108 12.6766 286.832 12.8737 287.109C13.0823 287.593 12.6935 286.933 13.0476 287.743C13.0903 287.823 13.1081 287.676 13.6964 288.898C15.0017 291.418 14.7406 291.055 15.3602 292.079C15.4294 292.164 15.2551 291.823 16.4624 293.493C20.6333 298.54 16.3234 293.565 16.2308 293.31C16.0791 293.012 16.8521 295.231 14.0666 290.335C14.9483 292.004 14.9558 292.232 15.0595 292.419C15.1228 292.605 17.0969 295.246 17.2519 295.354C18.346 296.548 17.5039 295.394 17.7247 295.62C17.8548 295.839 20.5411 298.77 21.5166 299.04C22.8101 300.439 20.3882 298.688 18.2143 296.357C17.8256 296.081 20.2427 298.616 20.4171 298.702C23.9038 301.578 22.143 299.762 23.0087 300.239C23.4673 300.477 24.8793 301.62 23.6205 300.499C27.0146 302.657 24.9015 301.441 25.1023 301.609C25.4199 301.846 26.6912 302.47 26.8468 302.551C27.0724 302.681 26.2302 302.34 27.1321 302.831C27.2856 302.914 28.822 303.508 26.9476 302.515C29.4854 303.776 29.3455 303.492 30.1552 304.073C32.1392 304.298 31.418 304.778 32.1568 305.031C34.1416 305.636 33.6443 305.114 33.7526 305.132C34.3646 305.237 38.3267 305.952 40.5 305.869C41.0112 305.868 41.4317 305.865 41.7096 305.856C41.5378 305.923 41.0879 305.955 40.5 305.966C39.087 306.022 36.7953 305.671 36.1543 305.595C34.6868 305.441 35.7034 305.659 36.831 305.851C37.9607 306.042 39.2124 306.171 38.1185 306.259C38.9185 306.245 39.7056 306.199 40.5 306.124C40.6353 306.112 40.7707 306.101 40.906 306.09C42.8291 306.294 40.1008 306.383 45.2764 306.308C46.1228 306.132 41.6171 306.336 42.5211 306.197C43.0539 306.116 46.0549 306.098 46.1139 306.056C46.1731 306.004 43.4608 306.065 43.8883 305.986C44.8216 305.814 54.7146 305.978 47.1837 306.071C49.2842 306.068 50.3665 306.409 52.1881 306.303C53.3659 306.234 46.7391 305.763 56.6811 305.849C56.8928 306.01 52.7062 305.897 52.5977 305.909C52.4449 305.927 53.2023 306.29 53.3335 306.308C53.7971 306.367 63.9497 306.173 66.095 306.355C65.2458 306.145 73.7667 306.318 74.6949 306.254C74.942 306.236 74.0185 306.107 74.2826 306.094C75.9303 306.013 80.3871 306.242 82.4546 306.248C84.7684 306.255 84.4753 306.144 84.6046 306.144C85.6227 306.15 84.8093 306.226 85.4317 306.225C86.3718 306.225 92.8331 306.241 93.1575 306.225C93.2524 306.22 92.1976 306.093 93.6062 306.069C93.8503 306.065 93.6955 306.215 97.8671 306.15C102.891 306.072 94.3784 305.963 96.4659 305.806C99.6929 306.03 99.5882 305.808 100.463 305.825C100.766 305.832 103.021 306.021 105.47 306.009C103.712 306.039 101.955 306.07 100.197 306.101C101.925 306.134 105.281 306.093 106.704 306.13C107.399 306.148 106.826 306.304 108.335 306.299C108.655 306.298 109.926 305.92 105.974 306.089C105.658 305.954 107.538 306.042 108.411 306.004C108.543 305.998 109.063 305.772 110.177 305.913C110.445 305.947 107.532 306.605 115.043 306.129C115.285 306.113 114.444 306.031 114.681 306.014C114.842 306.002 116.76 306.036 116.971 306.024C117.188 306.012 116.262 305.922 116.52 305.904C117.843 305.813 119.579 306.169 116.851 306.142C117.763 306.186 118.674 306.23 119.586 306.275C118.61 306.006 121.017 306.199 122.279 306.191C130.361 306.138 124.949 305.963 126.338 305.872C128.574 305.727 126.866 306.187 130.184 306.049C130.491 306.036 126.481 305.841 134.312 305.951C133.156 305.958 132 305.966 130.845 305.974C131.511 306.234 135.018 305.956 135.288 305.952C138.363 305.917 136.284 306.01 140.851 305.876C141.259 305.864 142.147 305.928 143.019 305.896C146.634 305.765 138.249 305.816 138.02 305.711C137.911 305.66 146.929 305.673 147.238 305.697C148.552 305.806 143.15 305.745 144.18 305.88C144.556 305.928 157.408 305.829 159.986 305.882C162.962 305.943 164.301 306.295 164.32 305.899C165.16 306.288 165.902 306.023 166.282 306.025C170.884 306.061 170.892 306.065 174.838 306.028C175.709 306.02 176.445 306.138 176.753 306.118C176.932 306.106 176.597 305.98 177.476 305.941C178.696 305.888 186.032 306.017 186.577 306.087C187.122 306.157 183.479 306.117 184.132 306.232C186.769 306.244 189.297 306.215 191.952 306.228C193.054 306.233 192.488 306.313 192.964 306.315C193.167 306.316 196.974 306.245 196.812 306.215C196.435 306.147 184.679 306.193 187.774 306.052C188.372 306.025 190.482 306.21 190.146 305.985C200.649 306.036 211.152 306.087 221.655 306.138C215.62 306.307 208.829 306.156 202.508 306.172C201.642 306.174 198.713 306.152 199.069 306.266C204.444 306.295 211.126 306.236 216.287 306.31C216.453 306.313 215.846 306.415 216.465 306.431C217.621 306.461 221.387 306.296 222.02 306.339C222.128 306.349 219.985 306.484 220.637 306.569C222.31 306.789 222.734 306.302 224.172 306.308C225.285 306.313 232.758 306.548 234.62 306.399C236.599 306.241 229.112 306.307 229.665 306.178C234.731 306.048 239.86 306.187 244.647 306.17C244.731 306.17 243.999 306.068 245.067 306.054C246.925 306.03 247.413 306.174 248.318 306.197C249.293 306.221 252.743 306.201 253.205 306.253C253.264 306.26 252.565 306.403 252.459 306.407C250.956 306.466 250.422 306.28 250.285 306.278C249.771 306.271 249.267 306.342 248.798 306.338C248.026 306.331 247.601 306.265 246.583 306.259C245.88 306.255 246.558 306.381 245.881 306.375C245.632 306.373 242.95 306.084 242.7 306.379C242.623 306.471 264.554 306.59 266.746 306.516C264.866 306.481 262.986 306.445 261.105 306.41C264.924 306.496 269.511 306.261 269.836 306.609C283.996 306.637 298.156 306.666 312.316 306.694C314.844 306.724 313.458 306.947 317.618 306.882C316.543 306.811 315.468 306.74 314.393 306.669C316.525 306.719 325.972 306.816 327.501 306.77C327.699 306.764 327.974 306.562 330.335 306.544C332.43 306.529 332.766 306.681 333.886 306.71C334.826 306.734 335.882 306.694 336.161 306.702C336.375 306.709 336.46 306.802 336.975 306.818C338.602 306.868 337.283 306.607 338.898 306.906C338.505 306.918 338.112 306.929 337.719 306.941C339.682 306.984 342.364 307.12 339.472 307.187C338.975 307.199 339.402 307.109 339.031 307.109C324.512 307.126 336.106 307.3 341.194 307.161C342.501 307.294 349.825 307.212 350.068 307.239C350.407 307.277 349.153 307.383 350.796 307.474C351.142 307.494 360.934 307.419 357.408 307.596C356.68 307.632 351.985 307.594 350.853 307.599C353.516 307.881 359.759 307.477 360.461 307.488C363.292 307.532 355.021 307.732 361.4 307.764C366.305 307.789 361.7 307.602 363.586 307.521C364.646 307.476 370.197 307.683 370.047 307.415C371.952 307.387 370.837 307.529 371.072 307.539C371.302 307.548 375.048 307.467 376.264 307.524C376.412 307.531 375.948 307.67 376.1 307.682C376.397 307.701 380.009 307.673 380.155 307.662C380.247 307.653 379.386 307.531 379.74 307.502C380.152 307.468 383.629 307.496 383.821 307.462C384.091 307.409 379.799 307.444 380.515 307.307C382.493 307.341 385.716 307.25 387.022 307.141C386.702 307.172 384.784 307.177 384.118 307.165C384.431 306.966 388.55 306.968 387.142 307.127C388.037 307.042 387.426 306.997 387.93 306.916C388.062 306.896 389.334 306.892 389.579 306.857C389.611 306.85 388.299 306.775 388.561 306.734C389.037 306.661 392.893 306.678 393.208 306.697C394.096 306.751 390.953 306.817 390.69 306.902C390.653 306.915 393.327 307.08 393.368 307.094C393.524 307.251 390.549 307.138 390.889 307.279C391.625 307.309 392.36 307.338 393.096 307.368C390.258 307.511 385.007 307.438 383.654 307.6C387.861 307.552 392.265 307.557 392.256 307.923C392.253 308.077 390.438 308.167 390.508 308.206C390.776 308.346 393.296 308.194 393.388 308.201C393.465 308.21 393.5 308.218 393.5 308.226C393.5 308.226 393.5 308.226 393.5 308.226C393.5 308.308 389.908 308.367 389.728 308.405C389.425 308.471 391.024 308.745 391.022 308.806C390.966 308.818 388.408 308.883 389.271 308.988C390.144 309.095 392.384 309.097 392.462 309.109C392.89 309.172 388.973 309.231 388.856 309.268C388.795 309.287 390.898 309.405 390.959 309.438C391.012 309.472 389.413 309.546 388.783 309.652C388.314 309.732 389.681 309.792 389.441 309.805C389.269 309.813 385.568 309.812 385.386 309.826C385.115 309.846 385.982 309.941 385.856 309.965C385.677 309.999 384.482 309.964 384.637 309.999C384.754 310.026 389.387 310.352 389.357 310.439C389.304 310.588 384.398 310.246 388.963 310.833C388.995 310.837 390.106 310.795 390.137 310.798C390.823 310.906 387.261 311.073 391.617 311.044C383.513 311.231 390.608 311.267 389.409 311.518C388.946 311.614 385.805 311.654 385.79 311.668C386.096 311.79 387.097 311.695 387.437 311.755C387.624 311.789 384.814 311.918 385.446 312.002C385.773 312.045 388.757 312.029 388.88 312.038C390.06 312.117 388.613 312.203 388.872 312.259C389.044 312.297 390.845 312.3 390.891 312.307C390.967 312.321 388.523 312.474 388.013 312.528C387.626 312.569 389.079 312.634 388.809 312.652C387.182 312.76 383.719 312.485 387.056 312.87C387.26 312.894 388.522 312.885 388.559 312.889C389.339 312.999 387.015 313.008 386.599 313.097C385.886 313.251 389.226 313.166 386.448 313.274C388.532 313.375 389.693 313.371 392.131 313.342C385.38 313.421 382.997 313.82 390.492 313.81C388.108 313.804 388.372 314.029 387.661 314.033C387.219 314.035 383.762 313.811 385.347 314.313C385.546 314.376 387.646 314.296 386.988 314.425C381.948 314.392 386.881 314.507 386.886 314.523C386.821 314.819 374.506 314.577 372.39 314.611C369.934 314.65 367.752 314.883 367.218 314.883C365.462 314.883 366.92 314.765 366.527 314.722C366.129 314.678 361.135 314.905 360.886 314.893C359.918 314.843 360.9 314.702 360.8 314.695C359.602 314.609 352.895 314.719 351.018 314.687C351.076 314.778 354.846 314.785 352.492 314.931C349.751 315.101 349.595 314.7 349.523 314.683C336.966 314.686 324.409 314.69 311.851 314.694C312.008 314.907 320.218 314.746 320.404 314.775C321.501 314.941 307.633 314.938 305.931 314.863C307.224 314.909 308.516 314.955 309.808 315.001C307.602 315.246 302.718 314.927 299.526 315.036C298.494 315.071 300.475 315.166 300.434 315.172C299.275 315.267 297.415 315.194 298.805 315.066C295.976 315.189 296.39 315.053 294.219 315.043C294.107 315.043 295.039 315.142 293.321 315.183C292.516 315.202 288.223 315.202 287.649 315.289C287.412 315.325 289.59 315.709 289.859 315.379C294.528 315.54 291.351 315.228 293.164 315.236C293.443 315.238 292.803 315.422 297.37 315.335C296.5 315.668 291.24 315.419 290.339 315.459C288.479 315.542 296.142 315.714 297.548 315.455C296.891 315.714 298.091 315.49 299.8 315.5C301.669 315.512 300.854 315.589 301.866 315.59C304.633 315.592 303.486 315.408 305.767 315.574C303.543 315.062 309.672 315.506 311.457 315.64C308.552 315.666 305.646 315.692 302.74 315.718C302.906 315.745 303.072 315.772 303.238 315.798C302.473 315.795 301.708 315.791 300.942 315.787C301.065 315.761 301.188 315.736 301.31 315.71C297.364 315.877 296.401 315.689 296.079 315.687C291.936 315.665 287.151 315.667 282.963 315.666C282.334 315.666 282.765 315.833 278.185 315.702C276.724 315.661 278.104 315.531 276.447 315.55C274.376 315.904 274.415 315.622 273.799 315.621C272.032 315.621 270.951 315.709 270.788 315.71C268.604 315.724 265.406 315.709 263.007 315.722C262.963 315.723 264.211 315.832 262.653 315.8C262.105 315.788 257.198 315.324 252.907 315.476C254.023 315.507 255.139 315.538 256.255 315.57C254.943 315.526 245.749 315.643 247.997 315.767C249.375 315.843 252.739 315.544 253.108 315.831C250.049 315.745 233.151 315.874 231.836 315.807C231.654 315.798 232.773 315.704 232.522 315.692C232.327 315.683 228.457 315.705 227.943 315.67C227.637 315.648 229.347 315.591 229.208 315.557C229.086 315.533 224.253 315.493 223.977 315.61C225.164 315.564 228.5 315.605 226.75 315.703C226.525 315.715 225.359 315.64 225.086 315.655C222.549 315.799 230.13 315.764 231.303 315.766C226.541 315.915 219.175 315.739 213.657 315.836C211.428 315.739 216.963 315.687 214.44 315.606C209.207 315.439 213.048 315.741 212.885 315.753C211.585 315.852 207.158 315.325 207.155 315.726C205.258 315.666 205.872 315.615 203.195 315.668C203.547 315.695 203.899 315.723 204.251 315.751C201.279 315.983 194.987 315.397 195.458 315.353C196.726 315.233 200.003 315.42 200.283 315.415C200.697 315.408 201.842 315.002 206.375 315.365C208.231 315.093 199.19 315.181 203.304 314.995C200.526 315.026 189.096 314.836 187.451 314.956C187.254 314.971 188.169 315.243 185.345 315.105C184.005 315.039 187.237 315.036 186.624 314.974C184.736 314.784 159.065 314.906 154.189 314.916C153.872 314.916 153.989 314.832 153.677 314.832C152.722 314.835 149.24 314.96 147.53 314.922C151.073 315.078 144.193 315.09 142.442 315.073C139.786 315.047 139.95 314.898 138.803 314.867C134.379 314.745 127.526 315.097 124.089 314.768C124.277 315.095 118.146 314.608 115.356 314.605C113.172 314.602 110.002 314.819 112.951 314.95C109.179 314.935 105.209 314.996 101.671 315.016C101.086 315.02 101.892 314.923 100.894 314.932C100.803 314.933 100.678 315.028 99.8213 315.038C92.7483 315.12 96.1899 314.919 94.8665 314.86C94.126 314.827 93.5794 314.81 93.1783 314.805C97.301 314.786 102.056 314.749 103.328 314.746C102.243 314.537 94.1904 314.787 91.832 314.73C91.7502 314.728 92.0351 314.613 91.952 314.612C91.9503 314.612 91.9485 314.612 91.9468 314.612C91.0629 314.603 85.434 314.646 86.5928 314.783C86.9038 314.82 89.4948 314.82 92.5678 314.807C91.7361 314.833 92.3571 314.962 92.2103 314.968C90.4305 315.032 86.0704 314.906 84.5237 314.889C84.1702 314.885 84.1955 314.968 84.1375 314.968C82.7308 314.949 83.3079 314.713 81.8649 314.957C79.3175 314.662 86.639 314.913 86.1231 314.722C85.7268 314.574 69.4645 314.653 69.513 314.885C69.4569 314.861 69.2333 314.83 68.7746 314.795C67.7576 314.717 63.2311 314.741 62.45 314.784C62.3182 314.792 62.3708 315.018 62.2073 315.02C61.7985 315.025 56.2661 314.848 54.1997 314.981C55.3156 315.013 56.4315 315.044 57.5473 315.076C50.8087 315.078 51.8502 315.145 54.0954 315.212C54.2077 315.213 54.3169 315.221 54.4241 315.222C56.1643 315.272 58.3954 315.32 58.4292 315.338C58.5569 315.406 47.1242 315.443 49.3232 315.234C49.6297 315.206 54.9193 315.299 52.3003 315.15C51.842 315.124 48.4449 315.166 48.2665 315.15C47.0726 315.041 54.4908 314.896 53.584 314.74C51.7836 314.888 49.473 314.81 47.4081 314.848C46.4684 314.866 46.2377 314.979 46.1217 314.981C44.3893 315.01 45.3616 314.892 44.7832 314.895C44.4729 314.897 41.0591 315.149 41.7044 314.801C41.2751 314.811 40.874 314.821 40.5 314.83C32.7201 314.576 35.4855 314.874 40.5 315.045C42.0362 315.046 43.8017 315.042 45.4929 315.037C44.2391 315.11 42.2926 315.121 40.5 315.122C39.0167 315.125 37.6357 315.028 36.7302 314.952C35.9654 314.883 36.4028 315.058 35.1069 314.914C32.2929 315.137 20.2259 310.401 17.8175 307.931C19.5251 309.058 19.0938 308.621 17.8029 307.726C16.5288 306.806 17.4936 307.722 17.2356 307.555C16.852 307.499 11.3911 302.482 10.7136 301.427C14.5493 305.47 13.7153 304.501 10.5995 300.982C11.064 301.481 11.5404 301.966 12.0287 302.439C10.0162 300.525 6.9481 295.594 6.24545 294.173C6.11922 293.958 6.45034 294.797 6.38033 294.676C5.58954 293.507 3.85919 289.069 3.81372 288.853C3.71285 288.688 4.34272 290.622 4.03583 289.932C3.96801 289.787 3.40454 287.906 2.88424 286.052C2.69003 285.361 2.70278 285.804 2.65193 285.631C2.26292 284.179 2.57155 285.011 2.05795 282.318C1.73217 280.342 1.38747 278.848 1.4173 276.062C1.63918 283.573 1.35059 279.753 1.25347 276C1.2492 275.271 1.24265 274.548 1.23127 273.934C1.22111 273.385 1.0394 273.856 1.12787 270.574C1.45644 277.559 1.30154 268.582 1.30512 266.746C1.30624 266.645 1.42607 266.611 1.42799 265.71C1.42789 265.634 1.3469 265.744 1.34071 264.907C1.28216 256.969 1.37365 262.044 1.45351 260.536C1.48753 259.894 1.37302 256.034 1.37025 254.994C1.36997 254.755 1.45411 254.865 1.45082 253.94C1.44478 252.304 1.3552 250.838 1.34809 249.758C1.34768 249.632 1.48045 249.626 1.43739 247.579C1.42535 247.003 1.37821 246.357 1.34004 247.175C1.21448 249.886 1.43178 255.029 1.30647 258.094C1.19234 260.889 1.18158 252.076 1.18091 251.618C1.1805 251.45 1.24642 253.171 1.25947 251.422C1.27033 249.929 1.04101 247.2 1.09094 244.975C1.09465 244.805 1.28908 243.028 1.30042 243.11C1.30871 243.184 1.35091 245.914 1.40718 245.518C1.41359 245.47 1.41228 243.735 1.45418 243.509C1.50517 243.231 2.00561 242.483 2.01816 242.113C2.04916 241.162 1.93503 241.781 1.94297 241.166C1.95971 239.847 2.1077 235.272 1.93424 235.123C1.92394 235.879 1.91365 236.634 1.90335 237.39C1.88551 233.185 1.81167 234.978 1.77914 234.382C1.74395 233.74 1.89642 233.921 1.91074 232.503C1.91389 232.195 1.88206 226.264 1.81808 226.372C1.9199 229.652 1.73148 228.435 1.72811 228.587C1.71584 229.161 1.82153 229.895 1.81943 230.666C1.80288 236.089 1.63606 230.62 1.59316 231.9C1.57872 232.341 1.66895 233.219 1.66433 233.406C1.64939 234.014 1.53123 234.023 1.54079 234.429C1.56297 235.375 1.73016 234.27 1.73886 234.345C1.84348 235.19 1.7133 238.502 1.53139 236.44C1.46583 237.678 1.68692 237.823 1.59853 238.804C1.42351 240.755 1.46847 237.832 1.43941 237.041C1.33458 234.2 1.41943 233.357 1.39039 229.336C1.38015 227.887 1.27275 226.172 1.26685 225.5C1.26315 225.077 1.63681 221.08 1.052 220.963C1.10859 219.409 1.49396 216.972 1.47633 215.371C1.46026 213.934 1.25337 214.391 1.24537 214.257C1.23279 214.052 1.24909 212.314 1.21985 211.726C1.18531 211.038 1.10634 211.381 1.07416 210.289C0.99428 207.569 1.20546 207.641 1.21918 207.361C1.37781 204.116 1.07744 205.537 1.05334 204.817C1.0312 204.148 1.14682 194.755 1.0708 192.778C1.1131 193.583 1.1554 194.387 1.1977 195.192C1.32942 193.752 1.11457 192.226 1.35078 192.199C0.969425 191.907 1.22434 188.935 1.21448 188.043C1.21043 187.691 1.14544 187.719 1.14264 187.278C1.13125 185.558 1.18298 181.68 1.15003 180.747C1.00816 176.713 0.772178 187.029 0.757923 187.842C0.76213 186.216 0.676719 177.018 0.493387 181.246C0.465101 181.899 0.635759 183.057 0.64244 183.424C0.686379 185.909 0.533445 183.955 0.5189 184.15C0.495422 184.481 0.643266 186.116 0.625655 186.548C0.62001 186.692 0.481529 185.765 0.478615 188.134C0.344367 186.969 0.453743 180.309 0.422217 179.435C0.41096 179.124 0.124094 181.075 0.402746 175.375C0.376113 175.441 0.349481 175.507 0.322848 175.573C0.311882 172.4 0.300915 169.226 0.289948 166.052C0.351307 166.397 0.474552 168.179 0.448402 165.935C0.433268 164.643 0.2966 165.599 0.292634 165.481C0.255017 164.322 0.300496 143.8 0.285249 139.822C0.2803 138.469 0.170464 134.699 0.168423 134.411C0.157429 132.692 0.22892 126.603 0.213408 125.388C0.203459 124.63 0.0892096 125.351 0.0945678 124.673C0.0997071 124.044 0.210132 124.696 0.21475 124.509C0.254765 122.96 0.109933 111.19 0.214079 108.395C0.182814 110.103 0.403435 118.627 0.481301 118.456C0.491978 118.419 0.57598 116.347 0.535014 115.92C0.63062 115.214 0.33953 112.789 0.396703 111.471C0.403196 111.322 0.566476 111.909 0.596113 109.556C0.606239 108.745 0.478966 106.623 0.621626 104.486C0.553079 101.393 0.764832 85.1328 0.589398 84.0172C0.580136 83.9841 0.519728 86.2739 0.447731 84.7269C0.352031 82.6702 0.674388 84.5172 0.702196 82.1203C0.706426 81.7591 0.673804 75.0903 0.653854 74.872C0.472937 72.8522 0.399602 78.6795 0.378575 78.5979C0.325615 78.3947 0.293574 73.5528 0.306063 73.356C0.319056 73.1687 0.558773 77.1174 0.467873 72.3724C0.439226 72.9159 0.410579 73.4595 0.381932 74.0031C0.326141 71.7715 0.491983 71.5588 0.502115 71.0182C0.53419 69.3376 0.282282 67.5194 0.593427 64.8266C0.676002 64.1146 0.767697 65.2967 0.780079 65.2076C0.891219 64.3522 0.593908 63.261 0.815664 61.9748C0.832204 61.878 0.965052 64.8712 0.965389 59.6396C0.944128 59.9996 0.922866 60.3597 0.901605 60.7198C0.854137 59.982 0.82593 54.685 0.83715 53.9724C0.869946 51.8906 1.02257 53.7061 1.00433 51.6137C0.795166 52.9557 0.767869 46.5929 0.947933 46.9589C0.721782 46.0702 0.896237 40.6651 0.901605 38.1242C0.904825 36.521 0.806137 33.2509 0.817678 32.7415C0.831823 32.1209 0.986099 32.3095 1.02045 31.189C1.03024 30.8695 0.917147 27.5339 1.07684 24.606C1.10762 24.0386 1.3693 22.8469 1.43471 23.9016C1.54663 25.7068 1.33581 29.1217 1.49043 29.0782C1.65585 29.027 1.55747 24.4273 1.57906 23.1893C1.67891 17.4735 1.85475 20.774 1.90805 20.627C2.03741 20.2459 2.03339 17.1228 2.04502 16.9924C2.09668 16.4524 2.19905 18.6654 2.278 18.6989C2.38079 18.7392 2.5663 15.7288 2.60095 16.4132C2.65015 17.3928 2.49554 20.1594 2.50292 20.3348C2.60265 22.6181 2.84012 19.4884 2.9568 18.6258C2.99269 18.3643 3.05168 19.4062 3.06221 19.1894C3.22195 15.88 2.72845 18.4918 2.76142 16.2906C2.79079 14.3267 2.94685 16.8535 2.95546 16.7785C2.96491 16.6815 2.97342 14.3334 3.02864 13.9658C3.05629 13.7846 3.35984 19.8878 3.49594 19.6329C3.46595 17.6856 3.43596 15.7383 3.40597 13.791C3.58343 13.6383 3.4528 16.4392 3.4711 16.7289C3.50781 17.3121 3.59762 15.6859 3.65372 15.7557C3.68941 15.7931 3.81675 17.7018 3.86925 15.9775C3.88738 15.3849 3.76295 14.1412 3.89006 11.9828C4.05241 19.4943 4.15216 14.289 4.21502 14.0676C4.27788 13.8507 4.42583 17.4367 4.39966 13.0839C4.74502 12.8952 4.50883 13.1777 4.56953 14.4146C4.64414 15.9298 4.75786 12.4279 4.67158 17.9657C4.83328 17.6506 4.82184 13.1995 4.83474 12.9639C4.84643 12.7604 4.92596 13.7498 4.95291 13.397C5.26534 9.22423 5.12267 12.0903 5.32218 10.8817C5.34001 10.7743 5.41398 6.83033 5.44304 9.83284C5.49586 15.303 5.26673 17.5891 5.75659 18.5084C5.96937 14.4623 5.65318 9.5599 5.64782 8.32996C5.6401 6.44736 5.74 8.39756 5.768 8.16558C5.77705 8.085 5.76879 6.4627 5.77673 6.44091C6.15035 5.28411 5.78293 13.663 5.8479 16.301C5.90385 15.5939 5.9598 14.8868 6.01575 14.1797C6.01799 15.1391 6.02023 16.0984 6.02247 17.0577C6.13494 12.4875 6.06505 16.8965 6.36757 18.0361C6.43555 18.292 6.31897 15.2895 6.5079 18.7145C6.55151 16.1884 6.61332 16.9941 6.52804 14.7068C6.6493 14.7658 6.78608 19.9122 6.8483 21.9421C6.98457 14.7711 6.53979 18.8604 6.77512 12.6612C6.62497 11.5116 6.65421 14.4706 6.62942 14.2293C6.54031 13.3636 6.68181 11.3342 6.36959 8.88571C6.31833 8.48704 6.16054 10.174 6.16816 7.67766C6.16924 7.40156 6.30408 5.81091 6.31386 5.83297C6.41946 6.04384 6.37989 7.6179 6.42397 7.68288C6.4657 7.74386 6.4406 5.98775 6.45217 5.98169C6.58447 5.92773 6.50273 7.44692 6.54415 7.22627C6.63423 6.74976 6.91894 0.433047 6.83555 8.67698C6.68597 1.82952 6.68946 7.80029 6.74692 10.4669C6.76132 11.1469 6.84035 11.3191 6.86777 12.2881C6.90329 13.5345 6.86536 14.9933 6.87986 15.6383C6.89585 16.3319 7.08264 12.3906 7.0269 18.0909C7.2127 15.1899 7.01461 10.0656 7.14507 7.21583C7.40869 1.46643 7.4653 11.2246 7.49084 12.2411C7.49777 12.5119 7.60449 11.604 7.61103 11.7845C7.62106 12.0797 7.57172 17.6179 7.66004 18.164C7.74828 18.7086 7.65598 16.1355 7.748 15.9644C7.80995 15.8485 7.91983 22.5295 7.96218 18.9128C7.9912 16.4201 7.7422 11.8253 8.00985 11.0513C8.032 14.7172 8.05416 18.3831 8.07632 22.049C8.17815 20.0426 8.27998 18.0361 8.38181 16.0297C8.4141 20.1442 8.29914 23.7013 8.44492 27.6092C8.77123 18.2187 8.70533 30.6582 8.74504 30.795C8.76879 30.8408 9.03365 27.1446 9.08209 26.5499C9.18398 29.8251 9.23377 39.7774 9.56081 33.9548C9.48696 35.0116 9.66925 37.5709 9.68301 37.5372C9.82749 37.2122 9.7338 31.6302 9.86429 32.5406C10.0157 33.5956 9.81028 35.0739 9.82669 36.697C9.91222 45.0256 10.6665 42.7407 10.5471 51.0919C10.574 50.9258 10.6008 50.7596 10.6277 50.5935C10.5849 59.6709 10.5422 68.7482 10.4994 77.8256C10.7298 81.3771 10.87 90.8291 10.8445 95.4715C10.8396 96.4063 10.7187 100.996 10.6975 101.342C10.6569 101.983 10.6414 98.457 10.5652 100.051C10.5496 100.387 10.4988 108.157 10.6277 107.602C10.6426 106.731 10.5778 104.006 10.6082 103.56C10.8249 100.427 10.6518 124.382 10.7391 125.568C10.781 125.038 10.8228 124.507 10.8647 123.977C10.8441 125.488 10.8235 127 10.8029 128.512ZM0.453102 59.0525C0.323797 58.1453 0.420913 55.8716 0.384618 54.5282C0.33379 52.672 -0.164123 49.5168 0.334933 50.8753C0.374323 53.601 0.413713 56.3268 0.453102 59.0525ZM0.260406 98.8895C0.329859 97.0617 0.608582 98.4794 0.492715 99.9775C0.479547 100.144 0.166925 101.362 0.260406 98.8895ZM0.392675 79.7277C0.396366 79.8046 0.388988 81.3841 0.384618 81.4393C0.27271 82.8558 0.295582 78.0936 0.392675 79.7277ZM0.535686 172.294C0.523653 170.28 0.270273 171.738 0.374547 172.99C0.381167 173.069 0.536277 172.426 0.535686 172.294ZM0.5424 170.861C0.769299 169.297 0.309444 166.147 0.355747 168.651C0.360423 168.894 0.53135 170.934 0.5424 170.861ZM0.37119 92.3744C0.458153 92.5801 0.416162 94.4655 0.39536 95.2706C0.315965 95.2487 0.380908 93.1639 0.37119 92.3744ZM0.39536 140.177C0.463727 140.257 0.459949 133.704 0.369847 133.258C0.408074 134.292 0.333923 140.102 0.39536 140.177ZM0.491372 156.983C0.503191 156.817 0.485223 154.553 0.424902 154.619C0.34577 155.724 0.437876 157.731 0.491372 156.983ZM0.487344 190.386C0.502497 190.509 0.88637 188.813 0.633712 192.831C0.596716 193.42 0.496417 191.314 0.482644 191.523C0.455781 191.962 0.443259 192.309 0.441016 192.588C0.409199 190.717 0.394231 188.773 0.417517 188.585C0.527493 187.702 0.48102 190.331 0.487344 190.386ZM0.773365 207.922C0.835979 208.308 0.802505 210.769 0.776722 211.33C0.771872 211.426 0.607306 211.007 0.619612 212.115C0.629771 213.005 0.798323 211.676 0.771351 213.409C0.74428 215.161 0.624156 212.82 0.615583 212.973C0.604346 213.179 0.680031 215.889 0.582013 215.804C0.509408 215.742 0.5585 212.838 0.543071 212.12C0.52324 211.201 0.402274 212.316 0.428259 210.779C0.444489 209.814 0.657207 210.349 0.667954 210.145C0.676614 209.974 0.554195 206.599 0.772694 207.927C0.772918 207.926 0.773142 207.924 0.773365 207.922ZM0.450416 193.094C0.443228 192.953 0.439407 192.788 0.441016 192.588C0.443904 192.758 0.447258 192.927 0.450416 193.094ZM0.546428 64.3335C0.480822 65.2836 0.396699 62.4635 0.482644 61.3955C0.551953 61.3771 0.556641 64.1822 0.546428 64.3335ZM0.623641 194.829C0.570351 197.609 0.497062 195.564 0.450416 193.094C0.490456 193.878 0.641441 193.896 0.623641 194.829ZM0.535014 115.92C0.519149 116.037 0.494413 116.111 0.453773 116.121C0.498221 115.812 0.522093 115.785 0.535014 115.92ZM0.462502 122.403C0.586293 124.626 0.581297 120.11 0.492715 120.139C0.459276 120.152 0.457579 122.314 0.462502 122.403ZM0.5236 174.877C0.535714 174.673 0.90952 177.832 0.629012 173.246C0.584957 175.694 0.54425 173.111 0.511515 173.149C0.417427 173.249 0.507867 177.361 0.467202 178.271C0.635544 178.984 0.483688 175.548 0.5236 174.882C0.5236 174.88 0.5236 174.879 0.5236 174.877ZM0.682725 239.527C0.58408 238.97 0.615819 237.203 0.621626 236.01C0.720271 236.567 0.688531 238.334 0.682725 239.527ZM261.139 315.831C252.967 315.923 251.909 315.521 259.386 315.68C259.532 315.683 261.635 315.791 261.139 315.831ZM191.004 315.727C190.234 315.552 192.783 315.524 194.456 315.596C194.835 315.613 196.236 315.79 194.636 315.825C194.687 315.612 192.215 315.531 191.004 315.727ZM0.735766 196.4C0.852527 197.209 0.769415 199.7 0.75188 201.013C0.655743 200.212 0.699221 197.561 0.735766 196.4ZM234.286 315.622C233.424 315.609 232.843 315.761 232.991 315.774C233.657 315.832 235.267 315.709 234.286 315.622ZM0.753894 188.358C0.823668 188.245 0.890829 191.544 0.71831 191.774C0.730793 191.068 0.71011 188.44 0.753894 188.358ZM0.735095 237.278C0.770571 236.766 0.834087 239.419 0.798879 240.221C0.724617 240.157 0.712035 237.614 0.735095 237.278ZM220.418 315.674C219.646 315.66 217.719 315.656 217.506 315.718C217.241 315.795 220.067 315.769 220.418 315.674ZM363.939 315.541C364.036 315.568 361.051 315.768 359.725 315.717C357.205 315.621 363.833 315.521 363.939 315.541ZM242.439 315.543C244.872 315.688 242.171 315.548 242.278 315.7C243.914 315.706 247.986 315.713 245.187 315.563C244.641 315.534 243.202 315.553 242.439 315.543ZM240.195 315.492C239.935 315.542 238.181 315.698 239.697 315.686C240.398 315.681 241.527 315.508 240.195 315.492ZM345.447 315.608C343.267 315.473 353.262 315.546 353.549 315.57C353.701 315.582 353.8 315.594 353.857 315.604C354.224 315.561 356.112 315.553 356.33 315.661C355.764 315.653 354.219 315.662 354.039 315.65C353.962 315.645 353.904 315.64 353.865 315.635C353.198 315.729 345.865 315.634 345.447 315.608ZM328.887 315.469C331.381 315.27 331.823 315.609 331.608 315.62C328.892 315.759 330.663 315.509 330.58 315.497C330.39 315.478 328.461 315.593 328.895 315.469C328.892 315.469 328.889 315.469 328.887 315.469ZM342.053 315.553C342.155 315.548 344.25 315.559 344.336 315.564C346.052 315.678 340.126 315.649 342.053 315.553ZM1.01037 221.14C0.976704 222.64 0.852087 221.169 0.896905 220.172C0.901322 220.09 1.04012 219.817 1.01037 221.14ZM238.998 315.526C238.65 315.502 229.757 315.414 230.291 315.602C231.046 315.58 241.155 315.676 238.998 315.526ZM172.534 315.48C174.102 315.482 172.392 315.659 171.556 315.593C171.245 315.568 172.139 315.48 172.534 315.48ZM0.915033 183.91C0.817513 182.281 1.14467 182.618 1.03253 184.03C1.02814 184.085 0.918843 183.974 0.915033 183.91ZM185.063 315.582C179.655 315.69 180.935 315.127 187.967 315.317C187.747 315.342 187.527 315.367 187.307 315.392C195.424 315.477 187.862 315.432 185.875 315.463C185.12 315.475 185.753 315.569 185.069 315.583C185.067 315.583 185.065 315.583 185.063 315.582ZM164.286 315.469C159.078 315.07 169.022 315.33 171.874 315.278C169.109 315.443 165.509 315.418 170.405 315.587C163.246 315.62 166.226 315.461 165.941 315.447C165.602 315.432 164.508 315.487 164.286 315.469ZM178.026 315.467C178.327 315.455 180.596 315.536 181.413 315.523C180.27 315.66 176.027 315.546 178.026 315.467ZM311.525 315.562C311.714 315.455 312.18 315.376 313.97 315.416C313.417 315.47 312.273 315.516 311.525 315.562ZM1.01575 57.3304C1.02341 56.0974 1.0637 53.6422 0.95129 54.3951C0.941709 54.4775 0.952655 57.3267 1.01575 57.3304ZM213.167 315.439C212.905 315.426 206.123 315.417 208.465 315.535C209.172 315.571 215.342 315.556 213.167 315.439ZM248.286 315.453C247.719 315.452 245.413 315.472 245.364 315.497C245.208 315.584 248.038 315.536 248.286 315.453ZM1.12519 51.1101C1.13628 50.9478 1.11663 47.1816 1.06476 47.5956C0.966667 48.3814 1.08698 51.6667 1.12519 51.1101ZM1.26081 226.596C1.26476 226.911 1.14863 227.327 1.14734 227.436C1.14568 227.692 1.19035 233.455 1.04126 231.253C1.01627 230.886 1.07353 222.594 1.08826 221.516C1.24768 221.099 1.09602 224.641 1.11243 225.503C1.11554 225.655 1.24892 225.752 1.26014 226.593C1.26036 226.594 1.26059 226.595 1.26081 226.596ZM320.853 315.449C321.107 315.348 327.883 315.281 327.804 315.404C325.487 315.419 323.17 315.434 320.853 315.449ZM317.412 315.433C315.966 315.361 319.352 315.337 320.35 315.369C320.36 315.437 317.622 315.443 317.412 315.433ZM235.436 315.074C234.755 315.099 236.849 315.247 236.381 315.275C236.081 315.293 234.559 315.238 234.074 315.284C233.937 315.299 235.488 315.438 235.937 315.432C236.575 315.424 235.956 315.314 236.652 315.314C238.962 315.311 241.01 315.389 243.175 315.388C243.371 315.387 241.854 315.31 243.522 315.311C243.78 315.311 245.328 315.426 247.324 315.409C251.73 315.053 254.965 315.403 260.557 315.274C260.346 315.241 256.165 315.151 255.918 315.147C251.244 315.089 242.871 315.082 237.975 315.081C236.719 315.081 237.329 315.157 236.788 315.159C236.36 315.161 236.869 315.022 235.436 315.074ZM1.09296 57.9853C1.23246 57.3976 1.14416 55.3361 1.15137 54.0194C1.02554 54.4829 1.12387 56.6986 1.09296 57.9853ZM286.994 315.324C286.334 315.33 284.287 315.288 284.118 315.33C283.9 315.385 286.854 315.419 286.994 315.324ZM1.2212 259.091C1.225 259.155 1.21753 260.742 1.21314 260.802C1.10118 262.221 1.12412 257.458 1.2212 259.091ZM8.10445 298.265C8.88263 299.372 9.76327 300.411 9.96398 300.833C9.4147 300.169 7.9386 298.187 8.10445 298.265ZM58.9928 315.302C58.7443 315.154 62.3682 315.25 63.0527 315.263C62.7992 315.329 59.1751 315.409 58.9928 315.302ZM311.264 315.097C313.48 315.106 313.012 314.881 314.419 314.983C314.648 315 315.39 315.467 312.955 315.292C312.517 315.261 314.231 315.15 311.264 315.097ZM189.113 315.322C189.676 315.224 191.437 315.253 192.627 315.261C192.361 315.334 189.959 315.315 189.113 315.322ZM1.23731 44.308C1.37574 43.2689 1.27305 38.4678 1.18158 39.6558C1.16965 39.8248 1.24254 43.6345 1.23731 44.308ZM1.18293 202.033C1.29193 204.009 1.3257 199.917 1.21918 198.626C1.22616 199.21 1.17575 201.9 1.18293 202.033ZM46.4061 315.222C46.501 315.217 48.5955 315.228 48.6892 315.233C50.4058 315.347 44.4792 315.318 46.4061 315.222ZM2.53612 285.498C2.73041 286.326 4.47854 291.583 5.03388 292.712C4.21297 291.754 2.05284 284.531 2.53612 285.498ZM302.148 315.161C303.728 315.156 305.228 315.184 306.68 315.222C306.375 315.298 302.315 315.217 302.148 315.161ZM54.0954 315.212C54.2077 315.213 54.3169 315.221 54.4241 315.222C54.3122 315.219 54.2025 315.216 54.0954 315.212ZM266.77 315.108C265.445 315.078 265.72 315.216 265.802 315.22C266.799 315.265 268.27 315.141 266.77 315.108ZM1.29841 56.472C1.4233 56.0128 1.32643 53.785 1.35615 52.5034C1.25752 52.8752 1.28531 55.4397 1.29841 56.472ZM158.708 315.214C157.044 315.078 163.815 314.921 165.241 315.008C165.347 315.092 158.952 315.232 158.708 315.214ZM1.37025 195.899C1.46811 195.766 1.35001 192.923 1.30378 193.527C1.27436 193.91 1.30945 195.978 1.37025 195.899ZM168.646 315.065C169.282 315.035 170.765 315.132 170.243 315.191C169.573 315.266 168.482 315.074 168.646 315.065ZM225.722 314.987C225.444 314.972 221.704 315.072 223.249 315.172C224.321 315.241 224.492 315.1 224.744 315.1C225.026 315.1 231.031 315.273 225.722 314.987ZM120.786 315.128C122.197 315.091 123.904 315.134 125.381 315.132C124.779 315.192 121.387 315.209 120.786 315.128ZM1.39644 206.863C1.43601 206.52 1.45985 197.183 1.33802 202.487C1.33114 202.796 1.27658 207.904 1.39644 206.863ZM311.264 315.097C310.985 315.096 310.662 315.091 310.289 315.081C310.66 315.085 310.983 315.092 311.264 315.097ZM286.101 315.082C286.611 315.011 284.042 314.992 283.283 315.03C283.05 315.117 286.031 315.092 286.101 315.082ZM125.493 315.032C126.344 314.992 127.889 315.035 128.942 315.03C128.764 315.097 125.861 315.1 125.493 315.032ZM65.7297 314.958C67.4197 314.997 69.4993 314.979 69.5313 314.898C69.5664 314.911 69.6484 314.924 69.7844 314.938C69.9218 314.951 71.7322 314.913 72.5188 314.941C77.2279 315.105 54.3341 315.038 67.6031 314.809C66.9787 314.858 66.3542 314.908 65.7297 314.958ZM1.61943 278.075C1.63717 277.598 1.60706 276.741 1.59133 276C1.56988 275.182 1.52261 274.536 1.50118 274.921C1.49293 275.071 1.48639 275.503 1.48424 276C1.47172 277.238 1.59448 278.815 1.61943 278.075ZM23.1344 310.791C22.8443 310.659 20.2683 309.294 20.189 309.276C21.5784 310.231 24.4053 311.507 23.1344 310.791ZM1.68044 270.496C1.69532 269.894 1.53631 269.125 1.52938 269.196C1.47133 269.808 1.59191 271.507 1.68044 270.496ZM306.675 314.668C305.779 314.623 302.924 314.738 302.302 314.843C302.186 314.823 301.874 314.796 301.302 314.764C301.304 314.764 301.306 314.764 301.308 314.764C300.536 314.722 277.457 314.676 292.937 314.878C293.422 314.884 292.76 314.79 294.733 314.807C294.863 314.808 294.928 314.885 295.33 314.889C296.257 314.897 301.19 314.945 302.182 314.883C302.19 314.898 302.254 314.911 302.391 314.924C303.607 315.035 307.37 314.704 306.675 314.668ZM28.482 312.968C27.9282 312.771 26.1813 312.149 25.9802 312.13C26.8137 312.538 29.7601 313.451 28.482 312.968ZM1.67507 206.573C1.73093 205.498 1.62651 202.772 1.571 203.596C1.53686 204.101 1.61095 207.813 1.67507 206.573ZM12.8014 303.311C17.7544 308.045 13.9869 304.435 14.82 305.077C14.1282 304.512 13.4546 303.923 12.8014 303.311ZM335.214 314.926C334.231 314.903 335.386 314.706 336.469 314.813C336.809 314.847 335.764 314.938 335.214 314.926ZM379.615 314.865C378.775 314.69 382.874 314.793 381.277 314.912C381.202 314.916 379.675 314.871 379.615 314.865ZM348.589 314.793C347.921 314.912 347.487 314.926 345.606 314.897C348.39 314.863 345.808 314.758 348.589 314.793ZM69.513 314.885C69.5239 314.89 69.5331 314.894 69.5313 314.898C69.5192 314.894 69.5139 314.89 69.513 314.885ZM1.64956 264.698C1.75006 263.926 1.74267 261.763 1.6415 262.407C1.63213 262.469 1.5753 264.382 1.64956 264.698ZM302.302 314.843C302.404 314.861 302.352 314.873 302.182 314.883C302.174 314.87 302.218 314.857 302.302 314.843ZM1.73301 276.349C1.61928 276.265 1.77958 279.915 1.84541 280.055C2.20396 282.127 1.68418 277.853 1.73301 276.349ZM1.78048 184.802C1.77266 184.632 1.57909 185.727 1.65493 186.399C1.71377 186.919 1.81027 185.438 1.78048 184.802ZM354.973 314.745C356.016 314.745 357.484 314.745 357.755 314.837C357.056 314.823 354.952 314.812 354.973 314.745ZM378.01 314.738C376.777 314.846 373.963 314.846 372.165 314.828C372.132 314.686 376.853 314.772 378.01 314.738ZM309.503 314.722C309.418 314.716 306.803 314.673 307.16 314.769C307.682 314.908 310.241 314.773 309.503 314.722ZM1.67776 189.88C1.74335 191.049 1.94492 188.358 1.78921 187.124C1.70948 186.491 1.66677 189.682 1.67776 189.88ZM1.78116 257.943C1.72604 256.4 1.62786 260.224 1.72744 260.758C1.73543 260.047 1.80067 258.491 1.78116 257.943ZM19.1136 308.16C14.9292 304.811 16.9847 306.918 17.7771 307.464C17.8869 307.545 19.2174 308.244 19.1136 308.16ZM1.81137 32.2431C1.77146 31.5548 1.6269 34.121 1.72207 34.4531C1.78163 34.6583 1.8368 32.6833 1.81137 32.2431ZM93.1783 314.805C92.9731 314.806 92.7694 314.807 92.5678 314.807C92.719 314.803 92.9178 314.801 93.1783 314.805ZM2.16587 243.937C1.76036 247.359 2.07291 247 2.07121 247.297C2.06684 247.94 1.95719 249.434 1.97519 250.645C1.92954 249.258 1.88388 247.87 1.83823 246.483C1.80895 247.579 1.65967 257.099 1.72543 257.298C1.81907 257.584 1.78969 254.589 1.79794 254.501C1.80969 254.376 2.07003 253.908 2.07993 253.63C2.09576 253.173 2.10116 245.212 2.16587 243.937ZM10.7683 300.717C11.2988 301.399 11.3889 301.648 11.6749 301.932C11.7732 302.027 11.8596 301.979 12.195 302.304C11.7051 301.788 11.2296 301.259 10.7683 300.717ZM1.8013 237.808C1.92152 236.839 1.87586 241.183 1.8624 241.322C1.78091 242.065 1.70309 238.599 1.8013 237.808ZM1.81875 274.67C1.82577 274.512 1.86331 271.176 1.7966 271.203C1.74574 272.085 1.73093 276.545 1.81875 274.67ZM12.595 302.718C13.4634 303.676 15.2271 305.38 15.1188 305.077C15.1173 305.076 15.1159 305.075 15.1145 305.073C14.2408 304.327 13.3997 303.54 12.595 302.718ZM1.99064 193.882C2.22658 191.71 1.92844 192.739 1.85232 194.662C1.95825 195.245 1.95224 194.238 1.99064 193.882ZM2.16655 186.931C2.209 186.327 2.16248 180.1 2.03763 181.05C1.99314 181.388 2.10535 184.969 2.09672 185.133C2.08393 185.384 1.94581 184.241 1.97318 186.151C2.01998 186.039 2.15236 187.138 2.16655 186.931ZM2.1417 192.084C2.32114 189.926 1.99019 189.441 1.98929 191.064C1.98871 191.698 2.11581 192.392 2.1417 192.084ZM2.1135 200.901C2.14489 200.124 2.19067 198.055 2.08061 196.63C2.07121 198.538 2.06181 200.446 2.05241 202.354C2.11476 202.574 2.08592 201.58 2.1135 200.896C2.1135 200.897 2.1135 200.899 2.1135 200.901ZM390.98 313.89C389.265 313.796 393.216 313.76 393.383 313.784C393.879 313.86 391.747 313.932 390.98 313.89ZM4.81795 18.8476C4.85536 18.3711 4.97845 18.0595 4.91396 17.0107C4.8231 18.0657 4.73224 19.1207 4.64137 20.1756C4.84957 20.9955 4.77669 19.3684 4.81795 18.8476ZM5.57866 14.819C5.58371 14.968 5.90385 14.154 5.69012 16.0792C5.5458 17.3801 5.40515 10.3061 5.54711 9.02922C5.61307 10.4401 5.53756 13.5362 5.57866 14.819ZM6.96446 2.42798C6.98999 2.34642 7.02744 5.03397 7.00944 5.34505C6.91457 6.97847 6.82768 2.86927 6.96446 2.42798ZM6.90336 11.0018C6.96553 9.74135 7.00561 12.5335 6.96983 13.3657C6.91024 13.4464 6.8943 11.1965 6.90336 11.0018ZM373.613 309.254C372.25 309.036 371.03 309.504 373.128 309.41C373.228 309.406 373.672 309.264 373.613 309.254ZM7.28741 5.05543C7.22524 6.31584 7.18516 3.52364 7.22094 2.69151C7.28046 2.61412 7.2965 4.86352 7.28741 5.05543ZM372.653 308.735C370.842 308.579 371.48 309.104 371.706 309.125C372.638 309.209 375.836 309.003 376.489 308.951C371.703 309.03 373.506 308.809 372.653 308.735ZM364.299 309.051C362.618 309.107 366.913 309.214 367.732 309.068C366.897 309.075 364.777 309.035 364.299 309.051ZM354.099 308.882C353.196 308.863 350.508 308.818 350.058 308.901C351.044 308.886 353.718 308.967 354.099 308.882ZM352.054 308.635C350.641 308.522 350.303 308.849 351.931 308.752C351.994 308.748 352.106 308.641 352.054 308.635ZM344.114 308.516C343.187 308.386 342.13 308.703 343.631 308.712C344.077 308.714 344.212 308.531 344.114 308.516ZM370.386 308.17C369.059 308.114 367.35 308.341 370.182 308.366C369.187 308.401 368.192 308.435 367.197 308.47C370.908 308.597 370.636 308.282 371.701 308.295C373.19 308.314 373.072 308.574 372.773 308.655C373.994 308.496 379.18 308.494 382.177 308.463C379.543 308.396 375.268 308.281 372.669 308.238C371.927 308.226 371.206 308.297 370.574 308.289C369.559 308.276 370.46 308.174 370.391 308.17C370.389 308.17 370.388 308.17 370.386 308.17ZM333.677 308.512C330.954 308.364 332.676 308.683 334.215 308.626C334.281 308.621 333.745 308.515 333.677 308.512ZM8.25491 1.44432C8.12183 5.0827 7.94545 2.43805 8.21328 10.0494C8.02368 6.8517 8.07693 9.87256 8.00045 9.24839C7.93994 8.74766 7.99005 6.87147 7.86818 7.96206C8.00082 6.52856 7.96414 0.304991 7.98568 0.0275329C7.98568 0.0301421 7.98568 0.0327512 7.98568 0.0353604C7.99844 -0.131283 8.29723 0.28332 8.25491 1.44432ZM354.086 308.05C353.178 307.663 352.822 308.277 351.036 307.956C348.659 308.421 357.603 307.956 358.686 308.349C348.972 308.304 365.104 308.738 358.324 308.15C363.91 308.364 360.154 308.078 361.016 308.003C361.939 307.923 365.098 308.01 364.938 307.866C364.936 307.866 364.934 307.866 364.933 307.866C363 307.876 361.068 307.886 359.135 307.896C361.027 308.206 357.077 308.113 355.738 307.86C355.187 307.923 354.637 307.987 354.086 308.05ZM365.024 308.341C364.834 308.334 360.63 308.378 360.901 308.44C361.463 308.48 367.428 308.432 365.024 308.341ZM383.523 308.273C382.014 308.273 379.68 308.212 378.858 308.329C380.367 308.33 382.701 308.39 383.523 308.273ZM305.809 308.251C303.885 308.347 309.808 308.376 308.094 308.262C308.01 308.257 305.903 308.247 305.809 308.251ZM349.711 308.108C347.755 307.99 348.679 308.366 350.128 308.268C350.212 308.262 349.801 308.113 349.711 308.108ZM8.30057 4.3927C8.39264 4.52353 8.32797 9.80248 8.32877 10.7382C8.24319 10.2066 8.19502 4.2426 8.30057 4.3927ZM386.179 307.929C383.176 307.598 379.101 307.98 378.654 307.972C378.21 307.963 378.907 307.819 378.806 307.815C378.575 307.807 373.842 307.819 373.613 307.829C373.45 307.837 374.306 308.04 373.329 308.104C375.234 307.989 383.886 308.061 384.335 308.038C384.682 308.02 382.061 307.807 386.174 307.929C386.176 307.929 386.177 307.929 386.179 307.929ZM377.538 307.928C378.72 308.013 375.404 308.023 374.602 307.992C372.82 307.922 377.386 307.917 377.538 307.928ZM369.564 307.849C369.185 307.83 365.768 307.812 365.478 307.907C367.095 308.03 370.423 307.893 369.564 307.849ZM331.543 307.862C330.656 307.874 328.215 307.801 328.075 307.884C328.964 307.872 331.404 307.945 331.543 307.862ZM9.02435 22.4039C9.09374 20.9296 9.12209 24.3454 9.08881 25.3418C9.03349 25.3959 9.01839 22.5294 9.02435 22.4039ZM349.379 307.315C348.854 307.29 338.134 307.353 336.631 307.392C338.102 307.454 348.725 307.459 349.207 307.429C349.348 307.419 349.446 307.319 349.379 307.315ZM372.562 307.277C373.545 307.155 374.186 307.301 374.31 307.303C375.525 307.322 378.046 307.294 377.493 307.412C375.348 307.364 370.605 307.519 372.562 307.277ZM330.781 307.309C327.141 307.354 334.133 307.483 333.215 307.355C333.156 307.348 331.157 307.304 330.781 307.309ZM350.577 307.28C351.38 307.181 362.102 307.266 363.824 307.266C362.282 307.448 361.039 307.31 358.968 307.319C358.409 307.322 358.558 307.398 358.498 307.398C357.531 307.401 358.255 307.314 357.658 307.312C357.281 307.312 349.447 307.419 350.577 307.28ZM373.123 307.192C373.722 307.122 380.417 307.092 380.687 307.111C382.702 307.249 373.643 307.217 373.123 307.192ZM349.593 307.118C350.746 306.906 356.071 307.048 352.427 307.153C352.079 307.163 350.605 307.071 349.593 307.118ZM331.17 307.108C330.991 307.102 327.196 307.059 327.128 307.127C327.676 307.153 333.208 307.176 331.17 307.108ZM333.137 306.88C333.046 306.882 333.935 307.011 332.156 306.995C332.008 306.993 331.731 306.848 329.495 306.901C329.041 306.912 328.338 307.008 328.388 307.014C330.717 307.243 337.732 306.805 333.137 306.88ZM373.246 307.074C372.885 307.013 373.755 306.83 374.54 306.922C374.876 306.962 374.248 307.072 373.246 307.074ZM319.136 307.049C321.342 306.938 314.417 306.917 314.064 306.945C314.286 307.014 318.916 307.059 319.136 307.049ZM9.87973 25.8558C9.87973 25.8541 9.87973 25.8524 9.87973 25.8506C9.85462 27.7063 9.76244 26.5569 9.75955 26.6438C9.62415 30.5966 9.83293 29.5481 9.85757 30.1662C9.91086 31.4916 9.65697 31.2781 9.76223 33.5138C9.60678 29.8182 9.67195 33.1821 9.58162 33.2868C9.21301 33.701 9.75423 28.3664 9.67696 26.5238C9.66626 26.2671 9.54862 28.1626 9.51515 27.5048C9.40671 25.3662 9.97574 18.7352 9.87973 25.8558ZM375.145 306.906C376.006 306.798 382.536 306.903 380.804 306.992C380.526 307.007 373.88 307.064 375.145 306.906ZM70.1053 306.746C71.6747 306.653 68.0375 306.543 67.3631 306.616C67.0285 306.652 69.416 306.788 70.1053 306.746ZM44.6032 306.346C42.7383 306.365 40.7724 306.755 43.0925 306.695C43.339 306.688 44.8169 306.4 44.6032 306.346ZM167.057 306.546C165.11 306.407 165.226 306.666 166.656 306.663C167.16 306.661 167.119 306.551 167.057 306.546ZM92.7374 306.58C92.5424 306.571 90.2913 306.587 90.3735 306.647C91.2056 306.683 93.9978 306.642 92.7374 306.58ZM167.676 306.509C166.521 306.556 168.508 306.744 169.92 306.561C169.203 306.576 167.795 306.505 167.676 306.509ZM345.57 306.544C344.603 306.651 341.868 306.619 340.297 306.637C340.127 306.499 344.447 306.569 345.57 306.544ZM52.5194 306.503C50.754 306.6 54.5362 306.68 54.1893 306.551C54.1411 306.544 52.589 306.499 52.5194 306.503ZM229.881 306.495C228.598 306.578 232.673 306.688 231.551 306.544C231.496 306.538 229.952 306.491 229.881 306.495ZM247.673 306.543C246.7 306.515 242.548 306.524 244.164 306.604C244.415 306.617 247.6 306.618 247.673 306.543ZM9.95694 30.2758C10.0987 29.7512 10.065 32.7961 10.0402 33.232C10.0299 33.4032 9.77247 30.96 9.95694 30.2758ZM154.411 306.524C153.403 306.542 150.79 306.508 150.33 306.583C151.562 306.567 154.742 306.672 154.411 306.524ZM60.5688 306.502C59.0315 306.348 56.4048 306.363 57.0542 306.565C59.9556 306.551 56.6956 306.384 60.5688 306.502ZM174.165 306.344C173.357 306.332 172.738 306.525 172.829 306.534C173.704 306.621 174.968 306.419 174.165 306.344ZM113.535 306.503C113.489 306.42 110.899 306.458 111.244 306.511C111.358 306.529 113.573 306.57 113.535 306.503ZM311.651 306.497C310.464 306.422 314.088 306.348 315.16 306.436C315.681 306.563 311.8 306.506 311.651 306.497ZM196.57 306.392C196.69 306.269 192.642 306.339 194.237 306.44C194.637 306.466 196.528 306.433 196.57 306.392ZM235.324 306.245C232.609 306.391 244.011 306.495 241.015 306.313C240.801 306.3 235.561 306.233 235.324 306.245ZM253.946 306.336C253.477 306.32 253.711 305.908 255.65 306.067C255.904 306.088 254.714 306.197 254.922 306.221C255.044 306.236 259.26 306.294 259.454 306.284C259.663 306.273 259.417 306.141 259.629 306.126C259.867 306.11 262.462 306.226 263.822 306.227C266.383 306.229 266.659 306.119 266.869 306.119C267.481 306.118 268.509 306.196 269.75 306.196C276.001 306.195 285.563 306.102 290.519 306.335C286.108 306.241 281.906 306.341 277.517 306.371C278.802 306.142 271.061 306.548 275.589 306.283C273.504 306.341 255.481 306.387 253.951 306.336C253.949 306.336 253.948 306.336 253.946 306.336ZM37.6835 306.101C38.6707 306.115 33.6615 305.46 33.2205 305.404C33.8558 305.651 37.554 306.158 37.6835 306.101ZM64.3625 305.887C64.9085 305.863 65.4266 305.588 68.2893 305.727C68.292 305.727 68.2946 305.727 68.2972 305.727C69.1342 305.768 68.1804 305.835 68.3337 305.859C68.3896 305.869 71.0001 306.005 68.8321 306.027C65.5256 306.061 68.5207 305.823 66.7578 305.82C66.5422 305.82 63.2057 305.969 63.3997 306.001C63.4198 306.005 64.4237 305.974 64.5895 305.987C65.2157 306.038 64.9109 306.124 64.9992 306.128C65.288 306.139 70.5644 305.992 71.3316 306.12C71.581 306.161 62.9205 306.256 62.5831 306.235C62.3696 306.221 62.4596 305.983 62.2386 305.96C62.1249 305.948 58.6414 306.037 58.1892 306.015C58.0579 306.009 57.9575 306.002 57.8839 305.997C58.411 306.07 55.2563 306.065 55.353 305.982C55.4078 305.949 57.5792 305.968 57.6569 305.974C57.691 305.976 57.7206 305.979 57.7482 305.982C57.2986 305.892 64.6501 305.896 63.0631 305.762C65.1943 305.689 62.7608 305.958 64.3625 305.887ZM74.6062 305.74C74.3861 305.765 74.1661 305.79 73.9461 305.815C77.6768 305.754 81.9819 305.875 86.2797 305.874C87.3702 305.874 86.1156 305.72 87.5451 305.762C88.6903 305.796 89.9576 305.938 89.335 305.97C89.1831 305.978 86.8516 305.885 85.6848 305.894C82.2397 305.923 83.11 306.054 82.9086 306.058C82.6863 306.061 80.5181 305.969 79.334 305.973C76.357 305.984 74.9971 306.064 70.9298 305.959C73.2772 305.872 71.9913 305.684 74.6062 305.74ZM213.668 306.02C213.81 305.937 216.251 306.011 217.138 305.999C216.999 306.081 214.555 306.008 213.668 306.02ZM10.5874 140.334C10.4516 139.584 10.418 145.204 10.531 143.723C10.5561 143.395 10.5864 141.04 10.5874 140.334ZM10.5048 165.583C10.5424 166.335 10.6401 163.307 10.535 163.313C10.5013 163.317 10.4999 165.486 10.5048 165.583ZM122.832 305.874C122.974 305.869 125.042 305.9 125.107 305.907C126.477 306.051 119.67 305.967 122.832 305.874ZM10.672 196.277C10.583 193.657 10.5444 201.545 10.6579 199.134C10.6634 199.014 10.6763 196.403 10.672 196.277ZM10.6968 207.241C10.6921 206.613 10.7363 203.823 10.6948 203.787C10.628 203.731 10.5823 206.924 10.6968 207.241ZM174.71 305.831C174.407 305.678 178.086 305.794 179.365 305.774C179.669 305.927 175.989 305.811 174.71 305.831ZM151.491 305.718C166.999 305.597 163.58 305.924 150.567 305.792C150.549 305.694 150.512 305.725 151.491 305.718ZM171.349 305.736C170.786 305.834 169.025 305.805 167.835 305.797C168.049 305.729 170.491 305.754 171.349 305.736ZM10.7975 133.641C10.9214 134.614 10.7687 138.921 10.7177 138.155C10.7066 137.977 10.7295 133.284 10.7975 133.641ZM124.131 305.743C123.77 305.594 128.427 305.655 128.783 305.688C130.22 305.821 124.508 305.71 124.131 305.743ZM196.721 305.7C197.543 305.583 199.879 305.643 201.381 305.645C200.697 305.744 197.996 305.702 196.721 305.7ZM185.877 305.608C185.972 305.604 188.067 305.615 188.16 305.62C189.877 305.734 183.951 305.705 185.877 305.608ZM10.999 23.2832C11.0027 23.353 10.9953 24.9395 10.9909 24.9948C10.879 26.4109 10.9019 21.6492 10.999 23.2832Z" fill="#0B2E42"/>
</svg>
