<svg width="112" height="287" viewBox="0 0 112 287" fill="none" xmlns="http://www.w3.org/2000/svg">
<path d="M0.0878534 28.86C0.101806 29.0908 0.0678697 30.0191 0.0737538 30.4209C-0.0738034 29.9654 0.0371909 28.0276 0.0878534 28.86ZM10.8029 70.0794C10.7664 69.746 10.73 69.4125 10.6935 69.0791C10.6698 70.0266 10.6966 71.3002 10.6619 72.1795C10.6561 72.3232 10.5505 71.9502 10.5458 72.2904C10.5411 72.6308 10.6854 72.5652 10.7009 73.0602C10.7177 73.6154 10.6172 76.1579 10.6196 77.0384C10.6294 80.3315 10.7118 83.653 10.6519 86.9527C10.5451 83.5461 10.4364 86.9789 10.4827 87.933C10.4934 88.1444 10.7617 88.1107 10.6942 91.5285C10.6513 93.7006 10.2676 91.6944 10.4598 95.3189C10.7282 92.5318 10.7094 95.2726 10.7183 97.4574C10.7199 97.8341 10.6796 100.876 10.6915 102.22C10.6956 102.679 10.8362 103.38 10.8398 103.99C10.8423 104.409 10.7654 104.727 10.7694 105.35C10.7867 108.255 10.7926 111.112 10.7667 114.022C10.4055 112.321 10.6127 115.357 10.5955 115.493C10.4974 116.187 10.4695 113.051 10.4081 114.291C10.4193 116.024 10.4305 117.757 10.4417 119.49C10.4861 118.068 10.7459 121.373 10.6277 121.981C10.9469 121.713 10.3499 129.88 10.4565 131.123C10.479 131.382 10.6367 129.687 10.5646 133.619C10.5566 134.044 10.4603 133.883 10.4692 134.107C10.4746 134.24 10.7807 135.05 10.6116 135.912C10.5498 136.227 10.3488 134.212 10.4296 138.637C10.7411 136.875 10.5983 144.772 10.5203 146.225C10.5621 145.935 10.604 145.644 10.6458 145.354C10.5329 146.79 10.6388 147.05 10.6331 147.373C10.6099 148.677 10.5031 150.47 10.5129 151.684C10.5241 153.106 10.7178 153.11 10.6425 154.768C10.6852 154.374 10.7279 153.981 10.7707 153.588C10.7604 154.732 10.7501 155.877 10.7398 157.021C10.4834 154.371 10.7276 157.593 10.7331 157.805C10.7424 158.144 10.6374 157.657 10.6505 158.224C10.6527 158.282 10.7515 158.198 10.7626 159.07C10.7855 160.894 10.6612 160.605 10.6626 161.371C10.6632 161.441 10.7523 161.195 10.7734 162.518C10.8405 166.72 10.7051 162.497 10.6928 162.336C10.6766 162.124 10.3043 163.565 10.4363 159.995C10.3943 161.194 10.2296 161.314 10.2255 161.449C10.2221 161.569 10.2453 163.645 10.251 163.76C10.307 164.781 10.4195 163.882 10.4397 164.081C10.4559 164.244 10.3093 166.746 10.6478 167.333C10.3355 168.53 10.3641 166.644 10.3161 164.636C10.2521 164.343 10.1898 166.548 10.1899 166.664C10.1905 169.507 10.4474 167.933 10.6116 168.555C10.6975 168.881 10.5222 170.04 10.7526 168.97C10.7769 171.551 10.6434 169.986 10.6237 170.153C10.5946 170.404 10.6606 171.307 10.6519 171.42C10.6388 171.586 10.5591 171.009 10.531 171.664C10.5269 171.772 10.6641 172.826 10.7297 171.467C10.7102 173.283 10.8272 173.134 10.5914 173.749C11.0376 175 10.3277 174.657 10.3027 175.15C10.2368 176.459 10.5871 176.079 10.6042 176.148C10.7136 176.625 10.5933 180.25 10.6438 181.148C10.3915 180.794 10.641 178.274 10.5921 177.711C10.4293 175.832 10.466 180.358 10.149 178.994C10.236 179.566 10.3231 180.138 10.4101 180.71C10.2063 181.759 10.1175 180.271 10.1919 183.093C10.3679 183.555 10.1641 181.098 10.3027 181.591C10.384 181.881 10.4015 183.518 10.4444 183.55C10.496 183.582 10.4348 182.103 10.5142 182.336C10.6855 182.845 10.5224 188.24 10.4289 184.133C10.4319 185.279 10.0911 185.869 10.1973 186.862C10.2662 187.505 10.7368 183.891 10.6505 189.312C10.4896 189.428 10.603 187.145 10.5908 187.086C10.5729 187.002 10.2099 187.415 10.1919 187.487C10.1329 187.74 10.3274 193.276 10.1449 194.446C10.3548 193.983 10.1824 198.63 10.2463 199.136C10.264 199.27 10.3925 198.767 10.4061 198.911C10.4871 199.809 10.2576 202.24 10.2517 203.367C10.245 204.629 10.356 204.469 10.3558 204.54C10.3496 205.095 10.2743 204.651 10.2745 204.991C10.2749 205.503 10.2595 209.027 10.2752 209.204C10.2801 209.255 10.4069 208.68 10.431 209.448C10.4351 209.581 10.2848 209.497 10.3497 211.772C10.4278 214.511 10.5367 209.869 10.6942 211.008C10.47 212.767 10.6921 212.71 10.6747 213.187C10.6683 213.353 10.4794 214.582 10.4914 215.918C10.4607 214.959 10.4301 214.001 10.3994 213.042C10.3663 213.985 10.4073 215.815 10.3699 216.591C10.3516 216.97 10.1965 216.658 10.2007 217.48C10.2024 217.655 10.5804 218.348 10.4108 216.192C10.5458 216.02 10.4579 217.046 10.4961 217.521C10.502 217.593 10.7276 217.877 10.5874 218.485C10.5529 218.63 9.89506 217.042 10.3712 221.138C10.3865 221.27 10.4689 220.812 10.486 220.94C10.4976 221.029 10.4643 222.074 10.4759 222.19C10.4885 222.308 10.5784 221.803 10.5961 221.944C10.6873 222.665 10.3306 223.611 10.3578 222.124C10.3137 222.621 10.2696 223.118 10.2255 223.615C10.4944 223.083 10.3012 224.396 10.3094 225.084C10.3623 229.491 10.5372 226.54 10.6277 227.298C10.7729 228.517 10.3129 227.586 10.4511 229.395C10.464 229.562 10.6593 227.375 10.5491 231.646C10.5415 231.016 10.5339 230.385 10.5263 229.755C10.2663 230.118 10.5441 232.031 10.5478 232.178C10.5835 233.855 10.4897 232.721 10.6237 235.211C10.6357 235.434 10.5715 235.918 10.6035 236.394C10.7354 238.365 10.6835 233.793 10.7888 233.668C10.8404 233.608 10.8274 238.526 10.8029 238.695C10.6943 239.411 10.7551 236.465 10.6203 237.027C10.5724 237.232 10.6707 244.24 10.6183 245.646C10.5975 246.199 10.543 246.648 10.4956 247C10.4049 247.591 10.3526 247.87 10.6131 247.868C10.2354 248.273 10.519 248.611 10.5268 248.789C10.6527 250.939 10.6664 250.949 11.0222 252.76C11.107 253.155 11.0669 253.52 11.1181 253.656C11.1487 253.735 11.2357 253.556 11.3669 253.945C11.4972 254.498 12.4235 257.788 12.4999 258.041C12.5206 258.308 11.9627 256.692 11.9635 257.016C12.3641 258.191 12.8527 259.279 13.3951 260.404C13.6227 260.87 13.4318 260.668 13.5324 260.869C13.5637 260.961 14.5021 262.495 14.498 262.408C14.3556 262.276 11.9982 257.284 12.7426 258.547C12.8697 258.795 13.1082 259.774 13.249 259.536C15.2496 264.012 18.387 268.001 22.2892 271.024C19.9156 269.446 17.739 267.029 16.003 264.625C15.7552 264.301 15.0153 263.14 15.0141 263.339C16.3431 265.504 18.4546 267.875 20.2315 269.544C20.2881 269.598 20.0059 269.482 20.2133 269.69C20.5944 270.092 22.0855 271.085 22.3057 271.288C22.3394 271.33 21.4533 270.814 21.6446 271.071C22.1422 271.735 22.5987 271.464 23.1475 271.86C23.5404 272.204 26.4691 274.23 27.3617 274.428C28.2608 274.713 25.0875 273.16 25.3989 273.141C27.5182 274.221 29.6841 275.291 31.8474 275.917C31.8851 275.927 31.5864 275.733 32.0688 275.861C32.9104 276.076 33.0985 276.264 33.5059 276.387C33.945 276.529 35.5412 276.81 35.7518 276.886C35.7784 276.897 35.4288 276.985 35.3783 276.98C34.6649 276.918 34.4561 276.68 34.3938 276.666C34.1575 276.61 33.9092 276.629 33.6942 276.576C33.3401 276.486 33.163 276.377 32.6997 276.249C32.3805 276.159 32.6567 276.365 32.3492 276.274C32.2309 276.246 31.1125 275.604 30.9102 275.84C30.811 276.013 37.2003 277.759 40.4851 277.539C41.4296 277.538 42.1319 277.531 42.3785 277.516C41.7422 277.494 41.111 277.473 40.4851 277.451C40.1392 277.437 39.7953 277.418 39.4535 277.393C39.7878 277.42 40.137 277.431 40.4851 277.431C42.2238 277.429 43.9157 277.326 44.0612 277.609C51.7803 277.637 59.5085 277.666 67.2276 277.694C68.607 277.724 67.8512 277.947 70.1192 277.882C69.5323 277.811 68.9472 277.74 68.3613 277.669C69.522 277.719 74.6752 277.816 75.5097 277.77C75.6177 277.764 75.767 277.562 77.0547 277.544C78.1977 277.529 78.3803 277.681 78.9913 277.71C79.504 277.734 80.0801 277.694 80.2322 277.702C80.349 277.709 80.3952 277.802 80.6761 277.818C81.5631 277.868 80.8442 277.607 81.7248 277.906C81.5104 277.918 81.296 277.929 81.0816 277.941C82.1521 277.984 83.6149 278.12 82.0378 278.187C81.7667 278.199 81.9995 278.109 81.7973 278.109C73.8791 278.126 80.2021 278.3 82.977 278.161C83.6898 278.294 87.683 278.212 87.8166 278.239C88.0011 278.277 87.3177 278.383 88.2135 278.474C88.4001 278.494 93.743 278.419 91.8189 278.596C91.422 278.632 88.8611 278.594 88.2448 278.599C89.6962 278.881 93.1025 278.477 93.4835 278.488C95.0258 278.532 90.5193 278.732 93.9958 278.764C96.6721 278.789 94.1601 278.602 95.1889 278.521C95.7648 278.476 98.7919 278.683 98.7116 278.415C99.7521 278.387 99.143 278.529 99.2715 278.539C99.3966 278.548 101.44 278.467 102.103 278.524C102.183 278.531 101.93 278.67 102.013 278.682C102.173 278.701 104.147 278.673 104.225 278.662C104.275 278.653 103.806 278.531 103.999 278.502C104.222 278.468 106.12 278.496 106.224 278.462C106.373 278.409 104.029 278.444 104.421 278.307C105.5 278.341 107.253 278.25 107.97 278.141C107.795 278.172 106.748 278.177 106.386 278.165C106.554 277.966 108.805 277.968 108.036 278.127C108.524 278.042 108.191 277.997 108.465 277.916C108.538 277.896 109.229 277.892 109.362 277.857C109.379 277.85 108.666 277.775 108.809 277.734C109.063 277.661 111.175 277.678 111.342 277.697C111.825 277.751 110.116 277.817 109.97 277.902C109.951 277.915 111.408 278.08 111.428 278.094C111.515 278.251 109.894 278.138 110.079 278.279C110.481 278.309 110.881 278.338 111.281 278.368C109.737 278.511 106.866 278.438 106.133 278.6C108.427 278.552 110.831 278.557 110.824 278.923C110.823 279.077 109.833 279.167 109.871 279.206C110.018 279.346 111.39 279.194 111.439 279.201C111.481 279.21 111.5 279.218 111.5 279.226C111.5 279.226 111.5 279.226 111.5 279.226C111.502 279.308 109.544 279.367 109.443 279.405C109.278 279.471 110.153 279.745 110.151 279.806C110.121 279.818 108.724 279.883 109.195 279.988C109.672 280.095 110.895 280.097 110.936 280.109C111.173 280.172 109.028 280.231 108.969 280.268C108.934 280.287 110.084 280.405 110.117 280.438C110.147 280.472 109.269 280.546 108.93 280.652C108.674 280.732 109.417 280.792 109.287 280.805C109.196 280.813 107.176 280.812 107.076 280.826C106.928 280.846 107.401 280.941 107.332 280.965C107.232 280.999 106.585 280.964 106.669 280.999C106.728 281.026 109.262 281.352 109.241 281.439C109.215 281.588 106.54 281.246 109.027 281.833C109.044 281.837 109.65 281.795 109.668 281.798C110.043 281.906 108.094 282.073 110.476 282.044C106.057 282.231 109.924 282.267 109.27 282.518C109.02 282.614 107.306 282.654 107.296 282.668C107.464 282.79 108.011 282.695 108.196 282.755C108.3 282.789 106.762 282.918 107.108 283.002C107.288 283.045 108.917 283.029 108.982 283.038C109.623 283.117 108.837 283.203 108.978 283.259C109.069 283.297 110.055 283.3 110.08 283.307C110.121 283.321 108.787 283.474 108.511 283.528C108.3 283.569 109.091 283.634 108.944 283.652C108.061 283.76 106.163 283.485 107.989 283.87C108.1 283.894 108.788 283.885 108.808 283.889C109.232 283.999 107.967 284.008 107.739 284.097C107.349 284.251 109.173 284.166 107.656 284.274C108.795 284.375 109.425 284.371 110.756 284.342C107.075 284.421 105.775 284.82 109.862 284.81C108.559 284.804 108.708 285.029 108.319 285.033C108.077 285.035 106.191 284.811 107.055 285.313C107.162 285.376 108.311 285.296 107.951 285.425C105.201 285.392 107.891 285.507 107.896 285.523C107.858 285.819 101.146 285.577 99.9896 285.611C98.6513 285.65 97.4603 285.883 97.1698 285.883C96.2116 285.883 97.0068 285.765 96.7926 285.722C96.5731 285.678 93.8533 285.905 93.715 285.893C93.1885 285.843 93.7229 285.702 93.6682 285.695C93.0176 285.609 89.3572 285.719 88.3345 285.687C88.3657 285.778 90.4222 285.785 89.1378 285.931C87.6446 286.101 87.558 285.7 87.5191 285.683C80.6708 285.686 73.8224 285.69 66.9744 285.694C67.059 285.907 71.5392 285.746 71.6388 285.775C72.2398 285.941 64.6715 285.938 63.7467 285.863C64.4517 285.909 65.1541 285.955 65.8608 286.001C64.6545 286.246 61.9981 285.927 60.2523 286.036C59.6907 286.071 60.7693 286.166 60.7473 286.172C60.1145 286.267 59.1047 286.194 59.8604 286.066C58.3175 286.189 58.5398 286.053 57.3599 286.043C57.2981 286.043 57.8089 286.142 56.8692 286.183C56.428 286.202 54.0889 286.202 53.7748 286.289C53.6453 286.325 54.834 286.709 54.9822 286.379C57.5239 286.54 55.7939 286.228 56.7836 286.236C56.9357 286.238 56.5865 286.422 59.0776 286.335C58.6018 286.668 55.7319 286.419 55.2438 286.459C54.2303 286.542 58.4051 286.714 59.1747 286.455C58.8152 286.714 59.4728 286.49 60.4016 286.5C61.4214 286.512 60.977 286.589 61.5299 286.59C63.0373 286.592 62.411 286.408 63.6568 286.574C62.4434 286.062 65.7859 286.506 66.7598 286.64C65.1751 286.666 63.5891 286.692 62.0063 286.718C62.0967 286.745 62.1871 286.772 62.2775 286.798C61.8616 286.795 61.4434 286.791 61.0251 286.787C61.092 286.761 61.159 286.736 61.2261 286.71C59.0747 286.877 58.5475 286.689 58.3723 286.687C56.1121 286.665 53.5087 286.667 51.2201 286.666C50.881 286.666 51.1073 286.833 48.6167 286.702C47.8161 286.661 48.5708 286.531 47.6658 286.55C46.5374 286.904 46.562 286.622 46.2231 286.621C45.2548 286.621 44.6715 286.709 44.5827 286.71C43.4298 286.723 41.7668 286.71 40.4851 286.721C40.4296 286.721 40.3746 286.721 40.3204 286.722C40.3103 286.722 40.4054 286.737 40.4851 286.754C40.57 286.775 40.6344 286.799 40.4851 286.804C40.4099 286.807 40.2874 286.806 40.0996 286.798C39.7498 286.793 36.7571 286.265 34.1405 285.968C34.8153 286.108 35.4872 286.231 36.1709 286.337C35.3576 286.317 29.78 285.256 31.1096 285.654C31.9248 285.946 34.024 286.031 34.2072 286.339C32.2498 286.331 22.3061 282.885 21.7511 282.129C21.6559 282.069 22.3127 282.309 22.1805 282.226C22.0705 282.178 19.9708 281.023 19.7293 280.81C19.5788 280.695 20.5119 281.191 20.4561 281.116C20.3891 281.08 17.9081 279.439 17.7165 279.413C18.3343 279.808 20.0514 280.942 19.0868 280.446C18.9617 280.382 18.4016 279.923 18.2544 279.839C16.8624 279.092 20.8024 281.651 21.4807 281.936C18.7855 280.688 15.1477 277.862 12.669 275.509C11.7469 274.479 14.2494 276.815 13.1768 275.68C11.0041 273.292 12.4668 275.173 12.3867 275.114C11.7207 274.626 10.3057 272.234 10.0147 272.48C9.31812 271.533 9.58502 271.809 8.54839 270.519C8.65502 270.71 8.76357 270.901 8.87377 271.092C7.51355 269.786 6.01116 266.124 6.22466 266.354C6.69674 266.977 7.61429 268.77 7.72397 268.906C7.88734 269.109 8.53996 269.491 9.98664 271.88C10.8703 272.616 7.48585 268.273 9.12896 270.174C7.94822 268.92 4.79316 262.728 4.4476 261.787C4.39282 261.68 4.33057 262.308 3.84196 260.648C3.61662 259.859 4.31621 261.702 4.24319 261.328C3.95046 260.579 1.40037 252.733 1.61062 247C1.59937 244.944 1.58731 243.248 1.58443 242.485C1.58413 242.312 1.66846 242.376 1.66769 242.206C1.66533 241.685 1.53957 239.786 1.57839 238.854C1.42229 240.786 1.41015 237.034 1.42732 236.079C1.45348 234.631 1.60188 234.72 1.63344 234.094C1.7551 231.682 1.40275 227.945 1.73214 226.071C1.40522 226.174 1.89243 222.83 1.8953 221.309C1.89764 220.118 1.6813 218.389 1.54952 219.997C1.56457 217.94 1.50358 215.776 1.48372 213.846C1.48039 213.527 1.57706 213.966 1.56832 213.422C1.56682 213.373 1.47209 213.305 1.46223 212.837C1.37966 208.98 1.58098 210.857 1.64016 210.135C1.6733 209.732 1.68978 209.434 1.69521 209.215C1.71373 211.463 1.75094 214.056 1.75363 214.75C1.96283 214.158 1.71345 209.767 1.76974 208.481C1.77179 208.436 1.88709 208.591 1.88791 208.546C1.88791 208.545 1.88791 208.544 1.88791 208.543C1.89674 208.061 1.85419 204.992 1.7167 205.624C1.67997 205.793 1.68004 207.206 1.69253 208.882C1.66674 208.428 1.53757 208.767 1.53206 208.687C1.46821 207.717 1.59428 205.339 1.61129 204.495C1.61502 204.303 1.53226 204.316 1.53206 204.285C1.55086 203.518 1.78716 203.832 1.54348 203.046C1.83797 201.656 1.5872 205.649 1.77847 205.368C1.92573 205.151 1.84664 196.283 1.61465 196.31C1.63946 196.279 1.67025 196.157 1.70529 195.907C1.78313 195.353 1.75878 192.884 1.71603 192.458C1.70761 192.386 1.48244 192.415 1.48036 192.326C1.47519 192.103 1.65173 189.086 1.51863 187.959C1.48708 188.568 1.45552 189.176 1.42396 189.785C1.42201 186.11 1.355 186.678 1.28767 187.902C1.28706 187.964 1.27851 188.023 1.2776 188.082C1.22781 189.031 1.17987 190.247 1.16211 190.266C1.09433 190.335 1.05661 184.101 1.26551 185.3C1.29406 185.467 1.20105 188.352 1.35011 186.923C1.37622 186.674 1.33368 184.821 1.35011 184.724C1.45934 184.073 1.60445 188.118 1.75967 187.624C1.61189 186.642 1.68972 185.382 1.65157 184.256C1.63433 183.743 1.52143 183.617 1.5193 183.554C1.48983 182.609 1.6082 183.14 1.60525 182.824C1.60321 182.655 1.35128 180.794 1.69857 181.145C1.4431 175.012 1.44335 179.449 1.46291 183.211C1.33642 182.022 1.3976 179.691 1.36824 178.645C1.35758 178.27 1.24169 178.493 1.21851 177.859C1.17084 176.554 1.30396 170.324 1.33534 168.701C1.37628 169.698 1.50251 169.407 1.49379 168.637C1.48501 167.868 1.31652 168.514 1.29841 168.364C1.27966 168.203 1.35918 164.594 1.33735 163.993C1.39838 166.711 1.52426 166.098 1.53743 163.791C1.57369 164.125 1.60995 164.458 1.6462 164.791C1.59525 163.44 1.78728 160.597 1.73013 159.816C1.72094 159.693 1.6151 160.134 1.60995 160.065C1.56497 159.379 1.67291 157.047 1.6368 156.939C1.60674 156.847 1.518 157.841 1.47432 157.472C1.46512 157.395 1.60819 156.436 1.57302 155.492C1.56008 155.141 1.45998 155.352 1.45418 155.264C1.40603 154.528 1.57459 154.963 1.5475 153.618C1.52746 152.633 1.36267 151.899 1.41725 150.537C1.20718 155.008 1.29492 151.25 1.23127 149.381C1.22111 149.081 1.0394 149.338 1.12787 147.548C1.45644 151.357 1.30154 146.462 1.30512 145.461C1.30624 145.406 1.42607 145.387 1.42799 144.896C1.42789 144.854 1.3469 144.914 1.34071 144.458C1.28216 140.129 1.37365 142.897 1.45351 142.075C1.48753 141.724 1.37302 139.619 1.37025 139.052C1.36997 138.922 1.45411 138.982 1.45082 138.478C1.44478 137.585 1.3552 136.786 1.34809 136.197C1.34768 136.128 1.48045 136.125 1.43739 135.009C1.42535 134.695 1.37821 134.342 1.34004 134.788C1.21448 136.267 1.43178 139.072 1.30647 140.743C1.19234 142.267 1.18158 137.461 1.18091 137.211C1.1805 137.12 1.24642 138.058 1.25947 137.105C1.27033 136.29 1.04101 134.802 1.09094 133.589C1.09465 133.496 1.28908 132.527 1.30042 132.571C1.30871 132.612 1.35091 134.101 1.40718 133.885C1.41359 133.859 1.41228 132.913 1.45418 132.789C1.50517 132.638 2.00561 132.23 2.01816 132.028C2.04916 131.509 1.93503 131.847 1.94297 131.511C1.95971 130.792 2.1077 128.297 1.93424 128.216C1.92394 128.628 1.91365 129.04 1.90335 129.453C1.88551 127.16 1.81167 128.137 1.77914 127.812C1.74395 127.462 1.89642 127.561 1.91074 126.788C1.91389 126.619 1.88206 123.385 1.81808 123.444C1.9199 125.233 1.73148 124.569 1.72811 124.652C1.71584 124.965 1.82153 125.366 1.81943 125.786C1.80288 128.743 1.63606 125.761 1.59316 126.459C1.57872 126.699 1.66895 127.178 1.66433 127.28C1.64939 127.611 1.53123 127.617 1.54079 127.838C1.56297 128.353 1.73016 127.751 1.73886 127.792C1.84348 128.253 1.7133 130.059 1.53139 128.935C1.46583 129.61 1.68692 129.689 1.59853 130.224C1.42351 131.288 1.46847 129.694 1.43941 129.262C1.33458 127.713 1.41943 127.253 1.39039 125.06C1.38015 124.271 1.27275 123.335 1.26685 122.969C1.26315 122.738 1.63681 120.559 1.052 120.494C1.10859 119.647 1.49396 118.318 1.47633 117.445C1.46026 116.662 1.25337 116.911 1.24537 116.838C1.23279 116.726 1.24909 115.778 1.21985 115.458C1.18531 115.082 1.10634 115.27 1.07416 114.674C0.99428 113.191 1.20546 113.23 1.21918 113.077C1.37781 111.308 1.07744 112.083 1.05334 111.69C1.0312 111.325 1.14682 106.203 1.0708 105.125C1.1131 105.564 1.1554 106.002 1.1977 106.441C1.32942 105.656 1.11457 104.824 1.35078 104.809C0.969425 104.65 1.22434 103.029 1.21448 102.543C1.21043 102.351 1.14544 102.366 1.14264 102.126C1.13125 101.188 1.18298 99.0731 1.15003 98.5644C1.00816 96.3643 0.772178 101.99 0.757923 102.433C0.76213 101.547 0.676719 96.5306 0.493387 98.8362C0.465101 99.1926 0.635759 99.824 0.64244 100.024C0.686379 101.379 0.533445 100.314 0.5189 100.42C0.495422 100.6 0.643266 101.492 0.625655 101.727C0.62001 101.806 0.481529 101.3 0.478615 102.592C0.344367 101.957 0.453743 98.3252 0.422217 97.8487C0.41096 97.679 0.124094 98.7429 0.402746 95.6348C0.376113 95.6709 0.349481 95.7069 0.322848 95.7429C0.311882 94.0123 0.300915 92.2817 0.289948 90.551C0.351307 90.7391 0.474552 91.7108 0.448402 90.487C0.433268 89.7824 0.2966 90.3037 0.292634 90.2394C0.255017 89.6071 0.300496 78.4161 0.285249 76.2473C0.2803 75.5096 0.170464 73.4532 0.168423 73.2964C0.157429 72.3588 0.22892 69.0386 0.213408 68.3762C0.203459 67.9627 0.0892096 68.3559 0.0945678 67.9864C0.0997071 67.6429 0.210132 67.9987 0.21475 67.8967C0.254765 67.0518 0.109933 60.6334 0.214079 59.1094C0.182814 60.0409 0.403435 64.6892 0.481301 64.5958C0.491978 64.5756 0.57598 63.4459 0.535014 63.2128C0.63062 62.8278 0.33953 61.5058 0.396703 60.7869C0.403196 60.7056 0.566476 61.0258 0.596113 59.7425C0.606239 59.3005 0.478966 58.143 0.621626 56.978C0.553079 55.2914 0.764832 46.4243 0.589398 45.8159C0.580136 45.7978 0.519728 47.0465 0.447731 46.2029C0.352031 45.0814 0.674388 46.0886 0.702196 44.7815C0.706426 44.5845 0.673804 40.9479 0.653854 40.8289C0.472937 39.7274 0.399602 42.9052 0.378575 42.8607C0.325615 42.7498 0.293574 40.1095 0.306063 40.0022C0.319056 39.9 0.558773 42.0534 0.467873 39.4658C0.439226 39.7622 0.410579 40.0586 0.381932 40.3551C0.326141 39.1381 0.491983 39.0221 0.502115 38.7273C0.53419 37.8109 0.282282 36.8194 0.593427 35.351C0.676002 34.9627 0.767697 35.6073 0.780079 35.5587C0.891219 35.0923 0.593908 34.4972 0.815664 33.7958C0.832204 33.743 0.965052 35.3753 0.965389 32.5224C0.944128 32.7187 0.922866 32.9151 0.901605 33.1114C0.854137 32.7091 0.82593 29.8206 0.83715 29.432C0.869946 28.2968 1.02257 29.2868 1.00433 28.1458C0.795166 28.8776 0.767869 25.4079 0.947933 25.6074C0.721782 25.1228 0.896237 22.1753 0.901605 20.7897C0.904825 19.9155 0.806137 18.1322 0.817678 17.8544C0.831823 17.5161 0.986099 17.6189 1.02045 17.0079C1.03024 16.8336 0.917147 15.0147 1.07684 13.4181C1.10762 13.1086 1.3693 12.4588 1.43471 13.0339C1.54663 14.0183 1.33581 15.8805 1.49043 15.8568C1.65585 15.8289 1.55747 13.3206 1.57906 12.6455C1.67891 9.52857 1.85475 11.3284 1.90805 11.2482C2.03741 11.0404 2.03339 9.33731 2.04502 9.26625C2.09668 8.97173 2.19905 10.1786 2.278 10.1968C2.38079 10.2188 2.5663 8.57718 2.60095 8.95038C2.65015 9.48459 2.49554 10.9932 2.50292 11.0889C2.60265 12.334 2.84012 10.6273 2.9568 10.1569C2.99269 10.0143 3.05168 10.5825 3.06221 10.4643C3.22195 8.65961 2.72845 10.0838 2.76142 8.88351C2.79079 7.81256 2.94685 9.19049 2.95546 9.14957C2.96491 9.0967 2.97342 7.81622 3.02864 7.61576C3.05629 7.51697 3.35984 10.8451 3.49594 10.7061C3.46595 9.64424 3.43596 8.58234 3.40597 7.52044C3.58343 7.43719 3.4528 8.96456 3.4711 9.12254C3.50781 9.44057 3.59762 8.55376 3.65372 8.59183C3.68941 8.61224 3.81675 9.65307 3.86925 8.71277C3.88738 8.3896 3.76295 7.71141 3.89006 6.53442C4.05241 10.6305 4.15216 7.79199 4.21502 7.67126C4.27788 7.55298 4.42583 9.5085 4.39966 7.13485C4.74502 7.03193 4.50883 7.18602 4.56953 7.86049C4.64414 8.68674 4.75786 6.77712 4.67158 9.79696C4.83328 9.62516 4.82184 7.1979 4.83474 7.0694C4.84643 6.95843 4.92596 7.49797 4.95291 7.30559C5.26534 5.03011 5.12267 6.59302 5.32218 5.93398C5.34001 5.87537 5.41398 3.72468 5.44304 5.362C5.49586 8.34495 5.26673 9.59163 5.75659 10.0929C5.96937 7.88652 5.65318 5.21316 5.64782 4.54246C5.6401 3.51585 5.74 4.57932 5.768 4.45282C5.77705 4.40888 5.76879 3.52421 5.77673 3.51233C6.15035 2.88151 5.78293 7.45066 5.8479 8.8892C5.90385 8.50361 5.9598 8.11802 6.01575 7.73244C6.01799 8.25556 6.02023 8.77869 6.02247 9.30182C6.13494 6.80965 6.06505 9.21395 6.36757 9.83538C6.43555 9.97489 6.31897 8.33762 6.5079 10.2053C6.55151 8.82779 6.61332 9.26717 6.52804 8.01985C6.6493 8.05204 6.78608 10.8584 6.8483 11.9654C6.98457 8.05493 6.53979 10.2849 6.77512 6.90435C6.62497 6.27747 6.65421 7.89105 6.62942 7.75947C6.54031 7.28739 6.68181 6.18072 6.36959 4.84552C6.31833 4.62811 6.16054 5.54804 6.16816 4.18675C6.16924 4.03618 6.30408 3.16878 6.31386 3.18081C6.41946 3.2958 6.37989 4.15416 6.42397 4.18959C6.4657 4.22285 6.4406 3.26521 6.45217 3.26191C6.58447 3.23248 6.50273 4.06092 6.54415 3.9406C6.63423 3.68075 6.91894 0.236148 6.83555 4.73169C6.68597 0.997663 6.68946 4.25362 6.74692 5.70775C6.76132 6.07858 6.84035 6.17249 6.86777 6.70089C6.90329 7.38057 6.86536 8.1761 6.87986 8.5278C6.89585 8.90606 7.08264 6.75682 7.0269 9.86526C7.2127 8.28327 7.01461 5.4889 7.14507 3.93491C7.40869 0.799665 7.4653 6.12093 7.49084 6.67527C7.49777 6.82296 7.60449 6.32783 7.61103 6.42628C7.62106 6.58727 7.57172 9.60731 7.66004 9.9051C7.74828 10.2021 7.65598 8.79892 7.748 8.70565C7.80995 8.64243 7.91983 12.2857 7.96218 10.3134C7.9912 8.95411 7.7422 6.44851 8.00985 6.02647C8.032 8.02554 8.05416 10.0246 8.07632 12.0237C8.17815 10.9295 8.27998 9.83538 8.38181 8.74122C8.4141 10.985 8.29914 12.9247 8.44492 15.0557C8.77123 9.93493 8.70533 16.7184 8.74504 16.793C8.76879 16.818 9.03365 14.8024 9.08209 14.4781C9.18398 16.2641 9.23377 21.6912 9.56081 18.5161C9.48696 19.0924 9.66925 20.488 9.68301 20.4696C9.82749 20.2924 9.7338 17.2484 9.86429 17.7449C10.0157 18.3202 9.81028 19.1264 9.82669 20.0114C9.91222 24.5532 10.6665 23.3072 10.5471 27.8612C10.574 27.7706 10.6008 27.68 10.6277 27.5894C10.5849 32.5395 10.5422 37.4895 10.4994 42.4395C10.7298 44.3762 10.87 49.5305 10.8445 52.0621C10.8396 52.5719 10.7187 55.0746 10.6975 55.2635C10.6569 55.6132 10.6414 53.6901 10.5652 54.5591C10.5496 54.7426 10.4988 58.9798 10.6277 58.6768C10.6426 58.202 10.5778 56.716 10.6082 56.4729C10.8249 54.7645 10.6518 67.8273 10.7391 68.4744C10.781 68.1851 10.8228 67.8958 10.8647 67.6065C10.8441 68.4308 10.8235 69.2551 10.8029 70.0794ZM0.453102 32.2022C0.323797 31.7076 0.420913 30.4677 0.384618 29.7351C0.33379 28.7229 -0.164123 27.0023 0.334933 27.7431C0.374323 29.2295 0.413713 30.7159 0.453102 32.2022ZM0.260406 53.926C0.329859 52.9293 0.608582 53.7023 0.492715 54.5193C0.479547 54.6099 0.166925 55.2745 0.260406 53.926ZM0.392675 43.4767C0.396366 43.5187 0.388988 44.38 0.384618 44.4101C0.27271 45.1826 0.295582 42.5857 0.392675 43.4767ZM0.535686 93.9544C0.523653 92.8562 0.270273 93.6515 0.374547 94.3343C0.381167 94.3773 0.536277 94.0267 0.535686 93.9544ZM0.5424 93.1733C0.769299 92.3204 0.309444 90.6025 0.355747 91.9682C0.360423 92.1007 0.53135 93.2128 0.5424 93.1733ZM0.37119 50.3732C0.458153 50.4854 0.416162 51.5135 0.39536 51.9525C0.315965 51.9406 0.380908 50.8037 0.37119 50.3732ZM0.39536 76.4408C0.463727 76.4845 0.459949 72.9109 0.369847 72.6675C0.408074 73.2315 0.333923 76.3998 0.39536 76.4408ZM0.491372 85.6053C0.503191 85.5147 0.485223 84.2802 0.424902 84.3162C0.34577 84.9188 0.437876 86.0131 0.491372 85.6053ZM0.487344 103.82C0.502497 103.887 0.88637 102.963 0.633712 105.154C0.596716 105.475 0.496417 104.326 0.482644 104.441C0.455781 104.68 0.443259 104.869 0.441016 105.021C0.409199 104.001 0.394231 102.941 0.417517 102.839C0.527493 102.357 0.48102 103.791 0.487344 103.82ZM0.773365 113.383C0.835979 113.593 0.802505 114.936 0.776722 115.241C0.771872 115.294 0.607306 115.065 0.619612 115.67C0.629771 116.155 0.798323 115.43 0.771351 116.375C0.74428 117.331 0.624156 116.054 0.615583 116.138C0.604346 116.25 0.680031 117.727 0.582013 117.682C0.509408 117.647 0.5585 116.064 0.543071 115.672C0.52324 115.171 0.402274 115.779 0.428259 114.941C0.444489 114.415 0.657207 114.707 0.667954 114.595C0.676614 114.502 0.554195 112.662 0.772694 113.386C0.772918 113.385 0.773142 113.384 0.773365 113.383ZM0.450416 105.297C0.443228 105.22 0.439407 105.13 0.441016 105.021C0.443904 105.114 0.447258 105.206 0.450416 105.297ZM0.546428 35.0821C0.480822 35.6002 0.396699 34.0623 0.482644 33.4799C0.551953 33.4699 0.556641 34.9996 0.546428 35.0821ZM0.623641 106.243C0.570351 107.759 0.497062 106.644 0.450416 105.297C0.490456 105.725 0.641441 105.734 0.623641 106.243ZM0.535014 63.2128C0.519149 63.2767 0.494413 63.3172 0.453773 63.3224C0.498221 63.1543 0.522093 63.1393 0.535014 63.2128ZM0.462502 66.7485C0.586293 67.9606 0.581297 65.4979 0.492715 65.5135C0.459276 65.5209 0.457579 66.7 0.462502 66.7485ZM0.5236 95.363C0.535714 95.2522 0.90952 96.9747 0.629012 94.4738C0.584957 95.8086 0.54425 94.4003 0.511515 94.4211C0.417427 94.4756 0.507867 96.7177 0.467202 97.2141C0.635544 97.6029 0.483688 95.7291 0.5236 95.3659C0.5236 95.3649 0.5236 95.364 0.5236 95.363ZM0.682725 130.618C0.58408 130.314 0.615819 129.35 0.621626 128.7C0.720271 129.004 0.688531 129.967 0.682725 130.618ZM39.1614 286.81C34.0958 286.582 33.5064 286.002 38.0861 286.608C38.1782 286.622 39.4675 286.782 39.1614 286.81ZM4.62548 264.092C4.57931 263.588 5.27451 264.997 5.71216 265.933C5.80831 266.145 6.07862 266.991 5.56539 266.14C5.76081 266.065 5.11696 264.688 4.62548 264.092ZM0.735766 107.1C0.852527 107.541 0.769415 108.9 0.75188 109.616C0.655743 109.179 0.699221 107.733 0.735766 107.1ZM23.1866 282.654C22.7139 282.409 22.3258 282.378 22.4016 282.432C22.7422 282.675 23.6965 282.996 23.1866 282.654ZM0.753894 102.715C0.823668 102.653 0.890829 104.452 0.71831 104.577C0.730793 104.193 0.71011 102.759 0.753894 102.715ZM0.735095 129.391C0.770571 129.112 0.834087 130.559 0.798879 130.996C0.724617 130.961 0.712035 129.575 0.735095 129.391ZM15.9179 278.149C15.5487 277.848 14.6407 277.079 14.503 277.036C14.3234 276.992 15.6828 278.098 15.9179 278.149ZM95.3808 286.541C95.4353 286.568 93.8034 286.768 93.0828 286.717C91.709 286.621 95.3239 286.521 95.3808 286.541ZM27.87 284.487C29.2534 285.092 27.7102 284.442 27.725 284.603C28.6811 284.955 31.1076 285.62 29.4815 285.012C29.1664 284.893 28.3128 284.649 27.87 284.487ZM26.585 283.975C26.417 283.967 25.3503 283.715 26.228 284.046C26.6359 284.198 27.3505 284.274 26.585 283.975ZM85.2964 286.608C84.1077 286.473 89.5574 286.546 89.7146 286.57C89.7975 286.582 89.8517 286.594 89.8826 286.604C90.0831 286.561 91.1122 286.553 91.231 286.661C90.9229 286.653 90.0803 286.662 89.9823 286.65C89.9401 286.645 89.9086 286.64 89.8869 286.635C89.5222 286.729 85.5248 286.634 85.2964 286.608ZM76.2649 286.469C77.6254 286.27 77.8667 286.609 77.7493 286.62C76.2676 286.759 77.2339 286.509 77.1885 286.497C77.0849 286.478 76.0328 286.593 76.2692 286.469C76.2677 286.469 76.2663 286.469 76.2649 286.469ZM83.4452 286.553C83.5012 286.548 84.6429 286.559 84.69 286.564C85.6262 286.678 82.3944 286.649 83.4452 286.553ZM1.01037 120.591C0.976704 121.409 0.852087 120.607 0.896905 120.063C0.901322 120.019 1.04012 119.87 1.01037 120.591ZM25.8843 283.739C25.6525 283.724 20.7831 281.235 21.0124 281.488C21.3692 281.812 27.0391 284.437 25.8843 283.739ZM1.49805 253.162C1.65292 254.118 1.30137 253.101 1.29782 252.583C1.29551 252.391 1.45936 252.921 1.49805 253.162ZM0.915033 100.289C0.817513 99.4009 1.14467 99.5845 1.03253 100.354C1.02814 100.385 0.918843 100.324 0.915033 100.289ZM3.33414 260.651C2.18298 257.511 2.83908 258.151 4.23461 262.216C4.15939 262.102 4.08469 261.987 4.01051 261.871C5.9595 266.462 4.05171 262.224 3.62107 261.078C3.44532 260.647 3.49449 261.046 3.33462 260.654C3.33446 260.653 3.3343 260.652 3.33414 260.651ZM1.04607 248.118C1.38873 244.921 1.20614 251.01 1.63725 252.731C1.23009 251.082 1.07514 248.86 1.21097 251.879C0.751379 247.49 1.13478 249.303 1.10924 249.13C1.11139 248.921 1.03132 248.256 1.04607 248.118ZM2.17739 256.472C2.2265 256.647 2.50963 258.023 2.67524 258.498C2.31674 257.869 1.80797 255.293 2.17739 256.472ZM66.7968 286.562C66.8995 286.455 67.1524 286.376 68.1303 286.416C67.8281 286.47 67.2041 286.516 66.7968 286.562ZM1.01575 31.2632C1.02341 30.5908 1.0637 29.2519 0.95129 29.6625C0.941709 29.7074 0.952655 31.2611 1.01575 31.2632ZM12.7315 275.014C12.588 274.928 9.81606 271.82 10.6846 272.971C10.909 273.355 13.5925 276.048 12.7315 275.014ZM31.3565 285.39C31.017 285.316 29.6393 284.967 29.605 284.978C29.4856 285.043 31.1886 285.447 31.3565 285.39ZM1.12519 27.8712C1.13628 27.7826 1.11663 25.7288 1.06476 25.9546C0.966667 26.3831 1.08698 28.1747 1.12519 27.8712ZM1.26081 123.566C1.26476 123.738 1.14863 123.965 1.14734 124.024C1.14568 124.164 1.19035 127.307 1.04126 126.106C1.01627 125.906 1.07353 121.384 1.08826 120.796C1.24768 120.569 1.09602 122.5 1.11243 122.97C1.11554 123.053 1.24892 123.106 1.26014 123.565C1.26036 123.565 1.26059 123.566 1.26081 123.566ZM71.8835 286.449C72.0226 286.348 75.7177 286.281 75.6747 286.404C74.4102 286.419 73.1486 286.434 71.8835 286.449ZM70.0067 286.433C69.2176 286.361 71.0663 286.337 71.609 286.369C71.6149 286.437 70.1222 286.443 70.0067 286.433ZM24.0588 282.462C23.6705 282.311 24.7715 282.977 24.5003 282.884C24.3231 282.827 23.5042 282.386 23.2178 282.293C23.1345 282.271 23.9318 282.809 24.1879 282.915C24.5484 283.069 24.2466 282.814 24.6369 282.986C25.9332 283.554 27.0825 284.071 28.3493 284.481C28.4633 284.518 27.602 284.156 28.5758 284.473C28.7277 284.52 29.5956 284.922 30.7929 285.207C33.4943 285.496 35.394 286.194 38.8253 286.24C38.6967 286.221 36.161 285.935 36.0119 285.894C33.1725 285.588 28.2008 284.313 25.4719 283.092C24.7671 282.794 25.0794 283.007 24.7751 282.878C24.5358 282.774 24.8733 282.777 24.0588 282.462ZM1.09296 31.6203C1.23246 31.2998 1.14416 30.1757 1.15137 29.4576C1.02554 29.7104 1.12387 30.9186 1.09296 31.6203ZM53.4184 286.324C53.0627 286.33 51.9401 286.288 51.8494 286.33C51.7293 286.385 53.3455 286.419 53.4184 286.324ZM1.2212 141.286C1.225 141.321 1.21753 142.187 1.21314 142.22C1.10118 142.993 1.12412 140.396 1.2212 141.286ZM1.19434 161.998C1.21156 162.655 1.25515 163.317 1.14197 163.538C1.1593 163.12 1.11551 161.921 1.19434 161.998ZM1.1977 190.573C1.34592 190.437 1.24993 192.414 1.23664 192.787C1.17077 192.649 1.0909 190.672 1.1977 190.573ZM66.6547 286.097C67.8618 286.106 67.6072 285.881 68.3756 285.983C68.5011 286 68.9058 286.467 67.5762 286.292C67.3374 286.261 68.2715 286.15 66.6547 286.097ZM4.50812 262.864C4.73485 263.142 5.15847 264.13 5.48577 264.782C5.34104 264.672 4.71654 263.339 4.50812 262.864ZM1.23731 24.1618C1.37574 23.5952 1.27305 20.9771 1.18158 21.6249C1.16965 21.7171 1.24254 23.7946 1.23731 24.1618ZM1.18293 110.172C1.29193 111.249 1.3257 109.018 1.21918 108.314C1.22616 108.632 1.17575 110.099 1.18293 110.172ZM1.27827 183.709C1.28274 183.761 1.27222 184.903 1.26685 184.954C1.15302 185.89 1.18217 182.659 1.27827 183.709ZM1.37428 155.187C1.46399 155.599 1.3916 158.304 1.30177 158.911C1.1706 158.327 1.26224 154.677 1.37428 155.187ZM61.6842 286.161C62.5429 286.156 63.363 286.184 64.1551 286.222C63.9888 286.298 61.7729 286.217 61.6842 286.161ZM1.28767 187.902C1.28706 187.964 1.27851 188.023 1.2776 188.082C1.2808 188.021 1.28445 187.961 1.28767 187.902ZM42.3914 286.108C41.6644 286.078 41.8162 286.216 41.8606 286.22C42.4092 286.265 43.206 286.141 42.3914 286.108ZM1.29841 30.7951C1.4233 30.5447 1.32643 29.3298 1.35615 28.6309C1.25752 28.8337 1.28531 30.2321 1.29841 30.7951ZM1.28632 244.949C1.37562 244.351 1.47444 245.753 1.50636 247C1.52215 247.72 1.54432 248.389 1.52748 248.683C1.49049 248.714 1.40105 247.906 1.36068 247C1.31231 246.062 1.27636 245.021 1.28632 244.949ZM1.37025 106.827C1.46811 106.754 1.35001 105.204 1.30378 105.533C1.27436 105.742 1.30945 106.87 1.37025 106.827ZM1.61258 250.751C1.67562 251.131 1.68858 252.043 1.5922 251.733C1.46646 251.334 1.594 250.651 1.61258 250.751ZM18.9508 279.501C18.8107 279.41 16.9018 278.167 17.6072 278.797C18.099 279.235 18.2684 279.175 18.3945 279.262C18.5206 279.381 21.5202 281.481 18.9508 279.501ZM1.37159 224.27C1.40922 225.039 1.36554 225.97 1.36824 226.775C1.30771 226.447 1.29121 224.597 1.37159 224.27ZM1.39644 112.805C1.43601 112.619 1.45985 107.527 1.33802 110.419C1.33114 110.588 1.27658 113.373 1.39644 112.805ZM66.6547 286.097C66.5024 286.096 66.3276 286.091 66.1232 286.081C66.3262 286.085 66.5013 286.092 66.6547 286.097ZM52.9338 286.082C53.2133 286.011 51.8055 285.992 51.3946 286.03C51.266 286.117 52.8939 286.092 52.9338 286.082ZM1.46761 226.837C1.50837 227.301 1.46487 228.143 1.46962 228.718C1.4034 228.62 1.40033 227.037 1.46761 226.837ZM1.54213 194.247C1.50278 195.168 1.52088 196.302 1.60189 196.32C1.58923 196.339 1.57578 196.384 1.56227 196.458C1.5489 196.533 1.58657 197.52 1.55892 197.949C1.39467 200.517 1.46245 188.033 1.69119 195.268C1.6415 194.928 1.59182 194.587 1.54213 194.247ZM1.56496 151.526C1.66357 151.003 1.54 149.538 1.50118 149.919C1.47457 150.183 1.46568 152.05 1.56496 151.526ZM1.62337 171.654C1.64097 171.497 1.57191 170.067 1.51998 170.03C1.46525 170.852 1.54161 172.366 1.62337 171.654ZM1.68044 147.505C1.69532 147.177 1.53631 146.758 1.52938 146.797C1.47133 147.13 1.59191 148.057 1.68044 147.505ZM64.1523 285.668C63.6636 285.623 62.1045 285.738 61.768 285.843C61.7056 285.823 61.5341 285.796 61.2218 285.764C61.2227 285.764 61.2237 285.764 61.2246 285.764C60.8053 285.722 48.2156 285.676 56.6595 285.878C56.9238 285.884 56.565 285.79 57.6392 285.807C57.7101 285.808 57.7453 285.885 57.9643 285.889C58.4697 285.897 61.1581 285.945 61.7027 285.883C61.7074 285.898 61.7421 285.911 61.8162 285.924C62.4754 286.035 64.5332 285.704 64.1523 285.668ZM1.63747 174.489C1.66599 174.202 1.63891 173.29 1.571 173.196C1.53772 173.648 1.57095 175.157 1.63747 174.489ZM1.67507 112.648C1.73093 112.061 1.62651 110.575 1.571 111.024C1.53686 111.3 1.61095 113.324 1.67507 112.648ZM1.60122 165.363C1.52094 168.726 1.60771 166.166 1.7073 166.681C1.67194 166.242 1.63658 165.803 1.60122 165.363ZM79.7157 285.926C79.1793 285.903 79.8098 285.706 80.4001 285.813C80.5853 285.847 80.0159 285.938 79.7157 285.926ZM103.93 285.865C103.474 285.69 105.704 285.793 104.835 285.912C104.795 285.916 103.963 285.871 103.93 285.865ZM87.0093 285.793C86.6451 285.912 86.4089 285.926 85.3833 285.897C86.9011 285.863 85.4935 285.758 87.0093 285.793ZM1.61465 196.31C1.60985 196.316 1.60631 196.321 1.60189 196.32C1.60625 196.313 1.61038 196.31 1.61465 196.31ZM1.64956 144.344C1.75006 143.923 1.74267 142.743 1.6415 143.095C1.63213 143.129 1.5753 144.171 1.64956 144.344ZM61.768 285.843C61.8237 285.861 61.7954 285.873 61.7027 285.883C61.6984 285.87 61.7224 285.857 61.768 285.843ZM1.73147 150.678C1.65648 150.636 1.62732 152.432 1.63613 152.504C1.76617 153.534 1.73599 151.42 1.73147 150.678ZM1.78048 100.775C1.77266 100.683 1.57909 101.28 1.65493 101.646C1.71377 101.93 1.81027 101.122 1.78048 100.775ZM90.4917 285.745C91.0599 285.745 91.8602 285.745 92.0084 285.837C91.6259 285.823 90.4803 285.812 90.4917 285.745ZM103.054 285.738C102.383 285.846 100.845 285.846 99.8674 285.828C99.8472 285.686 102.425 285.772 103.054 285.738ZM65.694 285.722C65.6466 285.716 64.2214 285.673 64.4164 285.769C64.6996 285.908 66.0967 285.773 65.694 285.722ZM1.67776 103.544C1.74335 104.182 1.94492 102.715 1.78921 102.042C1.70948 101.696 1.66677 103.437 1.67776 103.544ZM1.78116 140.66C1.72604 139.819 1.62786 141.904 1.72744 142.195C1.73543 141.808 1.80067 140.959 1.78116 140.66ZM1.88187 169.289C2.16908 166.637 1.64512 168.082 1.69119 168.552C1.69776 168.618 1.87511 169.354 1.88187 169.289ZM1.81137 17.5827C1.77146 17.2073 1.6269 18.6067 1.72207 18.7878C1.78163 18.8997 1.8368 17.8227 1.81137 17.5827ZM1.69521 209.215C1.69429 209.103 1.69335 208.992 1.69253 208.882C1.69722 208.964 1.69874 209.073 1.69521 209.215ZM2.16587 133.022C1.76036 134.889 2.07291 134.693 2.07121 134.855C2.06684 135.206 1.95719 136.02 1.97519 136.681C1.92954 135.924 1.88388 135.168 1.83823 134.411C1.80895 135.009 1.65967 140.2 1.72543 140.309C1.81907 140.465 1.78969 138.831 1.79794 138.784C1.80969 138.715 2.07003 138.46 2.07993 138.308C2.09576 138.059 2.10116 133.718 2.16587 133.022ZM1.83688 163.744C1.80593 164.171 1.70279 164.292 1.72744 164.49C1.73588 164.557 1.83426 164.568 1.85971 164.799C1.8521 164.447 1.84449 164.096 1.83688 163.744ZM1.8013 129.68C1.92152 129.152 1.87586 131.521 1.8624 131.597C1.78091 132.002 1.70309 130.112 1.8013 129.68ZM1.81875 149.782C1.82577 149.695 1.86331 147.876 1.7966 147.891C1.74574 148.372 1.73093 150.805 1.81875 149.782ZM1.86642 165.083C1.85495 165.722 1.75588 166.93 1.90402 166.792C1.90402 166.791 1.90402 166.79 1.90402 166.789C1.89149 166.22 1.87896 165.652 1.86642 165.083ZM1.99064 105.727C2.22658 104.542 1.92844 105.104 1.85232 106.152C1.95825 106.47 1.95224 105.921 1.99064 105.727ZM2.16655 101.937C2.209 101.607 2.16248 98.2113 2.03763 98.7294C1.99314 98.9136 2.10535 100.866 2.09672 100.956C2.08393 101.093 1.94581 100.47 1.97318 101.511C2.01998 101.45 2.15236 102.049 2.16655 101.937ZM2.1417 104.747C2.32114 103.57 1.99019 103.305 1.98929 104.19C1.98871 104.536 2.11581 104.915 2.1417 104.747ZM2.1135 109.554C2.14489 109.131 2.19067 108.003 2.08061 107.225C2.07121 108.266 2.06181 109.306 2.05241 110.347C2.11476 110.467 2.08592 109.925 2.1135 109.551C2.1135 109.552 2.1135 109.553 2.1135 109.554ZM110.129 284.89C109.192 284.796 111.349 284.76 111.437 284.784C111.706 284.86 110.549 284.932 110.129 284.89ZM4.81795 10.2779C4.85536 10.018 4.97845 9.84815 4.91396 9.27621C4.8231 9.8515 4.73224 10.4268 4.64137 11.0021C4.84957 11.4492 4.77669 10.5619 4.81795 10.2779ZM5.57866 8.08103C5.58371 8.1623 5.90385 7.71837 5.69012 8.76826C5.5458 9.47762 5.40515 5.6201 5.54711 4.92377C5.61307 5.69317 5.53756 7.38148 5.57866 8.08103ZM6.96446 1.32402C6.98999 1.27954 7.02744 2.74511 7.00944 2.91474C6.91457 3.80547 6.82768 1.56466 6.96446 1.32402ZM6.90336 5.99943C6.96553 5.31211 7.00561 6.83474 6.96983 7.28851C6.91024 7.33253 6.8943 6.10561 6.90336 5.99943ZM100.656 280.254C99.9129 280.036 99.2494 280.504 100.391 280.41C100.445 280.406 100.688 280.264 100.656 280.254ZM7.28741 2.7568C7.22524 3.44413 7.18516 1.9215 7.22094 1.46772C7.28046 1.42552 7.2965 2.65215 7.28741 2.7568ZM100.133 279.735C99.1467 279.579 99.4937 280.104 99.6172 280.125C100.123 280.209 101.871 280.003 102.225 279.951C99.6148 280.03 100.597 279.809 100.133 279.735ZM95.5769 280.051C94.6608 280.107 97.0032 280.214 97.45 280.068C96.9956 280.075 95.8354 280.035 95.5769 280.051ZM90.015 279.882C89.5213 279.863 88.057 279.818 87.8109 279.901C88.3488 279.886 89.8066 279.967 90.015 279.882ZM88.899 279.635C88.1293 279.522 87.9446 279.849 88.8322 279.752C88.8666 279.748 88.9272 279.641 88.899 279.635ZM84.569 279.516C84.0639 279.386 83.4873 279.703 84.3059 279.712C84.549 279.714 84.6225 279.531 84.569 279.516ZM98.8969 279.17C98.1709 279.114 97.2404 279.341 98.7858 279.366C98.2406 279.401 97.7015 279.435 97.1584 279.47C99.1776 279.597 99.0349 279.282 99.6144 279.295C100.425 279.314 100.361 279.574 100.198 279.655C100.864 279.496 103.695 279.494 105.327 279.463C103.892 279.397 101.56 279.281 100.142 279.238C99.7377 279.226 99.345 279.297 98.9995 279.289C98.4454 279.276 98.9376 279.174 98.8998 279.17C98.8988 279.17 98.8979 279.17 98.8969 279.17ZM78.8774 279.512C77.3926 279.364 78.3314 279.683 79.1706 279.626C79.2065 279.621 78.9144 279.515 78.8774 279.512ZM8.25491 0.78761C8.12183 2.77168 7.94545 1.32951 8.21328 5.4801C8.02368 3.73634 8.07693 5.38366 8.00045 5.04329C7.93994 4.77024 7.99005 3.74712 7.86818 4.34184C8.00082 3.56013 7.96414 0.166316 7.98568 0.0150141C7.98568 0.0164369 7.98568 0.0178598 7.98568 0.0192826C7.99844 -0.0715909 8.29723 0.154499 8.25491 0.78761ZM90.0079 279.05C89.5125 278.663 89.3172 279.277 88.3444 278.956C87.0486 279.421 91.9235 278.956 92.5166 279.349C87.2187 279.304 96.0161 279.738 92.3188 279.15C95.3627 279.364 93.3164 279.078 93.7862 279.003C94.2913 278.923 96.0128 279.01 95.9248 278.866C95.9239 278.866 95.923 278.866 95.922 278.866C94.8712 278.876 93.8127 278.886 92.7614 278.896C93.7931 279.206 91.6378 279.113 90.9084 278.86C90.6084 278.923 90.3083 278.987 90.0079 279.05ZM95.9717 279.341C95.8696 279.334 93.5761 279.378 93.7235 279.44C94.0321 279.48 97.283 279.432 95.9717 279.341ZM106.062 279.273C105.236 279.273 103.967 279.212 103.517 279.329C104.341 279.33 105.613 279.39 106.062 279.273ZM63.6797 279.251C62.6303 279.347 65.8593 279.376 64.9252 279.262C64.8785 279.257 63.7332 279.247 63.6797 279.251ZM87.6216 279.108C86.5542 278.99 87.0589 279.366 87.8493 279.268C87.895 279.262 87.6709 279.113 87.6216 279.108ZM8.30057 2.39541C8.39264 2.46675 8.32797 5.34545 8.32877 5.85573C8.24319 5.56581 8.19502 2.31356 8.30057 2.39541ZM107.509 278.929C105.874 278.598 103.65 278.98 103.406 278.972C103.164 278.963 103.544 278.819 103.489 278.815C103.36 278.807 100.784 278.819 100.656 278.829C100.566 278.837 101.035 279.04 100.501 279.104C101.544 278.989 106.259 279.061 106.504 279.038C106.694 279.02 105.265 278.807 107.506 278.929C107.507 278.929 107.508 278.929 107.509 278.929ZM102.796 278.928C103.44 279.013 101.636 279.023 101.197 278.992C100.223 278.922 102.715 278.917 102.796 278.928ZM98.4478 278.849C98.2411 278.83 96.3799 278.812 96.2197 278.907C97.1046 279.03 98.915 278.893 98.4478 278.849ZM77.7138 278.862C77.2294 278.874 75.8986 278.801 75.8225 278.884C76.3065 278.872 77.6378 278.945 77.7138 278.862ZM9.02435 12.2172C9.09374 11.4132 9.12209 13.2759 9.08881 13.8193C9.03349 13.8488 9.01839 12.2856 9.02435 12.2172ZM87.4408 278.315C87.1541 278.29 81.3082 278.353 80.4883 278.392C81.2903 278.454 87.084 278.459 87.3468 278.429C87.4236 278.419 87.4773 278.319 87.4408 278.315ZM100.083 278.277C100.617 278.155 100.97 278.301 101.037 278.303C101.702 278.322 103.072 278.294 102.771 278.412C101.606 278.364 99.0161 278.519 100.083 278.277ZM77.2981 278.309C75.3126 278.354 79.126 278.483 78.6256 278.355C78.5932 278.348 77.5039 278.304 77.2981 278.309ZM88.094 278.28C88.531 278.181 94.3778 278.266 95.3183 278.266C94.4784 278.448 93.798 278.31 92.6703 278.319C92.3656 278.322 92.4469 278.398 92.4142 278.398C91.8861 278.401 92.2814 278.314 91.9557 278.312C91.7493 278.312 87.478 278.419 88.094 278.28ZM100.388 278.192C100.717 278.122 104.369 278.092 104.514 278.111C105.613 278.249 100.675 278.217 100.388 278.192ZM87.5575 278.118C88.1861 277.906 91.091 278.048 89.1022 278.153C88.9127 278.163 88.1095 278.071 87.5575 278.118ZM77.5103 278.108C77.4121 278.102 75.3432 278.059 75.3064 278.127C75.6044 278.153 78.6221 278.176 77.5103 278.108ZM78.5829 277.88C78.533 277.882 79.0181 278.011 78.048 277.995C77.9672 277.993 77.8165 277.848 76.5964 277.901C76.3489 277.912 75.9655 278.008 75.9932 278.014C77.2635 278.243 81.0884 277.805 78.5829 277.88ZM100.455 278.074C100.258 278.013 100.733 277.83 101.162 277.922C101.346 277.962 101.003 278.072 100.455 278.074ZM70.948 278.049C72.1507 277.938 68.3739 277.917 68.1816 277.945C68.3037 278.014 70.827 278.059 70.948 278.049ZM9.87973 14.0996C9.87973 14.0986 9.87973 14.0977 9.87973 14.0968C9.85462 15.1087 9.76244 14.4819 9.75955 14.5293C9.62415 16.6848 9.83293 16.113 9.85757 16.4501C9.91086 17.1729 9.65697 17.0564 9.76223 18.2756C9.60678 16.2603 9.67195 18.0947 9.58162 18.1518C9.21301 18.3777 9.75423 15.4686 9.67696 14.4638C9.66626 14.3238 9.54862 15.3575 9.51515 14.9988C9.40671 13.8326 9.97574 10.2166 9.87973 14.0996ZM101.493 277.906C101.961 277.798 105.523 277.903 104.578 277.992C104.428 278.007 100.802 278.064 101.493 277.906ZM9.7535 196.633C9.84721 197.489 9.95736 195.505 9.88443 195.137C9.84809 194.955 9.71238 196.257 9.7535 196.633ZM10.1543 182.726C10.1353 181.709 9.74456 180.637 9.8052 181.902C9.81183 182.037 10.1001 182.843 10.1543 182.726ZM10.0305 249.189C10.1114 248.253 9.85915 248.319 9.90172 249.005C9.91889 249.247 10.0284 249.219 10.0305 249.189ZM9.92001 208.974C9.92907 208.868 9.9125 207.641 9.85287 207.685C9.8171 208.139 9.85784 209.662 9.92001 208.974ZM10.0895 249.48C10.002 248.935 9.87931 249.896 10.1426 250.548C10.086 250.208 10.0974 249.536 10.0895 249.48ZM85.3633 277.544C84.8356 277.651 83.3446 277.619 82.4875 277.637C82.3954 277.499 84.7505 277.569 85.3633 277.544ZM9.99723 187.043C9.89995 186.08 9.8203 188.143 9.94888 187.954C9.95587 187.927 10.0014 187.081 9.99723 187.043ZM25.3289 273.467C24.754 273.239 26.3971 274.284 25.9991 273.896C25.9777 273.88 25.3587 273.481 25.3289 273.467ZM33.1288 276.652C32.6813 276.532 30.7937 275.966 31.5038 276.266C31.6096 276.322 33.0773 276.726 33.1288 276.652ZM9.95694 16.5099C10.0987 16.2238 10.065 17.8842 10.0402 18.1219C10.0299 18.2153 9.77247 16.883 9.95694 16.5099ZM9.97574 242.606C9.958 242.056 9.99171 240.632 9.91733 240.381C9.93273 241.053 9.82757 242.787 9.97574 242.606ZM9.9979 191.432C10.152 190.594 10.1368 189.162 9.93546 189.516C9.94895 191.098 10.1164 189.32 9.9979 191.432ZM10.6536 252.508C10.5966 252.131 10.3605 251.871 10.3581 251.915C10.3381 252.344 10.6495 252.895 10.6536 252.508ZM9.99723 220.316C10.0798 220.29 10.0423 218.878 9.98917 219.067C9.97132 219.128 9.93037 220.336 9.99723 220.316ZM66.865 277.497C66.2177 277.422 68.1947 277.348 68.7793 277.436C69.0649 277.563 66.9455 277.506 66.865 277.497ZM14.2877 262.399C14.4111 262.393 13.431 260.751 13.7024 261.46C13.7668 261.641 14.24 262.405 14.2877 262.399ZM27.728 274.431C26.4726 274.08 31.4297 276.227 30.1803 275.517C30.0789 275.493 27.8229 274.489 27.728 274.431ZM36.0847 277.02C35.8701 276.97 36.0347 276.589 36.9141 276.858C37.0306 276.893 36.4619 276.932 36.5556 276.969C36.6087 277.006 38.582 277.251 38.6786 277.231C38.778 277.226 38.6694 277.087 38.7702 277.078C38.8712 277.072 39.8119 277.203 40.4851 277.222C40.5916 277.225 40.6918 277.227 40.7821 277.227C42.173 277.229 42.332 277.119 42.4459 277.119C42.7779 277.118 43.3347 277.196 44.014 277.196C47.4246 277.195 52.6418 277.102 55.3416 277.335C52.9344 277.241 50.642 277.341 48.2505 277.371C48.948 277.142 44.7348 277.548 47.1982 277.283C46.5835 277.314 43.395 277.342 40.4851 277.353C38.354 277.372 36.4062 277.092 36.0872 277.02C36.0864 277.02 36.0855 277.02 36.0847 277.02ZM10.2698 178.712C10.4105 179.337 10.3788 176.132 10.2161 175.86C10.1935 176.283 10.2539 178.635 10.2698 178.712ZM10.6129 193.501C10.6372 193.799 10.9122 194.081 10.7727 195.643C10.7727 195.644 10.7727 195.645 10.7727 195.647C10.732 196.103 10.665 195.583 10.6411 195.667C10.6314 195.697 10.4946 197.121 10.4726 195.939C10.4388 194.135 10.6771 195.769 10.6801 194.807C10.6803 194.69 10.5314 192.87 10.4988 192.976C10.495 192.987 10.5265 193.535 10.5129 193.625C10.4618 193.966 10.376 193.8 10.3719 193.848C10.3614 194.006 10.5077 196.883 10.3799 197.302C10.3387 197.438 10.2437 192.715 10.2651 192.531C10.2786 192.414 10.517 192.464 10.5404 192.343C10.5521 192.281 10.4628 190.381 10.4847 190.135C10.491 190.063 10.4978 190.008 10.5035 189.968C10.4297 190.256 10.435 188.535 10.5182 188.588C10.5509 188.618 10.532 189.802 10.5263 189.845C10.5239 189.863 10.5205 189.879 10.5182 189.894C10.6081 189.649 10.6041 193.658 10.7378 192.793C10.8111 193.955 10.5416 192.628 10.6129 193.501ZM10.76 199.087C10.7349 198.967 10.7098 198.847 10.6848 198.727C10.7461 200.762 10.6254 203.109 10.6263 205.453C10.6264 206.048 10.7797 205.364 10.7378 206.143C10.7042 206.768 10.562 207.459 10.5303 207.119C10.5224 207.036 10.615 205.765 10.6055 205.129C10.5774 203.25 10.4459 203.725 10.4424 203.615C10.4386 203.493 10.5311 202.311 10.527 201.665C10.5163 200.042 10.4356 199.3 10.5411 197.082C10.6277 198.363 10.8159 197.661 10.76 199.087ZM19.5307 268.49C19.6327 268.48 20.4123 269.317 20.7373 269.577C20.6304 269.599 19.8314 268.776 19.5307 268.49ZM10.5874 76.5262C10.4516 76.1172 10.418 79.1822 10.531 78.3745C10.5561 78.1957 10.5864 76.9113 10.5874 76.5262ZM10.5048 90.2949C10.5424 90.7049 10.6401 89.054 10.535 89.0571C10.5013 89.0595 10.4999 90.2421 10.5048 90.2949ZM10.6263 225.385C10.6306 225.463 10.6003 226.591 10.5934 226.626C10.4493 227.373 10.5326 223.661 10.6263 225.385ZM10.672 107.033C10.583 105.604 10.5444 109.905 10.6579 108.591C10.6634 108.526 10.6763 107.102 10.672 107.033ZM10.6968 113.012C10.6921 112.669 10.7363 111.148 10.6948 111.128C10.628 111.098 10.5823 112.839 10.6968 113.012ZM11.2048 252.664C11.3204 252.498 11.556 254.19 11.7433 254.755C11.6239 254.932 11.3204 253.245 11.2048 252.664ZM10.7821 241.014C10.9027 249.471 10.5758 247.606 10.7076 240.51C10.8057 240.5 10.7745 240.48 10.7821 241.014ZM11.0449 251.111C10.9101 250.867 10.84 250.045 10.8056 249.497C10.8768 249.589 10.9668 250.721 11.0449 251.111ZM10.7975 72.8766C10.9214 73.407 10.7687 75.7557 10.7177 75.3381C10.7066 75.2409 10.7295 72.6819 10.7975 72.8766ZM10.7573 226.094C10.9061 225.897 10.8454 228.436 10.8123 228.631C10.6794 229.415 10.7901 226.3 10.7573 226.094ZM14.9199 262.108C15.2099 262.378 15.7303 263.322 16.1298 263.892C15.8622 263.692 15.2115 262.62 14.9199 262.108ZM12.8286 257.565C12.8448 257.606 13.1951 258.505 13.2106 258.545C13.4023 259.325 12.4105 256.772 12.8286 257.565ZM10.999 12.6967C11.0027 12.7348 10.9953 13.5999 10.9909 13.6301C10.879 14.4023 10.9019 11.8057 10.999 12.6967Z" fill="#BD97EC"/>
</svg>
