<svg width="269" height="137" viewBox="0 0 269 137" fill="none" xmlns="http://www.w3.org/2000/svg">
<path d="M268.412 29.4031C268.398 29.6382 268.432 30.5839 268.426 30.9933C268.574 30.5292 268.463 28.555 268.412 29.4031ZM257.697 71.398C257.734 71.0583 257.77 70.7186 257.807 70.3789C257.83 71.3442 257.803 72.6418 257.838 73.5376C257.844 73.6841 257.95 73.304 257.954 73.6507C257.959 73.9975 257.815 73.9306 257.799 74.4349C257.782 75.0006 257.883 77.5909 257.88 78.488C257.871 81.8431 257.788 85.227 257.848 88.5888C257.955 85.1181 258.064 88.6155 258.017 89.5876C258.007 89.803 257.738 89.7686 257.806 93.2507C257.848 95.4408 258.224 93.4615 258.046 97C258.044 97.032 258.042 97.0645 258.04 97.0975C258.036 97.0641 258.033 97.0316 258.029 97C257.864 95.2949 257.813 95.8223 257.795 97C257.785 97.5638 257.766 98.2861 257.719 98.9566C257.721 99.2847 257.478 101.92 257.198 103.053C257.114 103.445 256.843 104.004 256.707 104.511C256.613 104.861 256.616 105.147 256.457 105.661C255.712 108.06 254.692 110.326 253.405 112.49C254.477 111.41 252.933 113.566 252.861 113.658C252.619 114.226 254.112 111.927 253.587 112.878C252.778 114.161 251.871 115.385 250.878 116.532C251.649 115.561 249.582 117.578 249.271 118.008C249.343 117.736 244.25 122.731 243.093 123.014C242.876 123.086 244.123 122.3 241.122 123.942C240.792 124.11 240.96 124.136 240.78 124.211C240.67 124.257 239.909 124.276 239.283 124.711C239.04 124.845 240.793 124.487 237.111 125.686C238.504 125.027 231.917 126.909 230.607 126.874C230.856 126.811 231.101 126.746 231.35 126.676C230.119 126.916 229.879 126.804 229.599 126.829C229.142 126.861 228.613 126.9 228.069 126.923C227.171 126.958 226.236 126.993 225.498 126.987C224.055 126.976 223.994 126.782 222.34 126.858C222.736 126.815 223.117 126.772 223.535 126.729C222.358 126.74 221.237 126.75 220.058 126.76C222.756 127.017 219.481 126.772 219.253 126.767C218.904 126.758 219.406 126.863 218.821 126.849C218.76 126.847 218.85 126.748 217.941 126.737C216.115 126.715 216.4 126.839 215.626 126.837C215.553 126.837 215.808 126.748 214.456 126.727C210.115 126.66 214.486 126.795 214.642 126.807C214.852 126.823 213.408 127.196 217.014 127.064C215.81 127.106 215.682 127.27 215.546 127.274C215.429 127.278 213.299 127.255 213.176 127.249C212.117 127.193 213.049 127.08 212.843 127.06C212.649 127.044 210.161 127.191 209.551 126.852C208.326 127.164 210.268 127.136 212.272 127.184C212.568 127.248 210.353 127.31 210.231 127.31C207.333 127.31 208.935 127.053 208.3 126.888C207.965 126.803 206.767 126.978 207.872 126.747C205.207 126.723 206.83 126.857 206.65 126.876C206.399 126.905 205.491 126.839 205.377 126.848C205.209 126.861 205.791 126.941 205.131 126.969C205.021 126.973 203.955 126.836 205.329 126.77C203.493 126.79 203.638 126.673 203.01 126.909C201.727 126.462 202.078 127.172 201.571 127.197C200.211 127.263 200.62 126.913 200.544 126.896C200.076 126.786 196.395 126.907 195.459 126.856C195.828 127.108 198.405 126.859 198.97 126.908C200.873 127.071 196.282 127.034 197.667 127.351C197.084 127.264 196.498 127.177 195.91 127.09C194.839 127.294 196.331 127.383 193.479 127.308C193.012 127.132 195.496 127.336 195.002 127.197C194.687 127.116 193.056 127.098 193.018 127.056C192.987 127.004 194.477 127.065 194.242 126.986C193.745 126.814 188.246 126.978 192.427 127.071C191.265 127.068 190.661 127.409 189.641 127.303C188.987 127.234 192.674 126.763 187.142 126.849C187.02 127.01 189.343 126.897 189.412 126.909C189.497 126.927 189.072 127.29 188.998 127.308C188.717 127.367 183.135 127.173 181.901 127.355C182.365 127.145 177.67 127.318 177.139 127.254C177.001 127.236 177.516 127.107 177.369 127.094C176.446 127.013 173.962 127.242 172.827 127.248C171.545 127.255 171.706 127.144 171.635 127.144C171.069 127.15 171.521 127.226 171.175 127.225C170.656 127.225 167.038 127.241 166.874 127.225C166.822 127.22 167.404 127.093 166.626 127.069C166.49 127.065 166.582 127.215 164.265 127.15C161.468 127.072 166.205 126.963 165.043 126.806C163.251 127.03 163.306 126.808 162.818 126.825C162.654 126.832 161.37 127.021 160.031 127.009C160.994 127.039 161.986 127.07 162.966 127.101C161.997 127.134 160.132 127.093 159.349 127.13C158.965 127.148 159.282 127.304 158.447 127.299C158.268 127.298 157.567 126.92 159.753 127.089C159.928 126.954 158.889 127.042 158.405 127.004C158.331 126.998 158.043 126.772 157.424 126.913C157.273 126.947 158.903 127.605 154.711 127.129C154.575 127.113 155.046 127.031 154.913 127.014C154.824 127.002 153.746 127.036 153.635 127.024C153.516 127.012 154.026 126.922 153.884 126.904C153.155 126.813 152.197 127.169 153.701 127.142C153.199 127.186 152.695 127.23 152.191 127.274C152.731 127.006 151.4 127.199 150.699 127.191C146.202 127.138 149.213 126.963 148.44 126.872C147.193 126.727 148.142 127.187 146.294 127.049C146.123 127.036 148.344 126.841 144.011 126.951C144.652 126.958 145.292 126.966 145.93 126.974C145.563 127.234 143.62 126.956 143.47 126.952C141.761 126.917 142.92 127.01 140.373 126.876C140.146 126.864 139.649 126.928 139.162 126.896C137.155 126.765 141.823 126.816 141.951 126.711C142.01 126.66 136.993 126.673 136.828 126.697C136.1 126.806 139.091 126.745 138.52 126.88C138.331 126.928 131.152 126.829 129.743 126.882C128.094 126.943 127.347 127.295 127.337 126.899C126.87 127.288 126.457 127.023 126.245 127.025C123.678 127.061 123.68 127.065 121.492 127.028C121.008 127.02 120.6 127.138 120.428 127.118C120.329 127.106 120.515 126.98 120.027 126.941C119.351 126.888 115.261 127.017 114.966 127.087C114.665 127.157 116.682 127.117 116.32 127.232C114.861 127.244 113.458 127.215 111.983 127.227C111.37 127.233 111.685 127.313 111.42 127.315C111.308 127.316 109.188 127.245 109.277 127.215C109.493 127.147 116.022 127.193 114.302 127.052C113.971 127.025 112.8 127.21 112.986 126.985C107.135 127.036 101.312 127.087 95.4771 127.138C98.8296 127.307 102.605 127.156 106.116 127.172C106.597 127.174 108.22 127.152 108.023 127.266C105.049 127.295 101.314 127.236 98.4589 127.31C98.3671 127.313 98.7038 127.415 98.3604 127.431C97.7188 127.461 95.6263 127.296 95.2739 127.339C95.2138 127.349 96.4051 127.484 96.0428 127.569C95.1129 127.789 94.8768 127.302 94.0765 127.308C93.4532 127.313 89.3094 127.548 88.2729 127.399C87.1733 127.241 91.3329 127.307 91.0252 127.178C88.2138 127.048 85.3563 127.187 82.7006 127.17C82.6538 127.17 83.0605 127.068 82.4673 127.054C81.4348 127.03 81.1637 127.174 80.6611 127.197C80.1191 127.221 78.2016 127.2 77.9451 127.253C77.9125 127.26 78.3009 127.403 78.3599 127.407C79.1952 127.466 79.4918 127.28 79.5679 127.278C79.8534 127.271 80.1339 127.342 80.3943 127.338C80.8231 127.331 81.0592 127.265 81.6251 127.259C82.0156 127.255 81.6387 127.381 82.015 127.375C82.1532 127.373 83.6428 127.084 83.7816 127.379C83.8266 127.471 71.6379 127.59 70.4211 127.516C71.4656 127.481 72.5104 127.445 73.5551 127.41C71.4333 127.496 68.886 127.261 68.7046 127.609C60.8385 127.637 52.9626 127.666 45.1024 127.694C43.6945 127.724 44.4652 127.947 42.1521 127.882C42.7496 127.811 43.3475 127.74 43.9458 127.669C42.753 127.719 37.5242 127.816 36.6633 127.77C36.5531 127.764 36.3992 127.562 35.0858 127.544C33.9209 127.529 33.7344 127.681 33.1126 127.71C32.5906 127.734 32.0052 127.694 31.8505 127.702C31.7318 127.709 31.6848 127.802 31.3994 127.818C30.4985 127.868 31.2284 127.607 30.3346 127.906C30.5521 127.918 30.7697 127.929 30.9875 127.941C29.9063 127.984 28.4005 128.12 30.016 128.187C30.2931 128.199 30.0555 128.109 30.261 128.109C38.3106 128.126 31.8854 128.3 29.0554 128.161C28.3239 128.294 24.2554 128.212 24.1232 128.239C23.9357 128.277 24.6299 128.383 23.72 128.474C23.5406 128.494 18.0765 128.419 20.0425 128.596C20.4463 128.632 23.0683 128.594 23.6882 128.599C22.2232 128.881 18.7284 128.477 18.345 128.488C16.7723 128.532 21.367 128.732 17.8236 128.764C15.1045 128.789 17.6568 128.602 16.6114 128.521C16.03 128.476 12.9382 128.683 13.0209 128.415C11.9592 128.387 12.5806 128.529 12.4495 128.539C12.3206 128.548 10.2379 128.467 9.56523 128.524C9.48351 128.531 9.74083 128.67 9.65631 128.682C9.491 128.701 7.49333 128.673 7.41418 128.662C7.36322 128.653 7.83861 128.531 7.64316 128.502C7.41902 128.468 5.47131 128.496 5.36661 128.462C5.21442 128.409 7.61237 128.444 7.21309 128.307C6.10532 128.341 4.30954 128.25 3.58493 128.141C3.76242 128.172 4.82938 128.177 5.20081 128.165C5.02478 127.966 2.73575 127.968 3.51825 128.127C3.0213 128.042 3.36053 127.997 3.08078 127.916C3.00729 127.896 2.30219 127.892 2.1666 127.857C2.1488 127.85 2.8761 127.775 2.7305 127.734C2.46542 127.661 0.333618 127.678 0.160797 127.697C-0.329254 127.751 1.40552 127.817 1.55139 127.902C1.57144 127.915 0.0947876 128.08 0.0730591 128.094C-0.013855 128.251 1.6293 128.138 1.44171 128.279C1.03488 128.309 0.628479 128.338 0.222656 128.368C1.7854 128.511 4.70288 128.438 5.45972 128.6C3.11185 128.552 0.680939 128.557 0.686279 128.923C0.687653 129.077 1.69104 129.167 1.6524 129.206C1.50375 129.346 0.112122 129.194 0.0615234 129.201C0.0193176 129.21 0 129.218 0 129.226C0 129.226 0 129.226 0 129.226C-0.000915527 129.308 1.98361 129.367 2.08423 129.405C2.25146 129.471 1.36655 129.745 1.36813 129.806C1.39847 129.818 2.81522 129.883 2.33716 129.988C1.85275 130.095 0.615448 130.097 0.57251 130.109C0.33548 130.172 2.50107 130.231 2.56705 130.268C2.60086 130.287 1.43628 130.405 1.40274 130.438C1.37363 130.472 2.25806 130.546 2.60754 130.652C2.86789 130.732 2.10989 130.792 2.24319 130.805C2.33731 130.813 4.39218 130.812 4.49457 130.826C4.64529 130.846 4.16302 130.941 4.23325 130.965C4.33264 130.999 4.99802 130.964 4.9115 130.999C4.84473 131.026 2.27127 131.352 2.28943 131.439C2.31775 131.588 5.04117 131.246 2.50775 131.833C2.48996 131.837 1.87445 131.795 1.85745 131.798C1.47803 131.906 3.4491 132.073 1.03934 132.044C5.52658 132.231 1.59637 132.267 2.26053 132.518C2.51614 132.614 4.26068 132.654 4.26953 132.668C4.09961 132.79 3.54337 132.695 3.35452 132.755C3.25003 132.789 4.81281 132.918 4.46115 133.002C4.27841 133.045 2.62164 133.029 2.55405 133.038C1.89978 133.117 2.70206 133.203 2.55838 133.259C2.46259 133.297 1.46597 133.3 1.44025 133.307C1.39795 133.321 2.75134 133.474 3.03445 133.528C3.24915 133.569 2.44327 133.634 2.59308 133.652C3.4946 133.76 5.42133 133.485 3.56607 133.87C3.45276 133.894 2.75241 133.885 2.73196 133.889C2.29935 133.999 3.58826 134.008 3.81976 134.097C4.21619 134.252 2.36096 134.166 3.9039 134.274C2.74615 134.375 2.10226 134.371 0.755432 134.342C4.48975 134.421 5.81915 134.82 1.66107 134.81C2.98096 134.804 2.83551 135.029 3.22995 135.033C3.47449 135.035 5.39847 134.811 4.51636 135.313C4.40524 135.376 3.23828 135.296 3.60376 135.425C6.40738 135.392 3.66238 135.506 3.66028 135.523C3.69827 135.819 10.5424 135.577 11.7162 135.611C13.0818 135.65 14.3014 135.883 14.5998 135.883C15.5768 135.883 14.767 135.765 14.985 135.722C15.2033 135.678 17.9689 135.905 18.1089 135.893C18.6459 135.843 18.1008 135.702 18.1566 135.695C18.8148 135.609 22.5696 135.719 23.5972 135.687C23.5654 135.778 21.4773 135.785 22.7815 135.931C24.2976 136.101 24.3859 135.7 24.4254 135.683C31.4162 135.686 38.3717 135.69 45.3611 135.694C45.272 135.907 40.7058 135.746 40.6043 135.775C39.9913 135.941 47.7076 135.938 48.6465 135.863C47.9289 135.909 47.2117 135.955 46.4951 136.001C47.7181 136.246 50.4305 135.927 52.2074 136.036C52.7812 136.071 51.6793 136.166 51.7022 136.172C52.3469 136.267 53.3822 136.194 52.6082 136.066C54.1846 136.189 53.9502 136.053 55.1561 136.043C55.2183 136.043 54.7008 136.142 55.6544 136.183C56.1008 136.202 58.4859 136.202 58.8057 136.289C58.9371 136.325 57.7267 136.709 57.5774 136.379C54.9838 136.54 56.7487 136.228 55.7413 136.236C55.587 136.238 55.9416 136.422 53.4071 136.335C53.8898 136.668 56.809 136.419 57.3107 136.459C58.3429 136.542 54.0883 136.714 53.3083 136.455C53.6742 136.714 53.0055 136.49 52.0549 136.5C51.0147 136.512 51.4681 136.589 50.9054 136.59C49.3673 136.592 50.0048 136.408 48.7378 136.574C49.9724 136.062 46.5699 136.506 45.5807 136.64C47.1917 136.666 48.804 136.692 50.4195 136.718C50.3271 136.745 50.2348 136.772 50.1424 136.798C50.5679 136.795 50.9934 136.791 51.4191 136.787C51.3509 136.761 51.2827 136.736 51.2145 136.71C53.4105 136.877 53.9458 136.689 54.1238 136.687C56.4218 136.665 59.0814 136.667 61.412 136.666C61.7609 136.666 61.5208 136.834 64.0646 136.702C64.8761 136.661 64.1098 136.531 65.0299 136.55C66.1808 136.904 66.1591 136.622 66.5015 136.621C67.4837 136.621 68.0843 136.709 68.1751 136.71C69.3898 136.724 71.1653 136.709 72.4983 136.722C72.5233 136.723 71.8298 136.832 72.6954 136.8C72.9996 136.788 75.726 136.324 78.1104 136.476C77.4902 136.507 76.87 136.538 76.2501 136.57C76.9789 136.526 82.089 136.643 80.8394 136.767C80.0738 136.843 78.2039 136.544 77.9988 136.831C79.6996 136.745 89.0889 136.874 89.8197 136.807C89.9208 136.798 89.2989 136.704 89.4386 136.692C89.5468 136.683 91.6961 136.705 91.981 136.67C92.1508 136.648 91.2015 136.591 91.2787 136.557C91.3458 136.533 94.0304 136.493 94.1854 136.61C93.5237 136.564 91.6715 136.605 92.6427 136.703C92.7669 136.715 93.4161 136.64 93.5683 136.655C94.9782 136.799 90.7663 136.764 90.1154 136.766C92.7546 136.915 96.8604 136.739 99.9181 136.836C101.155 136.739 98.0845 136.687 99.484 136.606C102.386 136.439 100.256 136.741 100.346 136.753C101.067 136.852 103.534 136.325 103.534 136.726C104.589 136.666 104.248 136.615 105.735 136.668C105.539 136.695 105.344 136.723 105.148 136.751C106.798 136.983 110.291 136.397 110.032 136.353C109.324 136.233 107.505 136.42 107.35 136.415C107.12 136.408 106.487 136.002 103.968 136.365C102.937 136.093 107.958 136.181 105.674 135.995C107.208 136.026 113.575 135.836 114.482 135.956C114.59 135.971 114.084 136.243 115.648 136.105C116.391 136.039 114.601 136.036 114.94 135.974C115.988 135.784 130.261 135.906 132.962 135.916C133.139 135.916 133.074 135.832 133.248 135.832C133.781 135.835 135.719 135.96 136.666 135.922C134.702 136.078 138.513 136.09 139.484 136.073C140.969 136.047 140.876 135.898 141.516 135.867C143.981 135.745 147.769 136.097 149.693 135.768C149.594 136.095 152.982 135.608 154.535 135.605C155.759 135.602 157.523 135.819 155.88 135.95C157.991 135.935 160.158 135.996 162.142 136.016C162.47 136.02 162.019 135.923 162.577 135.932C162.628 135.933 162.698 136.028 163.176 136.038C167.112 136.12 165.194 135.919 165.93 135.86C166.339 135.827 166.641 135.81 166.863 135.805C164.59 135.786 161.929 135.749 161.214 135.746C161.83 135.537 166.315 135.787 167.605 135.73C167.65 135.728 167.493 135.613 167.539 135.612C167.54 135.612 167.541 135.612 167.541 135.612C168.016 135.603 171.181 135.646 170.528 135.783C170.362 135.82 168.888 135.82 167.199 135.807C167.658 135.833 167.315 135.962 167.396 135.968C168.368 136.032 170.829 135.906 171.68 135.889C171.876 135.885 171.862 135.968 171.894 135.968C172.674 135.949 172.355 135.713 173.153 135.957C174.563 135.662 170.508 135.913 170.79 135.722C171.008 135.574 180.054 135.653 180.016 135.885C180.047 135.861 180.17 135.83 180.423 135.795C180.97 135.717 183.509 135.741 183.944 135.784C184.018 135.792 183.988 136.018 184.079 136.02C184.314 136.025 187.371 135.848 188.511 135.981C187.885 136.013 187.282 136.044 186.665 136.076C190.378 136.078 189.844 136.145 188.57 136.212C188.506 136.213 188.445 136.221 188.384 136.222C187.425 136.272 186.198 136.32 186.177 136.338C186.087 136.406 192.469 136.443 191.241 136.234C191.075 136.206 188.11 136.299 189.578 136.15C189.838 136.124 191.731 136.166 191.828 136.15C192.497 136.041 188.355 135.896 188.857 135.74C189.871 135.888 191.161 135.81 192.303 135.848C192.823 135.866 192.95 135.979 193.014 135.981C193.968 136.01 193.432 135.892 193.751 135.895C193.911 135.897 195.821 136.149 195.461 135.801C201.74 136.057 197.194 136.057 193.36 136.037C194.532 136.164 196.97 136.102 198.022 136.132C198.403 136.142 198.178 136.258 198.821 136.281C200.109 136.329 206.48 136.196 208.149 136.165C207.121 136.124 207.423 135.997 208.215 136.006C209.006 136.015 208.342 136.183 208.496 136.202C208.68 136.22 212.306 136.141 212.935 136.163C210.181 136.102 210.787 135.976 213.144 135.963C212.801 135.926 212.443 135.89 212.117 135.854C213.51 135.905 216.424 135.713 217.194 135.77C217.317 135.779 216.875 135.885 216.944 135.89C217.601 135.935 220.045 135.827 220.143 135.863C220.238 135.893 219.217 135.982 219.596 136.026C219.675 136.035 220.661 135.892 221.612 135.927C221.965 135.94 221.753 136.04 221.842 136.046C222.586 136.094 222.127 135.925 223.504 135.952C224.529 135.973 225.287 136.137 226.661 136.083C222.098 136.293 225.969 136.205 227.818 136.269C227.935 136.273 227.967 136.303 228.069 136.333C228.252 136.377 228.639 136.436 229.877 136.331C225.522 136.097 231.112 136.182 232.242 135.975C232.304 135.967 232.314 135.848 232.869 135.78C232.915 135.773 232.858 135.865 233.375 135.802C238.254 135.05 235.121 135.472 236.029 135.233C236.417 135.137 238.77 134.671 239.385 134.466C239.527 134.422 239.437 134.365 239.986 134.194C240.956 133.89 241.839 133.656 242.468 133.414C242.54 133.382 242.499 133.274 243.683 132.811C244.015 132.679 244.4 132.555 243.952 132.799C242.467 133.63 239.367 134.488 237.542 135.039C235.885 135.605 241.201 134.171 241.442 133.982C241.54 133.948 240.509 134.247 241.529 133.867C242.401 133.543 244.071 133.108 245.301 132.444C245.399 132.397 246.299 131.719 246.246 131.731C246.205 131.753 244.662 132.47 244.859 132.307C244.883 132.292 245.852 131.814 245.955 131.709C246.086 131.584 246.258 130.927 246.449 130.808C246.943 130.5 246.667 130.783 246.992 130.592C247.705 130.203 249.962 128.553 250.124 128.625C249.751 128.899 249.373 129.166 248.99 129.427C251.14 128.007 250.262 128.665 250.585 128.488C250.924 128.284 250.749 128.231 251.432 127.696C251.607 127.612 254.392 125.279 254.363 125.341C252.807 126.62 253.475 126.25 253.411 126.319C253.152 126.56 252.739 126.771 252.374 127.07C249.757 129.133 252.515 127.205 251.92 127.721C251.715 127.9 251.227 128.155 251.137 128.227C250.845 128.461 250.909 128.56 250.7 128.699C250.211 129.02 250.67 128.488 250.626 128.508C250.153 128.736 248.522 129.965 249.683 129.415C249.08 129.894 248.885 129.754 248.417 130.149C247.476 130.926 249.003 129.951 249.424 129.697C250.943 128.798 251.34 128.444 253.28 126.876C253.974 126.306 254.828 125.659 255.133 125.372C255.346 125.202 256.792 123.166 257.261 123.491C257.879 122.732 258.549 121.32 259.153 120.539C259.698 119.836 259.694 120.182 259.75 120.121C259.839 120.027 260.45 119.132 260.674 118.841C260.939 118.503 260.89 118.727 261.286 118.169C262.257 116.765 262.027 116.683 262.107 116.528C262.952 114.684 262.778 115.597 263.014 115.212C263.324 114.89 265.508 109.429 265.814 108.223C265.631 108.692 265.438 109.161 265.237 109.623C265.402 108.731 265.868 107.88 265.646 107.798C266.072 107.729 266.292 105.862 266.405 105.319C266.455 105.105 266.516 105.135 266.573 104.866C266.818 103.82 267.095 101.411 267.166 100.832C267.574 98.3305 267.102 104.795 266.878 105.291C267.196 104.308 267.879 98.5345 267.788 101.21C267.775 101.628 267.513 102.336 267.473 102.563C267.199 104.109 267.533 102.91 267.53 103.034C267.525 103.247 267.206 104.247 267.169 104.515C267.154 104.606 267.416 104.054 267.112 105.531C267.461 104.846 267.947 100.62 267.962 100.073C267.966 99.8786 268.257 101.129 268.094 97.4982C268.12 97.5406 268.146 97.583 268.172 97.6255C268.177 97.4174 268.179 97.2089 268.181 97C268.19 95.4183 268.2 93.8366 268.21 92.2548C268.149 92.4465 268.025 93.4365 268.052 92.1896C268.067 91.4718 268.203 92.0029 268.207 91.9374C268.245 91.2932 268.2 79.8916 268.215 77.682C268.22 76.9304 268.33 74.8353 268.332 74.6755C268.343 73.7203 268.271 70.3376 268.287 69.6628C268.297 69.2415 268.411 69.642 268.405 69.2656C268.4 68.9157 268.29 69.2782 268.285 69.1743C268.245 68.3135 268.39 61.7743 268.286 60.2216C268.317 61.1706 268.097 65.9065 268.019 65.8112C268.008 65.7906 267.924 64.6397 267.965 64.4022C267.869 64.01 268.16 62.6631 268.103 61.9306C268.097 61.8478 267.934 62.1741 267.904 60.8666C267.894 60.4163 268.021 59.237 267.878 58.0501C267.947 56.3318 267.735 47.2978 267.911 46.6779C267.92 46.6596 267.98 47.9317 268.052 47.0722C268.148 45.9296 267.826 46.9558 267.798 45.6241C267.794 45.4234 267.826 41.7184 267.846 41.5971C268.027 40.475 268.1 43.7125 268.121 43.6671C268.174 43.5542 268.206 40.8642 268.194 40.7549C268.181 40.6508 267.941 42.8446 268.032 40.2084C268.061 40.5104 268.089 40.8124 268.118 41.1144C268.174 39.8746 268.008 39.7564 267.998 39.456C267.966 38.5223 268.218 37.5122 267.907 36.0161C267.824 35.6206 267.732 36.2773 267.72 36.2278C267.609 35.7526 267.906 35.1463 267.684 34.4317C267.668 34.3779 267.535 36.0409 267.535 33.1343C267.556 33.3344 267.577 33.5344 267.598 33.7345C267.646 33.3246 267.674 30.3817 267.663 29.9858C267.63 28.8292 267.477 29.8378 267.496 28.6754C267.705 29.421 267.732 25.8859 267.552 26.0893C267.778 25.5955 267.604 22.5926 267.598 21.1809C267.595 20.2902 267.694 18.4734 267.682 18.1904C267.668 17.8456 267.514 17.9504 267.48 17.3279C267.47 17.1504 267.583 15.2972 267.423 13.6705C267.392 13.3553 267.131 12.6932 267.065 13.2791C266.953 14.2821 267.164 16.1794 267.01 16.1552C266.844 16.1267 266.943 13.5712 266.921 12.8834C266.821 9.70786 266.645 11.5416 266.592 11.4599C266.463 11.2481 266.467 9.513 266.455 9.4406C266.403 9.14054 266.301 10.3701 266.222 10.3886C266.119 10.411 265.934 8.73857 265.899 9.11879C265.85 9.66305 266.004 11.2001 265.997 11.2975C265.897 12.5661 265.66 10.8273 265.543 10.3481C265.507 10.2028 265.448 10.7816 265.438 10.6612C265.278 8.82255 265.772 10.2736 265.739 9.05066C265.709 7.95956 265.553 9.36342 265.545 9.32173C265.535 9.26786 265.527 7.96329 265.471 7.75906C265.444 7.65842 265.14 11.0492 265.004 10.9076C265.034 9.82571 265.064 8.74383 265.094 7.66194C264.917 7.57713 265.047 9.13324 265.029 9.29419C264.992 9.61821 264.902 8.71471 264.846 8.75349C264.811 8.7743 264.683 9.8347 264.631 8.87671C264.613 8.54747 264.737 7.85651 264.61 6.65737C264.448 10.8305 264.348 7.93861 264.285 7.8156C264.222 7.6951 264.074 9.68741 264.1 7.2691C263.755 7.16425 263.991 7.32123 263.93 8.0084C263.856 8.8502 263.742 6.90464 263.828 9.9813C263.667 9.80627 263.678 7.33334 263.665 7.20242C263.654 7.08937 263.574 7.63905 263.547 7.44305C263.235 5.12476 263.377 6.71708 263.178 6.04564C263.16 5.98592 263.086 3.79477 263.057 5.4629C263.004 8.50197 263.233 9.77211 262.743 10.2828C262.531 8.03491 262.847 5.31126 262.852 4.62793C262.86 3.582 262.76 4.66548 262.732 4.5366C262.723 4.49184 262.731 3.59052 262.723 3.57842C262.35 2.93573 262.717 7.59085 262.652 9.05646C262.596 8.66361 262.54 8.27077 262.484 7.87793C262.482 8.4109 262.48 8.94387 262.478 9.47684C262.365 6.93778 262.435 9.38732 262.132 10.0204C262.064 10.1626 262.181 8.49451 261.992 10.3973C261.948 8.9939 261.887 9.44155 261.972 8.17075C261.851 8.20355 261.714 11.0628 261.652 12.1905C261.515 8.20649 261.96 10.4784 261.725 7.03426C261.875 6.39558 261.846 8.03953 261.871 7.90547C261.96 7.42451 261.818 6.29702 262.13 4.93669C262.182 4.7152 262.339 5.65243 262.332 4.26553C262.331 4.11213 262.196 3.22841 262.186 3.24066C262.081 3.35782 262.12 4.23232 262.076 4.26843C262.034 4.30231 262.059 3.32665 262.048 3.32329C261.916 3.29331 261.997 4.13734 261.956 4.01475C261.866 3.75001 261.581 0.240591 261.664 4.82072C261.814 1.01644 261.811 4.33366 261.753 5.81515C261.739 6.19295 261.66 6.28864 261.632 6.82697C261.597 7.51944 261.635 8.32994 261.62 8.68826C261.604 9.07363 261.417 6.88395 261.473 10.0509C261.287 8.43913 261.485 5.59218 261.355 4.00895C261.091 0.814711 261.035 6.23611 261.009 6.80088C261.002 6.95134 260.896 6.4469 260.889 6.5472C260.879 6.71122 260.928 9.78808 260.84 10.0915C260.752 10.394 260.844 8.96448 260.752 8.86946C260.69 8.80504 260.58 12.5168 260.538 10.5075C260.509 9.1226 260.758 6.56984 260.49 6.13986C260.468 8.17655 260.446 10.2132 260.424 12.2499C260.322 11.1352 260.22 10.0204 260.118 8.9057C260.086 11.1917 260.201 13.1679 260.055 15.339C259.729 10.1219 259.795 17.033 259.755 17.109C259.731 17.1344 259.466 15.0809 259.418 14.7505C259.316 16.5701 259.266 22.0994 258.939 18.8645C259.013 19.4516 258.831 20.8735 258.817 20.8548C258.673 20.6742 258.766 17.573 258.636 18.0788C258.484 18.6649 258.69 19.4863 258.673 20.388C258.588 25.0152 257.834 23.7457 257.953 28.3854C257.926 28.2931 257.899 28.2008 257.872 28.1086C257.915 33.1517 257.958 38.1949 258.001 43.238C257.77 45.2112 257.63 50.4625 257.655 53.0417C257.66 53.5611 257.781 56.1109 257.802 56.3033C257.843 56.6596 257.859 54.7004 257.935 55.5857C257.95 55.7727 258.001 60.0896 257.872 59.7809C257.857 59.2971 257.922 57.7832 257.892 57.5355C257.675 55.7949 257.848 69.1035 257.761 69.7628C257.719 69.4681 257.677 69.1733 257.635 68.8786C257.656 69.7184 257.676 70.5582 257.697 71.398ZM268.047 32.8082C268.176 32.3042 268.079 31.041 268.115 30.2946C268.166 29.2633 268.664 27.5104 268.165 28.2651C268.126 29.7795 268.086 31.2938 268.047 32.8082ZM268.24 54.9407C268.17 53.9252 267.891 54.7128 268.007 55.5452C268.02 55.6375 268.333 56.3146 268.24 54.9407ZM268.107 44.2948C268.104 44.3375 268.111 45.2151 268.115 45.2457C268.227 46.0327 268.204 43.387 268.107 44.2948ZM267.964 95.7223C267.976 94.6034 268.23 95.4137 268.125 96.1093C268.119 96.1531 267.964 95.7959 267.964 95.7223ZM267.958 94.9265C267.731 94.0575 268.191 92.3073 268.144 93.6987C268.14 93.8336 267.969 94.9667 267.958 94.9265ZM268.129 51.321C268.042 51.4353 268.084 52.4828 268.105 52.9301C268.184 52.9179 268.119 51.7597 268.129 51.321ZM268.105 77.8792C268.036 77.9236 268.04 74.2828 268.13 74.0348C268.092 74.6094 268.166 77.8373 268.105 77.8792ZM268.009 87.216C267.997 87.1238 268.015 85.866 268.075 85.9027C268.154 86.5167 268.062 87.6316 268.009 87.216ZM266.776 106.921C266.733 106.991 266.666 105.864 266.224 108.378C266.155 108.748 266.622 107.492 266.596 107.622C266.548 107.899 266.499 108.114 266.452 108.285C266.82 107.151 267.108 105.947 267.11 105.825C267.128 105.254 266.799 106.892 266.776 106.921ZM262.317 117.056C262.147 117.238 261.36 118.575 261.18 118.879C261.15 118.933 261.437 118.803 261.036 119.379C260.709 119.838 261.049 119.053 260.445 119.965C259.824 120.88 260.782 119.749 260.731 119.83C260.673 119.949 259.597 121.284 259.7 121.296C259.79 121.314 260.839 119.8 261.097 119.425C261.438 118.951 261.149 119.609 261.663 118.778C261.981 118.252 261.617 118.425 261.677 118.31C261.739 118.222 262.93 116.446 262.316 117.059C262.316 117.058 262.316 117.057 262.317 117.056ZM266.351 108.591C266.384 108.507 266.418 108.407 266.452 108.285C266.419 108.388 266.385 108.49 266.351 108.591ZM267.954 35.7422C268.019 36.27 268.103 34.7032 268.017 34.1099C267.948 34.0997 267.943 35.6581 267.954 35.7422ZM265.854 109.589C265.326 111.268 265.849 110.083 266.351 108.591C266.168 109.055 266.021 109.022 265.854 109.589ZM267.965 64.4022C267.981 64.4673 268.006 64.5086 268.046 64.5138C268.002 64.3427 267.978 64.3273 267.965 64.4022ZM268.037 68.0045C267.914 69.2394 267.919 66.7303 268.007 66.7462C268.041 66.7537 268.042 67.955 268.037 68.0045ZM267.976 97.1802C267.968 97.0691 267.662 98.5924 267.796 97C267.813 96.8065 267.837 96.5606 267.871 96.2514C267.915 97.6113 267.956 96.1766 267.988 96.1978C268.024 96.2187 268.033 96.5584 268.033 97C268.037 97.8352 267.964 98.9687 267.966 99.3315C267.78 99.7709 268.03 97.6118 267.976 97.1835C267.976 97.1824 267.976 97.1813 267.976 97.1802ZM248.508 131.167C248.862 131.072 249.797 130.451 250.415 130.019C250.07 130.138 249.154 130.776 248.508 131.167ZM73.5363 136.831C78.0768 136.923 78.665 136.521 74.5105 136.68C74.4292 136.683 73.2606 136.791 73.5363 136.831ZM112.509 136.727C112.937 136.552 111.521 136.524 110.59 136.596C110.379 136.613 109.599 136.79 110.489 136.825C110.461 136.612 111.837 136.531 112.509 136.727ZM265.424 110.491C265.148 110.936 264.654 112.424 264.324 113.188C264.626 112.767 265.22 111.197 265.424 110.491ZM88.4585 136.622C88.9372 136.609 89.2603 136.761 89.1776 136.774C88.8078 136.832 87.9131 136.709 88.4585 136.622ZM266.813 105.611C266.771 105.531 266.213 107.528 266.327 107.713C266.445 107.28 266.852 105.674 266.813 105.611ZM249.685 130.368C249.938 130.166 248.495 131.014 248.072 131.29C248.147 131.341 249.525 130.511 249.685 130.368ZM96.1646 136.674C96.5935 136.66 97.6639 136.656 97.7824 136.718C97.9296 136.795 96.36 136.769 96.1646 136.674ZM16.4164 136.541C16.3621 136.568 18.0159 136.768 18.7537 136.717C20.1532 136.621 16.4723 136.521 16.4164 136.541ZM83.9265 136.543C82.5756 136.688 84.0755 136.548 84.0163 136.7C83.1075 136.706 80.8454 136.713 82.4006 136.563C82.7035 136.534 83.5028 136.553 83.9265 136.543ZM85.1726 136.492C85.3176 136.542 86.2929 136.698 85.4498 136.686C85.0597 136.681 84.4328 136.508 85.1726 136.492ZM26.6876 136.608C27.8958 136.473 22.3541 136.546 22.1945 136.57C22.1098 136.582 22.0542 136.594 22.0226 136.604C21.8174 136.561 20.7644 136.553 20.6428 136.661C20.9581 136.653 21.8203 136.662 21.9206 136.65C21.9639 136.645 21.996 136.64 22.0182 136.635C22.3932 136.729 26.4511 136.634 26.6876 136.608ZM35.8916 136.469C34.5032 136.27 34.2585 136.609 34.3778 136.62C35.888 136.759 34.9031 136.509 34.9494 136.497C35.0548 136.478 36.1285 136.593 35.8873 136.469C35.8887 136.469 35.8902 136.469 35.8916 136.469ZM28.5769 136.553C28.5196 136.548 27.3535 136.559 27.3058 136.564C26.35 136.678 29.65 136.649 28.5769 136.553ZM257.217 123.601C256.605 124.315 257.327 123.726 257.707 123.225C257.737 123.182 257.75 122.966 257.217 123.601ZM85.8387 136.526C86.0331 136.502 90.9752 136.414 90.6775 136.602C90.2597 136.58 84.6396 136.676 85.8387 136.526ZM122.769 136.48C121.9 136.482 122.847 136.659 123.31 136.593C123.482 136.568 122.988 136.48 122.769 136.48ZM267.16 102.826C267.398 101.828 267.047 101.996 267.033 102.883C267.032 102.918 267.151 102.865 267.16 102.826ZM115.805 136.582C118.817 136.69 118.088 136.127 114.195 136.317C114.317 136.342 114.439 136.367 114.561 136.392C110.056 136.477 114.255 136.432 115.355 136.463C115.773 136.475 115.423 136.569 115.802 136.583C115.803 136.583 115.804 136.583 115.805 136.582ZM127.356 136.469C130.254 136.07 124.715 136.33 123.134 136.278C124.661 136.443 126.68 136.418 123.947 136.587C127.939 136.62 126.275 136.461 126.436 136.447C126.624 136.432 127.233 136.487 127.356 136.469ZM119.721 136.467C119.554 136.455 118.292 136.536 117.836 136.523C118.474 136.66 120.832 136.546 119.721 136.467ZM45.5429 136.562C45.438 136.455 45.1781 136.376 44.1811 136.416C44.489 136.47 45.126 136.516 45.5429 136.562ZM267.484 31.8514C267.477 31.1664 267.436 29.8023 267.549 30.2206C267.558 30.2664 267.547 31.8493 267.484 31.8514ZM100.19 136.439C100.331 136.426 104.11 136.417 102.805 136.535C102.411 136.571 98.9818 136.556 100.19 136.439ZM80.6785 136.453C80.9939 136.452 82.2748 136.472 82.302 136.497C82.3887 136.584 80.8164 136.536 80.6785 136.453ZM267.375 28.3956C267.364 28.3054 267.383 26.213 267.435 26.443C267.533 26.8796 267.413 28.7048 267.375 28.3956ZM254.641 125.844C254.494 125.974 254.38 126.235 254.33 126.281C254.238 126.42 251.414 128.652 252.578 127.905C252.827 127.842 256.621 124.292 257.001 123.722C257.068 123.43 255.654 125.135 255.239 125.485C255.168 125.548 255.034 125.495 254.642 125.844C254.642 125.844 254.641 125.844 254.641 125.844ZM40.3553 136.449C40.2144 136.348 36.4551 136.281 36.4947 136.404C37.7892 136.419 39.0687 136.434 40.3553 136.449ZM42.2667 136.433C43.0702 136.361 41.1882 136.337 40.6347 136.369C40.6286 136.437 42.1494 136.443 42.2667 136.433ZM87.819 136.074C88.1974 136.099 87.0336 136.247 87.294 136.275C87.4608 136.293 88.3064 136.238 88.576 136.284C88.6525 136.299 87.7901 136.438 87.5405 136.432C87.1861 136.424 87.5299 136.314 87.1431 136.314C85.8588 136.311 84.7198 136.389 83.5179 136.388C83.4093 136.387 84.2515 136.31 83.3252 136.311C83.1821 136.311 82.322 136.426 81.2134 136.409C78.7651 136.053 76.9662 136.403 73.8595 136.274C73.9768 136.241 76.3003 136.151 76.4371 136.147C79.0358 136.089 83.6856 136.082 86.4075 136.081C87.1061 136.081 86.7668 136.157 87.0677 136.159C87.3054 136.161 87.0228 136.022 87.819 136.074ZM267.407 32.2153C267.268 31.8888 267.356 30.7435 267.349 30.0119C267.474 30.2694 267.376 31.5004 267.407 32.2153ZM59.1698 136.324C59.5368 136.33 60.6749 136.288 60.769 136.33C60.8901 136.385 59.2473 136.419 59.1698 136.324ZM236.959 135.267C236.92 135.275 235.951 135.493 235.915 135.502C235.07 135.8 237.978 135.14 236.959 135.267ZM214.987 136.306C214.317 136.288 213.634 136.245 213.406 136.358C213.84 136.341 215.067 136.384 214.987 136.306ZM185.866 136.302C186.005 136.154 183.992 136.25 183.607 136.263C183.751 136.329 185.767 136.409 185.866 136.302ZM45.6881 136.097C44.4539 136.106 44.7144 135.881 43.9313 135.983C43.8036 136 43.3903 136.467 44.7463 136.292C44.9904 136.261 44.0354 136.15 45.6881 136.097ZM113.56 136.322C113.247 136.224 112.269 136.253 111.607 136.261C111.756 136.334 113.09 136.315 113.56 136.322ZM267.263 24.6165C267.124 24.0392 267.227 21.3718 267.318 22.0318C267.33 22.1257 267.257 24.2423 267.263 24.6165ZM263.666 113.593C263.046 114.661 264.1 112.342 264.476 111.626C264.344 111.965 263.715 113.524 263.666 113.593ZM192.857 136.222C192.805 136.217 191.646 136.228 191.593 136.233C190.643 136.347 193.923 136.318 192.857 136.222ZM221.919 136.126C221.514 136.036 218.749 136.108 218.107 136.198C218.733 136.329 222.444 136.238 221.919 136.126ZM50.7487 136.161C49.8699 136.156 49.0368 136.184 48.2308 136.222C48.3999 136.298 50.6555 136.217 50.7487 136.161ZM188.57 136.212C188.506 136.213 188.445 136.221 188.384 136.222C188.447 136.219 188.509 136.216 188.57 136.212ZM70.408 136.108C71.1438 136.078 70.9912 136.216 70.9458 136.22C70.3922 136.265 69.575 136.141 70.408 136.108ZM267.202 31.3745C267.077 31.1194 267.174 29.8817 267.144 29.1697C267.242 29.3762 267.215 30.801 267.202 31.3745ZM130.451 136.214C131.373 136.078 127.622 135.921 126.825 136.008C126.768 136.092 130.318 136.232 130.451 136.214ZM264.931 109.983C264.875 109.878 265.528 108.231 265.456 108.602C265.419 108.841 264.976 110.053 264.931 109.983ZM124.928 136.065C124.572 136.035 123.746 136.132 124.036 136.191C124.41 136.266 125.019 136.074 124.928 136.065ZM93.2139 135.987C93.3691 135.972 95.45 136.072 94.5904 136.172C93.9939 136.241 93.8988 136.1 93.7585 136.1C93.5991 136.1 90.267 136.273 93.2139 135.987ZM151.527 136.128C150.745 136.091 149.797 136.134 148.974 136.132C149.31 136.192 151.195 136.209 151.527 136.128ZM262.106 116.171C262.258 116.008 264.676 110.743 263.406 113.783C263.359 113.974 261.91 116.804 262.106 116.171ZM45.6881 136.097C45.843 136.096 46.0217 136.091 46.229 136.081C46.0231 136.085 45.844 136.092 45.6881 136.097ZM59.666 136.082C59.3823 136.011 60.8115 135.992 61.2335 136.03C61.3633 136.117 59.705 136.092 59.666 136.082ZM148.911 136.032C148.437 135.992 147.575 136.035 146.985 136.03C147.085 136.097 148.707 136.1 148.911 136.032ZM182.106 135.958C181.16 135.997 180.027 135.979 180.006 135.898C179.986 135.911 179.941 135.924 179.866 135.938C179.79 135.951 178.789 135.913 178.351 135.941C175.733 136.105 188.458 136.038 181.068 135.809C181.412 135.858 181.752 135.908 182.106 135.958ZM225.659 135.935C226.196 135.836 227.663 135.96 227.282 135.999C227.023 136.025 225.128 136.034 225.659 135.935ZM205.141 135.877C205.302 135.859 206.734 135.928 206.775 135.98C205.95 136.035 204.422 135.958 205.141 135.877ZM229.9 135.777C230.268 135.746 230.754 135.873 230.71 135.882C230.333 135.97 229.283 135.893 229.9 135.777ZM48.2337 135.668C48.7307 135.623 50.3173 135.738 50.6632 135.843C50.7274 135.823 50.9009 135.796 51.2188 135.764C51.2179 135.764 51.2169 135.764 51.2159 135.764C51.6536 135.722 64.4655 135.676 55.8673 135.878C55.5982 135.884 55.9657 135.79 54.8709 135.807C54.7985 135.808 54.7625 135.885 54.5393 135.889C54.0283 135.897 51.2803 135.945 50.7299 135.883C50.7252 135.898 50.6896 135.911 50.6138 135.924C49.9373 136.035 47.8477 135.704 48.2337 135.668ZM202.251 135.863C202.548 135.834 203.48 135.861 203.576 135.929C203.117 135.962 201.564 135.929 202.251 135.863ZM261.95 115.879C262.232 115.278 263.073 113.822 262.896 114.3C262.804 114.605 261.638 116.582 261.95 115.879ZM211.544 135.899C208.146 135.979 210.734 135.892 210.214 135.793C210.659 135.828 211.103 135.863 211.544 135.899ZM32.3757 135.926C32.9211 135.903 32.2799 135.706 31.6798 135.813C31.4915 135.847 32.0705 135.938 32.3757 135.926ZM7.7123 135.865C8.18173 135.69 5.89526 135.793 6.78696 135.912C6.82895 135.916 7.6817 135.871 7.7123 135.865ZM24.9432 135.793C25.3135 135.912 25.5542 135.926 26.5991 135.897C25.0529 135.863 26.4863 135.758 24.9432 135.793ZM180.016 135.885C180.01 135.89 180.005 135.894 180.006 135.898C180.013 135.894 180.015 135.89 180.016 135.885ZM233.46 135.479C233.915 135.321 235.233 135.099 234.858 135.266C234.824 135.286 233.663 135.531 233.46 135.479ZM50.6632 135.843C50.6061 135.861 50.6352 135.873 50.7299 135.883C50.7343 135.87 50.7098 135.857 50.6632 135.843ZM226.519 135.769C226.566 135.844 224.737 135.873 224.658 135.864C223.596 135.734 225.778 135.764 226.519 135.769ZM266.22 103.243C266.245 103.14 266.327 103.84 266.175 104.233C266.058 104.536 266.132 103.625 266.22 103.243ZM21.3993 135.745C20.8175 135.745 20 135.745 19.8493 135.837C20.2379 135.823 21.4111 135.812 21.3993 135.745ZM8.59898 135.738C9.28009 135.846 10.8405 135.846 11.841 135.828C11.8581 135.686 9.2368 135.772 8.59898 135.738ZM46.6644 135.722C46.7117 135.716 48.1624 135.673 47.9643 135.769C47.6746 135.908 46.2553 135.773 46.6644 135.722ZM265.698 106.325C265.462 107.005 265.667 105.36 265.958 104.645C266.121 104.277 265.75 106.214 265.698 106.325ZM237.518 134.556C238.453 134.38 236.19 135.042 235.839 134.992C236.269 134.9 237.188 134.621 237.518 134.556ZM207.543 135.618C210.271 135.331 208.785 135.855 208.303 135.809C208.235 135.802 207.477 135.625 207.543 135.618ZM266.689 17.9135C266.729 17.5311 266.873 18.9568 266.778 19.1413C266.718 19.2553 266.663 18.1581 266.689 17.9135ZM166.863 135.805C166.976 135.806 167.088 135.807 167.199 135.807C167.116 135.803 167.006 135.801 166.863 135.805ZM245.396 131.196C243.702 132.488 243.745 132.078 243.586 132.161C243.23 132.326 242.432 132.783 241.73 133.028C242.541 132.769 243.342 132.483 244.137 132.169C243.585 132.585 238.088 134.642 237.916 134.511C237.725 134.473 239.506 134.002 239.551 133.968C239.621 133.933 239.817 133.599 239.975 133.537C240.261 133.505 244.769 131.683 245.396 131.196ZM213.193 135.663C212.751 135.694 212.625 135.797 212.418 135.773C212.351 135.764 212.34 135.666 212.11 135.64C212.454 135.648 212.832 135.656 213.193 135.663ZM248.83 129.651C249.272 129.241 247.028 130.674 246.948 130.709C246.592 131.011 248.48 130.011 248.83 129.651ZM227.419 135.681C227.451 135.679 227.735 135.671 228.069 135.667C228.692 135.663 229.471 135.638 229.463 135.679C229.237 135.709 228.624 135.741 228.069 135.743C227.398 135.749 226.825 135.732 227.419 135.681ZM211.825 135.634C211.186 135.645 209.961 135.744 210.101 135.596C210.102 135.596 210.103 135.596 210.104 135.596C210.681 135.609 211.255 135.621 211.825 135.634ZM264.735 108.607C264.892 107.271 265.011 107.955 264.72 109.105C264.507 109.411 264.707 108.827 264.735 108.607ZM265.611 104.456C265.689 104.097 266.23 100.349 266.265 100.93C266.303 101.147 265.898 103.292 265.875 103.392C265.861 103.545 266.119 102.879 265.89 104.026C265.857 103.951 265.601 104.583 265.611 104.456ZM264.904 107.513C265.081 106.2 265.461 105.99 265.216 106.953C265.117 107.329 264.877 107.701 264.904 107.513ZM263.107 112.572C263.275 112.126 263.715 110.951 264.111 110.168C263.721 111.267 263.282 112.346 262.795 113.404C262.681 113.498 262.966 112.963 263.109 112.569C263.108 112.57 263.108 112.571 263.107 112.572ZM1.3912 134.89C2.33939 134.796 0.155304 134.761 0.0644226 134.784C-0.20932 134.86 0.966858 134.932 1.3912 134.89ZM263.682 10.4713C263.645 10.2065 263.522 10.0335 263.586 9.45075C263.677 10.0369 263.768 10.623 263.859 11.2091C263.65 11.6646 263.723 10.7606 263.682 10.4713ZM262.921 8.23308C262.916 8.31588 262.596 7.86361 262.81 8.93324C262.954 9.65595 263.095 5.72584 262.953 5.01642C262.887 5.80029 262.962 7.52037 262.921 8.23308ZM261.536 1.34893C261.51 1.30361 261.473 2.79676 261.491 2.96958C261.585 3.87707 261.672 1.5941 261.536 1.34893ZM261.597 6.11232C261.534 5.41206 261.494 6.96334 261.53 7.42566C261.59 7.4705 261.606 6.22049 261.597 6.11232ZM11.0359 130.254C11.7938 130.036 12.4727 130.504 11.3056 130.41C11.25 130.406 11.0037 130.264 11.0359 130.254ZM261.213 2.80868C261.275 3.50893 261.315 1.95765 261.279 1.49534C261.22 1.45234 261.204 2.70205 261.213 2.80868ZM11.5696 129.735C12.5773 129.579 12.2226 130.104 12.0965 130.125C11.5768 130.209 9.802 130.003 9.44093 129.951C12.0945 130.03 11.0963 129.809 11.5696 129.735ZM16.2171 130.051C17.1447 130.107 14.7782 130.214 14.3125 130.068C14.7844 130.075 15.9511 130.035 16.2171 130.051ZM21.8871 129.882C22.3974 129.863 23.8772 129.818 24.129 129.901C23.5819 129.886 22.1044 129.967 21.8871 129.882ZM23.0239 129.635C23.8055 129.522 23.993 129.85 23.0918 129.752C23.0568 129.748 22.9952 129.641 23.0239 129.635ZM27.4291 129.516C27.9447 129.386 28.5338 129.703 27.6978 129.712C27.4495 129.714 27.3746 129.531 27.4291 129.516ZM12.8318 129.17C13.5714 129.114 14.5253 129.341 12.9453 129.366C13.4999 129.401 14.0553 129.435 14.6115 129.47C12.5387 129.597 12.6932 129.282 12.0994 129.295C11.2711 129.314 11.3368 129.574 11.5029 129.655C10.8174 129.496 7.96497 129.494 6.28391 129.463C7.76611 129.396 10.1093 129.281 11.5609 129.238C11.9736 129.226 12.3746 129.297 12.7271 129.289C13.2926 129.276 12.7903 129.174 12.8289 129.17C12.8299 129.17 12.8309 129.17 12.8318 129.17ZM33.2284 129.512C34.741 129.364 33.7841 129.683 32.9301 129.626C32.8936 129.621 33.1908 129.515 33.2284 129.512ZM260.245 0.80243C260.378 2.82383 260.555 1.35452 260.287 5.58321C260.476 3.80664 260.423 5.48496 260.5 5.13819C260.56 4.86 260.51 3.81762 260.632 4.42353C260.499 3.62711 260.536 0.169446 260.514 0.0152966C260.514 0.0167462 260.514 0.0181958 260.514 0.0196454C260.502 -0.0729379 260.203 0.157406 260.245 0.80243ZM21.8944 129.05C22.4025 128.663 22.5989 129.277 23.5871 128.956C24.9094 129.421 19.9351 128.956 19.3311 129.349C24.7399 129.304 15.7603 129.738 19.5328 129.15C16.4286 129.364 18.5156 129.078 18.0364 129.003C17.5237 128.923 15.7741 129.01 15.8634 128.866C15.8643 128.866 15.8653 128.866 15.8662 128.866C16.9353 128.876 18.0071 128.886 19.0815 128.896C18.03 129.206 20.225 129.113 20.9729 128.86C21.2799 128.923 21.587 128.987 21.8944 129.05ZM15.8157 129.341C15.92 129.334 18.25 129.378 18.1001 129.44C17.7863 129.48 14.4855 129.432 15.8157 129.341ZM5.53247 129.273C6.37357 129.273 7.68135 129.212 8.13022 129.329C7.30426 129.33 5.98752 129.39 5.53247 129.273ZM48.7146 129.251C49.7826 129.347 46.4948 129.376 47.4459 129.262C47.4926 129.257 48.662 129.247 48.7146 129.251ZM24.3212 129.108C25.4056 128.99 24.8928 129.366 24.0899 129.268C24.0435 129.262 24.2711 129.114 24.3212 129.108ZM260.199 2.44048C260.107 2.51317 260.172 5.44603 260.171 5.96591C260.257 5.67053 260.305 2.35709 260.199 2.44048ZM4.05331 128.929C5.72195 128.598 8.00467 128.98 8.24268 128.972C8.48828 128.963 8.10306 128.819 8.15906 128.815C8.28508 128.807 10.9072 128.819 11.0359 128.829C11.1271 128.837 10.6513 129.04 11.194 129.104C10.1357 128.989 5.33789 129.061 5.08011 129.038C4.88666 129.02 6.34595 128.807 4.05621 128.929C4.05527 128.929 4.05429 128.929 4.05331 128.929ZM8.86026 128.928C8.20595 129.013 10.0407 129.023 10.4869 128.992C11.476 128.922 8.94273 128.917 8.86026 128.928ZM13.2901 128.849C13.5009 128.83 15.4095 128.812 15.5647 128.907C14.6767 129.03 12.8079 128.894 13.2901 128.849ZM34.4141 128.862C34.907 128.874 36.2654 128.801 36.3435 128.884C35.8485 128.872 34.4913 128.945 34.4141 128.862ZM259.476 12.4471C259.406 11.628 259.378 13.5257 259.411 14.0793C259.467 14.1094 259.482 12.5168 259.476 12.4471ZM24.5049 128.315C24.7865 128.29 30.7705 128.353 31.5902 128.392C30.7884 128.454 24.8583 128.459 24.6004 128.429C24.5223 128.419 24.4677 128.319 24.5049 128.315ZM11.6204 128.277C11.0738 128.155 10.7179 128.301 10.6491 128.303C9.97385 128.322 8.5788 128.294 8.88478 128.412C10.0698 128.364 12.7086 128.519 11.6204 128.277ZM34.8377 128.309C36.8621 128.354 32.9742 128.483 33.4848 128.355C33.5175 128.348 34.6282 128.304 34.8377 128.309ZM23.8413 128.28C23.412 128.181 17.4224 128.266 16.4799 128.266C17.3339 128.448 18.0229 128.31 19.1743 128.319C19.4851 128.322 19.4022 128.398 19.4355 128.398C19.974 128.401 19.571 128.314 19.9031 128.312C20.1146 128.312 24.4724 128.419 23.8413 128.28ZM11.3085 128.192C10.9708 128.122 7.27025 128.092 7.11674 128.111C6.00555 128.249 11.0138 128.217 11.3085 128.192ZM24.3863 128.118C23.7491 127.906 20.7934 128.048 22.8176 128.153C23.01 128.163 23.8255 128.071 24.3863 128.118ZM34.6215 128.108C34.7205 128.102 36.8327 128.059 36.8712 128.127C36.5643 128.153 33.4882 128.176 34.6215 128.108ZM33.5283 127.88C33.5792 127.882 33.0849 128.011 34.0733 127.995C34.1558 127.993 34.3089 127.848 35.5533 127.901C35.8058 127.912 36.1974 128.008 36.1691 128.014C34.8701 128.243 30.9783 127.805 33.5283 127.88ZM11.2404 128.074C11.4409 128.013 10.9571 127.83 10.5216 127.922C10.335 127.962 10.6831 128.072 11.2404 128.074ZM41.3084 128.049C40.0828 127.938 43.9309 127.917 44.1288 127.945C44.0044 128.014 41.4302 128.059 41.3084 128.049ZM258.62 14.3649C258.62 14.3639 258.62 14.363 258.62 14.362C258.645 15.393 258.738 14.7544 258.74 14.8027C258.876 16.9987 258.667 16.4162 258.642 16.7596C258.589 17.496 258.843 17.3774 258.738 18.6195C258.893 16.5663 258.828 18.4352 258.918 18.4934C259.287 18.7235 258.746 15.7597 258.823 14.736C258.834 14.5934 258.951 15.6465 258.985 15.281C259.093 14.0929 258.524 10.4088 258.62 14.3649ZM10.1858 127.906C9.70749 127.798 6.09305 127.903 7.05106 127.992C7.21144 128.007 10.884 128.064 10.1858 127.906ZM179.689 127.746C178.821 127.653 180.832 127.543 181.2 127.616C181.385 127.652 180.071 127.788 179.689 127.746ZM193.849 127.346C194.856 127.365 195.994 127.755 194.679 127.695C194.541 127.688 193.733 127.4 193.849 127.346ZM125.814 127.546C126.898 127.407 126.833 127.666 126.037 127.663C125.756 127.661 125.779 127.551 125.814 127.546ZM167.106 127.58C167.214 127.571 168.452 127.587 168.413 127.647C167.944 127.683 166.413 127.642 167.106 127.58ZM125.469 127.509C126.112 127.556 125.005 127.744 124.217 127.561C124.617 127.576 125.403 127.505 125.469 127.509ZM26.6194 127.544C27.1565 127.651 28.679 127.619 29.556 127.637C29.6497 127.499 27.2423 127.569 26.6194 127.544ZM189.455 127.503C190.446 127.6 188.323 127.68 188.517 127.551C188.544 127.544 189.417 127.499 189.455 127.503ZM90.905 127.495C91.6175 127.578 89.355 127.688 89.9777 127.544C90.0084 127.538 90.8659 127.491 90.905 127.495ZM81.0192 127.543C81.5602 127.515 83.8662 127.524 82.9687 127.604C82.8294 127.617 81.0598 127.618 81.0192 127.543ZM258.543 16.8205C258.401 16.5291 258.435 18.2207 258.46 18.4629C258.47 18.5581 258.728 17.2006 258.543 16.8205ZM132.839 127.524C133.401 127.542 134.856 127.508 135.112 127.583C134.427 127.567 132.654 127.672 132.839 127.524ZM184.992 127.502C185.847 127.348 187.294 127.363 186.936 127.565C185.334 127.551 187.139 127.384 184.992 127.502ZM121.865 127.344C122.313 127.332 122.656 127.525 122.605 127.534C122.12 127.621 121.42 127.419 121.865 127.344ZM155.554 127.503C155.58 127.42 157.024 127.458 156.831 127.511C156.768 127.529 155.533 127.57 155.554 127.503ZM45.4731 127.497C46.1344 127.422 44.1149 127.348 43.519 127.436C43.2286 127.563 45.3891 127.506 45.4731 127.497ZM109.412 127.392C109.346 127.269 111.599 127.339 110.712 127.44C110.489 127.466 109.436 127.433 109.412 127.392ZM87.8814 127.245C89.3911 127.391 83.0516 127.495 84.7175 127.313C84.8354 127.3 87.7505 127.233 87.8814 127.245ZM77.5332 127.336C77.7937 127.32 77.6635 126.908 76.5864 127.067C76.4451 127.088 77.1065 127.197 76.9909 127.221C76.9229 127.236 74.5807 127.294 74.4728 127.284C74.3567 127.273 74.4933 127.141 74.3756 127.126C74.243 127.11 72.8011 127.226 72.046 127.227C70.6232 127.229 70.4696 127.119 70.353 127.119C70.0129 127.118 69.4424 127.196 68.7524 127.196C65.2761 127.195 59.9668 127.102 57.2106 127.335C59.6612 127.241 61.9996 127.341 64.4356 127.371C63.7213 127.142 68.0229 127.548 65.5068 127.283C66.6663 127.341 76.6799 127.387 77.5303 127.336C77.5313 127.336 77.5323 127.336 77.5332 127.336ZM197.954 127.23C197.324 127.09 200.566 127.121 200.836 127.284C200.412 127.306 198.037 127.246 197.954 127.23ZM182.874 126.887C182.575 126.863 182.255 126.588 180.691 126.727C180.689 126.727 180.688 126.727 180.686 126.727C180.225 126.768 180.751 126.835 180.666 126.859C180.636 126.869 179.195 127.005 180.392 127.027C182.211 127.061 180.564 126.823 181.533 126.82C181.645 126.82 183.525 126.969 183.413 127.001C183.402 127.005 182.84 126.974 182.747 126.987C182.395 127.038 182.566 127.124 182.517 127.128C182.335 127.139 179.441 126.992 179.01 127.12C178.87 127.161 183.669 127.256 183.87 127.235C183.989 127.221 183.939 126.983 184.062 126.96C184.127 126.948 186.062 127.037 186.31 127.015C186.383 127.009 186.438 127.002 186.479 126.997C186.189 127.07 187.926 127.065 187.872 126.982C187.842 126.949 186.648 126.968 186.604 126.974C186.585 126.976 186.569 126.979 186.554 126.982C186.81 126.892 182.72 126.896 183.601 126.762C182.409 126.689 183.771 126.958 182.874 126.887ZM177.188 126.74C177.311 126.765 177.434 126.79 177.557 126.815C175.458 126.754 173.099 126.875 170.703 126.874C170.095 126.874 170.795 126.72 169.997 126.762C169.357 126.796 168.647 126.938 168.996 126.97C169.081 126.978 170.385 126.885 171.034 126.894C172.949 126.923 172.463 127.054 172.575 127.058C172.699 127.061 173.898 126.969 174.548 126.973C176.2 126.984 176.98 127.064 179.232 126.959C177.93 126.872 178.646 126.684 177.188 126.74ZM99.9124 127.02C99.8338 126.937 98.4793 127.011 97.9867 126.999C98.0642 127.081 99.4204 127.008 99.9124 127.02ZM257.913 77.9661C258.048 77.5495 258.082 80.6721 257.969 79.8492C257.944 79.6671 257.914 78.3585 257.913 77.9661ZM257.995 91.9939C257.958 92.4117 257.86 90.7297 257.965 90.7328C257.999 90.7352 258 91.9401 257.995 91.9939ZM150.392 126.874C150.313 126.869 149.163 126.9 149.127 126.907C148.365 127.051 152.149 126.967 150.392 126.874ZM256.093 107.076C256.614 105.942 255.316 109.452 255.623 108.343C255.645 108.291 256.075 107.131 256.093 107.076ZM253.909 111.772C254.068 111.519 254.641 110.332 254.68 110.332C254.76 110.341 254.092 111.703 253.909 111.772ZM121.562 126.831C121.731 126.678 119.689 126.794 118.976 126.774C118.808 126.927 120.854 126.811 121.562 126.831ZM134.466 126.718C125.846 126.597 127.735 126.924 134.98 126.792C134.99 126.694 135.01 126.725 134.466 126.718ZM123.424 126.736C123.734 126.834 124.716 126.805 125.38 126.797C125.262 126.729 123.895 126.754 123.424 126.736ZM257.702 74.2479C257.579 74.7883 257.731 77.1812 257.782 76.7557C257.793 76.6567 257.771 74.0495 257.702 74.2479ZM149.67 126.743C149.872 126.594 147.275 126.655 147.074 126.688C146.271 126.821 149.463 126.71 149.67 126.743ZM109.328 126.7C108.867 126.583 107.575 126.643 106.741 126.645C107.122 126.744 108.614 126.702 109.328 126.7ZM115.354 126.608C115.302 126.604 114.14 126.615 114.088 126.62C113.137 126.734 116.422 126.705 115.354 126.608ZM257.501 12.9356C257.497 12.9744 257.505 13.8558 257.509 13.8865C257.621 14.6733 257.598 12.0278 257.501 12.9356Z" fill="#BD97EC"/>
</svg>
