<svg width="236" height="168" viewBox="0 0 236 168" fill="none" xmlns="http://www.w3.org/2000/svg">
<path d="M0.0878534 138.598C0.101806 138.364 0.0678697 137.423 0.0737538 137.016C-0.0738034 137.478 0.0371909 139.441 0.0878534 138.598ZM10.8029 96.8252C10.7664 97.1631 10.73 97.5009 10.6935 97.8388C10.6698 96.8786 10.6966 95.588 10.6619 94.6969C10.6561 94.5512 10.5505 94.9293 10.5458 94.5844C10.5411 94.2394 10.6854 94.306 10.7009 93.8043C10.7177 93.2416 10.6172 90.665 10.6196 89.7727C10.6294 86.4354 10.7118 83.0694 10.6519 79.7253C10.5451 83.1777 10.4364 79.6988 10.4827 78.7319C10.4934 78.5176 10.7617 78.5518 10.6942 75.0881C10.6513 72.8869 10.2676 74.92 10.4598 71.2468C10.7282 74.0714 10.7094 71.2938 10.7183 69.0796C10.7199 68.6979 10.6796 65.6152 10.6915 64.2535C10.6956 63.7875 10.8362 63.0777 10.8398 62.4597C10.8423 62.0344 10.7654 61.7127 10.7694 61.0812C10.7867 58.1372 10.7926 55.2419 10.7667 52.2927C10.4055 54.0161 10.6127 50.9399 10.5955 50.8017C10.4974 50.0991 10.4695 53.2769 10.4081 52.0201C10.4193 50.2639 10.4305 48.5076 10.4417 46.7514C10.4861 48.1928 10.7459 44.8431 10.6277 44.2265C10.7951 44.3689 10.7105 42.1599 10.6075 39.8452C10.5026 38.0437 10.6179 36.1584 10.7447 35.6575C10.8212 35.4413 10.6736 36.9046 11.2264 33.5433C11.2968 33.1806 11.1734 33.2962 11.2248 33.1088C11.2563 32.9938 11.709 32.3895 11.7511 31.6286C11.7944 31.3564 11.0013 32.9496 12.3142 29.3282C11.9819 30.8258 14.5328 24.5005 15.3573 23.4928C15.255 23.7268 15.1558 23.9617 15.0598 24.1975C15.6228 23.0825 15.8561 22.9655 16.0075 22.7311C16.6277 21.7908 17.5197 20.5071 18.2408 19.7339C19.0887 18.8335 19.2233 18.9626 20.2108 17.9229C19.9903 18.1855 19.7748 18.4513 19.5644 18.7202C20.2573 18.0185 20.9851 17.3508 21.7445 16.7205C19.8259 17.9968 22.1102 16.3834 22.2697 16.295C22.5069 16.1241 22.1091 16.2963 22.5064 16.0097C22.5489 15.9823 22.5465 16.0988 23.1608 15.6665C24.4592 14.7834 24.1966 14.8366 24.7541 14.4798C24.8072 14.4516 24.6682 14.6243 25.6588 14.0668C28.8694 12.4091 25.5998 13.9913 25.4827 14.0758C25.3254 14.1724 26.1749 13.1425 23.6307 14.9403C24.4727 14.325 24.485 14.1408 24.5815 14.0724C24.6621 14.0025 26.2527 13.1174 26.3494 13.088C27.1668 12.7253 26.5216 13.1874 26.6853 13.1251C26.8065 13.0594 28.7261 11.9932 29.331 12.1392C30.1854 11.4771 28.6507 12.053 27.0607 12.796C26.7974 12.8429 28.517 11.9647 28.6189 11.9386C30.9302 11.0081 29.7446 11.7706 30.3044 11.7283C30.5966 11.7106 31.4867 11.2271 30.6886 11.7415C32.8055 11.0721 31.4878 11.3676 31.6169 11.3005C31.8146 11.2057 32.5827 11.0547 32.6753 11.0232C32.8109 10.9734 32.3067 11.0257 32.848 10.8522C32.9403 10.8234 33.8516 10.7319 32.7347 11.0879C34.2437 10.68 34.1492 10.8495 34.6211 10.5066C35.7605 10.7447 35.3466 10.1062 35.7699 10.0103C36.8922 9.77811 36.6095 10.1812 36.671 10.1874C37.0268 10.2173 39.2749 9.94603 40.4653 9.97627C40.7209 9.97725 40.9326 9.98096 41.0753 9.98901C40.9864 9.92543 40.7605 9.89371 40.4653 9.88107C39.6867 9.83571 38.3819 10.0369 38.0157 10.0359C36.3735 9.99594 40.3078 9.76433 39.1081 9.52391C39.5612 9.5822 40.0136 9.65041 40.4653 9.72852C40.5235 9.73747 40.5817 9.74641 40.6399 9.75536C41.6878 9.55154 40.1826 9.46268 43.0337 9.53716C43.498 9.71307 41.0185 9.50937 41.5172 9.64793C41.8038 9.72926 43.4634 9.74673 43.4997 9.7896C43.5299 9.84122 42.0291 9.78004 42.2666 9.85944C42.7808 10.0307 48.2671 9.86766 44.0982 9.77415C45.3004 9.77708 45.8405 9.43636 46.8542 9.54253C47.5129 9.61143 43.82 10.082 49.3587 9.99573C49.4728 9.83484 47.134 9.94821 47.0802 9.93597C46.9957 9.91815 47.4143 9.55507 47.4873 9.53716C47.7673 9.47815 53.3387 9.67256 54.5604 9.49016C54.0834 9.7 58.7731 9.5276 59.3164 9.59154C59.4553 9.60919 58.9363 9.73773 59.0847 9.75133C59.9925 9.83231 62.4298 9.60286 63.5927 9.59691C64.8905 9.59016 64.7162 9.70119 64.7897 9.70097C65.345 9.69478 64.9012 9.61952 65.2411 9.61974C65.745 9.6201 69.3249 9.60471 69.5149 9.62041C69.5681 9.62531 68.9775 9.75212 69.7663 9.77617C69.9074 9.78035 69.8092 9.62999 72.1044 9.69493C74.8782 9.77306 70.1817 9.88191 71.3335 10.0394C73.1084 9.81517 73.0564 10.0373 73.5406 10.0199C73.7006 10.0135 74.9879 9.82465 76.3147 9.83661C75.3636 9.80594 74.3645 9.77528 73.3929 9.74461C74.3551 9.7115 76.2167 9.75249 76.992 9.71507C77.3741 9.69687 77.0583 9.54169 77.8902 9.54588C78.0683 9.54761 78.7639 9.92566 76.5908 9.75603C76.4172 9.89102 77.4496 9.80312 77.9319 9.84131C78.0049 9.84724 78.2916 10.0728 78.9091 9.93262C79.0576 9.89813 77.442 9.24028 81.6091 9.71642C81.7415 9.73177 81.2812 9.81415 81.4106 9.83124C81.4985 9.8428 82.55 9.80946 82.6671 9.82117C82.7862 9.83369 82.2773 9.92365 82.419 9.94135C83.1457 10.0325 84.1027 9.67581 82.6011 9.70299C83.1022 9.65891 83.6048 9.61481 84.1089 9.57072C83.5695 9.83958 84.8999 9.64636 85.6024 9.65465C90.0759 9.70757 87.0797 9.88243 87.8483 9.9729C89.0772 10.1182 88.1354 9.65807 89.9672 9.79631C90.1401 9.80925 87.909 10.0045 92.2588 9.89435C91.6146 9.88673 90.9725 9.87912 90.3325 9.87152C90.6995 9.61147 92.6518 9.88936 92.8026 9.89301C94.4897 9.92871 93.3436 9.83496 95.863 9.96887C96.0884 9.9809 96.5799 9.91672 97.0638 9.94873C99.0688 10.0806 94.4202 10.0288 94.3018 10.134C94.2297 10.1856 99.2426 10.1726 99.4023 10.1481C100.131 10.0396 97.1394 10.1003 97.7087 9.96552C97.9305 9.91765 105.026 10.016 106.444 9.9635C108.082 9.90245 108.826 9.5499 108.836 9.94604C109.301 9.55719 109.713 9.82249 109.924 9.81982C112.484 9.78381 112.464 9.77989 114.649 9.81714C115.131 9.82523 115.539 9.70724 115.709 9.72716C115.809 9.7392 115.623 9.86546 116.11 9.90442C116.799 9.9577 120.831 9.82785 121.138 9.75804C121.439 9.68825 119.426 9.72778 119.787 9.61302C121.242 9.60143 122.645 9.62982 124.116 9.61772C124.723 9.61235 124.411 9.53203 124.673 9.53044C124.784 9.52945 126.884 9.60017 126.796 9.62981C126.591 9.6987 120.088 9.65239 121.801 9.79295C122.131 9.82013 123.301 9.63504 123.115 9.86011C128.908 9.80907 134.732 9.75804 140.527 9.70702C137.2 9.53868 133.431 9.68924 129.949 9.67345C129.468 9.67149 127.846 9.69321 128.043 9.57945C131.033 9.55 134.7 9.60927 137.564 9.53514C137.655 9.53268 137.321 9.43048 137.662 9.41429C138.299 9.38405 140.378 9.54889 140.729 9.50627C140.788 9.49634 139.604 9.3616 139.964 9.27597C140.889 9.05623 141.123 9.54292 141.919 9.53716C142.54 9.53249 146.662 9.29716 147.693 9.44585C148.787 9.60431 144.649 9.53784 144.956 9.6674C147.751 9.79761 150.595 9.65857 153.235 9.67479C153.282 9.6752 152.877 9.77673 153.467 9.79094C154.495 9.81567 154.765 9.67165 155.265 9.64861C155.805 9.62408 157.713 9.64471 157.967 9.59221C157.999 9.58533 157.613 9.44247 157.555 9.43846C156.726 9.37958 156.429 9.56499 156.354 9.56737C156.069 9.5744 155.79 9.50339 155.531 9.50761C155.104 9.51466 154.869 9.58037 154.305 9.58617C153.917 9.59041 154.292 9.46425 153.917 9.47002C153.78 9.47264 152.298 9.76074 152.16 9.46666C152.115 9.37393 164.241 9.25485 165.451 9.32901C164.412 9.36438 163.373 9.39973 162.333 9.4351C164.445 9.34901 166.978 9.584 167.158 9.23636C174.985 9.20793 182.812 9.17952 190.636 9.15109C192.035 9.12148 191.269 8.89807 193.569 8.96309C192.975 9.03427 192.38 9.10544 191.785 9.17661C192.968 9.12668 198.18 9.02914 199.032 9.07523C199.141 9.08125 199.294 9.28345 200.598 9.30081C201.755 9.31615 201.94 9.16467 202.558 9.13565C203.076 9.11171 203.658 9.1514 203.814 9.14304C203.933 9.13634 203.98 9.0437 204.265 9.02756C205.167 8.9776 204.436 9.23843 205.331 8.93892C205.113 8.92751 204.895 8.91609 204.677 8.90468C205.765 8.86133 207.248 8.72536 205.648 8.65828C205.373 8.6467 205.609 8.73631 205.404 8.73616C197.38 8.7195 203.779 8.54529 206.601 8.68446C207.324 8.55167 211.363 8.63274 211.504 8.60657C211.691 8.56868 210.997 8.46254 211.907 8.37091C212.103 8.35152 217.501 8.42587 215.558 8.24939C215.159 8.21298 212.567 8.25122 211.939 8.24603C213.419 7.96457 216.845 8.36781 217.245 8.35748C218.816 8.31361 214.227 8.11356 217.766 8.08086C220.483 8.05577 217.933 8.2437 218.977 8.32391C219.566 8.36893 222.626 8.1619 222.541 8.42999C223.591 8.45862 222.977 8.31667 223.107 8.30646C223.236 8.29747 225.314 8.37773 225.985 8.32123C226.067 8.31419 225.81 8.17485 225.894 8.16344C226.06 8.14392 228.052 8.17178 228.131 8.18358C228.182 8.19179 227.708 8.3138 227.903 8.34338C228.128 8.3775 230.046 8.34879 230.156 8.38367C230.303 8.4364 227.933 8.40166 228.329 8.53809C229.406 8.50374 231.214 8.59477 231.931 8.70461C231.755 8.6732 230.692 8.66869 230.322 8.67976C230.497 8.87958 232.777 8.87685 231.998 8.7187C232.493 8.80363 232.155 8.84869 232.433 8.92885C232.507 8.94916 233.209 8.95334 233.344 8.98793C233.361 8.99483 232.637 9.07022 232.782 9.11081C233.046 9.18414 235.168 9.16765 235.34 9.14841C235.828 9.09389 234.101 9.02791 233.956 8.94362C233.936 8.93068 235.406 8.76552 235.427 8.75093C235.514 8.59442 233.879 8.70721 234.065 8.56628C234.47 8.53653 234.875 8.50676 235.278 8.47699C233.724 8.33429 230.818 8.40767 230.064 8.24536C232.403 8.29366 234.822 8.28795 234.817 7.92241C234.816 7.76846 233.817 7.67821 233.856 7.63907C234.004 7.49901 235.389 7.65117 235.439 7.64377C235.481 7.63524 235.5 7.62692 235.5 7.61884C235.5 7.61884 235.5 7.61884 235.5 7.61882C235.501 7.53682 233.526 7.47777 233.426 7.44034C233.259 7.37383 234.14 7.10005 234.139 7.03951C234.108 7.02733 232.698 6.96254 233.174 6.85687C233.656 6.75014 234.888 6.74779 234.93 6.73669C235.166 6.67284 233.011 6.61461 232.945 6.57689C232.911 6.55783 234.071 6.4407 234.104 6.40703C234.133 6.37323 233.253 6.2995 232.905 6.19286C232.645 6.1136 233.4 6.05286 233.267 6.04044C233.174 6.03221 231.127 6.03355 231.025 6.01962C230.875 5.99902 231.356 5.90431 231.286 5.88065C231.187 5.84659 230.524 5.88077 230.61 5.84573C230.677 5.81961 233.24 5.49315 233.221 5.40596C233.193 5.25722 230.481 5.59944 233.004 5.01251C233.022 5.00865 233.635 5.05037 233.651 5.04675C234.029 4.93877 232.067 4.77264 234.466 4.80168C229.999 4.61412 233.911 4.57809 233.25 4.32767C232.996 4.2314 231.258 4.19171 231.249 4.17726C231.419 4.05515 231.973 4.14986 232.161 4.08998C232.265 4.05652 230.708 3.92741 231.059 3.84358C231.241 3.80037 232.891 3.81575 232.958 3.80733C233.609 3.72783 232.811 3.64221 232.954 3.58575C233.049 3.5479 234.041 3.54491 234.067 3.53809C234.109 3.52391 232.762 3.37096 232.48 3.31718C232.266 3.27582 233.068 3.21101 232.919 3.19298C232.021 3.08513 230.102 3.36018 231.95 2.97476C232.063 2.95114 232.76 2.96068 232.781 2.95596C233.212 2.84671 231.928 2.83727 231.697 2.74783C231.303 2.5937 233.15 2.67964 231.614 2.57124C232.767 2.47046 233.408 2.47467 234.748 2.50276C231.031 2.42439 229.706 2.02542 233.847 2.03546C232.533 2.04169 232.678 1.81651 232.285 1.81256C232.041 1.81036 230.125 2.03424 231.004 1.53191C231.114 1.46916 232.277 1.54889 231.913 1.42046C229.12 1.45323 231.854 1.33873 231.856 1.32175C231.812 1.02585 225.021 1.2682 223.839 1.23447C222.468 1.19533 221.282 0.962173 220.984 0.961868C220.015 0.961777 220.819 1.08015 220.602 1.12369C220.384 1.16681 217.621 0.940018 217.481 0.952469C216.944 1.0025 217.489 1.14279 217.433 1.14987C216.758 1.23584 213.075 1.12599 212.03 1.1586C212.062 1.0676 214.147 1.06038 212.845 0.9142C211.329 0.74379 211.241 1.14497 211.201 1.16263C204.266 1.15883 197.321 1.15501 190.378 1.15121C190.467 0.937775 195.007 1.09874 195.108 1.07065C195.717 0.904266 188.046 0.907333 187.109 0.982697C187.824 0.936584 188.537 0.890488 189.251 0.844376C188.033 0.598999 185.334 0.917801 183.566 0.809464C182.997 0.774338 184.091 0.679642 184.069 0.673172C183.426 0.577866 182.402 0.651291 183.169 0.779251C181.607 0.656647 181.835 0.791916 180.635 0.802078C180.574 0.802505 181.089 0.703476 180.139 0.66243C179.695 0.643265 177.321 0.64296 177.003 0.556335C176.872 0.519882 178.077 0.13588 178.225 0.46637C180.807 0.305267 179.05 0.616974 180.053 0.60939C180.206 0.607651 179.853 0.423172 182.377 0.51001C181.896 0.177353 178.99 0.426102 178.491 0.385803C177.463 0.302979 181.699 0.13118 182.475 0.390503C182.112 0.130905 182.774 0.355515 183.718 0.344849C184.753 0.333267 184.302 0.255966 184.862 0.255554C186.392 0.253616 185.758 0.436859 187.019 0.271667C185.79 0.783096 189.176 0.339142 190.161 0.2052C188.558 0.17923 186.952 0.153275 185.345 0.127304C185.437 0.100449 185.529 0.0735931 185.621 0.0467377C185.198 0.0505524 184.774 0.0543518 184.351 0.0581512C184.418 0.0838928 184.486 0.109634 184.554 0.135361C182.37 -0.0319672 181.842 0.156097 181.663 0.158188C179.375 0.180008 176.727 0.178391 174.414 0.179016C174.066 0.179108 174.305 0.0117035 171.773 0.142746C170.966 0.184479 171.728 0.314697 170.813 0.295166C169.668 -0.0586853 169.689 0.223541 169.349 0.223999C168.372 0.223953 167.775 0.136292 167.684 0.135361C166.477 0.121689 164.71 0.136322 163.385 0.123276C163.36 0.121948 164.05 0.0132294 163.189 0.0453949C162.886 0.0568848 160.171 0.520966 157.803 0.36969C158.419 0.338364 159.035 0.307022 159.652 0.275696C158.928 0.319473 153.845 0.20253 155.087 0.0782928C155.85 0.00236511 157.71 0.301498 157.913 0.0138397C156.222 0.0999298 146.882 -0.0288239 146.154 0.0380096C146.054 0.0475464 146.672 0.140884 146.533 0.152817C146.425 0.161926 144.289 0.139801 144.006 0.175659C143.837 0.196945 144.781 0.25415 144.704 0.287781C144.639 0.311752 141.964 0.351715 141.811 0.234741C142.468 0.281693 144.317 0.240692 143.348 0.142075C143.223 0.129837 142.576 0.205292 142.425 0.189758C141.022 0.0464172 145.215 0.0808258 145.86 0.0796356C143.239 -0.069397 139.153 0.106293 136.11 0.00914001C134.873 0.106506 137.943 0.158096 136.544 0.23877C133.644 0.405975 135.772 0.104126 135.682 0.0917206C134.96 -0.0065155 132.514 0.519958 132.513 0.119247C131.467 0.179565 131.806 0.230087 130.33 0.177673C130.526 0.149918 130.718 0.122162 130.913 0.0944061C129.267 -0.137695 125.785 0.447891 126.048 0.492554C126.747 0.612106 128.56 0.425629 128.715 0.430115C128.941 0.436752 129.59 0.843369 132.083 0.479797C133.109 0.752518 128.113 0.663864 130.391 0.849747C128.839 0.819244 122.544 1.00906 121.621 0.889359C121.513 0.873734 122.018 0.602005 120.457 0.740311C119.716 0.806168 121.503 0.809326 121.164 0.871231C120.135 1.06122 105.927 0.939697 103.238 0.929642C103.062 0.929352 103.127 1.01367 102.954 1.01291C102.424 1.01054 100.5 0.884796 99.5628 0.923599C101.512 0.767502 97.7242 0.755371 96.744 0.772537C95.2728 0.798691 95.3657 0.947098 94.7327 0.978668C92.3224 1.10031 88.4813 0.747955 86.6116 1.07736C86.7129 0.750443 83.3019 1.23764 81.7806 1.24051C80.5906 1.24286 78.8036 1.02652 80.4519 0.89473C78.3362 0.90979 76.1964 0.848801 74.2124 0.828934C73.8869 0.825607 74.3348 0.922272 73.7798 0.913528C73.7295 0.912048 73.6596 0.817307 73.1846 0.807449C69.2823 0.724869 71.1859 0.926193 70.4573 0.985382C70.0537 1.01851 69.753 1.035 69.5266 1.04044C71.7868 1.05894 74.4204 1.09615 75.1373 1.09885C74.508 1.30804 70.1042 1.05867 68.7744 1.11496C68.7288 1.117 68.8877 1.23232 68.8414 1.23312C68.8404 1.23312 68.8394 1.23312 68.8384 1.23312C68.3379 1.24196 65.2373 1.1994 65.8768 1.06192C66.0475 1.02518 67.4673 1.02525 69.1851 1.03775C68.7206 1.01195 69.0674 0.882782 68.9855 0.877274C67.9876 0.813431 65.584 0.939499 64.7456 0.956497C64.553 0.960236 64.5669 0.877472 64.5353 0.877274C63.7463 0.896072 64.0692 1.13237 63.2637 0.888687C61.8466 1.18318 65.9192 0.932419 65.6194 1.12369C65.4205 1.27095 56.4019 1.19185 56.4312 0.959854C56.4003 0.98468 56.2769 1.01547 56.0248 1.05051C55.4753 1.12836 52.9666 1.10399 52.5278 1.06125C52.4546 1.05283 52.4838 0.827652 52.393 0.825577C52.1512 0.820404 49.1505 0.996948 47.9685 0.863846C48.5853 0.832291 49.2314 0.800735 49.8346 0.76918C46.0758 0.767227 46.669 0.700211 47.9104 0.632889C47.9729 0.632278 48.0337 0.623734 48.0935 0.622818C49.0724 0.573029 50.3002 0.525085 50.3145 0.507324C50.4158 0.439545 44.0529 0.401825 45.2875 0.610733C45.4445 0.639282 48.3609 0.546265 46.9161 0.695328C46.6563 0.721436 44.8167 0.678894 44.7077 0.695328C44.0662 0.80455 48.1116 0.949677 47.6262 1.10489C46.6164 0.957108 45.3944 1.03494 44.2242 0.996796C43.6965 0.979538 43.569 0.866653 43.5041 0.864517C42.5402 0.835052 43.0813 0.953415 42.7605 0.950455C42.5837 0.948425 40.7191 0.696503 41.0725 1.04379C40.8564 1.03474 40.6543 1.02603 40.4653 1.01762C36.0694 0.979874 37.6529 0.855698 40.4653 0.800659C41.2831 0.79982 42.2307 0.803421 43.154 0.808121C42.4673 0.736496 41.4189 0.725052 40.4653 0.723267C39.6244 0.721283 38.8426 0.755524 38.3296 0.770859C37.9034 0.785202 38.1483 0.650909 37.4274 0.679688C35.9187 0.577728 28.9737 2.12859 27.304 2.94955C28.3854 2.61688 28.1103 2.84276 27.2892 3.12315C26.4693 3.41318 27.0975 3.00389 26.9318 3.04523C26.7308 3.04509 22.9999 4.73885 22.4114 5.08806C25.2055 3.7809 24.6168 4.1841 22.302 5.3714C22.6514 5.22774 23.0028 5.08923 23.356 4.95593C21.9451 5.55138 19.3087 7.37769 18.5746 7.85042C18.4555 7.92061 18.8052 7.55389 18.7385 7.59338C18.056 7.96872 16.0362 9.65079 15.9323 9.71417C15.8305 9.75443 16.6521 8.98599 16.2992 9.2108C16.2242 9.25763 15.4665 10.0402 14.6508 10.722C14.3477 10.9753 14.4582 10.7426 14.3801 10.8047C13.7354 11.3318 14.1986 11.1115 13.0933 12.1481C12.2951 12.9177 11.5963 13.4046 10.6376 14.6138C13.8792 10.7205 11.0142 13.8669 9.66395 15.5119C9.45295 15.778 9.45665 15.4144 8.33269 17.1207C11.1795 13.8405 7.69695 18.1813 7.16932 19.1974C7.13808 19.2513 7.22556 19.3316 6.94144 19.8081C6.91772 19.8488 6.88078 19.7476 6.61447 20.1913C4.22536 24.4819 5.80701 21.7663 5.44059 22.6242C5.28032 22.9854 4.20798 25.1162 3.9922 25.7245C3.93935 25.8627 4.03945 25.8281 3.83769 26.363C3.48475 27.305 3.1248 28.1466 2.93084 28.7834C2.91184 28.8596 3.02292 28.8932 2.65989 30.1064C2.5604 30.4462 2.42125 30.8235 2.50442 30.3241C2.76288 28.65 3.98666 25.6963 4.66836 23.9288C5.23677 22.2825 3.11273 27.3279 3.11228 27.6324C3.07871 27.7309 3.47675 26.7374 3.1495 27.7723C2.87094 28.652 2.18822 30.2258 1.95456 31.5981C1.93146 31.7049 1.91251 32.8219 1.93607 32.7741C1.94363 32.7286 2.32697 31.0826 2.33513 31.3358C2.33161 31.3652 2.11272 32.4151 2.13213 32.5598C2.14966 32.7385 2.56191 33.2766 2.5384 33.4998C2.47655 34.0763 2.42323 33.6869 2.37402 34.0582C2.24175 34.8519 2.14879 37.6301 1.99209 37.7143C2.00691 37.2527 2.02984 36.7928 2.06078 36.3346C1.8516 38.8882 1.87481 37.7969 1.81527 38.1571C1.76573 38.5461 1.916 38.4411 1.91445 39.3043C1.91465 39.3455 1.91047 39.5501 1.90782 39.8452C1.89844 40.7991 1.86808 42.7908 1.81808 42.7442C1.9199 40.9316 1.73148 41.6037 1.72811 41.52C1.71584 41.2025 1.82153 40.7969 1.81943 40.3708C1.81831 40.1694 1.81652 39.9952 1.81414 39.8452C1.80801 37.5395 1.62459 40.4019 1.59354 39.6708C1.57923 39.3987 1.68017 38.8619 1.67953 38.748C1.67563 38.3763 1.55858 38.3657 1.57838 38.1182C1.6275 37.5419 1.76272 38.2234 1.77408 38.1776C1.88705 37.6688 1.9255 35.6377 1.64231 36.8824C1.63718 36.1173 1.86752 36.0548 1.84467 35.4436C1.81261 34.2285 1.63956 36.0268 1.58 36.5072C1.3922 37.8582 1.39897 38.4735 1.39618 39.8452C1.39769 40.1989 1.3969 40.6085 1.39039 41.1062C1.38015 41.9065 1.27275 42.8545 1.26685 43.2258C1.26315 43.4598 1.63681 45.6683 1.052 45.7333C1.10859 46.5919 1.49396 47.9389 1.47633 48.8234C1.46026 49.6175 1.25337 49.365 1.24537 49.4391C1.23279 49.5527 1.24909 50.5129 1.21985 50.8378C1.18531 51.2183 1.10634 51.0284 1.07416 51.6323C0.99428 53.135 1.20546 53.0956 1.21918 53.2501C1.37781 55.0433 1.07744 54.2581 1.05334 54.656C1.0312 55.026 1.14682 60.2165 1.0708 61.309C1.1131 60.8645 1.1554 60.4198 1.1977 59.9753C1.32942 60.7709 1.11457 61.6143 1.35078 61.6292C0.969425 61.7906 1.22434 63.4328 1.21448 63.9261C1.21043 64.1205 1.14544 64.1053 1.14264 64.3486C1.13125 65.2991 1.18298 67.4423 1.15003 67.9578C1.00816 70.1874 0.772178 64.4861 0.757923 64.0372C0.76213 64.9356 0.676719 70.0189 0.493387 67.6824C0.465101 67.3212 0.635759 66.6812 0.64244 66.4783C0.686379 65.1054 0.533445 66.1851 0.5189 66.0775C0.495422 65.8945 0.643266 64.9908 0.625655 64.7524C0.62001 64.6728 0.481529 65.1851 0.478615 63.8757C0.344367 64.5197 0.453743 68.2002 0.422217 68.6831C0.41096 68.8551 0.124094 67.7769 0.402746 70.9267C0.376113 70.8902 0.349481 70.8536 0.322848 70.8171C0.311882 72.571 0.300915 74.3248 0.289948 76.0787C0.351307 75.8881 0.474552 74.9034 0.448402 76.1436C0.433268 76.8577 0.2966 76.3293 0.292634 76.3945C0.255017 77.0352 0.300496 88.3765 0.285249 90.5744C0.2803 91.322 0.170464 93.406 0.168423 93.565C0.157429 94.5151 0.22892 97.8799 0.213408 98.5511C0.203459 98.9703 0.0892096 98.5718 0.0945678 98.9462C0.0997071 99.2943 0.210132 98.9337 0.21475 99.0371C0.254765 99.8934 0.109933 106.398 0.214079 107.942C0.182814 106.998 0.403435 102.288 0.481301 102.382C0.491978 102.403 0.57598 103.548 0.535014 103.784C0.63062 104.174 0.33953 105.514 0.396703 106.242C0.403196 106.325 0.566476 106 0.596113 107.301C0.606239 107.749 0.478966 108.922 0.621626 110.102C0.553079 111.812 0.764832 120.798 0.589398 121.414C0.580136 121.433 0.519728 120.167 0.447731 121.022C0.352031 122.159 0.674388 121.138 0.702196 122.463C0.706426 122.662 0.673804 126.348 0.653854 126.468C0.472937 127.585 0.399602 124.364 0.378575 124.409C0.325615 124.522 0.293574 127.197 0.306063 127.306C0.319056 127.41 0.558773 125.227 0.467873 127.85C0.439226 127.549 0.410579 127.249 0.381932 126.948C0.326141 128.182 0.491983 128.299 0.502115 128.598C0.53419 129.527 0.282282 130.532 0.593427 132.02C0.676002 132.413 0.767697 131.76 0.780079 131.809C0.891219 132.282 0.593908 132.885 0.815664 133.596C0.832204 133.649 0.965052 131.995 0.965389 134.886C0.944128 134.687 0.922866 134.488 0.901605 134.289C0.854137 134.697 0.82593 137.624 0.83715 138.018C0.869946 139.169 1.02257 138.165 1.00433 139.322C0.795166 138.58 0.767869 142.096 0.947933 141.894C0.721782 142.385 0.896237 145.372 0.901605 146.776C0.904825 147.662 0.806137 149.47 0.817678 149.751C0.831823 150.094 0.986099 149.99 1.02045 150.609C1.03024 150.786 0.917147 152.629 1.07684 154.247C1.10762 154.561 1.3693 155.219 1.43471 154.636C1.54663 153.639 1.33581 151.752 1.49043 151.776C1.65585 151.804 1.55747 154.346 1.57906 155.03C1.67891 158.189 1.85475 156.365 1.90805 156.446C2.03741 156.657 2.03339 158.383 2.04502 158.455C2.09668 158.753 2.19905 157.53 2.278 157.512C2.38079 157.489 2.5663 159.153 2.60095 158.775C2.65015 158.233 2.49554 156.704 2.50292 156.607C2.60265 155.346 2.84012 157.075 2.9568 157.552C2.99269 157.696 3.05168 157.121 3.06221 157.24C3.22195 159.069 2.72845 157.626 2.76142 158.842C2.79079 159.928 2.94685 158.531 2.95546 158.573C2.96491 158.626 2.97342 159.924 3.02864 160.127C3.05629 160.227 3.35984 156.855 3.49594 156.995C3.46595 158.072 3.43596 159.148 3.40597 160.224C3.58343 160.308 3.4528 158.76 3.4711 158.6C3.50781 158.278 3.59762 159.177 3.65372 159.138C3.68941 159.117 3.81675 158.063 3.86925 159.015C3.88738 159.343 3.76295 160.03 3.89006 161.223C4.05241 157.072 4.15216 159.949 4.21502 160.071C4.27788 160.191 4.42583 158.209 4.39966 160.615C4.74502 160.719 4.50883 160.563 4.56953 159.879C4.64414 159.042 4.75786 160.977 4.67158 157.917C4.83328 158.091 4.82184 160.551 4.83474 160.681C4.84643 160.793 4.92596 160.247 4.95291 160.442C5.26534 162.748 5.12267 161.164 5.32218 161.832C5.34001 161.891 5.41398 164.071 5.44304 162.411C5.49586 159.388 5.26673 158.125 5.75659 157.617C5.96937 159.853 5.65318 162.562 5.64782 163.242C5.6401 164.282 5.74 163.204 5.768 163.333C5.77705 163.377 5.76879 164.274 5.77673 164.286C6.15035 164.925 5.78293 160.295 5.8479 158.837C5.90385 159.227 5.9598 159.618 6.01575 160.009C6.01799 159.479 6.02023 158.949 6.02247 158.419C6.13494 160.944 6.06505 158.508 6.36757 157.878C6.43555 157.736 6.31897 159.396 6.5079 157.503C6.55151 158.899 6.61332 158.454 6.52804 159.718C6.6493 159.685 6.78608 156.841 6.8483 155.719C6.98457 159.682 6.53979 157.422 6.77512 160.848C6.62497 161.483 6.65421 159.848 6.62942 159.982C6.54031 160.46 6.68181 161.582 6.36959 162.935C6.31833 163.155 6.16054 162.223 6.16816 163.602C6.16924 163.755 6.30408 164.634 6.31386 164.622C6.41946 164.505 6.37989 163.635 6.42397 163.599C6.4657 163.566 6.4406 164.536 6.45217 164.54C6.58447 164.569 6.50273 163.73 6.54415 163.852C6.63423 164.115 6.91894 167.606 6.83555 163.05C6.68597 166.834 6.68946 163.534 6.74692 162.061C6.76132 161.685 6.84035 161.59 6.86777 161.054C6.90329 160.366 6.86536 159.559 6.87986 159.203C6.89585 158.82 7.08264 160.998 7.0269 157.848C7.2127 159.451 7.01461 162.283 7.14507 163.857C7.40869 167.035 7.4653 161.642 7.49084 161.08C7.49777 160.931 7.60449 161.432 7.61103 161.333C7.62106 161.17 7.57172 158.109 7.66004 157.807C7.74828 157.506 7.65598 158.928 7.748 159.023C7.80995 159.087 7.91983 155.395 7.96218 157.393C7.9912 158.771 7.7422 161.31 8.00985 161.738C8.032 159.712 8.05416 157.686 8.07632 155.66C8.17815 156.769 8.27998 157.878 8.38181 158.987C8.4141 156.713 8.29914 154.747 8.44492 152.587C8.77123 157.777 8.70533 150.902 8.74504 150.827C8.76879 150.801 9.03365 152.844 9.08209 153.173C9.18398 151.363 9.23377 145.863 9.56081 149.081C9.48696 148.497 9.66925 147.082 9.68301 147.101C9.82749 147.28 9.7338 150.365 9.86429 149.862C10.0157 149.279 9.81028 148.462 9.82669 147.565C9.91222 142.962 10.6665 144.225 10.5471 139.61C10.574 139.702 10.6008 139.794 10.6277 139.885C10.5849 134.869 10.5422 129.853 10.4994 124.836C10.7298 122.873 10.87 117.65 10.8445 115.084C10.8396 114.568 10.7187 112.031 10.6975 111.84C10.6569 111.486 10.6414 113.434 10.5652 112.554C10.5496 112.368 10.4988 108.074 10.6277 108.381C10.6426 108.862 10.5778 110.368 10.6082 110.614C10.8249 112.346 10.6518 99.1075 10.7391 98.4517C10.781 98.7449 10.8228 99.038 10.8647 99.3312C10.8441 98.4959 10.8235 97.6605 10.8029 96.8252ZM0.453102 135.211C0.323797 135.712 0.420913 136.969 0.384618 137.711C0.33379 138.737 -0.164123 140.48 0.334933 139.73C0.374323 138.223 0.413713 136.717 0.453102 135.211ZM0.260406 113.195C0.329859 114.205 0.608582 113.422 0.492715 112.594C0.479547 112.502 0.166925 111.829 0.260406 113.195ZM0.392675 123.785C0.396366 123.742 0.388988 122.869 0.384618 122.839C0.27271 122.056 0.295582 124.688 0.392675 123.785ZM0.535686 72.6296C0.523653 73.7426 0.270273 72.9366 0.374547 72.2446C0.381167 72.2011 0.536277 72.5564 0.535686 72.6296ZM0.5424 73.4212C0.769299 74.2856 0.309444 76.0266 0.355747 74.6425C0.360423 74.5083 0.53135 73.3812 0.5424 73.4212ZM0.37119 116.796C0.458153 116.682 0.416162 115.64 0.39536 115.195C0.315965 115.207 0.380908 116.36 0.37119 116.796ZM0.39536 90.3783C0.463727 90.3341 0.459949 93.9556 0.369847 94.2023C0.408074 93.6307 0.333923 90.4199 0.39536 90.3783ZM0.491372 81.0909C0.503191 81.1826 0.485223 82.4337 0.424902 82.3972C0.34577 81.7865 0.437876 80.6775 0.491372 81.0909ZM0.487344 62.6313C0.502497 62.5634 0.88637 63.5003 0.633712 61.2802C0.596716 60.9543 0.496417 62.1184 0.482644 62.0026C0.455781 61.76 0.443259 61.5683 0.441016 61.4143C0.409199 62.4483 0.394231 63.5223 0.417517 63.6262C0.527493 64.1141 0.48102 62.6614 0.487344 62.6313ZM0.773365 52.9401C0.835979 52.7271 0.802505 51.3665 0.776722 51.0569C0.771872 51.0038 0.607306 51.2355 0.619612 50.6229C0.629771 50.1311 0.798323 50.8658 0.771351 49.9077C0.74428 48.9395 0.624156 50.2331 0.615583 50.1485C0.604346 50.0352 0.680031 48.5375 0.582013 48.584C0.509408 48.6188 0.5585 50.2233 0.543071 50.62C0.52324 51.1281 0.402274 50.512 0.428259 51.3612C0.444489 51.8947 0.657207 51.599 0.667954 51.7116C0.676614 51.806 0.554195 53.6711 0.772694 52.9372C0.772918 52.9382 0.773142 52.9391 0.773365 52.9401ZM0.450416 61.1346C0.443228 61.2124 0.439407 61.3038 0.441016 61.4143C0.443904 61.3205 0.447258 61.227 0.450416 61.1346ZM0.546428 132.292C0.480822 131.767 0.396699 133.326 0.482644 133.916C0.551953 133.926 0.556641 132.376 0.546428 132.292ZM0.623641 60.1757C0.570351 58.6397 0.497062 59.7694 0.450416 61.1346C0.490456 60.7011 0.641441 60.6914 0.623641 60.1757ZM0.535014 103.784C0.519149 103.719 0.494413 103.678 0.453773 103.673C0.498221 103.843 0.522093 103.858 0.535014 103.784ZM0.462502 100.201C0.586293 98.9724 0.581297 101.468 0.492715 101.452C0.459276 101.445 0.457579 100.25 0.462502 100.201ZM0.5236 71.2021C0.535714 71.3145 0.90952 69.5689 0.629012 72.1033C0.584957 70.7506 0.54425 72.1778 0.511515 72.1567C0.417427 72.1015 0.507867 69.8293 0.467202 69.3262C0.635544 68.9322 0.483688 70.8311 0.5236 71.1992C0.5236 71.2002 0.5236 71.2011 0.5236 71.2021ZM0.988043 34.8895C0.843856 35.226 0.757023 36.3356 0.715704 37.0845C0.835187 36.7401 0.897083 35.6375 0.988043 34.8895ZM162.352 0.0138397C157.834 -0.0773621 157.25 0.324356 161.382 0.165588C161.463 0.162247 162.626 0.0545654 162.352 0.0138397ZM123.592 0.117905C123.166 0.292999 124.575 0.321152 125.496 0.24884C125.704 0.232574 126.477 0.0552368 125.595 0.0205536C125.621 0.232773 124.264 0.313843 123.592 0.117905ZM0.735766 59.3076C0.852527 58.8603 0.769415 57.4837 0.75188 56.7583C0.655743 57.201 0.699221 58.6662 0.735766 59.3076ZM147.508 0.223328C147.032 0.236588 146.711 0.084259 146.793 0.071579C147.161 0.013443 148.051 0.136612 147.508 0.223328ZM0.753894 63.7517C0.823668 63.8146 0.890829 61.9912 0.71831 61.8642C0.730793 62.254 0.71011 63.7065 0.753894 63.7517ZM0.890995 36.2997C0.893739 36.6224 1.11646 34.9734 1.1592 34.4726C1.07305 34.4995 0.877614 36.0907 0.890995 36.2997ZM139.843 0.171631C139.417 0.18486 138.354 0.188889 138.236 0.127304C138.09 0.0503387 139.649 0.0765686 139.843 0.171631ZM219.172 0.304565C219.226 0.276901 217.574 0.0775299 216.836 0.127975C215.438 0.224518 219.116 0.324097 219.172 0.304565ZM152.016 0.30188C153.359 0.157013 151.868 0.297302 151.927 0.14476C152.83 0.139267 155.081 0.131744 153.534 0.281738C153.232 0.310745 152.437 0.292007 152.016 0.30188ZM150.777 0.352905C150.634 0.303482 149.666 0.147705 150.502 0.158859C150.889 0.164261 151.512 0.337357 150.777 0.352905ZM208.948 0.236755C207.74 0.371796 213.272 0.299347 213.429 0.275696C213.513 0.263199 213.568 0.251419 213.6 0.241455C213.803 0.284256 214.844 0.291962 214.964 0.183716C214.653 0.192642 213.8 0.183121 213.7 0.195129C213.658 0.200226 213.626 0.205017 213.604 0.2099C213.24 0.115921 209.17 0.211151 208.948 0.236755ZM199.798 0.375732C201.177 0.574951 201.42 0.236237 201.301 0.225342C199.801 0.0867004 200.78 0.336502 200.734 0.348206C200.629 0.367676 199.563 0.25177 199.802 0.375732C199.801 0.375732 199.799 0.375732 199.798 0.375732ZM207.075 0.29248C207.132 0.29689 208.288 0.286407 208.335 0.281067C209.283 0.167236 206.011 0.196381 207.075 0.29248ZM1.01037 45.6353C0.976704 44.8066 0.852087 45.6195 0.896905 46.1702C0.901322 46.2155 1.04012 46.3663 1.01037 45.6353ZM150.116 0.319336C149.922 0.34288 145.004 0.431671 145.301 0.243469C145.715 0.265671 151.31 0.168793 150.116 0.319336ZM113.377 0.36499C114.242 0.363541 113.298 0.18602 112.838 0.252197C112.667 0.276779 113.159 0.36525 113.377 0.36499ZM0.915033 66.2102C0.817513 67.11 1.14467 66.924 1.03253 66.1438C1.02814 66.1132 0.918843 66.1749 0.915033 66.2102ZM120.301 0.262939C117.321 0.155365 118.019 0.718124 121.907 0.528137C121.786 0.503082 121.664 0.478012 121.542 0.452942C126.043 0.36853 121.846 0.413284 120.75 0.381775C120.332 0.369797 120.682 0.275864 120.304 0.262268C120.303 0.262482 120.302 0.262711 120.301 0.262939ZM108.817 0.375732C105.929 0.775162 111.46 0.515045 113.013 0.567093C111.492 0.402145 109.507 0.427109 112.204 0.25824C108.248 0.225586 109.89 0.384659 109.734 0.397888C109.547 0.41272 108.94 0.358582 108.817 0.375732ZM116.416 0.378418C116.582 0.390076 117.844 0.308762 118.289 0.322021C117.67 0.185577 115.304 0.299179 116.416 0.378418ZM190.198 0.283081C190.302 0.389984 190.56 0.468735 191.552 0.428772C191.245 0.375061 190.612 0.328857 190.198 0.283081ZM1.01575 136.162C1.02341 136.844 1.0637 138.201 0.95129 137.785C0.941709 137.739 0.952655 136.164 1.01575 136.162ZM135.838 0.405945C135.69 0.419098 131.942 0.427917 133.237 0.309937C133.625 0.274353 137.043 0.289459 135.838 0.405945ZM155.248 0.392517C154.934 0.393631 153.659 0.373489 153.632 0.348206C153.545 0.260788 155.11 0.308853 155.248 0.392517ZM1.12519 139.6C1.13628 139.69 1.11663 141.771 1.06476 141.542C0.966667 141.108 1.08698 139.292 1.12519 139.6ZM1.26081 42.6202C1.26476 42.4462 1.14863 42.2161 1.14734 42.1559C1.1461 42.0501 1.17081 40.2394 1.12081 39.8452C1.10904 39.7398 1.09302 39.724 1.07134 39.8452C1.06231 39.8901 1.05232 39.9561 1.04126 40.0464C1.01627 40.2493 1.07353 44.8316 1.08826 45.4277C1.24768 45.6581 1.09602 43.7007 1.11243 43.2244C1.11554 43.1405 1.24892 43.0868 1.26014 42.6217C1.26036 42.6212 1.26059 42.6207 1.26081 42.6202ZM195.356 0.395874C195.493 0.497223 199.242 0.564346 199.199 0.441528C197.917 0.426315 196.632 0.411087 195.356 0.395874ZM193.455 0.412659C192.656 0.48436 194.527 0.508072 195.078 0.47644C195.084 0.408264 193.572 0.402176 193.455 0.412659ZM148.145 0.771194C147.768 0.746414 148.926 0.598526 148.667 0.569778C148.501 0.551865 147.66 0.6073 147.391 0.561035C147.315 0.546341 148.173 0.407333 148.422 0.41333C148.775 0.421356 148.432 0.530746 148.818 0.531494C150.098 0.533859 151.226 0.455826 152.422 0.457642C152.53 0.458023 151.693 0.535278 152.614 0.53418C152.756 0.534164 153.612 0.419098 154.715 0.436157C157.155 0.792526 158.937 0.442612 162.03 0.571121C161.913 0.604675 159.602 0.694687 159.466 0.698013C156.887 0.756607 152.252 0.763046 149.55 0.763809C148.854 0.764114 149.192 0.68869 148.893 0.685928C148.656 0.683884 148.937 0.823547 148.145 0.771194ZM1.09296 135.8C1.23246 136.125 1.14416 137.265 1.15137 137.992C1.02554 137.736 1.12387 136.512 1.09296 135.8ZM176.641 0.520752C176.276 0.515366 175.146 0.557388 175.052 0.515381C174.932 0.460541 176.564 0.425949 176.641 0.520752ZM4.84592 23.331C4.86316 23.2956 5.28253 22.4043 5.29807 22.37C5.57986 21.5251 4.32322 24.2072 4.84592 23.331ZM20.3628 6.06839C21.0124 5.69907 21.695 5.37546 21.8626 5.15752C21.4474 5.3923 20.2446 6.04234 20.3628 6.06839ZM50.6223 0.542908C50.4831 0.691132 52.4771 0.595154 52.863 0.581863C52.7177 0.515976 50.7179 0.436111 50.6223 0.542908ZM190.054 0.748367C191.28 0.739594 191.022 0.964111 191.8 0.862503C191.927 0.845337 192.338 0.377823 190.99 0.552979C190.747 0.584473 191.696 0.695572 190.054 0.748367ZM122.542 0.523438C122.852 0.621506 123.838 0.592392 124.488 0.584549C124.345 0.511688 123.011 0.530441 122.542 0.523438ZM1.23731 143.359C1.37574 143.933 1.27305 146.587 1.18158 145.93C1.16965 145.837 1.24254 143.731 1.23731 143.359ZM1.18293 56.1945C1.29193 55.1029 1.3257 57.3639 1.21918 58.0777C1.22616 57.7545 1.17575 56.2681 1.18293 56.1945ZM43.6628 0.623489C43.7132 0.627945 44.8949 0.617432 44.944 0.612076C45.9016 0.49823 42.5848 0.52739 43.6628 0.623489ZM14.2621 10.8036C14.6475 10.5347 16.9666 8.54143 17.493 8.08957C16.841 8.32507 13.7294 11.0844 14.2621 10.8036ZM185.018 0.684586C185.892 0.689224 186.721 0.661606 187.523 0.622818C187.355 0.547287 185.11 0.628174 185.018 0.684586ZM47.9104 0.632889C47.9729 0.632278 48.0337 0.623734 48.0935 0.622818C48.0311 0.626007 47.97 0.629669 47.9104 0.632889ZM165.464 0.737625C164.732 0.767456 164.884 0.629059 164.929 0.624832C165.48 0.580002 166.292 0.703949 165.464 0.737625ZM1.29841 136.637C1.4233 136.891 1.32643 138.122 1.35615 138.83C1.25752 138.624 1.28531 137.207 1.29841 136.637ZM105.74 0.631546C104.824 0.766953 108.551 0.924255 109.347 0.83699C109.402 0.753326 105.87 0.613007 105.74 0.631546ZM1.37025 59.5845C1.46811 59.6579 1.35001 61.229 1.30378 60.8952C1.27436 60.6838 1.30945 59.5406 1.37025 59.5845ZM111.238 0.779922C111.587 0.809784 112.402 0.713211 112.115 0.654373C111.746 0.578934 111.147 0.771378 111.238 0.779922ZM142.778 0.858475C142.623 0.873428 140.553 0.77298 141.408 0.673172C142.002 0.603806 142.096 0.745255 142.236 0.745682C142.393 0.745224 145.714 0.572113 142.778 0.858475ZM84.7735 0.716812C85.5524 0.75444 86.5182 0.710754 87.3233 0.713455C87.0066 0.652939 85.1011 0.636429 84.7735 0.716812ZM1.39644 53.5255C1.43601 53.715 1.45985 58.8749 1.33802 55.9436C1.33114 55.7727 1.27658 52.9502 1.39644 53.5255ZM190.054 0.748367C189.9 0.749466 189.722 0.75415 189.516 0.763809C189.721 0.76001 189.899 0.753372 190.054 0.748367ZM176.148 0.763138C176.43 0.834381 175.01 0.853424 174.591 0.815506C174.462 0.72847 176.109 0.753174 176.148 0.763138ZM87.3847 0.81282C87.8508 0.853592 88.6996 0.810089 89.2812 0.814835C89.1817 0.748611 87.5851 0.745544 87.3847 0.81282ZM54.3621 0.887344C55.2779 0.847992 56.4232 0.866089 56.4412 0.947098C56.4606 0.934448 56.5058 0.921005 56.5808 0.907486C56.6559 0.894119 57.6579 0.931793 58.0977 0.904129C60.6943 0.739883 48.045 0.807663 55.3826 1.03641C55.0411 0.986725 54.7009 0.937027 54.3621 0.887344ZM11.4817 13.8683C11.1551 14.3652 10.0134 15.5597 10.2556 15.2056C10.4119 14.9472 11.7979 13.3575 11.4817 13.8683ZM30.5785 2.23854C30.409 2.29199 28.844 2.67519 28.79 2.64598C29.6555 2.30576 31.339 1.95767 30.5785 2.23854ZM8.75625 17.4788C8.55561 17.7879 8.16014 18.0897 8.17864 18.0502C8.33894 17.7022 9.04334 16.9212 8.75625 17.4788ZM187.52 1.17673C187.026 1.22226 185.447 1.10716 185.103 1.00217C185.039 1.02246 184.866 1.04895 184.55 1.08072C184.551 1.08072 184.552 1.08072 184.553 1.08072C184.127 1.12314 171.368 1.16948 179.927 0.967255C180.195 0.96077 179.829 1.05502 180.919 1.03842C180.991 1.0372 181.027 0.960251 181.249 0.956497C181.761 0.94838 184.486 0.899948 185.036 0.961868C185.041 0.947617 185.076 0.934036 185.152 0.921585C185.825 0.810608 187.904 1.14162 187.52 1.17673ZM33.6996 1.57042C33.3841 1.65077 32.3772 1.82474 32.2571 1.78432C32.7487 1.63387 34.4297 1.37514 33.6996 1.57042ZM1.67507 53.6856C1.73093 54.2799 1.62651 55.786 1.571 55.3308C1.53686 55.0517 1.61095 53.0002 1.67507 53.6856ZM23.9169 4.63593C27.3511 3.02582 24.7445 4.26971 25.3141 4.12621C24.845 4.28719 24.3792 4.45714 23.9169 4.63593ZM203.29 0.919571C202.749 0.94249 203.382 1.13901 203.985 1.03238C204.173 0.998505 203.592 0.90712 203.29 0.919571ZM227.834 0.980682C227.372 1.15492 229.626 1.05254 228.748 0.932999C228.707 0.92897 227.867 0.974045 227.834 0.980682ZM210.683 1.05185C210.313 0.933197 210.07 0.919128 209.036 0.948441C210.571 0.981873 209.141 1.08681 210.683 1.05185ZM56.4312 0.959854C56.4371 0.955063 56.4422 0.951523 56.4412 0.947098C56.4345 0.951462 56.4316 0.955597 56.4312 0.959854ZM6.8175 20.4572C6.66219 20.9146 6.03489 22.0792 6.13094 21.6841C6.13632 21.645 6.65196 20.586 6.8175 20.4572ZM185.103 1.00217C185.159 0.984161 185.131 0.972519 185.036 0.961868C185.032 0.975296 185.056 0.987976 185.103 1.00217ZM10.9799 14.696C10.8827 14.6764 12.2076 13.1512 12.2795 13.1069C13.1722 12.3592 11.5079 14.0519 10.9799 14.696ZM1.78048 65.717C1.77266 65.8109 1.57909 65.2056 1.65493 64.8345C1.71377 64.5473 1.81027 65.3655 1.78048 65.717ZM214.216 1.10019C214.792 1.10005 215.6 1.10014 215.749 1.00821C215.365 1.02232 214.204 1.03271 214.216 1.10019ZM226.949 1.1069C226.27 0.99881 224.713 0.999115 223.714 1.01694C223.697 1.15921 226.313 1.07344 226.949 1.1069ZM189.082 1.12369C189.035 1.12947 187.591 1.17192 187.788 1.07669C188.077 0.937027 189.489 1.0719 189.082 1.12369ZM1.67776 62.911C1.74335 62.2649 1.94492 63.7519 1.78921 64.4337C1.70948 64.7838 1.66677 63.02 1.67776 62.911ZM5.06469 24.2061C4.63023 25.0486 5.49428 22.866 5.74662 22.6231C5.55668 23.017 5.2154 23.9057 5.06469 24.2061ZM28.1085 3.2486C25.4192 4.5191 26.7512 3.48668 27.2658 3.34143C27.3379 3.31984 28.1751 3.21712 28.1085 3.2486ZM1.81137 150.027C1.77146 150.407 1.6269 148.989 1.72207 148.805C1.78163 148.692 1.8368 149.783 1.81137 150.027ZM69.5266 1.04044C69.4117 1.03951 69.2978 1.03856 69.1851 1.03775C69.2696 1.04243 69.3808 1.04396 69.5266 1.04044ZM2.88026 32.4377C2.90425 30.318 3.1997 30.6035 3.23189 30.429C3.32067 30.0508 3.45145 29.1408 3.68798 28.444C3.39612 29.2339 3.12749 30.0443 2.888 30.8543C2.89971 30.1701 4.65049 24.5974 4.856 24.5461C5.00241 24.4205 4.28518 26.1023 4.28345 26.1606C4.26695 26.2369 4.41102 26.5961 4.36375 26.7568C4.21487 26.999 2.88355 31.6471 2.88026 32.4377ZM22.3955 5.66074C22.8028 5.41068 22.8784 5.25833 23.0882 5.17984C23.1598 5.15346 23.2146 5.23532 23.4573 5.144C23.1005 5.31094 22.7465 5.48322 22.3955 5.66074ZM1.98276 36.0725C2.0327 36.6722 2.28737 34.0325 2.30862 33.9521C2.2896 33.4888 1.91513 35.577 1.98276 36.0725ZM10.4054 15.5249C10.3393 15.5967 9.13662 17.2393 9.10207 17.1941C9.35536 16.7118 11.0571 14.5768 10.4054 15.5249ZM23.7471 5.01054C24.381 4.68449 25.5906 4.05914 25.5053 4.25888C25.5043 4.25929 25.5034 4.2597 25.5024 4.26012C24.9106 4.49586 24.325 4.74631 23.7471 5.01054ZM1.99064 60.6991C2.22658 61.8994 1.92844 61.3308 1.85232 60.268C1.95825 59.946 1.95224 60.5023 1.99064 60.6991ZM2.16655 64.5404C2.209 64.8743 2.16248 68.3156 2.03763 67.7905C1.99314 67.6039 2.10535 65.625 2.09672 65.5339C2.08393 65.3957 1.94581 66.0269 1.97318 64.9715C2.01998 65.0333 2.15236 64.426 2.16655 64.5404ZM2.1417 61.6926C2.32114 62.8854 1.99019 63.1534 1.98929 62.2564C1.98871 61.9059 2.11581 61.5224 2.1417 61.6926ZM2.1135 56.8203C2.14489 57.2496 2.19067 58.3927 2.08061 59.1808C2.07121 58.1262 2.06181 57.0717 2.05241 56.0172C2.11476 55.8956 2.08592 56.4448 2.1135 56.8232C2.1135 56.8222 2.1135 56.8213 2.1135 56.8203ZM234.116 1.9549C233.172 2.04874 235.346 2.0847 235.436 2.06165C235.708 1.98511 234.538 1.91298 234.116 1.9549ZM4.81795 157.429C4.85536 157.693 4.97845 157.865 4.91396 158.444C4.8231 157.861 4.73224 157.278 4.64137 156.695C4.84957 156.242 4.77669 157.142 4.81795 157.429ZM5.57866 159.656C5.58371 159.573 5.90385 160.023 5.69012 158.959C5.5458 158.24 5.40515 162.15 5.54711 162.855C5.61307 162.076 5.53756 160.365 5.57866 159.656ZM6.96446 166.503C6.98999 166.549 7.02744 165.063 7.00944 164.891C6.91457 163.989 6.82768 166.26 6.96446 166.503ZM6.90336 161.765C6.96553 162.462 7.00561 160.919 6.96983 160.459C6.91024 160.414 6.8943 161.658 6.90336 161.765ZM224.518 6.59166C223.761 6.80925 223.084 6.34085 224.249 6.43523C224.304 6.43967 224.55 6.58101 224.518 6.59166ZM7.28741 165.051C7.22524 164.355 7.18516 165.898 7.22094 166.358C7.28046 166.401 7.2965 165.157 7.28741 165.051ZM223.985 7.11C222.979 7.26657 223.333 6.74107 223.459 6.71991C223.978 6.63628 225.749 6.84253 226.109 6.8938C223.462 6.81494 224.457 7.03621 223.985 7.11ZM219.371 6.79443C218.442 6.73837 220.817 6.63115 221.267 6.77765C220.807 6.77065 219.636 6.81064 219.371 6.79443ZM213.734 6.96295C213.235 6.98178 211.748 7.02684 211.498 6.94415C212.045 6.95912 213.523 6.87788 213.734 6.96295ZM212.603 7.21071C211.821 7.32306 211.634 6.99571 212.535 7.09322C212.57 7.09698 212.632 7.20447 212.603 7.21071ZM208.213 7.32887C207.702 7.45906 207.118 7.14204 207.947 7.1335C208.193 7.13155 208.267 7.31395 208.213 7.32887ZM222.727 7.67532C221.998 7.73123 221.057 7.50421 222.615 7.47928C222.069 7.44458 221.521 7.4099 220.972 7.3752C223.017 7.24796 222.863 7.56279 223.456 7.54977C224.283 7.53128 224.217 7.27147 224.052 7.1899C224.731 7.34906 227.6 7.35161 229.242 7.38191C227.798 7.44872 225.438 7.56451 223.994 7.60684C223.582 7.61909 223.18 7.54785 222.831 7.55582C222.273 7.56897 222.768 7.67157 222.73 7.67532C222.729 7.67532 222.728 7.67532 222.727 7.67532ZM202.443 7.33357C200.941 7.48105 201.891 7.16266 202.739 7.21944C202.775 7.2238 202.48 7.32997 202.443 7.33357ZM8.25491 167.047C8.12183 165.036 7.94545 166.498 8.21328 162.292C8.02368 164.059 8.07693 162.389 8.00045 162.734C7.93994 163.011 7.99005 164.048 7.86818 163.445C8.00082 164.237 7.96414 167.677 7.98568 167.83C7.98568 167.829 7.98568 167.827 7.98568 167.826C7.99844 167.918 8.29723 167.689 8.25491 167.047ZM213.726 7.7955C213.225 8.18182 213.028 7.56866 212.04 7.88884C210.725 7.4239 215.671 7.88876 216.262 7.49606C210.908 7.54169 219.805 7.10693 216.062 7.69479C219.155 7.48143 217.076 7.76761 217.553 7.84251C218.066 7.9223 219.814 7.83559 219.725 7.97948C219.724 7.97948 219.723 7.97948 219.722 7.97948C218.654 7.96941 217.583 7.95934 216.509 7.94926C217.556 7.63887 215.375 7.73193 214.638 7.98485C214.334 7.92174 214.03 7.85863 213.726 7.7955ZM219.772 7.50412C219.668 7.51123 217.34 7.46771 217.49 7.40543C217.803 7.36568 221.101 7.41333 219.772 7.50412ZM229.991 7.57193C229.145 7.57269 227.873 7.63324 227.417 7.5162C228.249 7.51541 229.529 7.45482 229.991 7.57193ZM187.042 7.59409C185.979 7.49805 189.251 7.46959 188.304 7.58334C188.258 7.5887 187.094 7.59857 187.042 7.59409ZM211.305 7.73709C210.221 7.85516 210.734 7.47937 211.537 7.5773C211.583 7.58307 211.356 7.7317 211.305 7.73709ZM8.30057 165.418C8.39264 165.345 8.32797 162.428 8.32877 161.911C8.24319 162.205 8.19502 165.501 8.30057 165.418ZM231.465 7.91637C229.794 8.24742 227.551 7.86504 227.305 7.8734C227.06 7.88191 227.444 8.02663 227.388 8.0305C227.263 8.03862 224.646 8.02647 224.518 8.0164C224.427 8.00854 224.902 7.80519 224.36 7.74112C225.426 7.85667 230.178 7.78439 230.442 7.80693C230.635 7.82492 229.181 8.03847 231.462 7.91637C231.463 7.91637 231.464 7.91637 231.465 7.91637ZM226.689 7.91771C227.341 7.83246 225.511 7.82179 225.066 7.85326C224.079 7.92365 226.606 7.92781 226.689 7.91771ZM222.275 7.99626C222.068 8.01538 220.184 8.03275 220.023 7.93785C220.917 7.81474 222.748 7.95171 222.275 7.99626ZM201.265 7.98351C200.776 7.97134 199.427 8.04428 199.349 7.96135C199.841 7.97345 201.189 7.90057 201.265 7.98351ZM9.02435 155.464C9.09374 156.279 9.12209 154.391 9.08881 153.84C9.03349 153.811 9.01839 155.395 9.02435 155.464ZM211.122 8.53003C210.818 8.55525 204.917 8.49232 204.074 8.45349C204.899 8.39078 210.748 8.38596 211.026 8.41656C211.104 8.42574 211.159 8.52606 211.122 8.53003ZM223.934 8.5683C224.48 8.69041 224.835 8.54396 224.904 8.54211C225.578 8.52344 226.969 8.55096 226.664 8.43335C225.482 8.4808 222.848 8.32581 223.934 8.5683ZM200.845 8.53607C198.834 8.49075 202.695 8.36211 202.188 8.48975C202.156 8.49747 201.053 8.54083 200.845 8.53607ZM211.785 8.56561C212.235 8.66429 218.148 8.57919 219.109 8.57904C218.256 8.39705 217.566 8.53529 216.417 8.526C216.109 8.52328 216.191 8.44757 216.158 8.44745C215.626 8.44394 216.025 8.53139 215.696 8.53271C215.492 8.53333 211.162 8.42659 211.785 8.56561ZM224.246 8.65291C224.582 8.7229 228.279 8.75275 228.424 8.73415C229.536 8.59578 224.541 8.62852 224.246 8.65291ZM211.24 8.72743C211.881 8.93895 214.824 8.7973 212.809 8.69185C212.617 8.68225 211.801 8.77394 211.24 8.72743ZM201.059 8.7375C200.961 8.74373 198.863 8.786 198.825 8.7187C199.13 8.69255 202.185 8.66908 201.059 8.7375ZM202.145 8.9651C202.094 8.9635 202.585 8.83388 201.604 8.8503C201.522 8.85184 201.37 8.99768 200.134 8.94429C199.883 8.9333 199.494 8.83682 199.522 8.83083C200.812 8.60196 204.677 9.0403 202.145 8.9651ZM224.314 8.77107C224.114 8.83263 224.596 9.01534 225.031 8.92281C225.217 8.88286 224.87 8.77321 224.314 8.77107ZM194.408 8.79659C195.627 8.90739 191.8 8.92834 191.604 8.89998C191.727 8.83096 194.287 8.78577 194.408 8.79659ZM9.87973 153.556C9.87973 153.557 9.87973 153.558 9.87973 153.559C9.85462 152.534 9.76244 153.169 9.75955 153.121C9.62415 150.936 9.83293 151.516 9.85757 151.174C9.91086 150.442 9.65697 150.56 9.76223 149.324C9.60678 151.367 9.67195 149.508 9.58162 149.45C9.21301 149.221 9.75423 152.169 9.67696 153.187C9.66626 153.329 9.54862 152.282 9.51515 152.645C9.40671 153.827 9.97574 157.491 9.87973 153.556ZM225.366 8.93892C225.846 9.0472 229.442 8.94218 228.488 8.85298C228.339 8.83868 224.668 8.78111 225.366 8.93892ZM56.758 9.09872C57.6248 9.19243 55.6159 9.30258 55.2514 9.22964C55.0677 9.19331 56.3752 9.0576 56.758 9.09872ZM42.6609 9.49956C41.63 9.48053 40.5645 9.08978 41.8296 9.15042C41.9636 9.15704 42.7785 9.44536 42.6609 9.49956ZM110.354 9.2988C109.273 9.43845 109.338 9.17899 110.131 9.18265C110.412 9.1839 110.388 9.29439 110.354 9.2988ZM69.2799 9.26523C69.1698 9.27429 67.9165 9.25772 67.963 9.19809C68.423 9.16231 69.9847 9.20306 69.2799 9.26523ZM110.698 9.33572C110.054 9.28897 111.167 9.1013 111.937 9.2847C111.545 9.26965 110.765 9.3405 110.698 9.33572ZM209.016 9.30081C208.483 9.19427 206.974 9.22647 206.104 9.20816C206.011 9.34619 208.398 9.27579 209.016 9.30081ZM47.037 9.34244C46.0624 9.24516 48.152 9.16551 47.9627 9.2941C47.935 9.30109 47.0745 9.34659 47.037 9.34244ZM145.075 9.34982C144.367 9.26749 146.616 9.15677 145.997 9.30148C145.967 9.30739 145.114 9.35442 145.075 9.34982ZM154.909 9.30215C154.37 9.32993 152.076 9.32138 152.969 9.24106C153.107 9.22871 154.868 9.22675 154.909 9.30215ZM9.95694 151.114C10.0987 151.404 10.065 149.721 10.0402 149.48C10.0299 149.385 9.77247 150.736 9.95694 151.114ZM103.361 9.32095C102.801 9.30322 101.357 9.33693 101.103 9.26254C101.782 9.27794 103.544 9.17278 103.361 9.32095ZM51.4872 9.34311C50.6378 9.49719 49.2148 9.48198 49.567 9.28067C51.1461 9.29416 49.3638 9.46161 51.4872 9.34311ZM114.277 9.50157C113.831 9.51332 113.489 9.31999 113.54 9.31088C114.022 9.22423 114.721 9.42635 114.277 9.50157ZM80.7783 9.34244C80.7511 9.42506 79.3085 9.38756 79.5015 9.33438C79.5637 9.31653 80.7986 9.27559 80.7783 9.34244ZM190.267 9.34781C189.61 9.42322 191.617 9.49695 192.21 9.40891C192.499 9.28206 190.351 9.33916 190.267 9.34781ZM126.662 9.45323C126.727 9.57584 124.496 9.50652 125.375 9.40488C125.595 9.37946 126.638 9.41223 126.662 9.45323ZM148.083 9.60027C146.581 9.45406 152.886 9.35025 151.229 9.53246C151.114 9.54544 148.213 9.61261 148.083 9.60027ZM158.376 9.50896C158.117 9.52507 158.246 9.93706 159.317 9.77818C159.458 9.75758 158.8 9.64868 158.915 9.62376C158.982 9.60957 161.312 9.55171 161.42 9.56133C161.535 9.57225 161.399 9.7043 161.516 9.7191C161.648 9.73566 163.084 9.61966 163.835 9.61839C165.25 9.61621 165.403 9.72612 165.519 9.72649C165.857 9.72722 166.425 9.64919 167.111 9.64928C170.567 9.65016 175.849 9.74332 178.59 9.5103C176.15 9.60387 173.831 9.50459 171.404 9.47404C172.114 9.70346 167.835 9.29727 170.338 9.562C169.186 9.50458 159.223 9.45865 158.379 9.50896C158.378 9.50896 158.377 9.50896 158.376 9.50896ZM38.8674 9.65643C39.4161 9.74936 36.6279 9.93068 36.3713 9.83524C36.7351 9.74358 38.7956 9.62807 38.8674 9.65643ZM53.5947 9.95813C53.9 9.98241 54.1984 10.2574 55.7584 10.1179C55.7598 10.1179 55.7613 10.1179 55.7627 10.1179C56.2221 10.0772 55.6986 10.0102 55.7827 9.98633C55.8122 9.97658 57.2501 9.8398 56.0564 9.81781C54.245 9.78406 55.8842 10.0224 54.9211 10.0253C54.8192 10.0255 52.9458 9.87666 53.0565 9.84399C53.0674 9.84018 53.6286 9.87167 53.722 9.85809C54.0734 9.80704 53.9024 9.72118 53.9519 9.71709C54.1309 9.70662 56.998 9.85291 57.4371 9.72514C57.5644 9.68394 52.8102 9.58891 52.6017 9.61034C52.4831 9.62384 52.5331 9.86217 52.4104 9.88562C52.3437 9.89729 50.4259 9.80798 50.1837 9.8299C50.1122 9.83623 50.0576 9.84306 50.0175 9.84869C50.3137 9.77495 48.5632 9.78026 48.6125 9.86346C48.6426 9.89616 49.8632 9.87723 49.8941 9.87152C49.9126 9.86909 49.9287 9.86575 49.9437 9.86346C49.6846 9.95332 53.7428 9.94926 52.8688 10.083C54.0586 10.1563 52.699 9.88681 53.5947 9.95813ZM59.2665 10.1052C59.1428 10.0801 59.0193 10.055 58.8959 10.03C60.9362 10.0913 63.3475 9.97066 65.7051 9.97156C66.3034 9.9716 65.6144 10.1249 66.4 10.083C67.0297 10.0494 67.7323 9.90724 67.3875 9.87555C67.3026 9.86763 66.0162 9.96025 65.3794 9.95074C63.4966 9.92261 63.9518 9.79114 63.8465 9.78758C63.7213 9.78386 62.5121 9.8763 61.8593 9.87219C60.2154 9.86154 59.4889 9.78084 57.2142 9.88629C58.519 9.97293 57.8006 10.1611 59.2665 10.1052ZM136.115 9.8252C136.195 9.90793 137.545 9.83452 138.033 9.84668C137.956 9.76372 136.61 9.83734 136.115 9.8252ZM10.5874 90.2918C10.4516 90.7062 10.418 87.6001 10.531 88.4187C10.5561 88.5998 10.5864 89.9015 10.5874 90.2918ZM10.5048 76.3383C10.5424 75.9227 10.6401 77.5958 10.535 77.5927C10.5013 77.5903 10.4999 76.3918 10.5048 76.3383ZM85.9103 9.97156C85.9889 9.97581 87.1441 9.94557 87.1732 9.93866C87.9393 9.79448 84.1507 9.87781 85.9103 9.97156ZM10.672 59.3754C10.583 60.8237 10.5444 56.4645 10.6579 57.7965C10.6634 57.8629 10.6763 59.3058 10.672 59.3754ZM10.6968 53.3164C10.6921 53.6636 10.7363 55.2053 10.6948 55.2256C10.628 55.2563 10.5823 53.4917 10.6968 53.3164ZM114.579 10.0145C114.41 10.1675 116.447 10.0517 117.159 10.0709C117.327 9.91782 115.284 10.0338 114.579 10.0145ZM101.744 10.1273C110.32 10.2479 108.444 9.92105 101.234 10.0528C101.224 10.151 101.204 10.1197 101.744 10.1273ZM112.724 10.1092C112.411 10.0112 111.451 10.0402 110.787 10.0481C110.911 10.1162 112.25 10.0916 112.724 10.1092ZM10.7975 93.9903C10.9214 93.4528 10.7687 91.0726 10.7177 91.4958C10.7066 91.5943 10.7295 94.1877 10.7975 93.9903ZM86.6349 10.1025C86.4448 10.2513 88.9922 10.1906 89.1934 10.1575C89.9823 10.0246 86.8461 10.1353 86.6349 10.1025ZM126.745 10.1454C127.199 10.262 128.491 10.2021 129.324 10.2005C128.944 10.1008 127.449 10.1434 126.745 10.1454ZM120.751 10.2368C120.803 10.2412 121.962 10.2307 122.014 10.2254C122.964 10.1115 119.685 10.1407 120.751 10.2368ZM10.999 154.978C11.0027 154.94 10.9953 154.063 10.9909 154.032C10.879 153.25 10.9019 155.881 10.999 154.978Z" fill="#BD97EC"/>
</svg>
