<svg width="118" height="298" viewBox="0 0 118 298" fill="none" xmlns="http://www.w3.org/2000/svg">
<path d="M0.0878534 267.669C0.101806 267.428 0.0678697 266.458 0.0737538 266.037C-0.0738034 266.514 0.0371909 268.54 0.0878534 267.669ZM10.8029 224.571C10.7664 224.92 10.73 225.269 10.6935 225.617C10.6698 224.627 10.6966 223.295 10.6619 222.376C10.6561 222.225 10.5505 222.615 10.5458 222.26C10.5411 221.904 10.6854 221.972 10.7009 221.455C10.7177 220.874 10.6172 218.216 10.6196 217.295C10.6294 213.852 10.7118 210.379 10.6519 206.929C10.5451 210.491 10.4364 206.902 10.4827 205.904C10.4934 205.683 10.7617 205.718 10.6942 202.145C10.6513 199.874 10.2676 201.971 10.4598 198.182C10.7282 201.096 10.7094 198.23 10.7183 195.946C10.7199 195.552 10.6796 192.371 10.6915 190.966C10.6956 190.486 10.8362 189.753 10.8398 189.116C10.8423 188.677 10.7654 188.345 10.7694 187.693C10.7867 184.656 10.7926 181.669 10.7667 178.626C10.4055 180.404 10.6127 177.23 10.5955 177.088C10.4974 176.363 10.4695 179.642 10.4081 178.345C10.4193 176.533 10.4305 174.721 10.4417 172.909C10.4861 174.396 10.7459 170.94 10.6277 170.304C10.9469 170.584 10.3499 162.046 10.4565 160.746C10.479 160.475 10.6367 162.247 10.5646 158.136C10.5566 157.691 10.4603 157.86 10.4692 157.626C10.4746 157.486 10.7807 156.64 10.6116 155.738C10.5498 155.409 10.3488 157.516 10.4296 152.889C10.7411 154.732 10.5983 146.475 10.5203 144.956C10.5621 145.259 10.604 145.563 10.6458 145.866C10.5329 144.364 10.6388 144.093 10.6331 143.755C10.6099 142.392 10.5031 140.517 10.5129 139.247C10.5241 137.761 10.7178 137.756 10.6425 136.024C10.6852 136.435 10.7279 136.846 10.7707 137.257C10.7604 136.06 10.7501 134.864 10.7398 133.667C10.4834 136.438 10.7276 133.069 10.7331 132.847C10.7424 132.493 10.6374 133.002 10.6505 132.41C10.6527 132.349 10.7515 132.437 10.7626 131.525C10.7855 129.618 10.6612 129.92 10.6626 129.119C10.6632 129.046 10.7523 129.303 10.7734 127.92C10.8405 123.526 10.7051 127.942 10.6928 128.111C10.6766 128.332 10.3043 126.825 10.4363 130.558C10.3943 129.305 10.2296 129.179 10.2255 129.037C10.2221 128.913 10.2453 126.741 10.251 126.621C10.307 125.554 10.4195 126.493 10.4397 126.285C10.4559 126.115 10.3093 123.499 10.6478 122.886C10.3355 121.634 10.3641 123.606 10.3161 125.705C10.2521 126.011 10.1898 123.706 10.1899 123.585C10.1905 120.612 10.4474 122.258 10.6116 121.608C10.6975 121.267 10.5222 120.055 10.7526 121.174C10.7769 118.475 10.6434 120.112 10.6237 119.937C10.5946 119.674 10.6606 118.73 10.6519 118.612C10.6388 118.438 10.5591 119.041 10.531 118.357C10.5269 118.244 10.6641 117.142 10.7297 118.563C10.7102 116.664 10.8272 116.82 10.5914 116.177C11.0376 114.869 10.3277 115.228 10.3027 114.713C10.2368 113.343 10.5871 113.741 10.6042 113.668C10.7136 113.17 10.5933 109.379 10.6438 108.441C10.3915 108.811 10.641 111.446 10.5921 112.035C10.4293 113.999 10.466 109.267 10.149 110.693C10.236 110.095 10.3231 109.497 10.4101 108.899C10.2063 107.802 10.1175 109.358 10.1919 106.407C10.3679 105.924 10.1641 108.493 10.3027 107.978C10.384 107.674 10.4015 105.963 10.4444 105.929C10.496 105.896 10.4348 107.442 10.5142 107.198C10.6855 106.666 10.5224 101.026 10.4289 105.319C10.4319 104.122 10.0911 103.505 10.1973 102.466C10.2662 101.795 10.7368 105.573 10.6505 99.9044C10.4896 99.7836 10.603 102.171 10.5908 102.233C10.5729 102.32 10.2099 101.888 10.1919 101.813C10.1329 101.549 10.3274 95.76 10.1449 94.5368C10.3548 95.021 10.1824 90.1627 10.2463 89.6335C10.264 89.4925 10.3925 90.0191 10.4061 89.8685C10.4871 88.929 10.2576 86.3879 10.2517 85.2091C10.245 83.8898 10.356 84.057 10.3558 83.9832C10.3496 83.4028 10.2743 83.8665 10.2745 83.5117C10.2749 82.9756 10.2595 79.2916 10.2752 79.1067C10.2801 79.0525 10.4069 79.6539 10.431 78.8508C10.4351 78.7117 10.2848 78.7999 10.3497 76.4214C10.4278 73.557 10.5367 78.4105 10.6942 77.2203C10.47 75.3804 10.6921 75.4401 10.6747 74.9412C10.6683 74.7684 10.4794 73.4827 10.4914 72.0863C10.4607 73.0885 10.4301 74.0907 10.3994 75.0929C10.3663 74.1077 10.4073 72.1944 10.3699 71.3827C10.3516 70.9867 10.1965 71.313 10.2007 70.4529C10.2024 70.2702 10.5804 69.5459 10.4108 71.7992C10.5458 71.9793 10.4579 70.9071 10.4961 70.4097C10.502 70.3345 10.7276 70.0378 10.5874 69.4026C10.5529 69.2501 9.89506 70.9106 10.3712 66.628C10.3865 66.4901 10.4689 66.9697 10.486 66.8348C10.4976 66.7427 10.4643 65.6494 10.4759 65.5287C10.4885 65.4051 10.5784 65.9331 10.5961 65.786C10.6873 65.032 10.3306 64.0422 10.3578 65.5971C10.3137 65.0774 10.2696 64.5577 10.2255 64.038C10.4944 64.5942 10.3012 63.2218 10.3094 62.5027C10.3623 57.8942 10.5372 60.9802 10.6277 60.1879C10.7729 58.9135 10.3129 59.8868 10.4511 57.9951C10.464 57.8201 10.6593 60.1069 10.5491 55.6416C10.5415 56.3006 10.5339 56.9596 10.5263 57.6187C10.2663 57.2387 10.5441 55.2389 10.5478 55.0852C10.5835 53.3318 10.4897 54.5171 10.6237 51.9135C10.6357 51.6808 10.5715 51.1744 10.6035 50.6772C10.7354 48.6161 10.6835 53.3969 10.7888 53.5276C10.8404 53.5895 10.8274 48.4481 10.8029 48.2716C10.6943 47.5222 10.7551 50.6023 10.6203 50.0152C10.5724 49.8009 10.6707 42.473 10.6183 41.0029C10.6021 40.552 10.5653 40.1672 10.5274 39.8447C10.4243 39.0748 10.332 38.7137 10.6216 38.7181C10.2479 38.2942 10.536 37.9373 10.5461 37.7531C10.7035 35.5074 10.7193 35.4955 11.1182 33.6111C11.2139 33.1955 11.1831 32.8188 11.2383 32.6767C11.2712 32.5948 11.3533 32.7822 11.4957 32.3779C11.6382 31.7988 12.6878 28.382 12.7781 28.1238C12.8092 27.8466 12.1846 29.5202 12.1983 29.1838C12.6457 27.9655 13.1844 26.8409 13.7856 25.6813C14.0372 25.2013 13.8352 25.408 13.9466 25.201C13.9821 25.1042 15.0086 23.5304 15.0012 23.6207C14.84 23.7503 12.2356 28.9012 13.0441 27.5996C13.1825 27.3431 13.4662 26.3318 13.5977 26.5795C15.8182 21.9573 19.2662 17.9037 23.4976 14.951C20.9422 16.4814 18.5538 18.9071 16.6507 21.3554C16.379 21.6854 15.5641 22.8714 15.5741 22.6663C17.0395 20.4491 19.3426 18.0557 21.2805 16.4003C21.3422 16.3465 21.0451 16.4581 21.2719 16.2512C21.6895 15.8502 23.2916 14.8814 23.5336 14.6837C23.5711 14.6415 22.623 15.1403 22.8381 14.8852C23.3974 14.2246 23.8475 14.5131 24.4417 14.1298C24.8689 13.7889 28.0466 11.8509 28.9885 11.6952C29.9404 11.4462 26.5383 12.8774 26.8598 12.9124C29.1321 11.9015 31.461 10.9303 33.7628 10.4258C33.8031 10.4173 33.4761 10.5948 33.9893 10.494C34.8843 10.3264 35.0911 10.1513 35.5278 10.0529C35.9956 9.93677 37.6868 9.75958 37.908 9.69995C37.9365 9.69025 37.5804 9.57834 37.5277 9.57996C36.7786 9.59506 36.5395 9.82047 36.4736 9.83017C36.2234 9.87036 35.969 9.83566 35.7396 9.87598C35.3629 9.9433 35.1669 10.0424 34.6765 10.1425C34.3385 10.2136 34.6413 10.0243 34.3148 10.0965C34.188 10.1178 32.9737 10.6974 32.7829 10.451C32.7272 10.3768 36.9695 9.2565 40.4884 9.31406C42.7904 9.30011 44.7733 9.30133 45.2263 9.32852C44.153 9.36389 43.0867 9.39923 42.0086 9.4346C44.1847 9.34851 46.7992 9.5835 46.9904 9.23587C55.0566 9.20743 63.1371 9.17902 71.2103 9.1506C72.65 9.12097 71.8637 8.89758 74.2331 8.96259C73.6204 9.03378 73.0086 9.10495 72.3943 9.17612C73.6098 9.12619 78.9981 9.02866 79.869 9.07474C79.9816 9.08075 80.1399 9.28296 81.4848 9.30032C82.679 9.31564 82.8716 9.16418 83.5099 9.13516C84.0458 9.11121 84.648 9.15091 84.8071 9.14255C84.9292 9.13583 84.9775 9.04321 85.2713 9.02707C86.1988 8.97711 85.4471 9.23795 86.3679 8.93842C86.1437 8.927 85.9195 8.91559 85.6954 8.90417C86.8148 8.86084 88.3439 8.72485 86.6952 8.65778C86.4117 8.64621 86.6552 8.73581 86.4437 8.73566C78.1645 8.71899 84.7757 8.5448 87.677 8.68396C88.4222 8.55118 92.5989 8.63223 92.7369 8.60608C92.9297 8.56818 92.2158 8.46204 93.1516 8.37042C93.3503 8.35101 98.9327 8.42538 96.9225 8.2489C96.5067 8.21249 93.8315 8.25073 93.1843 8.24554C94.7049 7.96408 98.2613 8.36731 98.6628 8.35699C100.279 8.31311 95.5597 8.11307 99.1989 8.08035C101.993 8.05527 99.3705 8.24319 100.445 8.32343C101.051 8.36844 104.214 8.16141 104.13 8.4295C105.216 8.45813 104.58 8.31616 104.714 8.30597C104.843 8.29697 106.984 8.37723 107.674 8.32074C107.758 8.31369 107.494 8.17435 107.58 8.16293C107.745 8.14343 109.813 8.1713 109.893 8.18307C109.945 8.19128 109.455 8.31329 109.657 8.3429C109.888 8.37701 111.876 8.3483 111.984 8.38318C112.14 8.43591 109.687 8.40115 110.097 8.5376C111.229 8.50323 113.06 8.59427 113.809 8.7041C113.627 8.6727 112.529 8.66818 112.153 8.67926C112.327 8.87909 114.683 8.87634 113.878 8.7182C114.388 8.80313 114.04 8.84821 114.327 8.92834C114.403 8.94867 115.124 8.95285 115.265 8.98743C115.281 8.99432 114.537 9.06973 114.686 9.11032C114.952 9.18365 117.16 9.16714 117.335 9.14792C117.839 9.09338 116.053 9.0274 115.901 8.94312C115.881 8.93018 117.403 8.76501 117.425 8.75043C117.515 8.59393 115.821 8.70673 116.014 8.5658C116.435 8.53604 116.853 8.50626 117.271 8.4765C115.658 8.3338 112.653 8.40717 111.889 8.24487C114.288 8.29315 116.8 8.28745 116.794 7.92191C116.793 7.76797 115.757 7.6777 115.797 7.63858C115.951 7.4985 117.385 7.65067 117.437 7.64328C117.48 7.63474 117.5 7.62643 117.5 7.61835C117.5 7.61835 117.5 7.61835 117.5 7.61832C117.502 7.53632 115.456 7.47726 115.35 7.43985C115.177 7.37332 116.092 7.09955 116.09 7.039C116.059 7.02682 114.597 6.96204 115.089 6.85638C115.59 6.74963 116.867 6.74728 116.911 6.73621C117.157 6.67233 114.917 6.61411 114.854 6.57639C114.816 6.55734 116.02 6.44022 116.055 6.40652C116.086 6.37274 115.166 6.29901 114.812 6.19235C114.546 6.1131 115.322 6.05237 115.186 6.03995C115.09 6.03171 112.981 6.03305 112.874 6.01913C112.719 5.99854 113.215 5.90381 113.143 5.88016C113.039 5.8461 112.359 5.88028 112.448 5.84525C112.512 5.81912 115.16 5.49265 115.138 5.40546C115.11 5.25671 112.315 5.59894 114.914 5.01202C114.931 5.00815 115.567 5.04987 115.585 5.04626C115.977 4.93826 113.94 4.77216 116.43 4.80118C111.809 4.61362 115.852 4.57761 115.168 4.32718C114.907 4.2309 113.116 4.19122 113.106 4.17676C113.281 4.05466 113.852 4.14935 114.046 4.08948C114.154 4.05603 112.547 3.92691 112.908 3.84308C113.097 3.79987 114.799 3.81525 114.867 3.80682C115.537 3.72733 114.715 3.64172 114.863 3.58527C114.958 3.54739 115.99 3.5444 116.016 3.5376C116.059 3.52341 114.662 3.37045 114.375 3.31668C114.154 3.27533 114.981 3.21051 114.827 3.19247C113.904 3.08463 111.921 3.35968 113.829 2.97427C113.945 2.95065 114.664 2.96017 114.685 2.95547C115.128 2.84622 113.807 2.83676 113.568 2.74734C113.161 2.5932 115.067 2.67914 113.482 2.57074C114.671 2.46997 115.331 2.47418 116.722 2.50226C112.873 2.42389 111.515 2.02493 115.788 2.03497C114.423 2.0412 114.581 1.81601 114.174 1.81207C113.923 1.80988 111.948 2.03375 112.852 1.5314C112.966 1.46866 114.166 1.5484 113.79 1.41995C110.912 1.45273 113.729 1.33823 113.732 1.32126C113.689 1.02536 106.675 1.2677 105.464 1.23398C104.069 1.19482 102.818 0.96167 102.516 0.961365C101.516 0.961273 102.346 1.07965 102.122 1.1232C101.895 1.16632 99.0483 0.939514 98.9056 0.951965C98.3535 1.00201 98.9139 1.1423 98.8565 1.14938C98.1718 1.23535 94.3508 1.12549 93.2782 1.15811C93.3119 1.06711 95.4616 1.05988 94.1194 0.913696C92.5547 0.743286 92.4676 1.14447 92.4262 1.16214C85.2661 1.15833 78.1049 1.15451 70.946 1.15073C71.0332 0.937286 75.7157 1.09824 75.8229 1.07016C76.4471 0.903778 68.5389 0.90683 67.5694 0.982208C68.3098 0.936096 69.0417 0.889984 69.78 0.843872C68.5233 0.598511 65.7379 0.917297 63.9171 0.80896C63.3304 0.773834 64.4571 0.679138 64.4342 0.672668C63.774 0.577362 62.7155 0.650787 63.5076 0.778748C61.8916 0.656158 62.1271 0.791412 60.8926 0.801575C60.8287 0.802002 61.3619 0.702972 60.379 0.661926C59.9183 0.642761 57.4723 0.642456 57.1438 0.555847C57.0085 0.519379 58.2514 0.135376 58.4062 0.465881C61.0639 0.304779 59.2549 0.616486 60.2896 0.608887C60.4478 0.607147 60.0858 0.422668 62.6879 0.509521C62.1916 0.176849 59.1898 0.425598 58.68 0.385315C57.62 0.30249 61.9863 0.130676 62.7893 0.390015C62.4127 0.130402 63.1037 0.355011 64.073 0.34436C65.1383 0.332764 64.674 0.255463 65.2517 0.255066C66.8312 0.253113 66.1736 0.436371 67.4756 0.271179C66.2077 0.782593 69.7002 0.338654 70.7218 0.204712C69.0623 0.178741 67.4045 0.152771 65.7515 0.126801C65.8462 0.0999451 65.9404 0.0730896 66.0349 0.0462341C65.6005 0.0500488 65.1603 0.0538635 64.7243 0.0576477C64.7943 0.0834045 64.8642 0.109131 64.9342 0.134857C62.688 -0.0324707 62.1329 0.155609 61.951 0.157684C59.5872 0.179504 56.8658 0.177887 54.4723 0.178528C54.1164 0.178619 54.3573 0.0112 51.7498 0.142242C50.9174 0.18399 51.7037 0.314209 50.7567 0.294678C49.5745 -0.0591736 49.6 0.223053 49.2503 0.223511C48.2353 0.22345 47.6236 0.135803 47.5305 0.134857C46.2858 0.121185 44.4602 0.135834 43.094 0.122772C43.0685 0.12146 43.7768 0.0127258 42.8928 0.0448914C42.7249 0.0513916 41.7305 0.203033 40.4884 0.305878C39.3977 0.383423 38.1404 0.484314 36.9432 0.52652C37.6516 0.431824 38.3745 0.355743 39.0857 0.299652C38.2375 0.251984 32.3486 0.957306 33.7633 0.644928C34.6359 0.401031 36.8316 0.454407 37.0412 0.160736C35.0035 0.000579834 24.3894 2.94086 23.7694 3.71042C23.6662 3.76752 24.3649 3.55148 24.2215 3.63016C24.1029 3.67249 21.8433 4.75714 21.5794 4.96561C21.4152 5.07614 22.4161 4.60834 22.3532 4.68237C22.2795 4.71442 19.5975 6.28873 19.3992 6.31183C20.0638 5.92917 21.9216 4.84256 20.8886 5.31131C20.7546 5.37128 20.1425 5.81747 19.985 5.897C18.4937 6.60696 22.748 4.14929 23.4748 3.8945C20.5894 5.04285 16.6325 7.79718 13.9408 10.148C12.9278 11.1784 15.6472 8.85193 14.4722 9.98492C12.0896 12.3757 13.7115 10.4875 13.6256 10.5452C12.9099 11.0276 11.3139 13.4509 11.0341 13.1944C10.2665 14.1535 10.5535 13.8751 9.42331 15.1842C9.54306 14.9888 9.66461 14.7943 9.78794 14.6006C8.32209 15.9174 6.60805 19.6793 6.83752 19.4465C7.34643 18.8057 8.37344 16.9703 8.4936 16.8316C8.67173 16.6261 9.34987 16.2363 10.9684 13.8091C11.9098 13.0655 8.21031 17.4761 9.99292 15.5477C8.70592 16.8094 5.20518 23.1776 4.83077 24.1575C4.7719 24.2673 4.73235 23.617 4.17497 25.3349C3.91767 26.1505 4.69325 24.2468 4.60547 24.6332C4.25208 25.4116 1.35842 33.8296 1.60926 39.8447C1.59842 41.8779 1.5872 43.5428 1.58443 44.3085C1.58413 44.4889 1.66846 44.4227 1.66769 44.6C1.66533 45.1447 1.53957 47.13 1.57839 48.105C1.42229 46.0849 1.41015 50.008 1.42732 51.006C1.45348 52.5206 1.60188 52.4269 1.63344 53.0813C1.7551 55.6033 1.40275 59.511 1.73214 61.4703C1.40522 61.3631 1.89243 64.8591 1.8953 66.4495C1.89764 67.6952 1.6813 69.5027 1.54952 67.8212C1.56457 69.9716 1.50358 72.2352 1.48372 74.2524C1.48039 74.5858 1.57706 74.1268 1.56832 74.6957C1.56682 74.7473 1.47209 74.8186 1.46223 75.3071C1.37966 79.3399 1.58098 77.3777 1.64016 78.1322C1.6733 78.5545 1.68978 78.8661 1.69521 79.0948C1.71373 76.7441 1.75094 74.0327 1.75363 73.3077C1.96283 73.9262 1.71345 78.5177 1.76974 79.8624C1.77179 79.9091 1.88709 79.7466 1.88791 79.794C1.88791 79.7949 1.88791 79.7959 1.88791 79.7969C1.89674 80.3009 1.85419 83.5104 1.7167 82.8496C1.67997 82.6723 1.68004 81.195 1.69253 79.4429C1.66674 79.9171 1.53757 79.563 1.53206 79.6467C1.46821 80.6615 1.59428 83.1475 1.61129 84.0294C1.61502 84.231 1.53226 84.2165 1.53206 84.2495C1.55086 85.0516 1.78716 84.7226 1.54348 85.5453C1.83797 86.9978 1.5872 82.8233 1.77847 83.1174C1.92573 83.3434 1.84664 92.6156 1.61465 92.588C1.63946 92.62 1.67025 92.7475 1.70529 93.009C1.78313 93.5889 1.75878 96.1697 1.71603 96.6151C1.70761 96.6902 1.48244 96.6602 1.48036 96.7535C1.47519 96.9866 1.65173 100.141 1.51863 101.319C1.48708 100.683 1.45552 100.047 1.42396 99.4104C1.42201 103.253 1.355 102.659 1.28767 101.379C1.28706 101.315 1.27851 101.252 1.2776 101.191C1.22781 100.199 1.17987 98.9269 1.16211 98.9076C1.09433 98.8349 1.05661 105.353 1.26551 104.1C1.29406 103.925 1.20105 100.909 1.35011 102.402C1.37622 102.663 1.33368 104.6 1.35011 104.702C1.45934 105.383 1.60445 101.153 1.75967 101.67C1.61189 102.697 1.68972 104.014 1.65157 105.192C1.63433 105.727 1.52143 105.859 1.5193 105.925C1.48983 106.913 1.6082 106.358 1.60525 106.688C1.60321 106.865 1.35128 108.812 1.69857 108.444C1.4431 114.857 1.44335 110.218 1.46291 106.283C1.33642 107.527 1.3976 109.964 1.36824 111.057C1.35758 111.45 1.24169 111.217 1.21851 111.88C1.17084 113.244 1.30396 119.758 1.33534 121.455C1.37628 120.413 1.50251 120.717 1.49379 121.522C1.48501 122.326 1.31652 121.65 1.29841 121.807C1.27966 121.976 1.35918 125.75 1.33735 126.378C1.39838 123.536 1.52426 124.177 1.53743 126.589C1.57369 126.24 1.60995 125.892 1.6462 125.543C1.59525 126.956 1.78728 129.928 1.73013 130.745C1.72094 130.873 1.6151 130.413 1.60995 130.485C1.56497 131.202 1.67291 133.64 1.6368 133.753C1.60674 133.85 1.518 132.809 1.47432 133.196C1.46512 133.276 1.60819 134.279 1.57302 135.266C1.56008 135.633 1.45998 135.412 1.45418 135.504C1.40603 136.274 1.57459 135.82 1.5475 137.226C1.52746 138.256 1.36267 139.023 1.41725 140.446C1.20718 135.772 1.29492 139.702 1.23127 141.656C1.22111 141.969 1.0394 141.701 1.12787 143.572C1.45644 139.589 1.30154 144.708 1.30512 145.754C1.30624 145.812 1.42607 145.832 1.42799 146.345C1.42789 146.389 1.3469 146.326 1.34071 146.803C1.28216 151.329 1.37365 148.435 1.45351 149.295C1.48753 149.661 1.37302 151.862 1.37025 152.455C1.36997 152.591 1.45411 152.529 1.45082 153.056C1.44478 153.989 1.3552 154.825 1.34809 155.441C1.34768 155.513 1.48045 155.516 1.43739 156.683C1.42535 157.011 1.37821 157.38 1.34004 156.913C1.21448 155.368 1.43178 152.435 1.30647 150.688C1.19234 149.094 1.18158 154.119 1.18091 154.38C1.1805 154.476 1.24642 153.495 1.25947 154.492C1.27033 155.343 1.04101 156.899 1.09094 158.168C1.09465 158.264 1.28908 159.278 1.30042 159.231C1.30871 159.189 1.35091 157.632 1.40718 157.858C1.41359 157.885 1.41228 158.875 1.45418 159.004C1.50517 159.162 2.00561 159.588 2.01816 159.8C2.04916 160.342 1.93503 159.989 1.94297 160.34C1.95971 161.092 2.1077 163.7 1.93424 163.785C1.92394 163.354 1.91365 162.923 1.90335 162.492C1.88551 164.89 1.81167 163.868 1.77914 164.208C1.74395 164.573 1.89642 164.47 1.91074 165.279C1.91389 165.455 1.88206 168.836 1.81808 168.775C1.9199 166.905 1.73148 167.598 1.72811 167.512C1.71584 167.184 1.82153 166.766 1.81943 166.326C1.80288 163.234 1.63606 166.352 1.59316 165.622C1.57872 165.371 1.66895 164.871 1.66433 164.764C1.64939 164.418 1.53123 164.412 1.54079 164.181C1.56297 163.642 1.73016 164.271 1.73886 164.228C1.84348 163.747 1.7133 161.858 1.53139 163.034C1.46583 162.328 1.68692 162.245 1.59853 161.686C1.42351 160.574 1.46847 162.24 1.43941 162.692C1.33458 164.311 1.41943 164.792 1.39039 167.085C1.38015 167.91 1.27275 168.889 1.26685 169.272C1.26315 169.513 1.63681 171.792 1.052 171.859C1.10859 172.744 1.49396 174.134 1.47633 175.047C1.46026 175.866 1.25337 175.606 1.24537 175.682C1.23279 175.799 1.24909 176.79 1.21985 177.125C1.18531 177.518 1.10634 177.322 1.07416 177.945C0.99428 179.495 1.20546 179.455 1.21918 179.614C1.37781 181.464 1.07744 180.654 1.05334 181.064C1.0312 181.446 1.14682 186.801 1.0708 187.929C1.1131 187.47 1.1554 187.011 1.1977 186.552C1.32942 187.373 1.11457 188.243 1.35078 188.259C0.969425 188.425 1.22434 190.12 1.21448 190.629C1.21043 190.829 1.14544 190.813 1.14264 191.065C1.13125 192.045 1.18298 194.256 1.15003 194.788C1.00816 197.089 0.772178 191.206 0.757923 190.743C0.76213 191.67 0.676719 196.915 0.493387 194.504C0.465101 194.131 0.635759 193.471 0.64244 193.262C0.686379 191.845 0.533445 192.959 0.5189 192.848C0.495422 192.659 0.643266 191.727 0.625655 191.481C0.62001 191.399 0.481529 191.928 0.478615 190.577C0.344367 191.241 0.453743 195.038 0.422217 195.537C0.41096 195.714 0.124094 194.602 0.402746 197.851C0.376113 197.814 0.349481 197.776 0.322848 197.738C0.311882 199.548 0.300915 201.357 0.289948 203.167C0.351307 202.97 0.474552 201.954 0.448402 203.234C0.433268 203.97 0.2966 203.425 0.292634 203.493C0.255017 204.154 0.300496 215.855 0.285249 218.122C0.2803 218.894 0.170464 221.044 0.168423 221.208C0.157429 222.188 0.22892 225.66 0.213408 226.352C0.203459 226.785 0.0892096 226.374 0.0945678 226.76C0.0997071 227.119 0.210132 226.747 0.21475 226.854C0.254765 227.737 0.109933 234.448 0.214079 236.041C0.182814 235.067 0.403435 230.207 0.481301 230.305C0.491978 230.326 0.57598 231.507 0.535014 231.751C0.63062 232.154 0.33953 233.536 0.396703 234.287C0.403196 234.372 0.566476 234.038 0.596113 235.379C0.606239 235.842 0.478966 237.052 0.621626 238.27C0.553079 240.033 0.764832 249.305 0.589398 249.941C0.580136 249.96 0.519728 248.654 0.447731 249.536C0.352031 250.709 0.674388 249.656 0.702196 251.022C0.706426 251.228 0.673804 255.031 0.653854 255.155C0.472937 256.307 0.399602 252.984 0.378575 253.031C0.325615 253.147 0.293574 255.907 0.306063 256.019C0.319056 256.126 0.558773 253.875 0.467873 256.58C0.439226 256.27 0.410579 255.96 0.381932 255.65C0.326141 256.923 0.491983 257.044 0.502115 257.352C0.53419 258.311 0.282282 259.347 0.593427 260.883C0.676002 261.289 0.767697 260.615 0.780079 260.665C0.891219 261.153 0.593908 261.775 0.815664 262.509C0.832204 262.564 0.965052 260.857 0.965389 263.84C0.944128 263.635 0.922866 263.43 0.901605 263.224C0.854137 263.645 0.82593 266.665 0.83715 267.071C0.869946 268.258 1.02257 267.223 1.00433 268.416C0.795166 267.651 0.767869 271.279 0.947933 271.07C0.721782 271.577 0.896237 274.659 0.901605 276.107C0.904825 277.022 0.806137 278.886 0.817678 279.177C0.831823 279.53 0.986099 279.423 1.02045 280.062C1.03024 280.244 0.917147 282.146 1.07684 283.815C1.10762 284.139 1.3693 284.818 1.43471 284.217C1.54663 283.188 1.33581 281.24 1.49043 281.265C1.65585 281.294 1.55747 283.917 1.57906 284.623C1.67891 287.882 1.85475 286 1.90805 286.084C2.03741 286.301 2.03339 288.082 2.04502 288.156C2.09668 288.464 2.19905 287.202 2.278 287.183C2.38079 287.16 2.5663 288.877 2.60095 288.486C2.65015 287.928 2.49554 286.35 2.50292 286.25C2.60265 284.949 2.84012 286.733 2.9568 287.225C2.99269 287.374 3.05168 286.78 3.06221 286.904C3.22195 288.79 2.72845 287.301 2.76142 288.556C2.79079 289.676 2.94685 288.235 2.95546 288.278C2.96491 288.333 2.97342 289.672 3.02864 289.882C3.05629 289.985 3.35984 286.505 3.49594 286.651C3.46595 287.761 3.43596 288.871 3.40597 289.982C3.58343 290.069 3.4528 288.472 3.4711 288.306C3.50781 287.974 3.59762 288.901 3.65372 288.861C3.68941 288.84 3.81675 287.752 3.86925 288.735C3.88738 289.073 3.76295 289.782 3.89006 291.013C4.05241 286.73 4.15216 289.698 4.21502 289.824C4.27788 289.948 4.42583 287.903 4.39966 290.385C4.74502 290.492 4.50883 290.331 4.56953 289.626C4.64414 288.762 4.75786 290.759 4.67158 287.601C4.83328 287.781 4.82184 290.319 4.83474 290.453C4.84643 290.569 4.92596 290.005 4.95291 290.206C5.26534 292.585 5.12267 290.951 5.32218 291.64C5.34001 291.702 5.41398 293.95 5.44304 292.238C5.49586 289.119 5.26673 287.816 5.75659 287.292C5.96937 289.599 5.65318 292.394 5.64782 293.095C5.6401 294.169 5.74 293.057 5.768 293.189C5.77705 293.235 5.76879 294.16 5.77673 294.172C6.15035 294.832 5.78293 290.055 5.8479 288.55C5.90385 288.954 5.9598 289.357 6.01575 289.76C6.01799 289.213 6.02023 288.666 6.02247 288.119C6.13494 290.725 6.06505 288.211 6.36757 287.561C6.43555 287.415 6.31897 289.127 6.5079 287.174C6.55151 288.615 6.61332 288.155 6.52804 289.459C6.6493 289.426 6.78608 286.491 6.8483 285.334C6.98457 289.423 6.53979 287.091 6.77512 290.626C6.62497 291.281 6.65421 289.594 6.62942 289.732C6.54031 290.225 6.68181 291.382 6.36959 292.778C6.31833 293.006 6.16054 292.044 6.16816 293.467C6.16924 293.625 6.30408 294.532 6.31386 294.519C6.41946 294.399 6.37989 293.501 6.42397 293.464C6.4657 293.429 6.4406 294.431 6.45217 294.434C6.58447 294.465 6.50273 293.599 6.54415 293.725C6.63423 293.996 6.91894 297.598 6.83555 292.897C6.68597 296.802 6.68946 293.397 6.74692 291.877C6.76132 291.489 6.84035 291.391 6.86777 290.838C6.90329 290.128 6.86536 289.296 6.87986 288.928C6.89585 288.533 7.08264 290.78 7.0269 287.53C7.2127 289.184 7.01461 292.106 7.14507 293.73C7.40869 297.009 7.4653 291.445 7.49084 290.865C7.49777 290.711 7.60449 291.229 7.61103 291.126C7.62106 290.957 7.57172 287.8 7.66004 287.488C7.74828 287.178 7.65598 288.645 7.748 288.742C7.80995 288.808 7.91983 284.999 7.96218 287.061C7.9912 288.483 7.7422 291.102 8.00985 291.544C8.032 289.453 8.05416 287.363 8.07632 285.273C8.17815 286.417 8.27998 287.561 8.38181 288.705C8.4141 286.359 8.29914 284.331 8.44492 282.103C8.77123 287.457 8.70533 280.364 8.74504 280.286C8.76879 280.26 9.03365 282.368 9.08209 282.707C9.18398 280.839 9.23377 275.165 9.56081 278.485C9.48696 277.882 9.66925 276.423 9.68301 276.442C9.82749 276.628 9.7338 279.81 9.86429 279.291C10.0157 278.69 9.81028 277.847 9.82669 276.921C9.91222 272.173 10.6665 273.475 10.5471 268.714C10.574 268.808 10.6008 268.903 10.6277 268.998C10.5849 263.822 10.5422 258.647 10.4994 253.471C10.7298 251.446 10.87 246.057 10.8445 243.41C10.8396 242.877 10.7187 240.26 10.6975 240.063C10.6569 239.697 10.6414 241.708 10.5652 240.799C10.5496 240.607 10.4988 236.177 10.6277 236.494C10.6426 236.99 10.5778 238.544 10.6082 238.798C10.8249 240.584 10.6518 226.926 10.7391 226.25C10.781 226.552 10.8228 226.855 10.8647 227.157C10.8441 226.295 10.8235 225.433 10.8029 224.571ZM0.453102 264.175C0.323797 264.692 0.420913 265.988 0.384618 266.754C0.33379 267.813 -0.164123 269.612 0.334933 268.837C0.374323 267.283 0.413713 265.729 0.453102 264.175ZM0.260406 241.461C0.329859 242.503 0.608582 241.695 0.492715 240.841C0.479547 240.746 0.166925 240.051 0.260406 241.461ZM0.392675 252.387C0.396366 252.343 0.388988 251.442 0.384618 251.411C0.27271 250.603 0.295582 253.318 0.392675 252.387ZM0.535686 199.608C0.523653 200.757 0.270273 199.925 0.374547 199.211C0.381167 199.166 0.536277 199.533 0.535686 199.608ZM0.5424 200.425C0.769299 201.317 0.309444 203.113 0.355747 201.685C0.360423 201.547 0.53135 200.384 0.5424 200.425ZM0.37119 245.176C0.458153 245.058 0.416162 243.983 0.39536 243.524C0.315965 243.537 0.380908 244.726 0.37119 245.176ZM0.39536 217.92C0.463727 217.874 0.459949 221.611 0.369847 221.865C0.408074 221.276 0.333923 217.963 0.39536 217.92ZM0.491372 208.338C0.503191 208.433 0.485223 209.723 0.424902 209.686C0.34577 209.056 0.437876 207.912 0.491372 208.338ZM0.487344 189.293C0.502497 189.223 0.88637 190.189 0.633712 187.899C0.596716 187.563 0.496417 188.764 0.482644 188.644C0.455781 188.394 0.443259 188.196 0.441016 188.037C0.409199 189.104 0.394231 190.212 0.417517 190.319C0.527493 190.823 0.48102 189.324 0.487344 189.293ZM0.773365 179.294C0.835979 179.074 0.802505 177.671 0.776722 177.351C0.771872 177.296 0.607306 177.535 0.619612 176.903C0.629771 176.396 0.798323 177.154 0.771351 176.166C0.74428 175.167 0.624156 176.501 0.615583 176.414C0.604346 176.297 0.680031 174.752 0.582013 174.8C0.509408 174.836 0.5585 176.491 0.543071 176.9C0.52324 177.425 0.402274 176.789 0.428259 177.665C0.444489 178.216 0.657207 177.91 0.667954 178.027C0.676614 178.124 0.554195 180.048 0.772694 179.291C0.772918 179.292 0.773142 179.293 0.773365 179.294ZM0.450416 187.749C0.443228 187.829 0.439407 187.923 0.441016 188.037C0.443904 187.94 0.447258 187.844 0.450416 187.749ZM0.546428 261.164C0.480822 260.622 0.396699 262.23 0.482644 262.839C0.551953 262.849 0.556641 261.25 0.546428 261.164ZM0.623641 186.759C0.570351 185.175 0.497062 186.34 0.450416 187.749C0.490456 187.301 0.641441 187.291 0.623641 186.759ZM0.535014 231.751C0.519149 231.684 0.494413 231.642 0.453773 231.636C0.498221 231.812 0.522093 231.828 0.535014 231.751ZM0.462502 228.054C0.586293 226.787 0.581297 229.362 0.492715 229.345C0.459276 229.338 0.457579 228.105 0.462502 228.054ZM0.5236 198.135C0.535714 198.251 0.90952 196.45 0.629012 199.065C0.584957 197.67 0.54425 199.142 0.511515 199.12C0.417427 199.063 0.507867 196.719 0.467202 196.2C0.635544 195.794 0.483688 197.753 0.5236 198.133C0.5236 198.134 0.5236 198.135 0.5236 198.135ZM0.682725 161.274C0.58408 161.592 0.615819 162.599 0.621626 163.279C0.720271 162.962 0.688531 161.954 0.682725 161.274ZM42.0281 0.0133362C41.4483 0.00204468 40.9354 -0.00167847 40.4884 0.000152588C37.0462 0.094696 36.8971 0.365356 40.4884 0.183136C40.6584 0.178192 40.8383 0.172211 41.0285 0.16507C41.1099 0.161743 42.3113 0.0540771 42.0281 0.0133362ZM5.1125 21.7686C5.04287 22.2899 5.80751 20.8386 6.29861 19.8749C6.40618 19.6564 6.72188 18.7872 6.16064 19.659C6.35455 19.7377 5.63415 21.1572 5.1125 21.7686ZM0.735766 185.864C0.852527 185.402 0.769415 183.982 0.75188 183.233C0.655743 183.69 0.699221 185.202 0.735766 185.864ZM25.2966 3.24179C24.7893 3.46713 24.3835 3.48318 24.4665 3.4321C24.839 3.20044 25.8501 2.92017 25.2966 3.24179ZM0.753894 190.449C0.823668 190.514 0.890829 188.632 0.71831 188.501C0.730793 188.903 0.71011 190.402 0.753894 190.449ZM0.735095 162.556C0.770571 162.848 0.834087 161.336 0.798879 160.878C0.724617 160.915 0.712035 162.365 0.735095 162.556ZM17.4565 7.54056C17.0552 7.83633 16.0688 8.59457 15.9247 8.63522C15.7369 8.67499 17.2106 7.58539 17.4565 7.54056ZM100.645 0.304077C100.701 0.276398 99.0015 0.0770264 98.2426 0.127472C96.8056 0.22403 100.588 0.323608 100.645 0.304077ZM30.302 1.62717C31.7859 1.09671 30.1337 1.66269 30.1603 1.50244C31.1768 1.20065 33.7621 0.676544 32.019 1.19098C31.6795 1.29214 30.7763 1.48779 30.302 1.62717ZM28.9261 2.07352C28.7527 2.07175 27.6222 2.27325 28.5614 1.98352C28.9966 1.85153 29.7418 1.81317 28.9261 2.07352ZM90.1021 0.236267C88.8588 0.371307 94.5579 0.298859 94.722 0.275208C94.8085 0.262695 94.8652 0.250916 94.8974 0.240967C95.1063 0.283752 96.1827 0.291473 96.3078 0.183228C95.9842 0.192139 95.1037 0.182617 95.0015 0.194641C94.9574 0.199738 94.9245 0.204529 94.9019 0.209412C94.5225 0.115417 90.3398 0.210663 90.1021 0.236267ZM80.6596 0.375244C82.0811 0.574463 82.3336 0.235748 82.2108 0.224854C80.6623 0.0862122 81.6722 0.335999 81.6247 0.347717C81.5164 0.367188 80.417 0.251282 80.664 0.375244C80.6625 0.375244 80.661 0.375244 80.6596 0.375244ZM88.1664 0.291992C88.2249 0.296387 89.4194 0.285919 89.4685 0.280579C90.4474 0.166748 87.0676 0.195892 88.1664 0.291992ZM1.01037 171.758C0.976704 170.903 0.852087 171.741 0.896905 172.309C0.901322 172.356 1.04012 172.512 1.01037 171.758ZM28.1797 2.27463C27.934 2.2709 22.6963 4.56805 22.9567 4.32745C23.345 4.00421 29.431 1.62485 28.1797 2.27463ZM1.59113 33.1168C1.76738 32.1226 1.39306 33.1739 1.37786 33.7222C1.37129 33.9241 1.54713 33.3669 1.59113 33.1168ZM0.915033 192.985C0.817513 193.914 1.14467 193.722 1.03253 192.917C1.02814 192.885 0.918843 192.949 0.915033 192.985ZM3.6646 25.3268C2.39342 28.5827 3.06203 27.923 4.63488 23.7094C4.55412 23.8277 4.47391 23.9466 4.39427 24.0662C6.56236 19.3241 4.44689 23.6964 3.96974 24.8862C3.77612 25.3318 3.84112 24.9185 3.66521 25.3234C3.66501 25.3245 3.66481 25.3257 3.6646 25.3268ZM1.05698 38.3869C1.37021 41.7287 1.24092 35.3626 1.72091 33.5686C1.27867 35.2861 1.08909 37.6153 1.27704 34.456C0.743911 39.04 1.16232 37.146 1.13178 37.3278C1.13106 37.5468 1.04344 38.2442 1.05698 38.3869ZM2.35784 29.6688C2.41317 29.4817 2.73791 28.0594 2.92286 27.5615C2.53854 28.2141 1.95172 30.8979 2.35784 29.6688ZM70.7604 0.282593C70.8677 0.389496 71.1319 0.468231 72.1531 0.428284C71.8374 0.374573 71.1858 0.328369 70.7604 0.282593ZM1.01575 265.157C1.02341 265.86 1.0637 267.26 0.95129 266.83C0.941709 266.783 0.952655 265.159 1.01575 265.157ZM13.9717 10.6547C13.8155 10.7365 10.788 13.8653 11.7477 12.7031C11.998 12.3108 14.9208 9.61658 13.9717 10.6547ZM34.0001 0.923737C33.637 0.976776 32.1826 1.24319 32.145 1.23166C32.0284 1.15829 33.8264 0.856506 34.0001 0.923737ZM1.12519 268.703C1.13628 268.796 1.11663 270.943 1.06476 270.707C0.966667 270.259 1.08698 268.386 1.12519 268.703ZM1.26081 168.647C1.26476 168.467 1.14863 168.23 1.14734 168.168C1.14568 168.022 1.19035 164.736 1.04126 165.991C1.01627 166.201 1.07353 170.928 1.08826 171.543C1.24768 171.781 1.09602 169.762 1.11243 169.27C1.11554 169.184 1.24892 169.128 1.26014 168.648C1.26036 168.648 1.26059 168.647 1.26081 168.647ZM76.0784 0.395386C76.2225 0.496735 80.0864 0.563843 80.0417 0.44104C78.7206 0.425812 77.3986 0.410583 76.0784 0.395386ZM74.1156 0.41217C73.2915 0.483856 75.2217 0.507568 75.7917 0.475952C75.7984 0.407776 74.2349 0.401672 74.1156 0.41217ZM26.1858 3.47302C25.7711 3.60733 26.9656 2.987 26.677 3.06824C26.4887 3.11658 25.6034 3.52539 25.3015 3.60574C25.2129 3.6246 26.0806 3.11813 26.355 3.02322C26.7413 2.8848 26.4081 3.12744 26.8268 2.97147C28.2141 2.4614 29.4488 2.00064 30.7998 1.65891C30.9212 1.6282 29.9993 1.94293 31.0339 1.67926C31.1912 1.6412 32.1363 1.28409 33.3975 1.07272C35.8571 0.955383 37.6992 0.540802 40.4884 0.541901C40.8679 0.5448 41.2684 0.553436 41.6954 0.570618C41.6384 0.586487 41.0749 0.61496 40.4884 0.64093C39.7449 0.668274 38.969 0.724213 38.8868 0.729736C35.9091 0.825928 30.6275 1.8013 27.7003 2.90512C26.9462 3.17075 27.2875 2.97119 26.9619 3.08618C26.7053 3.18066 27.0556 3.19211 26.1858 3.47302ZM1.09296 264.783C1.23246 265.118 1.14416 266.294 1.15137 267.045C1.02554 266.78 1.12387 265.517 1.09296 264.783ZM56.7711 0.520264C56.3988 0.514862 55.2261 0.556885 55.1307 0.514893C55.0056 0.460052 56.6946 0.425446 56.7711 0.520264ZM1.2212 150.119C1.225 150.083 1.21753 149.178 1.21314 149.143C1.10118 148.334 1.12412 151.05 1.2212 150.119ZM1.19434 128.463C1.21156 127.777 1.25515 127.084 1.14197 126.854C1.1593 127.291 1.11551 128.544 1.19434 128.463ZM1.1977 98.5863C1.34592 98.728 1.24993 96.6617 1.23664 96.2714C1.17077 96.416 1.0909 98.4823 1.1977 98.5863ZM70.6116 0.747864C71.8731 0.739105 71.6067 0.963623 72.4091 0.862C72.5404 0.844849 72.9629 0.377319 71.5744 0.55249C71.3249 0.583984 72.301 0.695068 70.6116 0.747864ZM4.93811 23.0413C5.17788 22.7563 5.65169 21.733 6.01268 21.0635C5.86126 21.1746 5.16821 22.5501 4.93811 23.0413ZM1.23731 272.582C1.37574 273.174 1.27305 275.912 1.18158 275.234C1.16965 275.138 1.24254 272.966 1.23731 272.582ZM1.18293 182.652C1.29193 181.525 1.3257 183.858 1.21918 184.595C1.22616 184.261 1.17575 182.728 1.18293 182.652ZM1.27827 105.763C1.28274 105.709 1.27222 104.514 1.26685 104.461C1.15302 103.482 1.18217 106.861 1.27827 105.763ZM1.37428 135.585C1.46399 135.154 1.3916 132.326 1.30177 131.691C1.1706 132.302 1.26224 136.119 1.37428 135.585ZM65.4127 0.684082C66.3153 0.688721 67.1664 0.661102 67.9973 0.622314C67.8199 0.546783 65.5111 0.627686 65.4127 0.684082ZM1.28767 101.379C1.28706 101.315 1.27851 101.252 1.2776 101.191C1.2808 101.255 1.28445 101.318 1.28767 101.379ZM45.2396 0.737122C44.4905 0.766968 44.6411 0.628571 44.6897 0.624329C45.2562 0.579498 46.0914 0.703461 45.2396 0.737122ZM1.29841 265.646C1.4233 265.908 1.32643 267.178 1.35615 267.909C1.25752 267.697 1.28531 266.235 1.29841 265.646ZM1.28632 41.7318C1.36979 42.3167 1.46157 41.0745 1.49927 39.8447C1.52136 38.9883 1.55926 38.1477 1.5445 37.8002C1.50379 37.7648 1.38937 38.7898 1.34839 39.8447C1.30642 40.7501 1.27723 41.6636 1.28632 41.7318ZM1.37025 186.149C1.46811 186.225 1.35001 187.846 1.30378 187.502C1.27436 187.284 1.30945 186.104 1.37025 186.149ZM1.65874 35.6382C1.72828 35.2374 1.75785 34.2902 1.65577 34.6116C1.52248 35.026 1.63848 35.7424 1.65874 35.6382ZM20.678 6.26163C20.5265 6.34787 18.4687 7.54889 19.2414 6.9328C19.78 6.50391 19.9505 6.57025 20.0869 6.4859C20.2237 6.36801 23.4787 4.34769 20.678 6.26163ZM1.37159 63.3537C1.40922 62.549 1.36554 61.5761 1.36824 60.7339C1.30771 61.077 1.29121 63.0113 1.37159 63.3537ZM1.39644 179.898C1.43601 180.094 1.45985 185.417 1.33802 182.393C1.33114 182.217 1.27658 179.305 1.39644 179.898ZM70.6116 0.747864C70.4519 0.748962 70.2676 0.753662 70.0541 0.763306C70.2661 0.759521 70.4508 0.752869 70.6116 0.747864ZM56.2642 0.762634C56.5577 0.833893 55.0847 0.852936 54.6549 0.815002C54.5202 0.727966 56.2242 0.752686 56.2642 0.762634ZM1.46761 60.6699C1.50837 60.1846 1.46487 59.304 1.46962 58.7032C1.4034 58.8049 1.40033 60.4601 1.46761 60.6699ZM1.54213 94.7451C1.50278 93.7815 1.52088 92.5959 1.60189 92.5775C1.58923 92.5575 1.57578 92.5108 1.56227 92.4332C1.5489 92.3549 1.58657 91.3226 1.55892 90.8742C1.39467 88.1892 1.46245 101.242 1.69119 93.677C1.6415 94.033 1.59182 94.3891 1.54213 94.7451ZM1.56496 139.413C1.66357 139.959 1.54 141.491 1.50118 141.094C1.47457 140.817 1.46568 138.865 1.56496 139.413ZM1.62337 118.368C1.64097 118.531 1.57191 120.027 1.51998 120.065C1.46525 119.206 1.54161 117.623 1.62337 118.368ZM1.68044 143.617C1.69532 143.96 1.53631 144.398 1.52938 144.358C1.47133 144.009 1.59191 143.04 1.68044 143.617ZM67.9943 1.17624C67.4805 1.22177 65.8569 1.10666 65.5007 1.00168C65.4346 1.02197 65.2561 1.04846 64.9298 1.08023C64.9308 1.08023 64.9318 1.08023 64.9328 1.08023C64.4939 1.12265 51.3316 1.16898 60.1599 0.966736C60.4364 0.960266 60.0598 1.05453 61.1849 1.03793C61.259 1.03671 61.2958 0.959747 61.5246 0.955994C62.0518 0.947876 64.8645 0.899445 65.4321 0.961365C65.4369 0.947113 65.4735 0.933533 65.5515 0.921082C66.2434 0.81012 68.3904 1.14111 67.9943 1.17624ZM1.63747 115.403C1.66599 115.704 1.63891 116.656 1.571 116.755C1.53772 116.283 1.57095 114.704 1.63747 115.403ZM1.67507 180.063C1.73093 180.676 1.62651 182.23 1.571 181.761C1.53686 181.473 1.61095 179.356 1.67507 180.063ZM1.60122 124.945C1.52094 121.429 1.60771 124.106 1.7073 123.567C1.67194 124.027 1.63658 124.486 1.60122 124.945ZM84.267 0.919067C83.7064 0.941986 84.3652 1.13852 84.9826 1.03189C85.1764 0.998016 84.5807 0.906616 84.267 0.919067ZM109.585 0.980194C109.107 1.15442 111.443 1.05203 110.531 0.932495C110.487 0.928467 109.62 0.973541 109.585 0.980194ZM91.8937 1.05136C91.5133 0.932709 91.2645 0.91864 90.1928 0.947937C91.7797 0.981384 90.308 1.0863 91.8937 1.05136ZM1.61465 92.588C1.60985 92.5818 1.60631 92.5766 1.60189 92.5775C1.60625 92.5845 1.61038 92.5874 1.61465 92.588ZM1.64956 146.922C1.75006 147.362 1.74267 148.596 1.6415 148.228C1.63213 148.193 1.5753 147.103 1.64956 146.922ZM65.5007 1.00168C65.5594 0.983673 65.5295 0.972015 65.4321 0.961365C65.4276 0.974792 65.4527 0.987488 65.5007 1.00168ZM1.73147 140.299C1.65648 140.343 1.62732 138.466 1.63613 138.39C1.76617 137.313 1.73599 139.524 1.73147 140.299ZM1.78048 192.476C1.77266 192.573 1.57909 191.949 1.65493 191.566C1.71377 191.27 1.81027 192.114 1.78048 192.476ZM95.5336 1.0997C96.1283 1.09955 96.9663 1.09964 97.1204 1.00772C96.7226 1.02182 95.5204 1.03223 95.5336 1.0997ZM108.67 1.10641C107.962 0.998322 106.365 0.998627 105.336 1.01645C105.318 1.15872 108.007 1.07294 108.67 1.10641ZM69.6059 1.1232C69.5564 1.12897 68.068 1.17142 68.2715 1.0762C68.5674 0.936523 70.0264 1.07141 69.6059 1.1232ZM1.67776 189.581C1.74335 188.915 1.94492 190.449 1.78921 191.152C1.70948 191.514 1.66677 189.694 1.67776 189.581ZM1.78116 150.774C1.72604 151.654 1.62786 149.473 1.72744 149.169C1.73543 149.574 1.80067 150.461 1.78116 150.774ZM1.88187 120.84C2.16908 123.613 1.64512 122.103 1.69119 121.611C1.69776 121.542 1.87511 120.773 1.88187 120.84ZM1.81137 279.461C1.77146 279.853 1.6269 278.39 1.72207 278.201C1.78163 278.084 1.8368 279.21 1.81137 279.461ZM1.69521 79.0948C1.69429 79.2118 1.69335 79.3279 1.69253 79.4429C1.69722 79.3567 1.69874 79.2433 1.69521 79.0948ZM2.16587 158.76C1.76036 156.808 2.07291 157.013 2.07121 156.844C2.06684 156.477 1.95719 155.625 1.97519 154.935C1.92954 155.726 1.88388 156.517 1.83823 157.308C1.80895 156.683 1.65967 151.255 1.72543 151.141C1.81907 150.978 1.78969 152.686 1.79794 152.736C1.80969 152.808 2.07003 153.075 2.07993 153.233C2.09576 153.494 2.10116 158.032 2.16587 158.76ZM1.83688 126.638C1.80593 126.192 1.70279 126.065 1.72744 125.858C1.73588 125.788 1.83426 125.776 1.85971 125.535C1.8521 125.903 1.84449 126.27 1.83688 126.638ZM1.8013 162.254C1.92152 162.807 1.87586 160.33 1.8624 160.25C1.78091 159.827 1.70309 161.803 1.8013 162.254ZM1.81875 141.236C1.82577 141.327 1.86331 143.229 1.7966 143.214C1.74574 142.71 1.73093 140.167 1.81875 141.236ZM1.86642 125.238C1.85495 124.57 1.75588 123.306 1.90402 123.451C1.90402 123.452 1.90402 123.453 1.90402 123.454C1.89149 124.049 1.87896 124.643 1.86642 125.238ZM1.99064 187.299C2.22658 188.538 1.92844 187.951 1.85232 186.854C1.95825 186.522 1.95224 187.096 1.99064 187.299ZM2.16655 191.262C2.209 191.607 2.16248 195.157 2.03763 194.616C1.99314 194.423 2.10535 192.381 2.09672 192.287C2.08393 192.145 1.94581 192.796 1.97318 191.707C2.01998 191.771 2.15236 191.144 2.16655 191.262ZM2.1417 188.324C2.32114 189.555 1.99019 189.831 1.98929 188.906C1.98871 188.544 2.11581 188.149 2.1417 188.324ZM2.1135 183.297C2.14489 183.74 2.19067 184.92 2.08061 185.733C2.07121 184.645 2.06181 183.557 2.05241 182.469C2.11476 182.343 2.08592 182.91 2.1135 183.3C2.1135 183.299 2.1135 183.298 2.1135 183.297ZM116.066 1.95441C115.088 2.04825 117.342 2.0842 117.434 2.06116C117.715 1.98462 116.505 1.91248 116.066 1.95441ZM4.81795 287.098C4.85536 287.37 4.97845 287.548 4.91396 288.146C4.8231 287.544 4.73224 286.943 4.64137 286.341C4.84957 285.874 4.77669 286.801 4.81795 287.098ZM5.57866 289.395C5.58371 289.31 5.90385 289.775 5.69012 288.677C5.5458 287.935 5.40515 291.968 5.54711 292.697C5.61307 291.892 5.53756 290.127 5.57866 289.395ZM6.96446 296.46C6.98999 296.507 7.02744 294.975 7.00944 294.797C6.91457 293.866 6.82768 296.209 6.96446 296.46ZM6.90336 291.572C6.96553 292.291 7.00561 290.698 6.96983 290.224C6.91024 290.178 6.8943 291.461 6.90336 291.572ZM106.163 6.59116C105.382 6.80875 104.689 6.34036 105.886 6.43472C105.943 6.43918 106.196 6.58051 106.163 6.59116ZM7.28741 294.962C7.22524 294.244 7.18516 295.836 7.22094 296.31C7.28046 296.354 7.2965 295.072 7.28741 294.962ZM105.614 7.1095C104.583 7.26608 104.946 6.74057 105.075 6.71942C105.604 6.63577 107.433 6.84204 107.801 6.89331C105.076 6.81445 106.1 7.03571 105.614 7.1095ZM100.851 6.79395C99.8907 6.73788 102.344 6.63065 102.809 6.77716C102.334 6.77014 101.124 6.81015 100.851 6.79395ZM95.0357 6.96246C94.5216 6.98129 92.9867 7.02634 92.731 6.94366C93.2924 6.95862 94.8192 6.87738 95.0357 6.96246ZM93.8694 7.21021C93.0633 7.32257 92.8699 6.99521 93.7994 7.09271C93.8355 7.0965 93.899 7.20398 93.8694 7.21021ZM89.342 7.32837C88.8136 7.45856 88.2104 7.14154 89.0668 7.133C89.3211 7.13104 89.398 7.31345 89.342 7.32837ZM104.323 7.67484C103.566 7.73074 102.589 7.50372 104.207 7.47879C103.64 7.44409 103.069 7.40939 102.504 7.37469C104.62 7.24747 104.466 7.56229 105.072 7.54929C105.918 7.53079 105.855 7.27097 105.683 7.18939C106.382 7.34857 109.337 7.3511 111.046 7.38141C109.543 7.44821 107.11 7.56403 105.623 7.60635C105.2 7.61859 104.791 7.54736 104.43 7.55533C103.852 7.56848 104.365 7.67105 104.326 7.67484C104.325 7.67484 104.324 7.67484 104.323 7.67484ZM83.3909 7.33307C81.8376 7.48056 82.8203 7.16217 83.6973 7.21893C83.7348 7.2233 83.4295 7.32947 83.3909 7.33307ZM8.25491 297.021C8.12183 294.947 7.94545 296.455 8.21328 292.115C8.02368 293.938 8.07693 292.216 8.00045 292.572C7.93994 292.857 7.99005 293.927 7.86818 293.305C8.00082 294.122 7.96414 297.671 7.98568 297.829C7.98568 297.828 7.98568 297.826 7.98568 297.825C7.99844 297.92 8.29723 297.683 8.25491 297.021ZM95.0283 7.79501C94.5106 8.18134 94.3078 7.56818 93.2886 7.88834C91.9325 7.4234 97.0347 7.88828 97.6511 7.49557C92.1115 7.5412 101.309 7.10645 97.4445 7.69431C100.63 7.48093 98.4884 7.76712 98.9801 7.84201C99.5069 7.92181 101.306 7.83508 101.216 7.97897C101.215 7.97897 101.214 7.97897 101.213 7.97897C100.109 7.9689 99.0102 7.95883 97.9066 7.94876C98.9833 7.63837 96.7357 7.73145 95.9697 7.98434C95.6548 7.92123 95.3421 7.85812 95.0283 7.79501ZM101.265 7.50363C101.154 7.51074 98.7611 7.46722 98.9146 7.40491C99.2349 7.36517 102.637 7.41284 101.265 7.50363ZM111.814 7.57144C110.953 7.57217 109.622 7.63275 109.154 7.51572C110.013 7.51492 111.346 7.45432 111.814 7.57144ZM67.4994 7.5936C66.4019 7.49756 69.7801 7.46909 68.803 7.58286C68.7558 7.5882 67.5537 7.59808 67.4994 7.5936ZM92.5332 7.7366C91.4183 7.85464 91.9454 7.47888 92.7711 7.57681C92.8189 7.58258 92.5847 7.7312 92.5332 7.7366ZM8.30057 295.34C8.39264 295.266 8.32797 292.256 8.32877 291.722C8.24319 292.025 8.19502 295.426 8.30057 295.34ZM113.328 7.91586C111.617 8.24692 109.292 7.86453 109.038 7.87289C108.784 7.88141 109.182 8.02612 109.124 8.03C108.991 8.03812 106.295 8.02597 106.163 8.0159C106.069 8.00806 106.559 7.80469 106 7.74063C107.087 7.85617 112.022 7.78391 112.276 7.80643C112.475 7.82443 110.98 8.03796 113.325 7.91586C113.326 7.91586 113.327 7.91586 113.328 7.91586ZM108.4 7.91721C109.075 7.83197 107.184 7.82129 106.727 7.85275C105.712 7.92316 108.31 7.92731 108.4 7.91721ZM103.854 7.99576C103.636 8.01489 101.691 8.03226 101.524 7.93735C102.446 7.81424 104.344 7.9512 103.854 7.99576ZM82.1736 7.983C81.6674 7.97086 80.2768 8.04376 80.1965 7.96085C80.7039 7.97296 82.0938 7.90009 82.1736 7.983ZM9.02435 285.071C9.09374 285.911 9.12209 283.964 9.08881 283.396C9.03349 283.365 9.01839 284.999 9.02435 285.071ZM92.3444 8.52954C92.0446 8.55475 85.9325 8.49182 85.0749 8.453C85.9138 8.39029 91.9709 8.38547 92.2462 8.41608C92.3265 8.42523 92.3826 8.52557 92.3444 8.52954ZM105.562 8.56781C106.124 8.68991 106.49 8.54346 106.561 8.54163C107.254 8.52295 108.689 8.55048 108.375 8.43286C107.154 8.48032 104.447 8.32529 105.562 8.56781ZM81.7392 8.53558C79.6641 8.49026 83.6502 8.3616 83.1276 8.48926C83.0938 8.49698 81.9537 8.54034 81.7392 8.53558ZM93.0268 8.56512C93.4855 8.66379 99.6008 8.5787 100.58 8.57855C99.7029 8.39655 98.9925 8.53479 97.8116 8.52551C97.4934 8.5228 97.5783 8.44708 97.5441 8.44696C96.9927 8.44345 97.4055 8.53088 97.0654 8.53223C96.85 8.53284 92.3825 8.42609 93.0268 8.56512ZM105.883 8.6524C106.226 8.72241 110.045 8.75226 110.195 8.73364C111.344 8.59528 106.182 8.62802 105.883 8.6524ZM92.4663 8.72693C93.1224 8.93845 96.1608 8.79678 94.0822 8.69135C93.8838 8.68176 93.0423 8.77344 92.4663 8.72693ZM81.9609 8.737C81.8588 8.74323 79.6953 8.78549 79.6562 8.7182C79.9696 8.69205 83.1227 8.66858 81.9609 8.737ZM83.0829 8.9646C83.0307 8.96301 83.5382 8.83337 82.5233 8.84979C82.4389 8.85135 82.2807 8.99719 81.006 8.94379C80.7475 8.9328 80.3462 8.83633 80.3752 8.83032C81.7026 8.60147 85.7025 9.03979 83.0829 8.9646ZM105.953 8.77057C105.746 8.83212 106.244 9.01483 106.692 8.9223C106.883 8.88235 106.526 8.77271 105.953 8.77057ZM75.0993 8.79608C76.3568 8.90689 72.4098 8.92786 72.2067 8.89948C72.3348 8.83047 74.9724 8.78528 75.0993 8.79608ZM9.87973 283.103C9.87973 283.104 9.87973 283.105 9.87973 283.106C9.85462 282.047 9.76244 282.703 9.75955 282.653C9.62415 280.4 9.83293 280.997 9.85757 280.645C9.91086 279.889 9.65697 280.011 9.76223 278.736C9.60678 280.843 9.67195 278.925 9.58162 278.866C9.21301 278.629 9.75423 281.671 9.67696 282.722C9.66626 282.868 9.54862 281.787 9.51515 282.162C9.40671 283.382 9.97574 287.163 9.87973 283.103ZM107.037 8.93842C107.523 9.04669 111.25 8.94168 110.262 8.85248C110.107 8.8382 106.314 8.78061 107.037 8.93842ZM9.7535 92.2503C9.84721 91.3554 9.95736 93.4293 9.88443 93.8138C9.84809 94.0046 9.71238 92.6433 9.7535 92.2503ZM10.1543 106.791C10.1353 107.854 9.74456 108.975 9.8052 107.652C9.81183 107.512 10.1001 106.669 10.1543 106.791ZM10.0551 37.3323C10.1235 38.3087 9.87239 38.2382 9.92373 37.5232C9.94418 37.2715 10.0533 37.3016 10.0551 37.3323ZM9.92001 79.3462C9.92907 79.4574 9.9125 80.7408 9.85287 80.694C9.8171 80.2195 9.85784 78.6276 9.92001 79.3462ZM10.1183 37.0294C10.0228 37.5983 9.91368 36.5916 10.1893 35.9132C10.1266 36.2654 10.1267 36.9727 10.1183 37.0294ZM90.172 9.30032C89.6213 9.19379 88.0607 9.22598 87.1653 9.20767C87.0685 9.3457 89.5324 9.2753 90.172 9.30032ZM9.99723 102.277C9.89995 103.284 9.8203 101.127 9.94888 101.325C9.95587 101.353 10.0014 102.238 9.99723 102.277ZM26.812 12.5807C26.2005 12.7888 27.978 11.7992 27.5372 12.1746C27.5139 12.1894 26.8441 12.5671 26.812 12.5807ZM35.155 9.76505C34.6806 9.85669 32.6687 10.3177 33.4324 10.0571C33.5487 10.006 35.1049 9.68732 35.155 9.76505ZM9.95694 280.582C10.0987 280.882 10.065 279.145 10.0402 278.897C10.0299 278.799 9.77247 280.192 9.95694 280.582ZM9.97574 44.182C9.958 44.7564 9.99171 46.2463 9.91733 46.5087C9.93273 45.806 9.82757 43.9931 9.97574 44.182ZM9.9979 97.6877C10.152 98.5643 10.1368 100.062 9.93546 99.6916C9.94895 98.0374 10.1164 99.8961 9.9979 97.6877ZM10.7427 33.8718C10.6765 34.2634 10.4346 34.5323 10.4331 34.4864C10.4225 34.0402 10.7479 33.4686 10.7427 33.8718ZM9.99723 67.4879C10.0798 67.5145 10.0423 68.9912 9.98917 68.7941C9.97132 68.7294 9.93037 67.4664 9.99723 67.4879ZM70.8316 9.34732C70.1562 9.42273 72.2187 9.49646 72.8322 9.40842C73.1291 9.28156 70.9157 9.33865 70.8316 9.34732ZM14.7879 23.6272C14.911 23.6353 13.8377 25.3214 14.1478 24.5907C14.2216 24.4046 14.7395 23.621 14.7879 23.6272ZM29.3684 11.7087C28.721 11.8934 29.6863 11.417 30.6802 11.0587C31.6764 10.6944 32.6843 10.4494 31.9975 10.7362C31.8917 10.7523 29.4708 11.652 29.3684 11.7087ZM38.2663 9.58841C38.0369 9.62433 38.1814 10.014 39.1213 9.80814C39.2456 9.7811 38.6557 9.70163 38.7559 9.67197C38.8003 9.65683 39.8327 9.57657 40.4884 9.56717C40.8008 9.56107 41.0344 9.55798 41.067 9.56082C41.1856 9.57175 41.046 9.7038 41.1663 9.7186C41.2986 9.73517 42.7893 9.61917 43.5567 9.61789C45.0211 9.61572 45.1767 9.72562 45.2958 9.72598C45.6432 9.72672 46.2283 9.64868 46.9409 9.64877C50.4979 9.64966 55.9606 9.74283 58.7823 9.5098C56.2648 9.60336 53.868 9.50409 51.3692 9.47354C52.0981 9.70297 47.6917 9.29678 50.2669 9.56149C49.4179 9.52023 43.8556 9.48489 40.4884 9.48697C39.3333 9.48776 38.4822 9.5596 38.2689 9.58823C38.2681 9.58829 38.2672 9.58835 38.2663 9.58841ZM10.2698 110.988C10.4105 110.334 10.3788 113.686 10.2161 113.97C10.1935 113.528 10.2539 111.068 10.2698 110.988ZM10.6129 95.5246C10.6372 95.2133 10.9122 94.918 10.7727 93.2857C10.7727 93.2842 10.7727 93.2827 10.7727 93.2812C10.732 92.804 10.665 93.3478 10.6411 93.2604C10.6314 93.2285 10.4946 91.7401 10.4726 92.9763C10.4388 94.8614 10.6771 93.1537 10.6801 94.159C10.6803 94.2818 10.5314 96.1842 10.4988 96.0736C10.495 96.0621 10.5265 95.4897 10.5129 95.3952C10.4618 95.0381 10.376 95.2119 10.3719 95.1616C10.3614 94.9969 10.5077 91.9886 10.3799 91.5511C10.3387 91.4089 10.2437 96.3468 10.2651 96.5392C10.2786 96.6609 10.517 96.6096 10.5404 96.7356C10.5521 96.8005 10.4628 98.7866 10.4847 99.0445C10.491 99.1193 10.4978 99.1766 10.5035 99.2185C10.4297 98.918 10.435 100.717 10.5182 100.662C10.5509 100.63 10.532 99.3923 10.5263 99.348C10.5239 99.3285 10.5205 99.3117 10.5182 99.2959C10.6081 99.5522 10.6041 95.3607 10.7378 96.2655C10.8111 95.0504 10.5416 96.4379 10.6129 95.5246ZM10.76 89.684C10.7349 89.8094 10.7098 89.935 10.6848 90.0604C10.7461 87.9332 10.6254 85.4787 10.6263 83.0282C10.6264 82.4064 10.7797 83.1217 10.7378 82.3066C10.7042 81.6537 10.562 80.9311 10.5303 81.2861C10.5224 81.3727 10.615 82.702 10.6055 83.3674C10.5774 85.3316 10.4459 84.8354 10.4424 84.9502C10.4386 85.077 10.5311 86.3132 10.527 86.9884C10.5163 88.6858 10.4356 89.4611 10.5411 91.7802C10.6277 90.4418 10.8159 91.1749 10.76 89.684ZM20.4911 17.459C20.5943 17.4709 21.4498 16.6354 21.8014 16.3794C21.6931 16.3533 20.8175 17.1736 20.4911 17.459ZM10.5874 217.831C10.4516 218.258 10.418 215.054 10.531 215.898C10.5561 216.085 10.5864 217.428 10.5874 217.831ZM10.5048 203.435C10.5424 203.006 10.6401 204.732 10.535 204.729C10.5013 204.726 10.4999 203.49 10.5048 203.435ZM10.6263 62.1873C10.6306 62.1062 10.6003 60.927 10.5934 60.8901C10.4493 60.1088 10.5326 63.9902 10.6263 62.1873ZM10.672 185.934C10.583 187.428 10.5444 182.93 10.6579 184.305C10.6634 184.373 10.6763 185.862 10.672 185.934ZM10.6968 179.682C10.6921 180.041 10.7363 181.631 10.6948 181.652C10.628 181.684 10.5823 179.863 10.6968 179.682ZM11.2986 33.7127C11.4099 33.8845 11.6906 32.1242 11.8983 31.5355C11.7835 31.3491 11.4282 33.105 11.2986 33.7127ZM10.7821 45.8467C10.9027 37.0045 10.5758 38.9538 10.7076 46.3734C10.8057 46.384 10.7745 46.4048 10.7821 45.8467ZM11.1029 35.3336C10.963 35.5862 10.8777 36.4415 10.8348 37.0174C10.9069 36.9224 11.0166 35.7375 11.1029 35.3336ZM10.7975 221.647C10.9214 221.092 10.7687 218.636 10.7177 219.073C10.7066 219.175 10.7295 221.85 10.7975 221.647ZM10.7573 61.4465C10.9061 61.6524 10.8454 58.9972 10.8123 58.7939C10.6794 57.9745 10.7901 61.2314 10.7573 61.4465ZM15.4123 23.9352C15.7199 23.6599 16.2986 22.6918 16.7368 22.1121C16.4539 22.313 15.7337 23.4098 15.4123 23.9352ZM13.0897 28.6209C13.1068 28.5797 13.4977 27.6476 13.5153 27.6061C13.741 26.7978 12.6362 29.4412 13.0897 28.6209ZM10.999 284.569C11.0027 284.53 10.9953 283.625 10.9909 283.593C10.879 282.786 10.9019 285.501 10.999 284.569Z" fill="#ACFC17"/>
</svg>
