<svg width="274" height="76" viewBox="0 0 274 76" fill="none" xmlns="http://www.w3.org/2000/svg">
<path d="M273.412 50.0983C273.398 49.8984 273.432 49.0945 273.426 48.7466C273.574 49.141 273.463 50.8191 273.412 50.0983ZM255.071 20.1876C255.262 20.3453 255.451 20.5057 255.639 20.6688C255.204 20.1204 254.544 19.4497 254.108 18.9678C254.036 18.8884 254.307 19.0092 254.132 18.8275C253.955 18.6466 253.889 18.7829 253.616 18.5407C253.32 18.2595 251.977 16.9419 251.451 16.5536C249.527 15.0543 247.377 13.8516 245.182 12.8077C247.502 13.7832 245.266 12.5805 244.583 12.3651C244.428 12.3323 244.378 12.5084 242.016 11.6526C240.496 11.1672 242.032 11.1478 239.368 10.7124C241.317 11.4486 239.356 10.9123 237.767 10.6774C237.497 10.6178 235.274 10.3088 234.276 10.3063C233.962 10.2972 233.492 10.4064 233.066 10.4277C233.028 10.4294 232.989 10.4304 232.951 10.4306C232.597 10.4331 232.329 10.3562 231.797 10.3601C229.293 10.3775 226.811 10.3834 224.287 10.3575C225.773 9.99626 223.12 10.2035 222.992 10.1863C222.383 10.0882 225.141 10.0603 224.052 9.99893C222.495 10.0101 221.075 10.0213 219.556 10.0325C220.792 10.0768 217.919 10.3367 217.372 10.2185C217.637 10.5377 210.497 9.94069 209.475 10.0473C209.248 10.0698 210.725 10.2275 207.315 10.1554C206.943 10.1474 207.084 10.0511 206.889 10.06C206.772 10.0654 206.065 10.3715 205.304 10.2024C205.036 10.1406 206.763 9.93962 202.969 10.0204C204.509 10.3319 197.62 10.1891 196.397 10.1111C196.648 10.1529 196.898 10.1948 197.148 10.2366C195.911 10.1237 195.683 10.2296 195.403 10.2239C194.281 10.2007 192.675 10.0939 191.656 10.1037C190.436 10.1149 190.433 10.3086 188.998 10.2333C189.339 10.276 189.679 10.3187 190.019 10.3615C189.031 10.3512 188.037 10.3409 187.037 10.3306C189.348 10.0742 186.539 10.3184 186.35 10.3239C186.054 10.3332 186.48 10.2282 185.983 10.2413C185.933 10.2435 186.002 10.3423 185.256 10.3534C183.692 10.3763 183.937 10.252 183.277 10.2534C183.216 10.254 183.43 10.3431 182.285 10.3642C178.632 10.4313 182.306 10.2959 182.443 10.2836C182.624 10.2674 181.386 9.89515 184.462 10.0271C183.432 9.98511 183.326 9.8204 183.21 9.81631C183.108 9.81295 181.308 9.83615 181.207 9.84182C180.318 9.89776 181.1 10.0103 180.927 10.0305C180.788 10.0468 178.592 9.90006 178.103 10.2386C177.081 9.92634 178.673 9.95495 180.443 9.90695C180.702 9.84286 178.763 9.78056 178.676 9.78072C176.235 9.7813 177.586 10.0382 177.052 10.2024C176.771 10.2883 175.77 10.113 176.694 10.3434C174.463 10.3677 175.815 10.2342 175.672 10.2145C175.454 10.1854 174.671 10.2515 174.573 10.2427C174.428 10.2296 174.93 10.1499 174.361 10.1218C174.267 10.1177 173.35 10.2549 174.532 10.3205C172.952 10.301 173.08 10.418 172.542 10.1822C171.446 10.6284 171.757 9.91852 171.33 9.89352C170.205 9.82763 170.531 10.1779 170.472 10.195C170.065 10.3044 166.927 10.1841 166.141 10.2346C166.451 9.98231 168.639 10.2318 169.124 10.1829C170.749 10.0201 166.833 10.0568 168.013 9.73977C167.518 9.82683 167.02 9.91389 166.522 10.0009C165.61 9.79714 166.901 9.70826 164.448 9.78274C164.044 9.95866 166.184 9.75495 165.755 9.89353C165.498 9.97485 164.08 9.99232 164.056 10.0352C164.026 10.0868 165.303 10.0256 165.104 10.105C164.66 10.2763 160.015 10.1132 163.554 10.0197C162.568 10.0227 162.058 9.68195 161.198 9.78811C160.64 9.85702 163.778 10.3276 159.071 10.2413C158.971 10.0804 160.955 10.1938 161.005 10.1816C161.077 10.1637 160.719 9.80066 160.657 9.78274C160.438 9.72374 155.63 9.91815 154.628 9.73574C155.032 9.94559 151.003 9.77319 150.557 9.83712C150.439 9.85478 150.878 9.98332 150.753 9.99692C149.958 10.0779 147.882 9.84844 146.902 9.84249C145.81 9.83576 145.948 9.94678 145.887 9.94657C145.405 9.94037 145.79 9.86512 145.496 9.86533C145.056 9.86569 141.977 9.85029 141.837 9.866C141.793 9.87089 142.288 9.99771 141.626 10.0218C141.511 10.0259 141.586 9.87558 139.621 9.94052C137.252 10.0186 141.266 10.1275 140.281 10.285C138.761 10.0608 138.809 10.2829 138.396 10.2655C138.253 10.2591 137.188 10.0702 136.026 10.0822C136.86 10.0515 137.692 10.0209 138.522 9.99021C137.706 9.95709 136.117 9.99808 135.44 9.96067C135.111 9.94246 135.382 9.78728 134.666 9.79147C134.519 9.79321 133.909 10.1713 135.787 10.0016C135.937 10.1366 135.043 10.0487 134.631 10.0869C134.569 10.0928 134.325 10.3184 133.801 10.1782C133.674 10.1437 135.048 9.48587 131.509 9.96201C131.395 9.97735 131.791 10.0597 131.68 10.0768C131.604 10.0884 130.699 10.0551 130.599 10.0668C130.496 10.0793 130.934 10.1692 130.812 10.1869C130.187 10.2781 129.366 9.9214 130.655 9.94858C130.225 9.90449 129.794 9.8604 129.362 9.81631C129.824 10.0852 128.685 9.89196 128.087 9.90024C124.265 9.95316 126.824 10.128 126.168 10.2185C125.116 10.3638 125.92 9.90366 124.356 10.0419C124.211 10.0548 126.105 10.2501 122.408 10.1399C122.954 10.1323 123.5 10.1247 124.045 10.1171C123.731 9.85707 122.074 10.1349 121.946 10.1386C120.491 10.1743 121.477 10.0806 119.312 10.2145C119.117 10.2265 118.701 10.1623 118.29 10.1943C116.586 10.3262 120.541 10.2744 120.654 10.3796C120.7 10.4312 116.447 10.4182 116.302 10.3937C115.682 10.2851 118.229 10.3459 117.743 10.2111C117.572 10.1632 111.492 10.2615 110.277 10.2091C108.875 10.148 108.242 9.79549 108.233 10.1916C107.837 9.80278 107.487 10.0681 107.307 10.0654C105.134 10.0294 105.129 10.0255 103.261 10.0627C102.849 10.0708 102.504 9.95283 102.358 9.97275C102.274 9.98479 102.432 10.1111 102.017 10.15C101.443 10.2033 97.9797 10.0734 97.7213 10.0036C97.4637 9.93385 99.1849 9.97337 98.8764 9.85862C97.6309 9.84702 96.4353 9.87541 95.1792 9.86332C94.6589 9.85795 94.9263 9.77763 94.7016 9.77603C94.6061 9.77505 92.8101 9.84577 92.886 9.8754C93.0619 9.94429 98.6182 9.89799 97.1551 10.0386C96.8729 10.0657 95.8748 9.88063 96.0335 10.1057C91.0766 10.0547 86.1122 10.0036 81.1532 9.95261C84.0045 9.78427 87.2078 9.93483 90.1965 9.91904C90.606 9.91709 91.9888 9.9388 91.8207 9.82504C89.2829 9.79559 86.1235 9.85487 83.6881 9.78073C83.6101 9.77828 83.8965 9.67607 83.6043 9.65988C83.0583 9.62965 81.2797 9.79449 80.9806 9.75186C80.9295 9.74193 81.9417 9.60719 81.6339 9.52157C80.8437 9.30183 80.6431 9.78851 79.9636 9.78275C79.4376 9.77809 75.9087 9.54276 75.0294 9.69144C74.0947 9.84991 77.6306 9.78343 77.3694 9.913C74.9768 10.0432 72.5549 9.90417 70.294 9.92039C70.2541 9.9208 70.6001 10.0223 70.0955 10.0365C69.2172 10.0613 68.9867 9.91725 68.5594 9.89421C68.0984 9.86968 66.4689 9.89031 66.2511 9.8378C66.2234 9.83092 66.5534 9.68807 66.6035 9.68405C67.3132 9.62518 67.5654 9.81058 67.63 9.81296C67.8727 9.81999 68.1112 9.74898 68.3326 9.75321C68.6971 9.76026 68.8979 9.82596 69.3791 9.83176C69.7112 9.83601 69.3908 9.70984 69.7108 9.71561C69.8282 9.71823 71.0958 10.0063 71.2135 9.71225C71.2479 9.61952 60.8946 9.50045 59.8549 9.57461C60.7434 9.60997 61.6322 9.64534 62.5215 9.6807C60.7155 9.59461 58.5491 9.82959 58.3958 9.48196C51.7138 9.45353 45.0113 9.42511 38.3368 9.39669C37.1391 9.36707 37.7947 9.14367 35.8271 9.20869C36.3353 9.27987 36.8439 9.35103 37.3529 9.4222C36.3406 9.37227 31.8822 9.27474 31.1658 9.32082C31.0725 9.32686 30.9449 9.52904 29.8248 9.54642C28.8322 9.56175 28.6732 9.41027 28.1434 9.38125C27.6986 9.35731 27.1997 9.39699 27.0679 9.38863C26.9668 9.38194 26.9267 9.2893 26.6835 9.27315C25.9157 9.22321 26.5378 9.48403 25.7761 9.18452C25.9615 9.17311 26.1469 9.1617 26.3325 9.15028C25.4059 9.10693 24.143 8.97096 25.5054 8.90388C25.7398 8.89229 25.5385 8.98191 25.7133 8.98176C32.5756 8.9651 27.0888 8.79089 24.694 8.93006C24.0852 8.79727 20.6153 8.87834 20.5005 8.85218C20.3403 8.81428 20.9333 8.70814 20.156 8.61651C19.9887 8.59711 15.3748 8.67147 17.0359 8.49499C17.3775 8.45858 19.5924 8.49683 20.1289 8.49163C18.8673 8.21017 15.9286 8.61342 15.6004 8.60308C14.2699 8.55922 18.1571 8.35917 15.1585 8.32646C12.8292 8.30137 15.0157 8.4893 14.1202 8.56951C13.6154 8.61452 10.9904 8.40749 11.0627 8.6756C10.1637 8.70422 10.6899 8.56226 10.5789 8.55205C10.4698 8.54308 8.70574 8.62334 8.13564 8.56683C8.06637 8.5598 8.28442 8.42045 8.21285 8.40904C8.07891 8.38953 6.36331 8.41738 6.29428 8.42918C6.25042 8.43739 6.65936 8.55939 6.49121 8.58898C6.29461 8.6231 4.64721 8.59439 4.55718 8.62926C4.42819 8.682 6.46209 8.64726 6.12338 8.78369C5.18411 8.74934 3.66039 8.84037 3.04513 8.9502C3.19583 8.9188 4.10143 8.91429 4.4165 8.92536C4.26736 9.12518 2.32427 9.12245 2.98852 8.9643C2.56664 9.04924 2.85464 9.0943 2.61709 9.17445C2.55474 9.19476 1.95599 9.19894 1.84081 9.23354C1.82574 9.24043 2.44332 9.31583 2.31973 9.35641C2.09478 9.42975 0.283655 9.41325 0.136652 9.39401C-0.279821 9.33949 1.19442 9.27351 1.31823 9.18922C1.33535 9.17629 0.0806217 9.01112 0.062067 8.99653C-0.0116635 8.84003 1.38449 8.95281 1.22506 8.81189C0.879419 8.78213 0.534113 8.75236 0.189234 8.7226C1.51779 8.5799 3.99432 8.65327 4.63619 8.49096C2.64443 8.53926 0.57873 8.53355 0.583216 8.16801C0.584436 8.01406 1.43688 7.92381 1.40408 7.88467C1.27783 7.74461 0.0953616 7.89677 0.0522707 7.88937C0.0163515 7.88084 -3.6394e-05 7.87253 -5.87712e-06 7.86444C-5.87712e-06 7.86443 -5.87712e-06 7.86443 -5.87712e-06 7.86443C-0.000646753 7.78243 1.68554 7.72337 1.77084 7.68594C1.91293 7.61942 1.16125 7.34566 1.16256 7.2851C1.18838 7.27293 2.39166 7.20815 1.98565 7.10248C1.5743 6.99574 0.523065 6.99339 0.486536 6.98229C0.285211 6.91844 2.12506 6.86021 2.1809 6.82249C2.20965 6.80344 1.22045 6.6863 1.19198 6.65263C1.16723 6.61884 1.91857 6.54511 2.2153 6.43845C2.43633 6.35921 1.79269 6.29846 1.90585 6.28604C1.98593 6.27781 3.73049 6.27916 3.81719 6.26523C3.94518 6.24462 3.53582 6.14992 3.59542 6.12624C3.67983 6.09219 4.24447 6.12637 4.17101 6.09133C4.11456 6.06522 1.92993 5.73875 1.94515 5.65156C1.96935 5.50282 4.28152 5.84504 2.13055 5.25811C2.11544 5.25425 1.59271 5.29597 1.57821 5.29235C1.25591 5.18436 2.93026 5.01825 0.883203 5.04729C4.69436 4.85973 1.35653 4.8237 1.92059 4.57327C2.13778 4.47701 3.61883 4.43732 3.62625 4.42287C3.48202 4.30075 3.00985 4.39546 2.84951 4.33559C2.76083 4.30212 4.08737 4.17302 3.78887 4.08918C3.63387 4.04597 2.22732 4.06135 2.16985 4.05293C1.61422 3.97343 2.29559 3.88782 2.17352 3.83136C2.09222 3.7935 1.24569 3.7905 1.22384 3.78368C1.18792 3.76951 2.33746 3.61656 2.57778 3.56279C2.76006 3.52142 2.0758 3.45662 2.203 3.43858C2.96865 3.33073 4.60385 3.60578 3.02911 3.22038C2.93298 3.19674 2.33834 3.20628 2.32095 3.20157C1.95355 3.09232 3.04803 3.08287 3.24447 2.99343C3.58102 2.83932 2.00607 2.92524 3.31591 2.81686C2.33312 2.71606 1.78634 2.72028 0.641992 2.74837C3.81426 2.66999 4.94201 2.27102 1.41143 2.28107C2.53246 2.28729 2.40884 2.06211 2.74377 2.05816C2.95153 2.05596 4.58431 2.27984 3.83569 1.7775C3.74148 1.71476 2.75088 1.79449 3.06112 1.66605C5.44061 1.69883 3.11099 1.58434 3.10912 1.56735C3.1325 1.27145 8.97552 1.51381 9.95785 1.48007C11.1145 1.44093 12.1468 1.20777 12.3993 1.20748C13.2304 1.20737 12.5407 1.32576 12.7265 1.36929C12.913 1.41241 15.2857 1.18562 15.4006 1.19807C15.8549 1.24811 15.3938 1.38839 15.4411 1.39547C16.0014 1.48144 19.161 1.37159 20.0511 1.4042C20.0232 1.31319 18.2426 1.30598 19.3543 1.1598C20.6495 0.989394 20.7248 1.39058 20.7586 1.40823C26.6933 1.40442 32.6114 1.40062 38.5569 1.39681C38.481 1.18338 34.5968 1.34433 34.5105 1.31624C33.9894 1.14987 40.5522 1.15293 41.3476 1.22829C40.7379 1.18219 40.1287 1.13608 39.5201 1.08998C40.5589 0.844594 42.863 1.1634 44.373 1.05507C44.8607 1.01995 43.9243 0.925236 43.9437 0.918767C44.4916 0.823468 45.3714 0.896885 44.7136 1.02485C46.0519 0.902249 45.8578 1.03752 46.8842 1.04768C46.9369 1.04811 46.4977 0.949078 47.3071 0.908024C47.6859 0.888867 49.7107 0.888554 49.9823 0.801945C50.0939 0.765476 49.0661 0.381474 48.9395 0.711971C46.7378 0.550862 48.2359 0.862576 47.3808 0.854984C47.2481 0.853253 47.5568 0.668774 45.3926 0.755612C45.8068 0.422947 48.2882 0.671703 48.713 0.631405C49.5892 0.548573 45.9786 0.376782 45.3086 0.636105C45.6196 0.3765 45.0512 0.601117 44.2435 0.590443C43.3595 0.578869 43.7449 0.501568 43.2667 0.501149C41.9598 0.499219 42.5015 0.682461 41.4251 0.517262C42.474 1.02869 39.5832 0.584744 38.7437 0.450795C40.1113 0.424832 41.4814 0.398869 42.8538 0.372906C42.7754 0.346051 42.6969 0.319195 42.6184 0.29234C42.9799 0.296147 43.3415 0.299946 43.7032 0.303753C43.6453 0.329487 43.5873 0.355229 43.5293 0.380963C45.3948 0.213627 45.8518 0.401699 46.004 0.403797C47.9628 0.42561 50.2145 0.423992 52.1959 0.42461C52.4931 0.424701 52.2883 0.257305 54.4555 0.388347C55.1468 0.43008 54.4947 0.560299 55.2759 0.54076C56.2528 0.186908 56.2344 0.469142 56.5251 0.469592C57.3589 0.469547 57.869 0.381892 57.9461 0.380962C58.9769 0.36729 60.488 0.381923 61.6221 0.368876C61.6433 0.367541 61.0533 0.25883 61.7899 0.290996C62.0501 0.302478 64.3656 0.766558 66.3916 0.61529C65.8646 0.583956 65.3378 0.552622 64.8111 0.521289C65.4299 0.565074 69.7729 0.448122 68.711 0.323893C68.0599 0.247973 66.4709 0.547099 66.2967 0.25944C67.7416 0.34553 75.7233 0.216768 76.3442 0.283609C76.4302 0.293146 75.9014 0.386484 76.0201 0.398416C76.112 0.407518 77.94 0.3854 78.1827 0.421251C78.3271 0.442544 77.5194 0.49975 77.5851 0.533372C77.6424 0.557344 79.9255 0.597314 80.0561 0.480333C79.495 0.527292 77.9194 0.486284 78.7458 0.387674C78.8519 0.375436 79.403 0.450883 79.5322 0.43535C80.7306 0.292009 77.1495 0.326417 76.5956 0.325235C78.8439 0.176195 82.3253 0.351892 84.9299 0.254739C85.9826 0.352105 83.3693 0.403687 84.5604 0.484361C87.0309 0.651574 85.2178 0.349717 85.2945 0.337319C85.9078 0.239083 87.9987 0.765557 88.0004 0.364846C88.8973 0.425171 88.6071 0.475686 89.8724 0.423264C89.7059 0.395508 89.5395 0.36776 89.373 0.340004C90.7783 0.107895 93.7478 0.693481 93.525 0.738152C92.9269 0.857704 91.38 0.671227 91.2478 0.675713C91.052 0.68235 90.5119 1.08896 88.3692 0.725396C87.4922 0.998108 91.7643 0.909462 89.8206 1.09534C91.1347 1.06484 96.5263 1.25465 97.3081 1.13496C97.4008 1.11933 96.9688 0.847603 98.3032 0.9859C98.9366 1.05176 97.4092 1.05492 97.699 1.11683C98.5924 1.30682 110.71 1.18529 113.018 1.17524C113.167 1.17494 113.112 1.25927 113.26 1.2585C113.712 1.25614 115.358 1.13038 116.164 1.1692C114.492 1.0131 117.739 1.00096 118.561 1.01813C119.813 1.04429 119.74 1.19269 120.283 1.22426C122.381 1.34591 125.609 0.993558 127.228 1.32295C127.14 0.99603 130.047 1.48324 131.361 1.4861C132.392 1.48845 133.884 1.27211 132.495 1.14032C134.265 1.15538 136.152 1.09439 137.825 1.07453C138.102 1.07119 137.721 1.16787 138.193 1.15912C138.235 1.15763 138.295 1.0629 138.699 1.05304C142.034 0.970462 140.41 1.17179 141.034 1.23097C141.382 1.26411 141.639 1.28059 141.827 1.28602C139.892 1.30454 137.644 1.34174 137.041 1.34443C137.558 1.55364 141.356 1.30426 142.46 1.36055C142.499 1.3626 142.363 1.4779 142.403 1.47872C142.404 1.47872 142.404 1.47872 142.405 1.47872C142.828 1.48755 145.496 1.445 144.946 1.30751C144.8 1.27078 143.568 1.27085 142.114 1.28334C142.504 1.25754 142.213 1.12838 142.282 1.12287C143.126 1.05902 145.196 1.18508 145.925 1.20209C146.092 1.20582 146.08 1.12307 146.107 1.12287C146.771 1.14167 146.499 1.37796 147.18 1.13428C148.381 1.42877 144.927 1.178 145.168 1.36927C145.361 1.51654 153.028 1.43744 153.014 1.20545C153.041 1.23027 153.147 1.26106 153.364 1.29609C153.846 1.37394 155.978 1.34958 156.343 1.30683C156.405 1.29842 156.38 1.07324 156.457 1.07117C156.638 1.066 159.27 1.24253 160.247 1.10944C159.719 1.07788 159.19 1.04633 158.659 1.01477C161.856 1.01281 161.357 0.945802 160.297 0.878473C160.243 0.877863 160.192 0.869318 160.141 0.868402C159.317 0.818621 158.256 0.770678 158.24 0.752916C158.188 0.685137 163.589 0.647417 162.549 0.856317C162.406 0.884866 159.908 0.791849 161.145 0.940912C161.363 0.967027 162.963 0.924486 163.046 0.940912C163.609 1.05014 160.113 1.19526 160.539 1.35047C161.39 1.2027 162.48 1.28053 163.449 1.24238C163.89 1.22513 163.998 1.11224 164.052 1.11011C164.863 1.08064 164.408 1.199 164.679 1.19605C164.823 1.19402 166.451 0.942087 166.143 1.28938C171.469 1.0339 167.623 1.03416 164.347 1.05371C165.371 0.927225 167.414 0.988404 168.316 0.959039C168.64 0.948381 168.448 0.832498 168.996 0.80932C170.108 0.761643 175.533 0.894761 176.925 0.92614C176.066 0.967087 176.317 1.09332 176.981 1.0846C177.643 1.07581 177.087 0.907326 177.216 0.889214C177.349 0.870461 180.474 0.949989 181.003 0.928154C178.631 0.989182 179.169 1.11506 181.179 1.12823C180.889 1.16449 180.599 1.20074 180.308 1.23701C181.491 1.18605 183.948 1.37808 184.616 1.32093C184.722 1.31174 184.343 1.20591 184.402 1.20074C184.985 1.15578 187.009 1.26372 187.109 1.22761C187.189 1.19754 186.319 1.10881 186.642 1.06512C186.71 1.05592 187.549 1.19899 188.37 1.16382C188.674 1.15088 188.491 1.05079 188.567 1.04498C189.206 0.996833 188.831 1.16539 189.993 1.1383C190.844 1.11826 191.471 0.953467 192.639 1.00806C188.813 0.797981 192 0.885726 193.654 0.822074C193.915 0.811911 193.695 0.630202 195.251 0.718672C191.932 1.04725 196.203 0.89234 197.056 0.895926C197.103 0.89704 197.12 1.01687 197.541 1.0188C197.577 1.01869 197.526 0.937705 197.917 0.931509C201.657 0.872961 199.268 0.964445 199.981 1.04431C200.29 1.07834 202.123 0.96382 202.61 0.96105C202.723 0.960768 202.671 1.04491 203.106 1.04162C203.875 1.03558 204.559 0.945997 205.061 0.938894C205.121 0.938482 205.114 1.07126 206.099 1.0282C206.374 1.01616 206.683 0.969015 206.292 0.930837C204.97 0.805288 202.615 1.02258 201.144 0.897268C199.821 0.78314 203.992 0.772383 204.194 0.771711C204.273 0.771299 203.468 0.837225 204.285 0.850271C204.969 0.861128 206.284 0.631803 207.341 0.681745C207.422 0.685453 208.264 0.879888 208.225 0.891225C208.191 0.899503 206.895 0.941717 207.083 0.997976C207.106 1.00439 207.929 1.00309 208.036 1.04498C208.167 1.09598 208.521 1.59642 208.695 1.60897C209.143 1.63997 208.852 1.52583 209.141 1.53377C209.765 1.5505 211.887 1.6985 211.98 1.52504C211.617 1.51474 211.252 1.50445 210.905 1.49415C212.895 1.47632 212.053 1.40248 212.335 1.36994C212.641 1.33474 212.556 1.48722 213.231 1.50154C213.385 1.50469 216.175 1.47286 216.119 1.40889C214.586 1.5107 215.152 1.32228 215.082 1.31891C214.813 1.30664 214.467 1.41233 214.103 1.41023C211.528 1.39368 214.126 1.22686 213.518 1.18396C213.309 1.16952 212.89 1.25975 212.801 1.25513C212.511 1.24019 212.506 1.12203 212.312 1.13159C211.859 1.15377 212.388 1.32096 212.352 1.32966C211.939 1.43429 210.383 1.30411 211.346 1.12219C210.771 1.05663 210.704 1.27772 210.247 1.18933C209.335 1.01431 210.701 1.05927 211.067 1.03021C212.412 0.925374 212.836 1.01024 214.73 0.981191C215.413 0.970944 216.212 0.863545 216.524 0.857655C216.701 0.853947 218.628 1.22761 218.68 0.642804C219.422 0.699391 220.573 1.08476 221.32 1.06714C221.99 1.05106 221.776 0.844166 221.839 0.83617C221.939 0.82359 222.725 0.839893 223.024 0.810658C223.356 0.776112 223.191 0.69714 223.716 0.664959C225.017 0.585079 224.977 0.796261 225.111 0.809986C226.643 0.968616 225.97 0.668239 226.309 0.644146C226.589 0.622005 231.091 0.737613 231.989 0.661601C231.615 0.703899 231.238 0.746196 230.859 0.788494C231.538 0.920215 232.245 0.705371 232.258 0.941577C232.323 0.758022 232.676 0.721874 233.066 0.732654C233.556 0.743587 234.096 0.822406 234.34 0.825587C234.526 0.827739 234.514 0.762065 234.747 0.768733C235.661 0.780383 237.704 1.02881 238.199 1.07315C240.354 1.19384 234.91 0.308131 234.462 0.372829C235.333 0.326625 240.25 0.851611 238.017 0.388118C237.67 0.315318 237.027 0.419665 236.833 0.409274C235.502 0.338893 236.558 0.275218 236.456 0.251689C236.28 0.210788 235.391 0.297465 235.159 0.270549C235.082 0.263507 235.587 0.139651 234.315 0.0885573C234.944 -0.0702409 238.534 0.370318 238.995 0.449343C239.158 0.4789 238.176 -0.0303242 241.161 0.81264C241.131 0.779307 241.102 0.746127 241.072 0.712916C242.766 1.04493 244.431 1.48471 246.069 2.03337C245.871 2.02986 244.917 1.84226 246.077 2.2039C246.742 2.4196 246.3 2.12039 246.361 2.13747C247.116 1.97235 257.009 7.20202 258.449 8.91906C259.03 9.36704 260.624 10.6582 260.732 10.7735C261.448 11.3831 263.642 13.8638 264.048 14.3847C264.317 14.6967 264.157 14.3209 264.386 14.6102C264.598 14.8802 264.289 14.6732 264.349 14.7553C264.946 15.355 268.61 20.6257 269.073 22.1108C268.751 21.2231 266.144 17.3878 266.089 17.5458C266.095 17.5675 266.641 18.5438 266.795 18.719C266.921 19.0878 267.845 20.0584 268.137 20.7178C268.167 20.7923 267.885 20.5897 268.448 21.7234C268.64 22.1135 269.271 23.0842 269.596 24.2001C270.583 25.6297 272.537 34.1721 272.561 34.78C272.576 34.796 272.458 33.5692 272.649 34.3822C272.891 35.4691 272.45 34.5232 272.57 35.8068C272.626 35.9962 272.861 39.5624 272.844 39.6832C273.045 40.7696 273.054 37.6312 273.05 37.6697C273.101 37.7558 273.2 39.3165 273.196 40.0908C273.197 40.2907 273.197 40.4279 273.194 40.4492C273.189 40.4798 273.158 40.2768 273.122 40.0908C273.072 39.7928 273.013 39.5347 273.012 40.0908C273.011 40.2641 273.016 40.5282 273.032 40.9137C273.061 40.657 273.089 40.4003 273.118 40.1436C273.174 41.1975 273.008 41.2979 272.998 41.5532C272.966 42.3469 273.218 43.2055 272.907 44.4771C272.824 44.8134 272.732 44.2552 272.72 44.2972C272.609 44.7012 272.906 45.2165 272.684 45.8239C272.668 45.8696 272.535 44.4561 272.535 46.9267C272.556 46.7566 272.577 46.5866 272.598 46.4166C272.646 46.7649 272.674 49.2664 272.663 49.6029C272.63 50.586 272.477 49.7287 272.496 50.7168C272.705 50.083 272.732 53.0878 272.552 52.915C272.778 53.3346 272.604 55.8872 272.598 57.0871C272.595 57.8442 272.694 59.3885 272.682 59.629C272.668 59.9221 272.514 59.833 272.48 60.3621C272.47 60.513 272.583 62.0882 272.423 63.4709C272.392 63.7388 272.131 64.3016 272.065 63.8036C271.953 62.9511 272.164 61.3384 272.01 61.359C271.844 61.3831 271.943 63.5553 271.921 64.1399C271.821 66.8391 271.645 65.2805 271.592 65.3499C271.463 65.5299 271.467 67.0048 271.455 67.0663C271.403 67.3214 271.301 66.2763 271.222 66.2605C271.119 66.2414 270.934 67.663 270.899 67.3399C270.85 66.8772 271.004 65.5708 270.997 65.4879C270.897 64.4097 270.66 65.8876 270.543 66.295C270.507 66.4185 270.448 65.9265 270.438 66.0288C270.278 67.5917 270.772 66.3583 270.739 67.3978C270.709 68.3252 270.553 67.1319 270.545 67.1674C270.535 67.2131 270.527 68.322 270.471 68.4956C270.444 68.5812 270.14 65.699 270.004 65.8194C270.034 66.739 270.064 67.6586 270.094 68.5782C269.917 68.6503 270.047 67.3276 270.029 67.1908C269.992 66.9154 269.902 67.6833 269.846 67.6504C269.811 67.6327 269.683 66.7313 269.631 67.5456C269.613 67.8255 269.737 68.4128 269.61 69.4321C269.448 65.8849 269.348 68.343 269.285 68.4476C269.222 68.55 269.074 66.8565 269.1 68.9121C268.755 69.0012 268.991 68.8678 268.93 68.2837C268.856 67.5682 268.742 69.2219 268.828 66.6067C268.667 66.7555 268.678 68.8575 268.665 68.9688C268.654 69.0649 268.574 68.5976 268.547 68.7642C268.235 70.7348 268.377 69.3813 268.178 69.952C268.16 70.0028 268.086 71.8653 268.057 70.4474C268.004 67.8642 268.233 66.7845 267.743 66.3504C267.531 68.2612 267.847 70.5763 267.852 71.1571C267.86 72.0461 267.76 71.1252 267.732 71.2347C267.723 71.2728 267.731 72.0389 267.723 72.0492C267.35 72.5955 267.717 68.6386 267.652 67.3928C267.596 67.7268 267.54 68.0607 267.484 68.3946C267.482 67.9416 267.48 67.4885 267.478 67.0355C267.365 69.1937 267.435 67.1116 267.132 66.5735C267.064 66.4526 267.181 67.8705 266.992 66.2531C266.948 67.446 266.887 67.0655 266.972 68.1457C266.851 68.1178 266.714 65.6875 266.652 64.7289C266.515 68.1153 266.96 66.1842 266.725 69.1117C266.875 69.6546 266.846 68.2572 266.871 68.3712C266.96 68.78 266.818 69.7384 267.13 70.8946C267.182 71.0829 267.339 70.2863 267.332 71.4651C267.331 71.5955 267.196 72.3467 267.186 72.3363C267.081 72.2367 267.12 71.4933 267.076 71.4627C267.034 71.4339 267.059 72.2632 267.048 72.266C266.916 72.2915 266.997 71.5741 266.956 71.6783C266.866 71.9033 266.581 74.8863 266.664 70.9932C266.814 74.2269 266.811 71.4072 266.753 70.1479C266.739 69.8268 266.66 69.7455 266.632 69.2879C266.597 68.6993 266.635 68.0104 266.62 67.7058C266.604 67.3782 266.417 69.2395 266.473 66.5476C266.287 67.9176 266.485 70.3375 266.355 71.6832C266.091 74.3983 266.035 69.7901 266.009 69.3101C266.002 69.1822 265.896 69.611 265.889 69.5257C265.879 69.3863 265.928 66.771 265.84 66.5131C265.752 66.2559 265.844 67.471 265.752 67.5518C265.69 67.6065 265.58 64.4515 265.538 66.1594C265.509 67.3366 265.758 69.5065 265.49 69.8719C265.468 68.1408 265.446 66.4096 265.424 64.6784C265.322 65.6259 265.22 66.5735 265.118 67.521C265.086 65.5779 265.201 63.8981 265.055 62.0527C264.729 66.4872 264.795 60.6128 264.755 60.5482C264.731 60.5266 264.466 62.2721 264.418 62.5529C264.316 61.0062 264.266 56.3064 263.939 59.0561C264.013 58.557 263.831 57.3484 263.817 57.3643C263.673 57.5178 263.766 60.1538 263.636 59.7239C263.484 59.2257 263.69 58.5275 263.673 57.7611C263.588 53.8279 262.834 54.907 262.953 50.9632C262.926 51.0417 262.899 51.1201 262.872 51.1986C262.909 47.496 262.946 43.7934 262.983 40.0908C262.989 39.5854 262.982 39.083 262.964 38.5839C262.721 37.1423 262.008 33.421 261.445 31.6518C261.36 31.29 260.873 29.5125 260.829 29.3771C260.779 29.1195 261.283 30.4469 261.135 29.8185C261.142 29.6703 259.941 26.767 259.893 27.04C260.037 27.3587 260.543 28.3359 260.58 28.5162C260.712 29.1447 259.962 27.1836 258.802 25.1854C257.672 23.169 256.083 21.1873 255.892 21.0391C255.996 21.2299 256.098 21.4211 256.197 21.6132C255.837 21.1275 255.461 20.6515 255.071 20.1876ZM273.047 47.2039C273.176 47.6323 273.079 48.706 273.115 49.3405C273.166 50.217 273.664 51.707 273.165 51.0655C273.126 49.7783 273.086 48.4911 273.047 47.2039ZM271.03 26.8893C271.281 27.8519 270.779 27.208 270.614 26.4122C270.595 26.3246 270.669 25.5929 271.03 26.8893ZM272.995 37.0604C272.99 37.0186 272.924 36.1692 272.924 36.1397C272.969 35.3661 273.164 37.9341 272.995 37.0604ZM242.757 1.31178C243.813 1.57179 243.115 1.12307 242.43 1.0659C242.388 1.06224 242.689 1.29476 242.757 1.31178ZM243.504 1.51288C244.258 1.94299 246.012 2.02313 244.705 1.66287C244.578 1.62503 243.47 1.48863 243.504 1.51288ZM271.931 30.3089C271.823 30.2234 271.603 29.2228 271.498 28.8004C271.58 28.7879 271.823 29.8966 271.931 30.3089ZM258.231 8.88317C258.178 8.88279 260.834 11.218 261.044 11.3525C260.641 10.9642 258.319 8.84023 258.231 8.88317ZM250.531 4.09277C250.609 4.13854 251.707 4.67806 251.702 4.6118C251.211 4.25879 250.189 3.86722 250.531 4.09277ZM233.099 0.0781586C233.055 0.0881149 233.448 0.264194 233.066 0.302623C232.905 0.32204 232.583 0.30817 231.964 0.224513C231.691 0.187518 232.668 0.0872147 232.57 0.0734436C232.367 0.0465806 232.207 0.0340607 232.077 0.0318177C232.421 0.0192216 232.768 0.00926517 233.066 0.00328369C233.605 -0.0059174 234.012 0.00533592 234.073 0.0207397C234.546 0.140414 233.13 0.0659973 233.099 0.0781586ZM224.845 0.364162C224.664 0.426777 223.487 0.393307 223.215 0.367519C223.169 0.362675 223.371 0.198109 222.836 0.210415C222.414 0.22057 223.036 0.389118 222.232 0.362148C221.42 0.335079 222.506 0.214955 222.434 0.206387C222.341 0.195149 221.079 0.270832 221.117 0.17281C221.15 0.100209 222.494 0.149296 222.833 0.133869C223.277 0.11404 222.74 -0.00692353 223.48 0.0190621C223.944 0.0352898 223.687 0.248005 223.784 0.258755C223.869 0.267414 225.474 0.144993 224.843 0.363491C224.843 0.36372 224.844 0.363941 224.845 0.364162ZM231.842 0.0412172C231.907 0.0340303 231.984 0.0302079 232.077 0.0318177C231.998 0.0347016 231.92 0.0380586 231.842 0.0412172ZM272.954 44.71C273.019 44.2613 273.103 45.5931 273.017 46.0974C272.948 46.1062 272.943 44.7815 272.954 44.71ZM231.03 0.214443C229.718 0.161151 230.69 0.0878634 231.842 0.0412172C231.476 0.0812562 231.468 0.232242 231.03 0.214443ZM266.795 18.719C266.775 18.6571 266.774 18.61 266.806 18.5839C266.857 18.7483 266.845 18.7736 266.795 18.719ZM264.858 15.8056C264.033 14.9284 265.509 16.8616 265.56 16.8072C265.586 16.7796 264.895 15.8386 264.858 15.8056ZM241.401 0.986216C241.504 1.02371 239.765 1.0246 242.237 1.28156C240.96 0.945391 242.328 1.21294 242.315 1.17919C242.286 1.0615 240.092 0.693751 239.61 0.591273C239.205 0.689242 241.055 0.85924 241.398 0.985629C241.399 0.985827 241.4 0.986018 241.401 0.986216ZM209.909 0.273527C210.173 0.174878 210.984 0.206617 211.553 0.21243C211.278 0.311071 210.47 0.279332 209.909 0.273527ZM62.5055 0.25944C66.3631 0.168238 66.8625 0.569949 63.3334 0.411181C63.2647 0.40784 62.2711 0.300158 62.5055 0.25944ZM95.6274 0.363502C95.9915 0.538589 94.7862 0.566742 93.9977 0.49443C93.819 0.478165 93.1584 0.300827 93.9128 0.266151C93.8894 0.478363 95.053 0.559433 95.6274 0.363502ZM230.289 0.326564C229.907 0.443325 228.716 0.360218 228.077 0.342678C228.468 0.24654 229.741 0.29002 230.289 0.326564ZM75.1871 0.468919C75.5939 0.482179 75.8686 0.329851 75.7983 0.317178C75.4839 0.25905 74.7236 0.382204 75.1871 0.468919ZM234.186 0.360202C234.221 0.402927 233.598 0.42644 233.066 0.416187C232.765 0.408588 232.497 0.377902 232.454 0.309108C232.574 0.313678 232.812 0.3138 233.066 0.314273C233.584 0.31412 234.159 0.331409 234.186 0.360202ZM210.957 0.325895C211.196 0.361371 209.962 0.424886 209.584 0.389676C209.615 0.31542 210.802 0.302839 210.957 0.325895ZM81.7374 0.417222C82.1018 0.430451 83.0119 0.434487 83.1127 0.372903C83.2379 0.295937 81.9033 0.322167 81.7374 0.417222ZM13.953 0.550163C13.9052 0.522498 15.3286 0.323127 15.9461 0.37358C17.1329 0.470115 14.0085 0.569701 13.953 0.550163ZM71.3367 0.547472C70.1882 0.402605 71.4634 0.542902 71.4131 0.39036C70.6405 0.384867 68.7158 0.377344 70.0387 0.527331C70.2964 0.556345 70.9766 0.5376 71.3367 0.547472ZM72.3962 0.598497C72.5194 0.549082 73.3473 0.393305 72.6316 0.404467C72.3007 0.409861 71.7673 0.582956 72.3962 0.598497ZM22.6908 0.482352C23.7235 0.617392 18.9868 0.544944 18.8552 0.521293C18.7835 0.508803 18.7366 0.497023 18.7099 0.487052C18.5365 0.529853 17.6463 0.537566 17.5434 0.429313C17.81 0.438247 18.5389 0.428725 18.6237 0.440726C18.6602 0.44583 18.6874 0.450621 18.7062 0.455497C19.0183 0.361518 22.4902 0.456748 22.6908 0.482352ZM30.5114 0.621336C29.3283 0.820555 29.1198 0.48184 29.2215 0.470938C30.5083 0.332304 29.6691 0.582105 29.7085 0.593801C29.7983 0.613272 30.7132 0.497366 30.5077 0.621336C30.5089 0.621336 30.5102 0.621336 30.5114 0.621336ZM24.2899 0.538077C24.2415 0.542487 23.2564 0.532011 23.2161 0.526663C22.4088 0.412833 25.1963 0.441984 24.2899 0.538077ZM218.595 0.601178C217.878 0.567502 218.583 0.442891 219.057 0.487706C219.095 0.492123 219.226 0.630917 218.595 0.601178ZM72.9618 0.564928C73.1258 0.58848 77.3261 0.677278 77.0737 0.489061C76.717 0.51127 71.9429 0.414392 72.9618 0.564928ZM104.352 0.610587C103.61 0.60913 104.419 0.431617 104.815 0.497786C104.962 0.522368 104.539 0.610839 104.352 0.610587ZM236.55 0.657351C237.423 0.641215 237.211 0.948153 236.476 0.768908C236.447 0.762019 236.516 0.658168 236.55 0.657351ZM98.4364 0.508529C100.99 0.400955 100.387 0.963714 97.0639 0.773735C97.1679 0.748672 97.2719 0.723602 97.3759 0.698539C93.5372 0.61412 97.1142 0.658874 98.053 0.627372C98.4098 0.615394 98.1107 0.521461 98.4339 0.507858C98.4347 0.508079 98.4356 0.508308 98.4364 0.508529ZM108.249 0.621329C110.707 1.02076 106.016 0.760642 104.664 0.812682C105.972 0.647735 107.673 0.672698 105.359 0.503829C108.743 0.471175 107.333 0.630255 107.469 0.643485C107.628 0.658316 108.145 0.604178 108.249 0.621329ZM101.758 0.624015C101.616 0.635665 100.546 0.554351 100.16 0.567611C100.7 0.431167 102.7 0.544768 101.758 0.624015ZM38.7115 0.528676C38.6223 0.635587 38.4011 0.714337 37.553 0.674375C37.815 0.620656 38.3569 0.574452 38.7115 0.528676ZM272.484 48.0171C272.477 48.5994 272.436 49.7589 272.549 49.4033C272.558 49.3644 272.547 48.0189 272.484 48.0171ZM85.1615 0.651543C85.2849 0.664689 88.4876 0.673508 87.3812 0.555527C87.0466 0.519951 84.1349 0.535058 85.1615 0.651543ZM68.5742 0.638117C68.8423 0.639231 69.9318 0.619089 69.9549 0.593798C70.0286 0.506388 68.6913 0.554446 68.5742 0.638117ZM272.375 50.9546C272.364 51.0313 272.383 52.8098 272.435 52.6143C272.533 52.2432 272.413 50.6918 272.375 50.9546ZM216.014 0.851613C215.867 0.855565 215.673 0.73943 215.622 0.738141C215.508 0.736485 212.783 0.781148 213.825 0.632062C214.017 0.607076 217.862 0.664326 218.416 0.679059C218.621 0.838482 216.902 0.686825 216.523 0.703229C216.452 0.706341 216.407 0.839719 216.015 0.850941C216.015 0.851163 216.014 0.851384 216.014 0.851613ZM34.2987 0.641477C34.1772 0.742834 30.9851 0.809942 31.0234 0.687132C32.1132 0.671911 33.205 0.65669 34.2987 0.641477ZM35.9245 0.658262C36.6081 0.729955 35.0072 0.753675 34.5364 0.722043C34.5312 0.65386 35.8248 0.647771 35.9245 0.658262ZM74.6437 1.01679C74.9652 0.992006 73.9764 0.844118 74.1976 0.81537C74.3394 0.797464 75.0578 0.852892 75.2869 0.806642C75.3519 0.79194 74.6191 0.652925 74.4071 0.65893C74.106 0.666948 74.3981 0.776346 74.0695 0.777094C72.9787 0.779451 72.0117 0.701426 70.9893 0.703241C70.897 0.703615 71.613 0.780878 70.8254 0.77978C70.7036 0.779764 69.9717 0.664698 69.029 0.681757C66.9472 1.03812 65.4191 0.688212 62.7806 0.816714C62.8802 0.850268 64.8536 0.94028 64.97 0.943606C67.1757 1.00221 71.1342 1.00865 73.4448 1.00941C74.038 1.00971 73.7499 0.934282 74.0054 0.93152C74.2074 0.929483 73.9672 1.06915 74.6437 1.01679ZM272.407 47.7079C272.268 47.9854 272.356 48.9589 272.349 49.5807C272.474 49.3619 272.376 48.3155 272.407 47.7079ZM50.2915 0.766354C50.6031 0.760967 51.5697 0.80299 51.6496 0.760982C51.7525 0.706135 50.3573 0.671543 50.2915 0.766354ZM200.67 0.812002C200.64 0.815802 199.882 0.808333 199.853 0.803946C199.176 0.691984 201.448 0.714926 200.67 0.812002ZM182.735 0.785141C182.167 0.802368 181.592 0.845955 181.4 0.732773C181.764 0.750107 182.802 0.706314 182.735 0.785141ZM157.972 0.7885C158.084 0.936724 156.381 0.840739 156.06 0.827448C156.18 0.761568 157.877 0.681704 157.972 0.7885ZM38.8346 0.993962C37.7856 0.985196 38.0066 1.20971 37.3405 1.10811C37.232 1.09093 36.8803 0.623418 38.0338 0.798581C38.2414 0.830075 37.4295 0.941175 38.8346 0.993962ZM96.5222 0.769035C96.2561 0.867096 95.4216 0.83799 94.8603 0.830139C94.9846 0.757286 96.1223 0.776031 96.5222 0.769035ZM272.263 54.1668C272.124 54.6575 272.227 56.9248 272.318 56.3638C272.33 56.284 272.257 54.4849 272.263 54.1668ZM227.604 0.773723C226.686 0.882732 228.591 0.9165 229.228 0.809986C228.949 0.816959 227.65 0.766552 227.604 0.773723ZM163.919 0.869073C163.875 0.873544 162.891 0.863023 162.847 0.85766C162.041 0.743822 164.823 0.772973 163.919 0.869073ZM188.634 0.96508C188.284 1.05479 185.902 0.982406 185.392 0.89257C185.885 0.761398 189.085 0.853042 188.634 0.96508ZM43.1336 0.93018C42.3869 0.934827 41.6791 0.907201 40.9944 0.868413C41.138 0.792882 43.0543 0.873768 43.1336 0.93018ZM160.297 0.878473C160.243 0.877863 160.192 0.869318 160.141 0.868402C160.194 0.871599 160.246 0.875261 160.297 0.878473ZM59.8438 0.983218C60.4697 1.01306 60.3399 0.87466 60.3012 0.870425C59.8303 0.825603 59.1354 0.94955 59.8438 0.983218ZM272.202 48.4225C272.077 48.6394 272.174 49.6914 272.144 50.2966C272.242 50.121 272.215 48.91 272.202 48.4225ZM110.879 0.877135C111.663 1.01255 108.473 1.16984 107.799 1.08259C107.75 0.998923 110.765 0.858603 110.879 0.877135ZM230.526 0.961048C230.591 1.05891 231.923 0.940814 231.64 0.89458C231.463 0.865161 230.489 0.900249 230.526 0.961048ZM106.19 1.02552C105.89 1.05538 105.189 0.958816 105.436 0.899962C105.753 0.824523 106.268 1.01697 106.19 1.02552ZM79.2314 1.10407C79.3629 1.11903 81.1301 1.01858 80.4 0.918763C79.8934 0.849397 79.8128 0.990854 79.6937 0.991273C79.5602 0.990823 76.7243 0.817712 79.2314 1.10407ZM128.794 0.962399C128.127 1.00003 127.313 0.956349 126.618 0.959043C126.897 0.898526 128.511 0.882016 128.794 0.962399ZM225.347 0.987232C225.524 1.02681 229.86 1.05065 227.394 0.928821C227.258 0.92194 224.859 0.867374 225.347 0.987232ZM38.8346 0.993962C38.9661 0.995069 39.1179 0.999745 39.294 1.00941C39.1191 1.0056 38.967 0.998975 38.8346 0.993962ZM50.7129 1.00874C50.4719 1.07998 51.6857 1.09902 52.0442 1.06111C52.1545 0.974071 50.7459 0.998775 50.7129 1.00874ZM126.565 1.05842C126.165 1.09918 125.438 1.05568 124.942 1.06043C125.026 0.994207 126.392 0.991139 126.565 1.05842ZM154.801 1.13294C154.005 1.09358 153.021 1.11168 153.006 1.19269C152.989 1.18003 152.95 1.16659 152.886 1.15308C152.821 1.1397 151.964 1.17738 151.59 1.14972C149.372 0.985476 160.171 1.05325 153.917 1.28199C154.212 1.23231 154.506 1.18262 154.801 1.13294ZM191.791 1.15576C192.23 1.25437 193.516 1.1308 193.183 1.09198C192.94 1.06538 191.343 1.05648 191.791 1.15576ZM174.37 1.21418C174.506 1.23178 175.747 1.16271 175.778 1.11078C175.067 1.05605 173.75 1.13242 174.37 1.21418ZM195.288 1.27125C195.573 1.28612 195.936 1.12711 195.903 1.12018C195.614 1.06213 194.809 1.18271 195.288 1.27125ZM40.9969 1.42233C41.4191 1.46786 42.767 1.35276 43.0609 1.24776C43.1155 1.26806 43.2629 1.29454 43.533 1.32631C43.5322 1.32631 43.5314 1.32631 43.5306 1.32631C43.9022 1.36873 54.7903 1.41507 47.4878 1.21285C47.2593 1.20636 47.5718 1.30063 46.6416 1.28402C46.5798 1.2828 46.5491 1.20585 46.3586 1.2021C45.9192 1.19397 43.5855 1.14554 43.1175 1.20748C43.1136 1.19321 43.0833 1.17964 43.019 1.16719C42.4441 1.0562 40.6689 1.38722 40.9969 1.42233ZM171.897 1.22828C172.145 1.25679 172.944 1.22971 173.026 1.1618C172.629 1.12853 171.32 1.16175 171.897 1.22828ZM225.484 1.26587C225.993 1.32173 227.263 1.2173 226.879 1.1618C226.648 1.12766 224.899 1.20175 225.484 1.26587ZM179.808 1.19202C176.89 1.11175 179.109 1.19851 178.662 1.2981C179.033 1.26274 179.425 1.22738 179.808 1.19202ZM27.5154 1.16517C27.9802 1.18809 27.4338 1.3846 26.9225 1.27798C26.762 1.24411 27.2554 1.15272 27.5154 1.16517ZM6.55068 1.22628C6.94869 1.40053 5.00433 1.29814 5.76199 1.1786C5.79705 1.17458 6.52206 1.21964 6.55068 1.22628ZM21.201 1.29745C21.5172 1.1788 21.7228 1.16472 22.6152 1.19404C21.2946 1.22748 22.5188 1.3324 21.201 1.29745ZM153.014 1.20545C153.009 1.20066 153.005 1.19712 153.006 1.19269C153.012 1.19705 153.014 1.20119 153.014 1.20545ZM198.015 1.24036C198.375 1.34086 199.386 1.33347 199.085 1.23231C199.051 1.22294 198.164 1.1661 198.015 1.24036ZM43.0609 1.24776C43.0124 1.22976 43.0371 1.21811 43.1175 1.20748C43.1213 1.22091 43.1005 1.23358 43.0609 1.24776ZM192.516 1.32227C192.553 1.24729 191.016 1.21812 190.952 1.22694C190.066 1.35698 191.885 1.32679 192.516 1.32227ZM236.011 1.48178C236.101 1.48037 235.542 1.24465 235.184 1.30257C234.908 1.34653 235.679 1.48429 236.011 1.48178ZM18.183 1.34579C17.6912 1.34566 16.9999 1.34574 16.8726 1.25381C17.2012 1.26792 18.193 1.27832 18.183 1.34579ZM7.31326 1.3525C7.89794 1.24442 9.21517 1.24472 10.0636 1.26253C10.0771 1.40481 7.86147 1.31905 7.31326 1.3525ZM39.6638 1.36928C39.704 1.37507 40.9363 1.41752 40.768 1.32229C40.5219 1.18263 39.3164 1.31749 39.6638 1.36928ZM233.364 1.26967C232.752 1.33166 234.156 1.53827 234.799 1.41818C235.134 1.3478 233.47 1.25048 233.364 1.26967ZM201.216 1.37195C201.949 1.31684 200.132 1.21866 199.875 1.31824C200.215 1.32623 200.956 1.39147 201.216 1.37195ZM176.418 1.47267C178.703 1.75988 177.459 1.23592 177.054 1.28199C176.997 1.28857 176.363 1.46591 176.418 1.47267ZM271.689 59.8643C271.729 60.1894 271.873 58.9775 271.778 58.8207C271.718 58.7238 271.663 59.6565 271.689 59.8643ZM141.827 1.28602C141.924 1.2851 142.019 1.28415 142.114 1.28334C142.043 1.28802 141.95 1.28955 141.827 1.28602ZM207.833 1.75667C206.209 1.35116 206.374 1.66371 206.234 1.66201C205.928 1.65764 205.203 1.54799 204.648 1.56599C205.283 1.52034 205.963 1.47468 206.623 1.42903C206.064 1.39975 201.635 1.25048 201.522 1.31623C201.387 1.40987 202.803 1.38049 202.843 1.38874C202.902 1.4005 203.122 1.66083 203.252 1.67074C203.456 1.68656 207.223 1.69196 207.833 1.75667ZM181.22 1.42769C180.849 1.39674 180.743 1.29359 180.571 1.31824C180.512 1.32668 180.502 1.42506 180.301 1.45052C180.608 1.4429 180.914 1.4353 181.22 1.42769ZM210.711 1.39209C211.164 1.51232 209.136 1.46666 209.067 1.4532C208.719 1.37171 210.345 1.29389 210.711 1.39209ZM193.303 1.40956C193.38 1.41657 194.967 1.45411 194.953 1.3874C194.538 1.33655 192.407 1.32173 193.303 1.40956ZM180.053 1.45723C179.491 1.44576 178.444 1.34668 178.567 1.49483C178.567 1.49483 178.568 1.49483 178.569 1.49483C179.05 1.48229 179.558 1.46976 180.053 1.45723ZM231.474 1.58143C232.486 1.81738 232.01 1.51924 231.108 1.44313C230.835 1.54905 231.308 1.54304 231.474 1.58143ZM234.882 1.79965C235.196 1.82112 238.4 2.09576 237.928 1.93329C237.759 1.85533 235.901 1.78839 235.816 1.7846C235.687 1.76381 236.29 1.66299 235.296 1.62753C235.35 1.67667 234.775 1.77978 234.882 1.79965ZM232.311 1.7325C232.663 1.7957 232.917 1.79559 233.066 1.76889C233.301 1.73229 233.311 1.64426 233.066 1.60239C232.996 1.58881 232.901 1.58023 232.782 1.58009C232.49 1.57951 232.168 1.70661 232.311 1.7325ZM228.132 1.7043C228.509 1.73569 229.505 1.78147 230.18 1.67141C229.285 1.66201 228.322 1.65261 227.456 1.64321C227.356 1.70556 227.808 1.67672 228.134 1.7043C228.133 1.7043 228.133 1.7043 228.132 1.7043ZM1.18218 2.20049C1.98766 2.29435 0.132226 2.33031 0.0547117 2.30725C-0.177863 2.23071 0.821649 2.15858 1.18218 2.20049ZM268.682 66.1903C268.645 66.4153 268.522 66.5624 268.586 67.0577C268.677 66.5595 268.768 66.0613 268.859 65.5631C268.65 65.1759 268.723 65.9443 268.682 66.1903ZM267.921 68.0927C267.916 68.0223 267.596 68.4068 267.81 67.4976C267.954 66.8833 268.095 70.2239 267.953 70.8269C267.887 70.1606 267.962 68.6985 267.921 68.0927ZM266.536 73.9442C266.51 73.9828 266.473 72.7136 266.491 72.5667C266.585 71.7953 266.672 73.7358 266.536 73.9442ZM266.597 69.8954C266.534 70.4906 266.494 69.172 266.53 68.779C266.59 68.7409 266.606 69.8034 266.597 69.8954ZM9.38171 6.83727C10.0236 7.05486 10.5986 6.58646 9.61013 6.68083C9.56301 6.68527 9.35433 6.82661 9.38171 6.83727ZM266.213 72.7034C266.275 72.1082 266.315 73.4268 266.279 73.8198C266.22 73.8563 266.204 72.7941 266.213 72.7034ZM9.83373 7.3556C10.6872 7.51217 10.3868 6.98669 10.28 6.96551C9.83993 6.88188 8.33636 7.08813 8.0303 7.1394C10.2787 7.06055 9.43279 7.28181 9.83373 7.3556ZM13.7823 7.04004C14.5791 6.98398 12.5428 6.87675 12.1562 7.02325C12.5509 7.01624 13.5554 7.05624 13.7823 7.04004ZM18.5953 7.20856C19.0214 7.22738 20.2918 7.27244 20.5054 7.18976C20.0383 7.20473 18.775 7.12348 18.5953 7.20856ZM19.5614 7.45631C20.2291 7.56866 20.3893 7.24132 19.6194 7.33881C19.5895 7.34259 19.5369 7.45006 19.5614 7.45631ZM23.3204 7.57448C23.7559 7.70466 24.2535 7.38764 23.5473 7.3791C23.3376 7.37714 23.2742 7.55955 23.3204 7.57448ZM10.9026 7.92093C11.5288 7.97683 12.3364 7.74981 10.9987 7.72488C11.4683 7.69019 11.9385 7.65549 12.4092 7.6208C10.6547 7.49356 10.7851 7.80839 10.2825 7.79537C9.58096 7.77688 9.63656 7.51707 9.77722 7.4355C9.20349 7.59467 6.76199 7.59721 5.33535 7.62752C6.58727 7.69432 8.60555 7.81013 9.82638 7.85245C10.1759 7.86469 10.5154 7.79345 10.814 7.80141C11.2927 7.81457 10.8675 7.91717 10.9002 7.92093C10.901 7.92093 10.9018 7.92093 10.9026 7.92093ZM28.2421 7.57918C29.531 7.72664 28.7156 7.40826 27.9879 7.46504C27.9568 7.46941 28.2101 7.57557 28.2421 7.57918ZM265.245 74.4088C265.378 72.6906 265.555 73.9395 265.287 70.3451C265.476 71.8552 265.423 70.4286 265.5 70.7234C265.56 70.9598 265.51 71.8458 265.632 71.3308C265.499 72.0078 265.536 74.9468 265.514 75.0778C265.514 75.0766 265.514 75.0754 265.514 75.0741C265.502 75.1528 265.203 74.957 265.245 74.4088ZM18.6015 8.04111C19.0303 8.42742 19.1982 7.81426 20.0425 8.13444C21.1654 7.6695 16.94 8.13437 16.4343 7.74166C21.0077 7.78729 13.4148 7.35254 16.6049 7.9404C13.9796 7.72703 15.7446 8.01321 15.3394 8.08811C14.9034 8.1679 13.4023 8.08118 13.4792 8.22507C13.48 8.22507 13.4809 8.22507 13.4817 8.22507C14.397 8.215 15.3191 8.20493 16.2233 8.19486C15.334 7.88447 17.1904 7.97754 17.8225 8.23044C18.082 8.16733 18.3417 8.10422 18.6015 8.04111ZM13.4384 7.74972C13.5271 7.75683 15.5262 7.71332 15.3933 7.65102C15.1293 7.61128 12.2978 7.65893 13.4384 7.74972ZM4.69793 7.81753C5.41171 7.81829 6.51907 7.87885 6.91012 7.7618C6.1925 7.76102 5.08645 7.70042 4.69793 7.81753ZM41.4054 7.83969C42.3127 7.74364 39.5197 7.71519 40.3277 7.82894C40.3673 7.83429 41.3608 7.84417 41.4054 7.83969ZM20.6696 7.9827C21.5959 8.10076 21.1579 7.72497 20.4721 7.8229C20.4324 7.82867 20.6269 7.97731 20.6696 7.9827ZM265.199 73.0164C265.107 72.9546 265.172 70.4617 265.171 70.0198C265.257 70.2709 265.305 73.0873 265.199 73.0164ZM3.44271 8.16196C4.859 8.49302 6.79397 8.11064 7.00686 8.119C7.21804 8.12751 6.88677 8.27222 6.93493 8.27611C7.05294 8.28423 9.27242 8.27208 9.38171 8.26201C9.45883 8.25415 9.0559 8.05079 9.51556 7.98672C8.63015 8.10228 4.52334 8.02999 4.31411 8.05253C4.14993 8.07052 5.38833 8.28407 3.44518 8.16196C3.4443 8.16196 3.4436 8.16196 3.44271 8.16196ZM7.5379 8.16331C6.98043 8.07806 8.53973 8.0674 8.91656 8.09885C9.75445 8.16925 7.60858 8.17341 7.5379 8.16331ZM11.2906 8.24186C11.4688 8.26099 13.085 8.27835 13.2233 8.18345C12.4563 8.06034 10.8849 8.19731 11.2906 8.24186ZM29.2524 8.2291C29.6723 8.21695 30.8305 8.28988 30.8958 8.20695C30.4753 8.21905 29.3181 8.14617 29.2524 8.2291ZM264.476 64.5108C264.406 65.207 264.378 63.594 264.411 63.1234C264.467 63.0979 264.482 64.4515 264.476 64.5108ZM20.8265 8.77563C21.0826 8.80085 26.1353 8.73793 26.8461 8.69909C26.1506 8.63638 21.1439 8.63156 20.9081 8.66217C20.8414 8.67133 20.7948 8.77167 20.8265 8.77563ZM9.87676 8.8139C9.41384 8.93603 9.1123 8.78956 9.05398 8.78772C8.48199 8.76904 7.29965 8.79657 7.55898 8.67895C8.56353 8.7264 10.7984 8.5714 9.87676 8.8139ZM29.6133 8.78168C31.3383 8.73636 28.0256 8.6077 28.4606 8.73535C28.4885 8.74306 29.4348 8.78644 29.6133 8.78168ZM20.2597 8.81122C19.8701 8.9099 14.8404 8.8248 14.0075 8.82465C14.7392 8.64265 15.3305 8.78089 16.3018 8.77161C16.5646 8.76889 16.4945 8.69317 16.5227 8.69305C16.978 8.68954 16.6372 8.77699 16.918 8.77832C17.0928 8.77892 20.7924 8.67219 20.2597 8.81122ZM9.61257 8.89851C9.33273 8.96851 6.17526 8.99835 6.04168 8.97974C5.08962 8.84138 9.37387 8.87414 9.61257 8.89851ZM20.7252 8.97303C20.1783 9.18455 17.664 9.0429 19.3851 8.93745C19.5495 8.92786 20.2462 9.01955 20.7252 8.97303ZM29.4291 8.9831C29.5137 8.98932 31.3132 9.0316 31.3413 8.9643C31.0898 8.93815 28.4619 8.91469 29.4291 8.9831ZM28.4977 9.21071C28.541 9.2091 28.1198 9.07947 28.962 9.0959C29.0324 9.09744 29.1628 9.24328 30.2231 9.18989C30.4383 9.1789 30.7719 9.08243 30.7478 9.07643C29.6411 8.84756 26.3247 9.2859 28.4977 9.21071ZM9.55486 9.01667C9.72473 9.07823 9.31497 9.26094 8.94601 9.16841C8.78787 9.12846 9.08279 9.01881 9.55486 9.01667ZM35.1094 9.04218C34.0668 9.15299 37.3402 9.17394 37.5086 9.14558C37.4027 9.07656 35.213 9.03136 35.1094 9.04218ZM263.62 62.8807C263.62 62.8815 263.62 62.8823 263.62 62.8831C263.645 62.0068 263.738 62.5496 263.74 62.5086C263.876 60.6419 263.667 61.137 263.642 60.8451C263.589 60.2192 263.843 60.3201 263.738 59.2643C263.893 61.0095 263.828 59.4209 263.918 59.3715C264.287 59.1759 263.746 61.6951 263.823 62.5652C263.834 62.6865 263.951 61.7913 263.985 62.1019C264.093 63.1119 263.524 66.2433 263.62 62.8807ZM8.66143 9.18452C8.26687 9.2928 5.16351 9.18778 5.98599 9.09859C6.12271 9.08428 9.25997 9.02671 8.66143 9.18452ZM152.734 9.34431C151.991 9.43801 153.713 9.54817 154.03 9.47524C154.188 9.4389 153.061 9.30319 152.734 9.34431ZM164.763 9.74514C165.652 9.72612 166.587 9.33537 165.483 9.39601C165.366 9.40264 164.66 9.69094 164.763 9.74514ZM106.941 9.54439C107.861 9.68403 107.806 9.42458 107.131 9.42824C106.893 9.42949 106.912 9.53998 106.941 9.54439ZM142.034 9.51082C142.122 9.51988 143.192 9.50331 143.153 9.44368C142.754 9.4079 141.442 9.44865 142.034 9.51082ZM106.649 9.58132C107.195 9.53456 106.256 9.3469 105.589 9.5303C105.928 9.51525 106.593 9.5861 106.649 9.58132ZM22.6325 9.54642C23.0943 9.43988 24.375 9.47207 25.1168 9.45376C25.1948 9.59179 23.1668 9.52139 22.6325 9.54642ZM161.042 9.58803C161.876 9.49075 160.089 9.4111 160.252 9.53969C160.275 9.54667 161.009 9.59218 161.042 9.58803ZM77.2671 9.59542C77.8732 9.51309 75.9489 9.40236 76.4785 9.54708C76.5046 9.55298 77.2339 9.60001 77.2671 9.59542ZM68.8638 9.54775C69.3237 9.57553 71.2857 9.56698 70.5221 9.48666C70.4034 9.47431 68.8983 9.47234 68.8638 9.54775ZM263.543 60.7934C263.401 61.0411 263.435 59.6032 263.46 59.3974C263.47 59.3165 263.728 60.4703 263.543 60.7934ZM112.913 9.56655C113.39 9.54881 114.625 9.58252 114.842 9.50814C114.26 9.52353 112.756 9.41837 112.913 9.56655ZM157.225 9.5887C157.95 9.74278 159.204 9.72757 158.894 9.52626C157.516 9.53975 159.061 9.7072 157.225 9.5887ZM103.58 9.74716C103.963 9.75892 104.255 9.56559 104.212 9.55648C103.798 9.46982 103.2 9.67194 103.58 9.74716ZM132.22 9.58803C132.242 9.67065 133.462 9.63315 133.299 9.57998C133.246 9.56212 132.202 9.52118 132.22 9.58803ZM38.6521 9.59341C39.2147 9.66882 37.4967 9.74254 36.9898 9.65452C36.7427 9.52766 38.5807 9.58475 38.6521 9.59341ZM93.0006 9.69882C92.9438 9.82143 94.8535 9.75211 94.1011 9.65048C93.9128 9.62505 93.0205 9.65782 93.0006 9.69882ZM74.6967 9.84586C75.979 9.69965 70.5944 9.59585 72.0094 9.77805C72.1105 9.79103 74.585 9.85821 74.6967 9.84586ZM65.9012 9.75455C66.1225 9.77066 66.0121 10.1827 65.0968 10.0238C64.9768 10.0032 65.5387 9.89427 65.4405 9.86936C65.3826 9.85517 63.393 9.7973 63.3014 9.80692C63.2029 9.81784 63.3189 9.94989 63.2189 9.9647C63.1072 9.98126 61.8797 9.86526 61.2372 9.86399C60.0267 9.86181 59.8962 9.97172 59.797 9.97209C59.5079 9.97282 59.0221 9.89478 58.4364 9.89488C55.4895 9.89576 50.9636 9.98892 48.6281 9.75589C50.7082 9.84947 52.6945 9.75019 54.7716 9.71964C54.1653 9.94905 57.8164 9.54287 55.6807 9.80759C56.6604 9.75017 65.1792 9.70425 65.8988 9.75455C65.8996 9.75455 65.9004 9.75455 65.9012 9.75455ZM168.258 9.86063C167.718 10.0013 170.489 9.96965 170.72 9.80691C170.358 9.78433 168.326 9.84468 168.258 9.86063ZM155.444 10.2037C155.187 10.228 154.945 10.503 153.593 10.3635C153.592 10.3635 153.59 10.3635 153.589 10.3635C153.194 10.3228 153.644 10.2558 153.572 10.2319C153.546 10.2222 152.311 10.0854 153.336 10.0634C154.898 10.0296 153.484 10.2679 154.316 10.2709C154.418 10.2711 155.989 10.1222 155.897 10.0896C155.887 10.0858 155.415 10.1173 155.337 10.1037C155.043 10.0526 155.186 9.96677 155.145 9.96268C155.01 9.95221 152.519 10.0985 152.153 9.97074C152.039 9.92954 156.127 9.83451 156.28 9.85593C156.381 9.86943 156.338 10.1078 156.442 10.1312C156.493 10.1429 158.135 10.0536 158.354 10.0755C158.417 10.0818 158.464 10.0886 158.499 10.0943C158.249 10.0205 159.747 10.0258 159.701 10.109C159.675 10.1417 158.645 10.1228 158.607 10.1171C158.591 10.1147 158.577 10.1113 158.564 10.109C158.769 10.1989 155.307 10.1949 156.055 10.3286C155.053 10.4019 156.197 10.1324 155.444 10.2037ZM150.599 10.3508C150.703 10.3257 150.808 10.3006 150.913 10.2756C149.137 10.3369 147.134 10.2162 145.094 10.2171C144.578 10.2172 145.172 10.3705 144.495 10.3286C143.953 10.295 143.351 10.1528 143.646 10.1211C143.719 10.1132 144.824 10.2058 145.376 10.1963C147.004 10.1682 146.592 10.0367 146.687 10.0332C146.793 10.0294 147.815 10.1219 148.371 10.1178C149.767 10.1071 150.415 10.0264 152.344 10.1319C151.231 10.2185 151.841 10.4067 150.599 10.3508ZM84.925 10.0708C84.8581 10.1535 83.7054 10.0801 83.2865 10.0923C83.3524 10.0093 84.5061 10.0829 84.925 10.0708ZM251.768 16.7644C252.1 16.8377 250.306 15.4296 250.717 15.8848C250.811 15.9804 251.549 16.5815 251.768 16.7644ZM242.941 11.7602C242.645 11.6929 243.757 12.1974 243.791 12.1041C243.803 12.0692 242.98 11.7653 242.941 11.7602ZM127.825 10.2171C127.758 10.2214 126.774 10.1912 126.747 10.1842C126.095 10.0401 129.324 10.1234 127.825 10.2171ZM230.347 10.2628C231.594 10.1738 227.834 10.1352 228.984 10.2487C229.044 10.2542 230.289 10.2671 230.347 10.2628ZM225.168 10.2876C225.468 10.2829 226.775 10.3271 226.79 10.2856C226.819 10.2188 225.321 10.1731 225.168 10.2876ZM103.322 10.2601C103.462 10.4131 101.73 10.2973 101.127 10.3165C100.984 10.1634 102.718 10.2794 103.322 10.2601ZM114.294 10.3729C106.962 10.4935 108.57 10.1666 114.73 10.2984C114.739 10.3965 114.756 10.3653 114.294 10.3729ZM104.912 10.3548C105.179 10.2568 106.012 10.2858 106.574 10.2937C106.473 10.3618 105.319 10.3372 104.912 10.3548ZM253.646 18.7041C253.291 18.5124 252.099 17.2605 252.36 17.4254C252.431 17.4527 253.806 18.7466 253.646 18.7041ZM127.208 10.3481C127.373 10.4969 125.186 10.4362 125.017 10.4031C124.341 10.2702 127.026 10.3809 127.208 10.3481ZM92.9291 10.391C92.5411 10.5076 91.4386 10.4476 90.729 10.4461C91.0521 10.3464 92.3277 10.3889 92.9291 10.391ZM98.0517 10.4824C98.0072 10.4868 97.0169 10.4763 96.9725 10.4709C96.1611 10.3571 98.9624 10.3863 98.0517 10.4824ZM262.501 64.0956C262.497 64.0626 262.505 63.3134 262.509 63.2873C262.621 62.6185 262.598 64.8672 262.501 64.0956Z" fill="#ACFC17"/>
</svg>
