<svg width="236" height="168" viewBox="0 0 236 168" fill="none" xmlns="http://www.w3.org/2000/svg">
<path d="M0.0878534 138.597C0.101806 138.363 0.0678697 137.423 0.0737538 137.016C-0.0738034 137.477 0.0371909 139.441 0.0878534 138.597ZM10.8029 96.8247C10.7664 97.1626 10.73 97.5005 10.6935 97.8383C10.6698 96.8781 10.6966 95.5875 10.6619 94.6964C10.6561 94.5507 10.5505 94.9288 10.5458 94.5839C10.5411 94.239 10.6854 94.3055 10.7009 93.8038C10.7177 93.2411 10.6172 90.6645 10.6196 89.7722C10.6294 86.4349 10.7118 83.0689 10.6519 79.7249C10.5451 83.1772 10.4364 79.6983 10.4827 78.7314C10.4934 78.5171 10.7617 78.5513 10.6942 75.0876C10.6513 72.8864 10.2676 74.9195 10.4598 71.2463C10.7282 74.0709 10.7094 71.2933 10.7183 69.0791C10.7199 68.6974 10.6796 65.6147 10.6915 64.253C10.6956 63.787 10.8362 63.0772 10.8398 62.4592C10.8423 62.0339 10.7654 61.7122 10.7694 61.0807C10.7867 58.1367 10.7926 55.2414 10.7667 52.2922C10.4055 54.0156 10.6127 50.9394 10.5955 50.8012C10.4974 50.0986 10.4695 53.2764 10.4081 52.0197C10.4193 50.2634 10.4305 48.5071 10.4417 46.7509C10.4861 48.1923 10.7459 44.8426 10.6277 44.226C10.7951 44.3684 10.7105 42.1594 10.6075 39.8447C10.5026 38.0432 10.6179 36.1579 10.7447 35.657C10.8212 35.4409 10.6736 36.9042 11.2264 33.5428C11.2968 33.1801 11.1734 33.2958 11.2248 33.1083C11.2563 32.9933 11.709 32.389 11.7511 31.6281C11.7944 31.3559 11.0013 32.9491 12.3142 29.3277C11.9819 30.8253 14.5328 24.5 15.3573 23.4923C15.255 23.7263 15.1558 23.9612 15.0598 24.197C15.6228 23.082 15.8561 22.9651 16.0075 22.7306C16.6277 21.7903 17.5197 20.5066 18.2408 19.7334C19.0887 18.8331 19.2233 18.9621 20.2108 17.9224C19.9903 18.185 19.7748 18.4508 19.5644 18.7197C20.2573 18.018 20.9851 17.3503 21.7445 16.72C19.8259 17.9963 22.1102 16.3829 22.2697 16.2945C22.5069 16.1236 22.1091 16.2959 22.5064 16.0092C22.5489 15.9818 22.5465 16.0983 23.1608 15.666C24.4592 14.7829 24.1966 14.8361 24.7541 14.4793C24.8072 14.4511 24.6682 14.6238 25.6588 14.0663C28.8694 12.4086 25.5998 13.9908 25.4827 14.0753C25.3254 14.1719 26.1749 13.142 23.6307 14.9398C24.4727 14.3245 24.485 14.1403 24.5815 14.072C24.6621 14.002 26.2527 13.1169 26.3494 13.0875C27.1668 12.7248 26.5216 13.1869 26.6853 13.1246C26.8065 13.059 28.7261 11.9927 29.331 12.1387C30.1854 11.4766 28.6507 12.0525 27.0607 12.7955C26.7974 12.8424 28.517 11.9642 28.6189 11.9381C30.9302 11.0077 29.7446 11.7701 30.3044 11.7278C30.5966 11.7101 31.4867 11.2266 30.6886 11.7411C32.8055 11.0716 31.4878 11.3672 31.6169 11.3C31.8146 11.2052 32.5827 11.0542 32.6753 11.0227C32.8109 10.9729 32.3067 11.0253 32.848 10.8517C32.9403 10.8229 33.8516 10.7314 32.7347 11.0874C34.2437 10.6795 34.1492 10.849 34.6211 10.5061C35.7605 10.7442 35.3466 10.1057 35.7699 10.0098C36.8922 9.77762 36.6095 10.1807 36.671 10.1869C37.0268 10.2168 39.2749 9.94554 40.4653 9.97578C40.7209 9.97676 40.9326 9.98047 41.0753 9.98853C40.9864 9.92494 40.7605 9.89322 40.4653 9.88058C39.6867 9.83522 38.3819 10.0364 38.0157 10.0355C36.3735 9.99545 40.3078 9.76384 39.1081 9.52342C39.5612 9.58171 40.0136 9.64992 40.4653 9.72803C40.5235 9.73698 40.5817 9.74593 40.6399 9.75487C41.6878 9.55106 40.1826 9.46219 43.0337 9.53667C43.498 9.71259 41.0185 9.50888 41.5172 9.64745C41.8038 9.72878 43.4634 9.74625 43.4997 9.78911C43.5299 9.84073 42.0291 9.77956 42.2666 9.85895C42.7808 10.0302 48.2671 9.86717 44.0982 9.77367C45.3004 9.7766 45.8405 9.43587 46.8542 9.54204C47.5129 9.61095 43.82 10.0815 49.3587 9.99524C49.4728 9.83435 47.134 9.94772 47.0802 9.93549C46.9957 9.91766 47.4143 9.55458 47.4873 9.53667C47.7673 9.47766 53.3387 9.67207 54.5604 9.48967C54.0834 9.69951 58.7731 9.52711 59.3164 9.59105C59.4553 9.6087 58.9363 9.73724 59.0847 9.75084C59.9925 9.83182 62.4298 9.60237 63.5927 9.59642C64.8905 9.58968 64.7162 9.7007 64.7897 9.70049C65.345 9.69429 64.9012 9.61903 65.2411 9.61925C65.745 9.61961 69.3249 9.60422 69.5149 9.61992C69.5681 9.62482 68.9775 9.75163 69.7663 9.77568C69.9074 9.77986 69.8092 9.6295 72.1044 9.69444C74.8782 9.77257 70.1817 9.88142 71.3335 10.0389C73.1084 9.81468 73.0564 10.0368 73.5406 10.0194C73.7006 10.0131 74.9879 9.82416 76.3147 9.83612C75.3636 9.80545 74.3645 9.7748 73.3929 9.74413C74.3551 9.71101 76.2167 9.752 76.992 9.71458C77.3741 9.69638 77.0583 9.5412 77.8902 9.54539C78.0683 9.54712 78.7639 9.92517 76.5908 9.75554C76.4172 9.89053 77.4496 9.80263 77.9319 9.84082C78.0049 9.84676 78.2916 10.0723 78.9091 9.93213C79.0576 9.89764 77.442 9.23979 81.6091 9.71593C81.7415 9.73128 81.2812 9.81366 81.4106 9.83075C81.4985 9.84232 82.55 9.80898 82.6671 9.82068C82.7862 9.83321 82.2773 9.92316 82.419 9.94086C83.1457 10.0321 84.1027 9.67532 82.6011 9.7025C83.1022 9.65842 83.6048 9.61432 84.1089 9.57024C83.5695 9.8391 84.8999 9.64587 85.6024 9.65416C90.0759 9.70708 87.0797 9.88194 87.8483 9.97241C89.0772 10.1177 88.1354 9.65758 89.9672 9.79582C90.1401 9.80876 87.909 10.0041 92.2588 9.89386C91.6146 9.88625 90.9725 9.87863 90.3325 9.87103C90.6995 9.61098 92.6518 9.88887 92.8026 9.89252C94.4897 9.92822 93.3436 9.83447 95.863 9.96838C96.0884 9.98041 96.5799 9.91623 97.0638 9.94824C99.0688 10.0801 94.4202 10.0283 94.3018 10.1335C94.2297 10.1851 99.2426 10.1721 99.4023 10.1476C100.131 10.0391 97.1394 10.0998 97.7087 9.96503C97.9305 9.91716 105.026 10.0155 106.444 9.96301C108.082 9.90196 108.826 9.54941 108.836 9.94556C109.301 9.5567 109.713 9.82201 109.924 9.81934C112.484 9.78333 112.464 9.7794 114.649 9.81665C115.131 9.82474 115.539 9.70676 115.709 9.72667C115.809 9.73871 115.623 9.86497 116.11 9.90393C116.799 9.95721 120.831 9.82736 121.138 9.75755C121.439 9.68776 119.426 9.72729 119.787 9.61253C121.242 9.60094 122.645 9.62933 124.116 9.61723C124.723 9.61186 124.411 9.53154 124.673 9.52995C124.784 9.52896 126.884 9.59969 126.796 9.62932C126.591 9.69821 120.088 9.6519 121.801 9.79247C122.131 9.81964 123.301 9.63455 123.115 9.85962C128.908 9.80858 134.732 9.75755 140.527 9.70653C137.2 9.53819 133.431 9.68875 129.949 9.67296C129.468 9.67101 127.846 9.69272 128.043 9.57896C131.033 9.54951 134.7 9.60878 137.564 9.53465C137.655 9.5322 137.321 9.42999 137.662 9.4138C138.299 9.38356 140.378 9.5484 140.729 9.50578C140.788 9.49585 139.604 9.36111 139.964 9.27548C140.889 9.05574 141.123 9.54243 141.919 9.53667C142.54 9.532 146.662 9.29668 147.693 9.44536C148.787 9.60382 144.649 9.53735 144.956 9.66692C147.751 9.79712 150.595 9.65808 153.235 9.6743C153.282 9.67471 152.877 9.77625 153.467 9.79045C154.495 9.81519 154.765 9.67116 155.265 9.64812C155.805 9.6236 157.713 9.64423 157.967 9.59172C157.999 9.58484 157.613 9.44199 157.555 9.43797C156.726 9.37909 156.429 9.5645 156.354 9.56688C156.069 9.57391 155.79 9.5029 155.531 9.50713C155.104 9.51418 154.869 9.57988 154.305 9.58568C153.917 9.58992 154.292 9.46376 153.917 9.46953C153.78 9.47215 152.298 9.76025 152.16 9.46617C152.115 9.37344 164.241 9.25436 165.451 9.32852C164.412 9.36389 163.373 9.39925 162.333 9.43462C164.445 9.34853 166.978 9.58351 167.158 9.23587C174.985 9.20744 182.812 9.17903 190.636 9.1506C192.035 9.12099 191.269 8.89758 193.569 8.9626C192.975 9.03378 192.38 9.10495 191.785 9.17612C192.968 9.12619 198.18 9.02866 199.032 9.07474C199.141 9.08076 199.294 9.28296 200.598 9.30032C201.755 9.31566 201.94 9.16418 202.558 9.13516C203.076 9.11122 203.658 9.15091 203.814 9.14255C203.933 9.13585 203.98 9.04321 204.265 9.02707C205.167 8.97711 204.436 9.23795 205.331 8.93843C205.113 8.92702 204.895 8.9156 204.677 8.90419C205.765 8.86084 207.248 8.72487 205.648 8.65779C205.373 8.64621 205.609 8.73582 205.404 8.73567C197.38 8.71901 203.779 8.5448 206.601 8.68398C207.324 8.55118 211.363 8.63225 211.504 8.60608C211.691 8.56819 210.997 8.46205 211.907 8.37042C212.103 8.35103 217.501 8.42538 215.558 8.2489C215.159 8.21249 212.567 8.25073 211.939 8.24554C213.419 7.96408 216.845 8.36732 217.245 8.35699C218.816 8.31313 214.227 8.11307 217.766 8.08037C220.483 8.05528 217.933 8.24321 218.977 8.32343C219.566 8.36844 222.626 8.16141 222.541 8.4295C223.591 8.45813 222.977 8.31618 223.107 8.30597C223.236 8.29698 225.314 8.37724 225.985 8.32074C226.067 8.31371 225.81 8.17436 225.894 8.16295C226.06 8.14343 228.052 8.1713 228.131 8.18309C228.182 8.1913 227.708 8.31331 227.903 8.3429C228.128 8.37701 230.046 8.3483 230.156 8.38318C230.303 8.43591 227.933 8.40117 228.329 8.5376C229.406 8.50325 231.214 8.59428 231.931 8.70412C231.755 8.67271 230.692 8.6682 230.322 8.67928C230.497 8.87909 232.777 8.87636 231.998 8.71822C232.493 8.80315 232.155 8.84821 232.433 8.92836C232.507 8.94867 233.209 8.95285 233.344 8.98744C233.361 8.99434 232.637 9.06973 232.782 9.11032C233.046 9.18365 235.168 9.16716 235.34 9.14792C235.828 9.0934 234.101 9.02742 233.956 8.94313C233.936 8.93019 235.406 8.76503 235.427 8.75044C235.514 8.59393 233.879 8.70673 234.065 8.5658C234.47 8.53604 234.875 8.50627 235.278 8.4765C233.724 8.3338 230.818 8.40718 230.064 8.24487C232.403 8.29317 234.822 8.28746 234.817 7.92192C234.816 7.76797 233.817 7.67772 233.856 7.63858C234.004 7.49852 235.389 7.65068 235.439 7.64328C235.481 7.63475 235.5 7.62643 235.5 7.61835C235.5 7.61835 235.5 7.61835 235.5 7.61833C235.501 7.53633 233.526 7.47728 233.426 7.43985C233.259 7.37334 234.14 7.09956 234.139 7.03902C234.108 7.02684 232.698 6.96205 233.174 6.85638C233.656 6.74965 234.888 6.7473 234.93 6.73621C235.166 6.67235 233.011 6.61412 232.945 6.5764C232.911 6.55734 234.071 6.44022 234.104 6.40654C234.133 6.37274 233.253 6.29901 232.905 6.19237C232.645 6.11311 233.4 6.05237 233.267 6.03995C233.174 6.03172 231.127 6.03307 231.025 6.01913C230.875 5.99854 231.356 5.90382 231.286 5.88016C231.187 5.8461 230.524 5.88028 230.61 5.84525C230.677 5.81912 233.24 5.49266 233.221 5.40547C233.193 5.25673 230.481 5.59895 233.004 5.01202C233.022 5.00816 233.635 5.04988 233.651 5.04626C234.029 4.93828 232.067 4.77216 234.466 4.80119C229.999 4.61363 233.911 4.57761 233.25 4.32718C232.996 4.23091 231.258 4.19122 231.249 4.17677C231.419 4.05466 231.973 4.14937 232.161 4.08949C232.265 4.05603 230.708 3.92693 231.059 3.84309C231.241 3.79988 232.891 3.81526 232.958 3.80684C233.609 3.72734 232.811 3.64172 232.954 3.58527C233.049 3.54741 234.041 3.54442 234.067 3.5376C234.109 3.52342 232.762 3.37047 232.48 3.3167C232.266 3.27533 233.068 3.21053 232.919 3.19249C232.021 3.08464 230.102 3.3597 231.95 2.97427C232.063 2.95065 232.76 2.96019 232.781 2.95547C233.212 2.84622 231.928 2.83678 231.697 2.74734C231.303 2.59322 233.15 2.67915 231.614 2.57076C232.767 2.46997 233.408 2.47418 234.748 2.50227C231.031 2.4239 229.706 2.02493 233.847 2.03497C232.533 2.0412 232.678 1.81602 232.285 1.81207C232.041 1.80988 230.125 2.03375 231.004 1.53142C231.114 1.46867 232.277 1.5484 231.913 1.41997C229.12 1.45274 231.854 1.33824 231.856 1.32126C231.812 1.02536 225.021 1.26772 223.839 1.23398C222.468 1.19484 221.282 0.961685 220.984 0.96138C220.015 0.961288 220.819 1.07967 220.602 1.1232C220.384 1.16632 217.621 0.939529 217.481 0.951981C216.944 1.00201 217.489 1.1423 217.433 1.14938C216.758 1.23535 213.075 1.1255 212.03 1.15811C212.062 1.06711 214.147 1.05989 212.845 0.913712C211.329 0.743301 211.241 1.14449 211.201 1.16214C204.266 1.15834 197.321 1.15453 190.378 1.15073C190.467 0.937286 195.007 1.09825 195.108 1.07016C195.717 0.903778 188.046 0.906845 187.109 0.982208C187.824 0.936096 188.537 0.889999 189.251 0.843887C188.033 0.598511 185.334 0.917313 183.566 0.808975C182.997 0.773849 184.091 0.679153 184.069 0.672684C183.426 0.577377 182.402 0.650803 183.169 0.778763C181.607 0.656158 181.835 0.791428 180.635 0.80159C180.574 0.802017 181.089 0.702988 180.139 0.661942C179.695 0.642776 177.321 0.642471 177.003 0.555847C176.872 0.519394 178.077 0.135391 178.225 0.465881C180.807 0.304779 179.05 0.616486 180.053 0.608902C180.206 0.607162 179.853 0.422684 182.377 0.509521C181.896 0.176865 178.99 0.425613 178.491 0.385315C177.463 0.30249 181.699 0.130692 182.475 0.390015C182.112 0.130417 182.774 0.355026 183.718 0.34436C184.753 0.332779 184.302 0.255478 184.862 0.255066C186.392 0.253128 185.758 0.436371 187.019 0.271179C185.79 0.782608 189.176 0.338654 190.161 0.204712C188.558 0.178741 186.952 0.152786 185.345 0.126816C185.437 0.0999603 185.529 0.0731049 185.621 0.0462494C185.198 0.0500641 184.774 0.0538635 184.351 0.057663C184.418 0.0834045 184.486 0.109146 184.554 0.134872C182.37 -0.0324554 181.842 0.155609 181.663 0.1577C179.375 0.17952 176.727 0.177902 174.414 0.178528C174.066 0.178619 174.305 0.0112152 171.773 0.142258C170.966 0.18399 171.728 0.314209 170.813 0.294678C169.668 -0.0591736 169.689 0.223053 169.349 0.223511C168.372 0.223465 167.775 0.135803 167.684 0.134872C166.477 0.121201 164.71 0.135834 163.385 0.122787C163.36 0.12146 164.05 0.0127411 163.189 0.0449066C162.886 0.0563965 160.171 0.520477 157.803 0.369202C158.419 0.337875 159.035 0.306534 159.652 0.275208C158.928 0.318985 153.845 0.202042 155.087 0.0778046C155.85 0.00187683 157.71 0.30101 157.913 0.0133514C156.222 0.0994415 146.882 -0.0293121 146.154 0.0375214C146.054 0.0470581 146.672 0.140396 146.533 0.152328C146.425 0.161438 144.289 0.139313 144.006 0.175171C143.837 0.196457 144.781 0.253662 144.704 0.287292C144.639 0.311264 141.964 0.351227 141.811 0.234253C142.468 0.281204 144.317 0.240204 143.348 0.141586C143.223 0.129349 142.576 0.204803 142.425 0.18927C141.022 0.045929 145.215 0.0803375 145.86 0.0791473C143.239 -0.0698853 139.153 0.105804 136.11 0.00865173C134.873 0.106018 137.943 0.157608 136.544 0.238281C133.644 0.405487 135.772 0.103638 135.682 0.0912323C134.96 -0.00700378 132.514 0.51947 132.513 0.118759C131.467 0.179077 131.806 0.229599 130.33 0.177185C130.526 0.149429 130.718 0.121674 130.913 0.0939178C129.267 -0.138184 125.785 0.447403 126.048 0.492065C126.747 0.611618 128.56 0.42514 128.715 0.429626C128.941 0.436264 129.59 0.84288 132.083 0.479309C133.109 0.752029 128.113 0.663376 130.391 0.849258C128.839 0.818756 122.544 1.00858 121.621 0.88887C121.513 0.873245 122.018 0.601517 120.457 0.739822C119.716 0.805679 121.503 0.808838 121.164 0.870743C120.135 1.06073 105.927 0.939209 103.238 0.929153C103.062 0.928864 103.127 1.01318 102.954 1.01242C102.424 1.01006 100.5 0.884308 99.5628 0.923111C101.512 0.767014 97.7242 0.754883 96.744 0.772049C95.2728 0.798203 95.3657 0.946609 94.7327 0.97818C92.3224 1.09982 88.4813 0.747467 86.6116 1.07687C86.7129 0.749954 83.3019 1.23715 81.7806 1.24002C80.5906 1.24237 78.8036 1.02603 80.4519 0.894241C78.3362 0.909302 76.1964 0.848312 74.2124 0.828445C73.8869 0.825119 74.3348 0.921783 73.7798 0.91304C73.7295 0.91156 73.6596 0.816818 73.1846 0.806961C69.2823 0.72438 71.1859 0.925705 70.4573 0.984894C70.0537 1.01802 69.753 1.03452 69.5266 1.03995C71.7868 1.05846 74.4204 1.09566 75.1373 1.09836C74.508 1.30756 70.1042 1.05818 68.7744 1.11447C68.7288 1.11652 68.8877 1.23183 68.8414 1.23264C68.8404 1.23264 68.8394 1.23264 68.8384 1.23264C68.3379 1.24147 65.2373 1.19891 65.8768 1.06143C66.0475 1.02469 67.4673 1.02477 69.1851 1.03726C68.7206 1.01146 69.0674 0.882294 68.9855 0.876785C67.9876 0.812943 65.584 0.939011 64.7456 0.956009C64.553 0.959747 64.5669 0.876984 64.5353 0.876785C63.7463 0.895584 64.0692 1.13188 63.2637 0.888199C61.8466 1.18269 65.9192 0.931931 65.6194 1.1232C65.4205 1.27046 56.4019 1.19136 56.4312 0.959366C56.4003 0.984192 56.2769 1.01498 56.0248 1.05002C55.4753 1.12787 52.9666 1.1035 52.5278 1.06076C52.4546 1.05234 52.4838 0.827164 52.393 0.825089C52.1512 0.819916 49.1505 0.99646 47.9685 0.863358C48.5853 0.831802 49.2314 0.800247 49.8346 0.768692C46.0758 0.766739 46.669 0.699722 47.9104 0.632401C47.9729 0.63179 48.0337 0.623245 48.0935 0.62233C49.0724 0.57254 50.3002 0.524597 50.3145 0.506836C50.4158 0.439056 44.0529 0.401337 45.2875 0.610245C45.4445 0.638794 48.3609 0.545776 46.9161 0.694839C46.6563 0.720947 44.8167 0.678406 44.7077 0.694839C44.0662 0.804062 48.1116 0.949188 47.6262 1.1044C46.6164 0.956619 45.3944 1.03445 44.2242 0.996307C43.6965 0.97905 43.569 0.866165 43.5041 0.864029C42.5402 0.834564 43.0813 0.952927 42.7605 0.949966C42.5837 0.947937 40.7191 0.696014 41.0725 1.0433C40.8564 1.03426 40.6543 1.02554 40.4653 1.01714C36.0694 0.979385 37.6529 0.855209 40.4653 0.800171C41.2831 0.799332 42.2307 0.802933 43.154 0.807632C42.4673 0.736008 41.4189 0.724564 40.4653 0.722778C39.6244 0.720795 38.8426 0.755035 38.3296 0.77037C37.9034 0.784714 38.1483 0.650421 37.4274 0.679199C35.9187 0.57724 28.9737 2.1281 27.304 2.94907C28.3854 2.61639 28.1103 2.84227 27.2892 3.12267C26.4693 3.41269 27.0975 3.0034 26.9318 3.04474C26.7308 3.0446 22.9999 4.73836 22.4114 5.08757C25.2055 3.78041 24.6168 4.18361 22.302 5.37091C22.6514 5.22725 23.0028 5.08875 23.356 4.95544C21.9451 5.55089 19.3087 7.3772 18.5746 7.84993C18.4555 7.92012 18.8052 7.55341 18.7385 7.5929C18.056 7.96823 16.0362 9.6503 15.9323 9.71368C15.8305 9.75394 16.6521 8.9855 16.2992 9.21031C16.2242 9.25714 15.4665 10.0397 14.6508 10.7215C14.3477 10.9748 14.4582 10.7421 14.3801 10.8042C13.7354 11.3313 14.1986 11.111 13.0933 12.1476C12.2951 12.9172 11.5963 13.4041 10.6376 14.6133C13.8792 10.72 11.0142 13.8664 9.66395 15.5114C9.45295 15.7775 9.45665 15.4139 8.33269 17.1202C11.1795 13.84 7.69695 18.1808 7.16932 19.1969C7.13808 19.2508 7.22556 19.3311 6.94144 19.8076C6.91772 19.8483 6.88078 19.7471 6.61447 20.1909C4.22536 24.4814 5.80701 21.7658 5.44059 22.6237C5.28032 22.9849 4.20798 25.1157 3.9922 25.724C3.93935 25.8622 4.03945 25.8276 3.83769 26.3625C3.48475 27.3045 3.1248 28.1461 2.93084 28.7829C2.91184 28.8591 3.02292 28.8927 2.65989 30.1059C2.5604 30.4457 2.42125 30.823 2.50442 30.3236C2.76288 28.6495 3.98666 25.6958 4.66836 23.9283C5.23677 22.282 3.11273 27.3274 3.11228 27.6319C3.07871 27.7304 3.47675 26.7369 3.1495 27.7718C2.87094 28.6515 2.18822 30.2253 1.95456 31.5976C1.93146 31.7044 1.91251 32.8214 1.93607 32.7736C1.94363 32.7281 2.32697 31.0821 2.33513 31.3353C2.33161 31.3648 2.11272 32.4147 2.13213 32.5593C2.14966 32.738 2.56191 33.2761 2.5384 33.4993C2.47655 34.0759 2.42323 33.6864 2.37402 34.0577C2.24175 34.8514 2.14879 37.6297 1.99209 37.7138C2.00691 37.2522 2.02984 36.7923 2.06078 36.3342C1.8516 38.8877 1.87481 37.7964 1.81527 38.1566C1.76573 38.5457 1.916 38.4406 1.91445 39.3038C1.91465 39.345 1.91047 39.5496 1.90782 39.8447C1.89844 40.7986 1.86808 42.7903 1.81808 42.7437C1.9199 40.9311 1.73148 41.6032 1.72811 41.5195C1.71584 41.202 1.82153 40.7964 1.81943 40.3703C1.81831 40.1689 1.81652 39.9947 1.81414 39.8447C1.80801 37.539 1.62459 40.4014 1.59354 39.6703C1.57923 39.3982 1.68017 38.8614 1.67953 38.7475C1.67563 38.3758 1.55858 38.3652 1.57838 38.1177C1.6275 37.5415 1.76272 38.2229 1.77408 38.1771C1.88705 37.6684 1.9255 35.6372 1.64231 36.8819C1.63718 36.1168 1.86752 36.0543 1.84467 35.4432C1.81261 34.228 1.63956 36.0263 1.58 36.5067C1.3922 37.8577 1.39897 38.473 1.39618 39.8447C1.39769 40.1984 1.3969 40.608 1.39039 41.1057C1.38015 41.906 1.27275 42.854 1.26685 43.2253C1.26315 43.4593 1.63681 45.6679 1.052 45.7329C1.10859 46.5914 1.49396 47.9384 1.47633 48.8229C1.46026 49.617 1.25337 49.3645 1.24537 49.4386C1.23279 49.5522 1.24909 50.5124 1.21985 50.8373C1.18531 51.2179 1.10634 51.0279 1.07416 51.6318C0.99428 53.1345 1.20546 53.0952 1.21918 53.2496C1.37781 55.0428 1.07744 54.2577 1.05334 54.6555C1.0312 55.0255 1.14682 60.216 1.0708 61.3085C1.1131 60.864 1.1554 60.4194 1.1977 59.9748C1.32942 60.7704 1.11457 61.6138 1.35078 61.6287C0.969425 61.7901 1.22434 63.4324 1.21448 63.9257C1.21043 64.12 1.14544 64.1048 1.14264 64.3481C1.13125 65.2987 1.18298 67.4418 1.15003 67.9573C1.00816 70.1869 0.772178 64.4856 0.757923 64.0367C0.76213 64.9352 0.676719 70.0184 0.493387 67.6819C0.465101 67.3207 0.635759 66.6807 0.64244 66.4779C0.686379 65.1049 0.533445 66.1846 0.5189 66.077C0.495422 65.894 0.643266 64.9903 0.625655 64.7519C0.62001 64.6723 0.481529 65.1846 0.478615 63.8752C0.344367 64.5192 0.453743 68.1997 0.422217 68.6826C0.41096 68.8546 0.124094 67.7764 0.402746 70.9262C0.376113 70.8897 0.349481 70.8531 0.322848 70.8166C0.311882 72.5705 0.300915 74.3244 0.289948 76.0782C0.351307 75.8876 0.474552 74.9029 0.448402 76.1431C0.433268 76.8572 0.2966 76.3288 0.292634 76.394C0.255017 77.0348 0.300496 88.376 0.285249 90.5739C0.2803 91.3216 0.170464 93.4056 0.168423 93.5645C0.157429 94.5147 0.22892 97.8794 0.213408 98.5507C0.203459 98.9698 0.0892096 98.5713 0.0945678 98.9457C0.0997071 99.2938 0.210132 98.9332 0.21475 99.0366C0.254765 99.8929 0.109933 106.397 0.214079 107.942C0.182814 106.998 0.403435 102.287 0.481301 102.382C0.491978 102.402 0.57598 103.547 0.535014 103.783C0.63062 104.174 0.33953 105.513 0.396703 106.242C0.403196 106.324 0.566476 106 0.596113 107.3C0.606239 107.748 0.478966 108.921 0.621626 110.102C0.553079 111.811 0.764832 120.797 0.589398 121.414C0.580136 121.432 0.519728 120.167 0.447731 121.022C0.352031 122.158 0.674388 121.138 0.702196 122.462C0.706426 122.662 0.673804 126.347 0.653854 126.468C0.472937 127.584 0.399602 124.364 0.378575 124.409C0.325615 124.521 0.293574 127.197 0.306063 127.306C0.319056 127.409 0.558773 125.227 0.467873 127.849C0.439226 127.549 0.410579 127.248 0.381932 126.948C0.326141 128.181 0.491983 128.299 0.502115 128.598C0.53419 129.526 0.282282 130.531 0.593427 132.019C0.676002 132.413 0.767697 131.759 0.780079 131.809C0.891219 132.281 0.593908 132.884 0.815664 133.595C0.832204 133.649 0.965052 131.995 0.965389 134.886C0.944128 134.687 0.922866 134.488 0.901605 134.289C0.854137 134.697 0.82593 137.624 0.83715 138.018C0.869946 139.168 1.02257 138.165 1.00433 139.321C0.795166 138.58 0.767869 142.096 0.947933 141.894C0.721782 142.385 0.896237 145.372 0.901605 146.776C0.904825 147.662 0.806137 149.469 0.817678 149.751C0.831823 150.094 0.986099 149.989 1.02045 150.609C1.03024 150.785 0.917147 152.629 1.07684 154.247C1.10762 154.56 1.3693 155.219 1.43471 154.636C1.54663 153.638 1.33581 151.751 1.49043 151.775C1.65585 151.803 1.55747 154.345 1.57906 155.03C1.67891 158.188 1.85475 156.364 1.90805 156.445C2.03741 156.656 2.03339 158.382 2.04502 158.454C2.09668 158.753 2.19905 157.53 2.278 157.511C2.38079 157.489 2.5663 159.152 2.60095 158.774C2.65015 158.233 2.49554 156.704 2.50292 156.607C2.60265 155.345 2.84012 157.075 2.9568 157.551C2.99269 157.696 3.05168 157.12 3.06221 157.24C3.22195 159.069 2.72845 157.626 2.76142 158.842C2.79079 159.927 2.94685 158.531 2.95546 158.572C2.96491 158.626 2.97342 159.924 3.02864 160.127C3.05629 160.227 3.35984 156.854 3.49594 156.995C3.46595 158.071 3.43596 159.147 3.40597 160.223C3.58343 160.308 3.4528 158.76 3.4711 158.6C3.50781 158.277 3.59762 159.176 3.65372 159.138C3.68941 159.117 3.81675 158.062 3.86925 159.015C3.88738 159.343 3.76295 160.03 3.89006 161.223C4.05241 157.072 4.15216 159.948 4.21502 160.07C4.27788 160.19 4.42583 158.209 4.39966 160.614C4.74502 160.718 4.50883 160.562 4.56953 159.879C4.64414 159.041 4.75786 160.977 4.67158 157.916C4.83328 158.09 4.82184 160.55 4.83474 160.68C4.84643 160.793 4.92596 160.246 4.95291 160.441C5.26534 162.747 5.12267 161.163 5.32218 161.831C5.34001 161.89 5.41398 164.07 5.44304 162.411C5.49586 159.388 5.26673 158.124 5.75659 157.616C5.96937 159.852 5.65318 162.562 5.64782 163.241C5.6401 164.282 5.74 163.204 5.768 163.332C5.77705 163.377 5.76879 164.273 5.77673 164.285C6.15035 164.925 5.78293 160.294 5.8479 158.836C5.90385 159.227 5.9598 159.618 6.01575 160.008C6.01799 159.478 6.02023 158.948 6.02247 158.418C6.13494 160.944 6.06505 158.507 6.36757 157.877C6.43555 157.736 6.31897 159.395 6.5079 157.502C6.55151 158.898 6.61332 158.453 6.52804 159.717C6.6493 159.685 6.78608 156.841 6.8483 155.719C6.98457 159.682 6.53979 157.422 6.77512 160.848C6.62497 161.483 6.65421 159.848 6.62942 159.981C6.54031 160.46 6.68181 161.581 6.36959 162.934C6.31833 163.154 6.16054 162.222 6.16816 163.602C6.16924 163.754 6.30408 164.633 6.31386 164.621C6.41946 164.505 6.37989 163.635 6.42397 163.599C6.4657 163.565 6.4406 164.536 6.45217 164.539C6.58447 164.569 6.50273 163.729 6.54415 163.851C6.63423 164.115 6.91894 167.605 6.83555 163.05C6.68597 166.834 6.68946 163.534 6.74692 162.06C6.76132 161.685 6.84035 161.589 6.86777 161.054C6.90329 160.365 6.86536 159.559 6.87986 159.202C6.89585 158.819 7.08264 160.997 7.0269 157.847C7.2127 159.45 7.01461 162.282 7.14507 163.857C7.40869 167.034 7.4653 161.642 7.49084 161.08C7.49777 160.93 7.60449 161.432 7.61103 161.332C7.62106 161.169 7.57172 158.108 7.66004 157.807C7.74828 157.506 7.65598 158.928 7.748 159.022C7.80995 159.086 7.91983 155.394 7.96218 157.393C7.9912 158.77 7.7422 161.31 8.00985 161.737C8.032 159.711 8.05416 157.686 8.07632 155.66C8.17815 156.768 8.27998 157.877 8.38181 158.986C8.4141 156.712 8.29914 154.747 8.44492 152.587C8.77123 157.776 8.70533 150.902 8.74504 150.826C8.76879 150.801 9.03365 152.844 9.08209 153.172C9.18398 151.362 9.23377 145.862 9.56081 149.08C9.48696 148.496 9.66925 147.082 9.68301 147.1C9.82749 147.28 9.7338 150.365 9.86429 149.862C10.0157 149.279 9.81028 148.462 9.82669 147.565C9.91222 142.962 10.6665 144.225 10.5471 139.61C10.574 139.701 10.6008 139.793 10.6277 139.885C10.5849 134.868 10.5422 129.852 10.4994 124.836C10.7298 122.873 10.87 117.649 10.8445 115.084C10.8396 114.567 10.7187 112.031 10.6975 111.839C10.6569 111.485 10.6414 113.434 10.5652 112.553C10.5496 112.367 10.4988 108.073 10.6277 108.38C10.6426 108.861 10.5778 110.367 10.6082 110.614C10.8249 112.345 10.6518 99.107 10.7391 98.4512C10.781 98.7444 10.8228 99.0376 10.8647 99.3307C10.8441 98.4954 10.8235 97.66 10.8029 96.8247ZM0.453102 135.21C0.323797 135.712 0.420913 136.968 0.384618 137.711C0.33379 138.736 -0.164123 140.48 0.334933 139.729C0.374323 138.223 0.413713 136.717 0.453102 135.21ZM0.260406 113.195C0.329859 114.205 0.608582 113.422 0.492715 112.594C0.479547 112.502 0.166925 111.828 0.260406 113.195ZM0.392675 123.784C0.396366 123.742 0.388988 122.869 0.384618 122.838C0.27271 122.056 0.295582 124.687 0.392675 123.784ZM0.535686 72.6291C0.523653 73.7421 0.270273 72.9361 0.374547 72.2441C0.381167 72.2006 0.536277 72.5559 0.535686 72.6291ZM0.5424 73.4207C0.769299 74.2851 0.309444 76.0261 0.355747 74.6421C0.360423 74.5078 0.53135 73.3808 0.5424 73.4207ZM0.37119 116.795C0.458153 116.682 0.416162 115.64 0.39536 115.195C0.315965 115.207 0.380908 116.359 0.37119 116.795ZM0.39536 90.3778C0.463727 90.3336 0.459949 93.9551 0.369847 94.2018C0.408074 93.6303 0.333923 90.4194 0.39536 90.3778ZM0.491372 81.0904C0.503191 81.1821 0.485223 82.4332 0.424902 82.3967C0.34577 81.786 0.437876 80.677 0.491372 81.0904ZM0.487344 62.6308C0.502497 62.5629 0.88637 63.4998 0.633712 61.2797C0.596716 60.9538 0.496417 62.1179 0.482644 62.0021C0.455781 61.7596 0.443259 61.5678 0.441016 61.4138C0.409199 62.4478 0.394231 63.5218 0.417517 63.6257C0.527493 64.1136 0.48102 62.6609 0.487344 62.6308ZM0.773365 52.9396C0.835979 52.7266 0.802505 51.3661 0.776722 51.0565C0.771872 51.0033 0.607306 51.235 0.619612 50.6224C0.629771 50.1306 0.798323 50.8653 0.771351 49.9072C0.74428 48.939 0.624156 50.2326 0.615583 50.148C0.604346 50.0347 0.680031 48.537 0.582013 48.5835C0.509408 48.6183 0.5585 50.2228 0.543071 50.6196C0.52324 51.1276 0.402274 50.5116 0.428259 51.3607C0.444489 51.8942 0.657207 51.5985 0.667954 51.7111C0.676614 51.8055 0.554195 53.6706 0.772694 52.9367C0.772918 52.9377 0.773142 52.9386 0.773365 52.9396ZM0.450416 61.1341C0.443228 61.2119 0.439407 61.3033 0.441016 61.4138C0.443904 61.32 0.447258 61.2265 0.450416 61.1341ZM0.546428 132.292C0.480822 131.767 0.396699 133.325 0.482644 133.915C0.551953 133.926 0.556641 132.375 0.546428 132.292ZM0.623641 60.1752C0.570351 58.6393 0.497062 59.769 0.450416 61.1341C0.490456 60.7006 0.641441 60.6909 0.623641 60.1752ZM0.535014 103.783C0.519149 103.719 0.494413 103.678 0.453773 103.672C0.498221 103.843 0.522093 103.858 0.535014 103.783ZM0.462502 100.2C0.586293 98.9719 0.581297 101.468 0.492715 101.452C0.459276 101.444 0.457579 100.249 0.462502 100.2ZM0.5236 71.2016C0.535714 71.314 0.90952 69.5684 0.629012 72.1028C0.584957 70.7501 0.54425 72.1773 0.511515 72.1562C0.417427 72.101 0.507867 69.8288 0.467202 69.3257C0.635544 68.9317 0.483688 70.8307 0.5236 71.1987C0.5236 71.1997 0.5236 71.2007 0.5236 71.2016ZM0.988043 34.889C0.843856 35.2255 0.757023 36.3351 0.715704 37.0841C0.835187 36.7396 0.897083 35.637 0.988043 34.889ZM162.352 0.0133514C157.834 -0.0778503 157.25 0.323868 161.382 0.1651C161.463 0.161758 162.626 0.0540771 162.352 0.0133514ZM123.592 0.117416C123.166 0.292511 124.575 0.320663 125.496 0.248352C125.704 0.232086 126.477 0.0547485 125.595 0.0200653C125.621 0.232285 124.264 0.313354 123.592 0.117416ZM0.735766 59.3072C0.852527 58.8599 0.769415 57.4832 0.75188 56.7578C0.655743 57.2005 0.699221 58.6657 0.735766 59.3072ZM147.508 0.222839C147.032 0.236099 146.711 0.0837708 146.793 0.0710907C147.161 0.0129547 148.051 0.136124 147.508 0.222839ZM0.753894 63.7512C0.823668 63.8141 0.890829 61.9907 0.71831 61.8637C0.730793 62.2535 0.71011 63.706 0.753894 63.7512ZM0.890995 36.2992C0.893739 36.6219 1.11646 34.9729 1.1592 34.4722C1.07305 34.499 0.877614 36.0902 0.890995 36.2992ZM139.843 0.171143C139.417 0.184372 138.354 0.1884 138.236 0.126816C138.09 0.0498505 139.649 0.0760803 139.843 0.171143ZM219.172 0.304077C219.226 0.276413 217.574 0.0770416 216.836 0.127487C215.438 0.22403 219.116 0.323608 219.172 0.304077ZM152.016 0.301392C153.359 0.156525 151.868 0.296814 151.927 0.144272C152.83 0.138779 155.081 0.131256 153.534 0.28125C153.232 0.310257 152.437 0.291519 152.016 0.301392ZM150.777 0.352417C150.634 0.302994 149.666 0.147217 150.502 0.158371C150.889 0.163773 151.512 0.336868 150.777 0.352417ZM208.948 0.236267C207.74 0.371307 213.272 0.298859 213.429 0.275208C213.513 0.262711 213.568 0.250931 213.6 0.240967C213.803 0.283768 214.844 0.291473 214.964 0.183228C214.653 0.192154 213.8 0.182632 213.7 0.194641C213.658 0.199738 213.626 0.204529 213.604 0.209412C213.24 0.115433 209.17 0.210663 208.948 0.236267ZM199.798 0.375244C201.177 0.574463 201.42 0.235748 201.301 0.224854C199.801 0.0862122 200.78 0.336014 200.734 0.347717C200.629 0.367188 199.563 0.251282 199.802 0.375244C199.801 0.375244 199.799 0.375244 199.798 0.375244ZM207.075 0.291992C207.132 0.296402 208.288 0.285919 208.335 0.280579C209.283 0.166748 206.011 0.195892 207.075 0.291992ZM1.01037 45.6348C0.976704 44.8061 0.852087 45.619 0.896905 46.1698C0.901322 46.215 1.04012 46.3658 1.01037 45.6348ZM150.116 0.318848C149.922 0.342392 145.004 0.431183 145.301 0.242981C145.715 0.265182 151.31 0.168304 150.116 0.318848ZM113.377 0.364502C114.242 0.363052 113.298 0.185532 112.838 0.251709C112.667 0.276291 113.159 0.364761 113.377 0.364502ZM0.915033 66.2097C0.817513 67.1096 1.14467 66.9235 1.03253 66.1433C1.02814 66.1127 0.918843 66.1744 0.915033 66.2097ZM120.301 0.262451C117.321 0.154877 118.019 0.717636 121.907 0.527649C121.786 0.502594 121.664 0.477524 121.542 0.452454C126.043 0.368042 121.846 0.412796 120.75 0.381287C120.332 0.369308 120.682 0.275375 120.304 0.26178C120.303 0.261993 120.302 0.262222 120.301 0.262451ZM108.817 0.375244C105.929 0.774673 111.46 0.514557 113.013 0.566605C111.492 0.401657 109.507 0.42662 112.204 0.257751C108.248 0.225098 109.89 0.384171 109.734 0.3974C109.547 0.412231 108.94 0.358093 108.817 0.375244ZM116.416 0.37793C116.582 0.389587 117.844 0.308273 118.289 0.321533C117.67 0.185089 115.304 0.298691 116.416 0.37793ZM190.198 0.282593C190.302 0.389496 190.56 0.468246 191.552 0.428284C191.245 0.374573 190.612 0.328369 190.198 0.282593ZM1.01575 136.162C1.02341 136.843 1.0637 138.2 0.95129 137.784C0.941709 137.739 0.952655 136.164 1.01575 136.162ZM135.838 0.405457C135.69 0.41861 131.942 0.427429 133.237 0.309448C133.625 0.273865 137.043 0.288971 135.838 0.405457ZM155.248 0.392029C154.934 0.393143 153.659 0.373001 153.632 0.347717C153.545 0.2603 155.11 0.308365 155.248 0.392029ZM1.12519 139.599C1.13628 139.689 1.11663 141.771 1.06476 141.542C0.966667 141.107 1.08698 139.292 1.12519 139.599ZM1.26081 42.6197C1.26476 42.4457 1.14863 42.2156 1.14734 42.1554C1.1461 42.0496 1.17081 40.2389 1.12081 39.8447C1.10904 39.7393 1.09302 39.7235 1.07134 39.8447C1.06231 39.8896 1.05232 39.9556 1.04126 40.0459C1.01627 40.2489 1.07353 44.8312 1.08826 45.4272C1.24768 45.6576 1.09602 43.7002 1.11243 43.2239C1.11554 43.14 1.24892 43.0863 1.26014 42.6212C1.26036 42.6207 1.26059 42.6202 1.26081 42.6197ZM195.356 0.395386C195.493 0.496735 199.242 0.563858 199.199 0.44104C197.917 0.425827 196.632 0.410599 195.356 0.395386ZM193.455 0.41217C192.656 0.483871 194.527 0.507584 195.078 0.475952C195.084 0.407776 193.572 0.401688 193.455 0.41217ZM148.145 0.770706C147.768 0.745926 148.926 0.598038 148.667 0.56929C148.501 0.551376 147.66 0.606812 147.391 0.560547C147.315 0.545853 148.173 0.406845 148.422 0.412842C148.775 0.420868 148.432 0.530258 148.818 0.531006C150.098 0.533371 151.226 0.455338 152.422 0.457153C152.53 0.457535 151.693 0.53479 152.614 0.533691C152.756 0.533676 153.612 0.41861 154.715 0.435669C157.155 0.792038 158.937 0.442123 162.03 0.570633C161.913 0.604187 159.602 0.694199 159.466 0.697525C156.887 0.756119 152.252 0.762558 149.55 0.763321C148.854 0.763626 149.192 0.688202 148.893 0.68544C148.656 0.683395 148.937 0.823059 148.145 0.770706ZM1.09296 135.8C1.23246 136.125 1.14416 137.264 1.15137 137.992C1.02554 137.736 1.12387 136.511 1.09296 135.8ZM176.641 0.520264C176.276 0.514877 175.146 0.5569 175.052 0.514893C174.932 0.460052 176.564 0.425461 176.641 0.520264ZM4.84592 23.3305C4.86316 23.2951 5.28253 22.4039 5.29807 22.3695C5.57986 21.5247 4.32322 24.2067 4.84592 23.3305ZM20.3628 6.0679C21.0124 5.69858 21.695 5.37497 21.8626 5.15703C21.4474 5.39182 20.2446 6.04185 20.3628 6.0679ZM50.6223 0.542419C50.4831 0.690643 52.4771 0.594666 52.863 0.581375C52.7177 0.515488 50.7179 0.435623 50.6223 0.542419ZM190.054 0.747879C191.28 0.739105 191.022 0.963623 191.8 0.862015C191.927 0.844849 192.338 0.377335 190.99 0.55249C190.747 0.583984 191.696 0.695084 190.054 0.747879ZM122.542 0.522949C122.852 0.621017 123.838 0.591904 124.488 0.584061C124.345 0.5112 123.011 0.529953 122.542 0.522949ZM1.23731 143.359C1.37574 143.933 1.27305 146.586 1.18158 145.93C1.16965 145.836 1.24254 143.731 1.23731 143.359ZM1.18293 56.194C1.29193 55.1024 1.3257 57.3635 1.21918 58.0772C1.22616 57.754 1.17575 56.2676 1.18293 56.194ZM43.6628 0.623001C43.7132 0.627457 44.8949 0.616943 44.944 0.611588C45.9016 0.497742 42.5848 0.526901 43.6628 0.623001ZM14.2621 10.8031C14.6475 10.5342 16.9666 8.54094 17.493 8.08908C16.841 8.32458 13.7294 11.0839 14.2621 10.8031ZM185.018 0.684097C185.892 0.688736 186.721 0.661118 187.523 0.62233C187.355 0.546799 185.11 0.627686 185.018 0.684097ZM47.9104 0.632401C47.9729 0.63179 48.0337 0.623245 48.0935 0.62233C48.0311 0.625519 47.97 0.629181 47.9104 0.632401ZM165.464 0.737137C164.732 0.766968 164.884 0.628571 164.929 0.624344C165.48 0.579514 166.292 0.703461 165.464 0.737137ZM1.29841 136.636C1.4233 136.89 1.32643 138.121 1.35615 138.829C1.25752 138.624 1.28531 137.207 1.29841 136.636ZM105.74 0.631058C104.824 0.766464 108.551 0.923767 109.347 0.836502C109.402 0.752838 105.87 0.612518 105.74 0.631058ZM1.37025 59.584C1.46811 59.6574 1.35001 61.2285 1.30378 60.8947C1.27436 60.6833 1.30945 59.5401 1.37025 59.584ZM111.238 0.779434C111.587 0.809296 112.402 0.712723 112.115 0.653885C111.746 0.578445 111.147 0.770889 111.238 0.779434ZM142.778 0.857986C142.623 0.87294 140.553 0.772491 141.408 0.672684C142.002 0.603317 142.096 0.744766 142.236 0.745193C142.393 0.744736 145.714 0.571625 142.778 0.857986ZM84.7735 0.716324C85.5524 0.753952 86.5182 0.710266 87.3233 0.712967C87.0066 0.652451 85.1011 0.635941 84.7735 0.716324ZM1.39644 53.525C1.43601 53.7145 1.45985 58.8744 1.33802 55.9431C1.33114 55.7722 1.27658 52.9497 1.39644 53.525ZM190.054 0.747879C189.9 0.748978 189.722 0.753662 189.516 0.763321C189.721 0.759521 189.899 0.752884 190.054 0.747879ZM176.148 0.76265C176.43 0.833893 175.01 0.852936 174.591 0.815018C174.462 0.727982 176.109 0.752686 176.148 0.76265ZM87.3847 0.812332C87.8508 0.853104 88.6996 0.809601 89.2812 0.814346C89.1817 0.748123 87.5851 0.745056 87.3847 0.812332ZM54.3621 0.886856C55.2779 0.847504 56.4232 0.865601 56.4412 0.946609C56.4606 0.93396 56.5058 0.920517 56.5808 0.906998C56.6559 0.893631 57.6579 0.931305 58.0977 0.903641C60.6943 0.739395 48.045 0.807175 55.3826 1.03592C55.0411 0.986237 54.7009 0.936539 54.3621 0.886856ZM11.4817 13.8678C11.1551 14.3647 10.0134 15.5592 10.2556 15.2052C10.4119 14.9467 11.7979 13.357 11.4817 13.8678ZM30.5785 2.23805C30.409 2.2915 28.844 2.6747 28.79 2.64549C29.6555 2.30527 31.339 1.95718 30.5785 2.23805ZM8.75625 17.4783C8.55561 17.7874 8.16014 18.0892 8.17864 18.0497C8.33894 17.7017 9.04334 16.9207 8.75625 17.4783ZM187.52 1.17624C187.026 1.22177 185.447 1.10667 185.103 1.00168C185.039 1.02197 184.866 1.04846 184.55 1.08023C184.551 1.08023 184.552 1.08023 184.553 1.08023C184.127 1.12265 171.368 1.16899 179.927 0.966766C180.195 0.960281 179.829 1.05453 180.919 1.03793C180.991 1.03671 181.027 0.959763 181.249 0.956009C181.761 0.947891 184.486 0.89946 185.036 0.96138C185.041 0.947128 185.076 0.933548 185.152 0.921097C185.825 0.81012 187.904 1.14113 187.52 1.17624ZM33.6996 1.56993C33.3841 1.65028 32.3772 1.82425 32.2571 1.78383C32.7487 1.63338 34.4297 1.37465 33.6996 1.56993ZM1.67507 53.6851C1.73093 54.2794 1.62651 55.7855 1.571 55.3303C1.53686 55.0512 1.61095 52.9997 1.67507 53.6851ZM23.9169 4.63544C27.3511 3.02533 24.7445 4.26923 25.3141 4.12572C24.845 4.2867 24.3792 4.45665 23.9169 4.63544ZM203.29 0.919083C202.749 0.942001 203.382 1.13852 203.985 1.03189C204.173 0.998016 203.592 0.906631 203.29 0.919083ZM227.834 0.980194C227.372 1.15443 229.626 1.05205 228.748 0.93251C228.707 0.928482 227.867 0.973557 227.834 0.980194ZM210.683 1.05136C210.313 0.932709 210.07 0.91864 209.036 0.947952C210.571 0.981384 209.141 1.08632 210.683 1.05136ZM56.4312 0.959366C56.4371 0.954575 56.4422 0.951035 56.4412 0.946609C56.4345 0.950974 56.4316 0.955109 56.4312 0.959366ZM6.8175 20.4567C6.66219 20.9141 6.03489 22.0787 6.13094 21.6836C6.13632 21.6445 6.65196 20.5855 6.8175 20.4567ZM185.103 1.00168C185.159 0.983673 185.131 0.972031 185.036 0.96138C185.032 0.974808 185.056 0.987488 185.103 1.00168ZM10.9799 14.6956C10.8827 14.6759 12.2076 13.1507 12.2795 13.1064C13.1722 12.3587 11.5079 14.0514 10.9799 14.6956ZM1.78048 65.7165C1.77266 65.8104 1.57909 65.2051 1.65493 64.8341C1.71377 64.5468 1.81027 65.365 1.78048 65.7165ZM214.216 1.0997C214.792 1.09956 215.6 1.09966 215.749 1.00772C215.365 1.02184 214.204 1.03223 214.216 1.0997ZM226.949 1.10641C226.27 0.998322 224.713 0.998627 223.714 1.01645C223.697 1.15872 226.313 1.07295 226.949 1.10641ZM189.082 1.1232C189.035 1.12898 187.591 1.17143 187.788 1.0762C188.077 0.936539 189.489 1.07141 189.082 1.1232ZM1.67776 62.9105C1.74335 62.2644 1.94492 63.7514 1.78921 64.4332C1.70948 64.7833 1.66677 63.0195 1.67776 62.9105ZM5.06469 24.2057C4.63023 25.0481 5.49428 22.8655 5.74662 22.6226C5.55668 23.0166 5.2154 23.9052 5.06469 24.2057ZM28.1085 3.24811C25.4192 4.51862 26.7512 3.48619 27.2658 3.34094C27.3379 3.31935 28.1751 3.21663 28.1085 3.24811ZM1.81137 150.026C1.77146 150.406 1.6269 148.988 1.72207 148.805C1.78163 148.691 1.8368 149.783 1.81137 150.026ZM69.5266 1.03995C69.4117 1.03902 69.2978 1.03807 69.1851 1.03726C69.2696 1.04195 69.3808 1.04347 69.5266 1.03995ZM2.88026 32.4372C2.90425 30.3175 3.1997 30.6031 3.23189 30.4286C3.32067 30.0503 3.45145 29.1403 3.68798 28.4435C3.39612 29.2334 3.12749 30.0438 2.888 30.8538C2.89971 30.1696 4.65049 24.5969 4.856 24.5456C5.00241 24.42 4.28518 26.1018 4.28345 26.1601C4.26695 26.2364 4.41102 26.5956 4.36375 26.7563C4.21487 26.9985 2.88355 31.6466 2.88026 32.4372ZM22.3955 5.66025C22.8028 5.41019 22.8784 5.25784 23.0882 5.17935C23.1598 5.15297 23.2146 5.23483 23.4573 5.14351C23.1005 5.31046 22.7465 5.48273 22.3955 5.66025ZM1.98276 36.072C2.0327 36.6717 2.28737 34.032 2.30862 33.9516C2.2896 33.4883 1.91513 35.5765 1.98276 36.072ZM10.4054 15.5245C10.3393 15.5962 9.13662 17.2388 9.10207 17.1936C9.35536 16.7113 11.0571 14.5764 10.4054 15.5245ZM23.7471 5.01006C24.381 4.68401 25.5906 4.05865 25.5053 4.25839C25.5043 4.2588 25.5034 4.25922 25.5024 4.25963C24.9106 4.49538 24.325 4.74582 23.7471 5.01006ZM1.99064 60.6986C2.22658 61.899 1.92844 61.3303 1.85232 60.2675C1.95825 59.9455 1.95224 60.5019 1.99064 60.6986ZM2.16655 64.5399C2.209 64.8738 2.16248 68.3151 2.03763 67.79C1.99314 67.6034 2.10535 65.6245 2.09672 65.5334C2.08393 65.3952 1.94581 66.0265 1.97318 64.971C2.01998 65.0328 2.15236 64.4255 2.16655 64.5399ZM2.1417 61.6921C2.32114 62.8849 1.99019 63.1529 1.98929 62.2559C1.98871 61.9054 2.11581 61.5219 2.1417 61.6921ZM2.1135 56.8198C2.14489 57.2491 2.19067 58.3923 2.08061 59.1803C2.07121 58.1257 2.06181 57.0712 2.05241 56.0167C2.11476 55.8951 2.08592 56.4444 2.1135 56.8227C2.1135 56.8218 2.1135 56.8208 2.1135 56.8198ZM234.116 1.95441C233.172 2.04825 235.346 2.08421 235.436 2.06116C235.708 1.98462 234.538 1.91249 234.116 1.95441ZM4.81795 157.429C4.85536 157.692 4.97845 157.864 4.91396 158.444C4.8231 157.861 4.73224 157.278 4.64137 156.695C4.84957 156.242 4.77669 157.141 4.81795 157.429ZM5.57866 159.655C5.58371 159.573 5.90385 160.023 5.69012 158.959C5.5458 158.24 5.40515 162.149 5.54711 162.855C5.61307 162.075 5.53756 160.364 5.57866 159.655ZM6.96446 166.503C6.98999 166.548 7.02744 165.063 7.00944 164.891C6.91457 163.988 6.82768 166.259 6.96446 166.503ZM6.90336 161.765C6.96553 162.461 7.00561 160.918 6.96983 160.458C6.91024 160.414 6.8943 161.657 6.90336 161.765ZM224.518 6.59117C223.761 6.80876 223.084 6.34036 224.249 6.43474C224.304 6.43918 224.55 6.58052 224.518 6.59117ZM7.28741 165.051C7.22524 164.354 7.18516 165.897 7.22094 166.357C7.28046 166.4 7.2965 165.157 7.28741 165.051ZM223.985 7.10951C222.979 7.26608 223.333 6.74059 223.459 6.71942C223.978 6.63579 225.749 6.84204 226.109 6.89331C223.462 6.81445 224.457 7.03572 223.985 7.10951ZM219.371 6.79395C218.442 6.73788 220.817 6.63066 221.267 6.77716C220.807 6.77016 219.636 6.81015 219.371 6.79395ZM213.734 6.96246C213.235 6.98129 211.748 7.02635 211.498 6.94366C212.045 6.95863 213.523 6.8774 213.734 6.96246ZM212.603 7.21022C211.821 7.32257 211.634 6.99522 212.535 7.09273C212.57 7.0965 212.632 7.20398 212.603 7.21022ZM208.213 7.32838C207.702 7.45857 207.118 7.14156 207.947 7.13301C208.193 7.13106 208.267 7.31346 208.213 7.32838ZM222.727 7.67484C221.998 7.73074 221.057 7.50372 222.615 7.47879C222.069 7.44409 221.521 7.40941 220.972 7.37471C223.017 7.24747 222.863 7.5623 223.456 7.54929C224.283 7.53079 224.217 7.27098 224.052 7.18941C224.731 7.34857 227.6 7.35112 229.242 7.38142C227.798 7.44823 225.438 7.56403 223.994 7.60635C223.582 7.61861 223.18 7.54736 222.831 7.55533C222.273 7.56848 222.768 7.67108 222.73 7.67484C222.729 7.67484 222.728 7.67484 222.727 7.67484ZM202.443 7.33308C200.941 7.48056 201.891 7.16217 202.739 7.21895C202.775 7.22331 202.48 7.32948 202.443 7.33308ZM8.25491 167.047C8.12183 165.036 7.94545 166.497 8.21328 162.291C8.02368 164.058 8.07693 162.389 8.00045 162.734C7.93994 163.01 7.99005 164.047 7.86818 163.445C8.00082 164.237 7.96414 167.676 7.98568 167.83C7.98568 167.828 7.98568 167.827 7.98568 167.825C7.99844 167.917 8.29723 167.688 8.25491 167.047ZM213.726 7.79501C213.225 8.18134 213.028 7.56818 212.04 7.88835C210.725 7.42342 215.671 7.88828 216.262 7.49557C210.908 7.5412 219.805 7.10645 216.062 7.69431C219.155 7.48094 217.076 7.76712 217.553 7.84203C218.066 7.92181 219.814 7.8351 219.725 7.97899C219.724 7.97899 219.723 7.97899 219.722 7.97899C218.654 7.96892 217.583 7.95885 216.509 7.94878C217.556 7.63838 215.375 7.73145 214.638 7.98436C214.334 7.92125 214.03 7.85814 213.726 7.79501ZM219.772 7.50363C219.668 7.51074 217.34 7.46722 217.49 7.40494C217.803 7.36519 221.101 7.41284 219.772 7.50363ZM229.991 7.57144C229.145 7.5722 227.873 7.63275 227.417 7.51572C228.249 7.51492 229.529 7.45433 229.991 7.57144ZM187.042 7.5936C185.979 7.49756 189.251 7.4691 188.304 7.58286C188.258 7.58821 187.094 7.59808 187.042 7.5936ZM211.305 7.7366C210.221 7.85468 210.734 7.47888 211.537 7.57681C211.583 7.58258 211.356 7.73122 211.305 7.7366ZM8.30057 165.417C8.39264 165.345 8.32797 162.428 8.32877 161.91C8.24319 162.204 8.19502 165.5 8.30057 165.417ZM231.465 7.91588C229.794 8.24693 227.551 7.86455 227.305 7.87291C227.06 7.88142 227.444 8.02614 227.388 8.03001C227.263 8.03813 224.646 8.02599 224.518 8.01591C224.427 8.00806 224.902 7.8047 224.36 7.74063C225.426 7.85619 230.178 7.78391 230.442 7.80644C230.635 7.82443 229.181 8.03798 231.462 7.91588C231.463 7.91588 231.464 7.91588 231.465 7.91588ZM226.689 7.91722C227.341 7.83197 225.511 7.8213 225.066 7.85277C224.079 7.92316 226.606 7.92732 226.689 7.91722ZM222.275 7.99577C222.068 8.01489 220.184 8.03226 220.023 7.93736C220.917 7.81425 222.748 7.95122 222.275 7.99577ZM201.265 7.98302C200.776 7.97086 199.427 8.04379 199.349 7.96086C199.841 7.97296 201.189 7.90009 201.265 7.98302ZM9.02435 155.464C9.09374 156.278 9.12209 154.391 9.08881 153.84C9.03349 153.81 9.01839 155.394 9.02435 155.464ZM211.122 8.52954C210.818 8.55476 204.917 8.49184 204.074 8.453C204.899 8.39029 210.748 8.38547 211.026 8.41608C211.104 8.42525 211.159 8.52557 211.122 8.52954ZM223.934 8.56781C224.48 8.68993 224.835 8.54347 224.904 8.54163C225.578 8.52295 226.969 8.55048 226.664 8.43286C225.482 8.48032 222.848 8.32532 223.934 8.56781ZM200.845 8.53558C198.834 8.49026 202.695 8.36162 202.188 8.48926C202.156 8.49698 201.053 8.54034 200.845 8.53558ZM211.785 8.56512C212.235 8.6638 218.148 8.5787 219.109 8.57855C218.256 8.39656 217.566 8.53481 216.417 8.52551C216.109 8.5228 216.191 8.44708 216.158 8.44696C215.626 8.44345 216.025 8.5309 215.696 8.53223C215.492 8.53284 211.162 8.4261 211.785 8.56512ZM224.246 8.65242C224.582 8.72241 228.279 8.75226 228.424 8.73366C229.536 8.59529 224.541 8.62804 224.246 8.65242ZM211.24 8.72694C211.881 8.93846 214.824 8.79681 212.809 8.69136C212.617 8.68176 211.801 8.77345 211.24 8.72694ZM201.059 8.73701C200.961 8.74324 198.863 8.78551 198.825 8.71822C199.13 8.69206 202.185 8.66859 201.059 8.73701ZM202.145 8.96461C202.094 8.96301 202.585 8.83339 201.604 8.84981C201.522 8.85135 201.37 8.99719 200.134 8.9438C199.883 8.93282 199.494 8.83633 199.522 8.83034C200.812 8.60147 204.677 9.03981 202.145 8.96461ZM224.314 8.77058C224.114 8.83214 224.596 9.01485 225.031 8.92232C225.217 8.88237 224.87 8.77272 224.314 8.77058ZM194.408 8.7961C195.627 8.90691 191.8 8.92786 191.604 8.89949C191.727 8.83047 194.287 8.78528 194.408 8.7961ZM9.87973 153.556C9.87973 153.557 9.87973 153.558 9.87973 153.559C9.85462 152.533 9.76244 153.168 9.75955 153.12C9.62415 150.936 9.83293 151.515 9.85757 151.174C9.91086 150.441 9.65697 150.559 9.76223 149.324C9.60678 151.366 9.67195 149.507 9.58162 149.449C9.21301 149.22 9.75423 152.168 9.67696 153.187C9.66626 153.329 9.54862 152.281 9.51515 152.645C9.40671 153.826 9.97574 157.491 9.87973 153.556ZM225.366 8.93843C225.846 9.04671 229.442 8.9417 228.488 8.85249C228.339 8.8382 224.668 8.78062 225.366 8.93843ZM56.758 9.09824C57.6248 9.19194 55.6159 9.30209 55.2514 9.22916C55.0677 9.19283 56.3752 9.05711 56.758 9.09824ZM42.6609 9.49907C41.63 9.48004 40.5645 9.08929 41.8296 9.14993C41.9636 9.15656 42.7785 9.44487 42.6609 9.49907ZM110.354 9.29831C109.273 9.43796 109.338 9.1785 110.131 9.18216C110.412 9.18341 110.388 9.2939 110.354 9.29831ZM69.2799 9.26474C69.1698 9.2738 67.9165 9.25723 67.963 9.1976C68.423 9.16182 69.9847 9.20258 69.2799 9.26474ZM110.698 9.33524C110.054 9.28848 111.167 9.10081 111.937 9.28421C111.545 9.26917 110.765 9.34001 110.698 9.33524ZM209.016 9.30032C208.483 9.19379 206.974 9.22598 206.104 9.20767C206.011 9.3457 208.398 9.2753 209.016 9.30032ZM47.037 9.34195C46.0624 9.24467 48.152 9.16502 47.9627 9.29361C47.935 9.3006 47.0745 9.3461 47.037 9.34195ZM145.075 9.34933C144.367 9.267 146.616 9.15628 145.997 9.30099C145.967 9.3069 145.114 9.35393 145.075 9.34933ZM154.909 9.30167C154.37 9.32944 152.076 9.32089 152.969 9.24057C153.107 9.22823 154.868 9.22626 154.909 9.30167ZM9.95694 151.113C10.0987 151.403 10.065 149.72 10.0402 149.48C10.0299 149.385 9.77247 150.735 9.95694 151.113ZM103.361 9.32047C102.801 9.30273 101.357 9.33644 101.103 9.26205C101.782 9.27745 103.544 9.17229 103.361 9.32047ZM51.4872 9.34262C50.6378 9.4967 49.2148 9.48149 49.567 9.28018C51.1461 9.29367 49.3638 9.46112 51.4872 9.34262ZM114.277 9.50108C113.831 9.51283 113.489 9.3195 113.54 9.31039C114.022 9.22374 114.721 9.42586 114.277 9.50108ZM80.7783 9.34195C80.7511 9.42458 79.3085 9.38707 79.5015 9.33389C79.5637 9.31604 80.7986 9.2751 80.7783 9.34195ZM190.267 9.34732C189.61 9.42273 191.617 9.49646 192.21 9.40842C192.499 9.28157 190.351 9.33867 190.267 9.34732ZM126.662 9.45274C126.727 9.57535 124.496 9.50603 125.375 9.40439C125.595 9.37897 126.638 9.41174 126.662 9.45274ZM148.083 9.59978C146.581 9.45357 152.886 9.34976 151.229 9.53197C151.114 9.54495 148.213 9.61212 148.083 9.59978ZM158.376 9.50847C158.117 9.52458 158.246 9.93657 159.317 9.77769C159.458 9.7571 158.8 9.64819 158.915 9.62328C158.982 9.60909 161.312 9.55122 161.42 9.56084C161.535 9.57176 161.399 9.70381 161.516 9.71861C161.648 9.73517 163.084 9.61917 163.835 9.6179C165.25 9.61572 165.403 9.72563 165.519 9.726C165.857 9.72673 166.425 9.6487 167.111 9.64879C170.567 9.64967 175.849 9.74283 178.59 9.50981C176.15 9.60338 173.831 9.5041 171.404 9.47356C172.114 9.70297 167.835 9.29678 170.338 9.56151C169.186 9.50409 159.223 9.45816 158.379 9.50847C158.378 9.50847 158.377 9.50847 158.376 9.50847ZM38.8674 9.65594C39.4161 9.74887 36.6279 9.93019 36.3713 9.83475C36.7351 9.74309 38.7956 9.62758 38.8674 9.65594ZM53.5947 9.95764C53.9 9.98192 54.1984 10.2569 55.7584 10.1174C55.7598 10.1174 55.7613 10.1174 55.7627 10.1174C56.2221 10.0767 55.6986 10.0097 55.7827 9.98584C55.8122 9.97609 57.2501 9.83931 56.0564 9.81732C54.245 9.78357 55.8842 10.0219 54.9211 10.0248C54.8192 10.025 52.9458 9.87617 53.0565 9.84351C53.0674 9.83969 53.6286 9.87119 53.722 9.8576C54.0734 9.80655 53.9024 9.72069 53.9519 9.7166C54.1309 9.70613 56.998 9.85242 57.4371 9.72466C57.5644 9.68346 52.8102 9.58842 52.6017 9.60985C52.4831 9.62335 52.5331 9.86168 52.4104 9.88513C52.3437 9.8968 50.4259 9.8075 50.1837 9.82941C50.1122 9.83574 50.0576 9.84258 50.0175 9.84821C50.3137 9.77446 48.5632 9.77977 48.6125 9.86298C48.6426 9.89568 49.8632 9.87674 49.8941 9.87103C49.9126 9.86861 49.9287 9.86526 49.9437 9.86298C49.6846 9.95284 53.7428 9.94878 52.8688 10.0825C54.0586 10.1558 52.699 9.88632 53.5947 9.95764ZM59.2665 10.1047C59.1428 10.0796 59.0193 10.0546 58.8959 10.0295C60.9362 10.0908 63.3475 9.97017 65.7051 9.97107C66.3034 9.97112 65.6144 10.1244 66.4 10.0825C67.0297 10.049 67.7323 9.90675 67.3875 9.87506C67.3026 9.86714 66.0162 9.95976 65.3794 9.95026C63.4966 9.92212 63.9518 9.79065 63.8465 9.78709C63.7213 9.78337 62.5121 9.87581 61.8593 9.8717C60.2154 9.86105 59.4889 9.78035 57.2142 9.8858C58.519 9.97244 57.8006 10.1607 59.2665 10.1047ZM136.115 9.82471C136.195 9.90744 137.545 9.83403 138.033 9.84619C137.956 9.76323 136.61 9.83685 136.115 9.82471ZM10.5874 90.2913C10.4516 90.7057 10.418 87.5996 10.531 88.4182C10.5561 88.5994 10.5864 89.901 10.5874 90.2913ZM10.5048 76.3378C10.5424 75.9222 10.6401 77.5953 10.535 77.5922C10.5013 77.5898 10.4999 76.3913 10.5048 76.3378ZM85.9103 9.97107C85.9889 9.97533 87.1441 9.94508 87.1732 9.93817C87.9393 9.79399 84.1507 9.87732 85.9103 9.97107ZM10.672 59.3749C10.583 60.8232 10.5444 56.4641 10.6579 57.796C10.6634 57.8624 10.6763 59.3053 10.672 59.3749ZM10.6968 53.316C10.6921 53.6631 10.7363 55.2048 10.6948 55.2251C10.628 55.2558 10.5823 53.4912 10.6968 53.316ZM114.579 10.014C114.41 10.167 116.447 10.0512 117.159 10.0704C117.327 9.91733 115.284 10.0334 114.579 10.014ZM101.744 10.1268C110.32 10.2474 108.444 9.92056 101.234 10.0523C101.224 10.1505 101.204 10.1192 101.744 10.1268ZM112.724 10.1087C112.411 10.0107 111.451 10.0397 110.787 10.0476C110.911 10.1158 112.25 10.0911 112.724 10.1087ZM10.7975 93.9898C10.9214 93.4523 10.7687 91.0721 10.7177 91.4953C10.7066 91.5938 10.7295 94.1872 10.7975 93.9898ZM86.6349 10.102C86.4448 10.2508 88.9922 10.1901 89.1934 10.157C89.9823 10.0241 86.8461 10.1348 86.6349 10.102ZM126.745 10.145C127.199 10.2615 128.491 10.2016 129.324 10.2C128.944 10.1004 127.449 10.1429 126.745 10.145ZM120.751 10.2363C120.803 10.2408 121.962 10.2302 122.014 10.2249C122.964 10.111 119.685 10.1402 120.751 10.2363ZM10.999 154.978C11.0027 154.939 10.9953 154.062 10.9909 154.032C10.879 153.249 10.9019 155.881 10.999 154.978Z" fill="#ACFC17"/>
</svg>
