<svg width="118" height="298" viewBox="0 0 118 298" fill="none" xmlns="http://www.w3.org/2000/svg">
<path d="M0.0878534 267.67C0.101806 267.429 0.0678697 266.458 0.0737538 266.038C-0.0738034 266.514 0.0371909 268.54 0.0878534 267.67ZM10.8029 224.572C10.7664 224.921 10.73 225.269 10.6935 225.618C10.6698 224.627 10.6966 223.296 10.6619 222.376C10.6561 222.226 10.5505 222.616 10.5458 222.26C10.5411 221.904 10.6854 221.973 10.7009 221.455C10.7177 220.875 10.6172 218.216 10.6196 217.296C10.6294 213.853 10.7118 210.38 10.6519 206.93C10.5451 210.491 10.4364 206.902 10.4827 205.905C10.4934 205.684 10.7617 205.719 10.6942 202.145C10.6513 199.874 10.2676 201.972 10.4598 198.182C10.7282 201.096 10.7094 198.231 10.7183 195.946C10.7199 195.552 10.6796 192.372 10.6915 190.967C10.6956 190.486 10.8362 189.754 10.8398 189.116C10.8423 188.677 10.7654 188.346 10.7694 187.694C10.7867 184.657 10.7926 181.669 10.7667 178.627C10.4055 180.405 10.6127 177.231 10.5955 177.088C10.4974 176.363 10.4695 179.642 10.4081 178.345C10.4193 176.533 10.4305 174.721 10.4417 172.909C10.4861 174.397 10.7459 170.941 10.6277 170.305C10.9469 170.585 10.3499 162.046 10.4565 160.746C10.479 160.476 10.6367 162.248 10.5646 158.137C10.5566 157.692 10.4603 157.86 10.4692 157.627C10.4746 157.487 10.7807 156.64 10.6116 155.739C10.5498 155.409 10.3488 157.516 10.4296 152.89C10.7411 154.732 10.5983 146.475 10.5203 144.956C10.5621 145.26 10.604 145.563 10.6458 145.867C10.5329 144.365 10.6388 144.094 10.6331 143.756C10.6099 142.392 10.5031 140.518 10.5129 139.248C10.5241 137.762 10.7178 137.757 10.6425 136.024C10.6852 136.435 10.7279 136.846 10.7707 137.257C10.7604 136.061 10.7501 134.864 10.7398 133.668C10.4834 136.439 10.7276 133.07 10.7331 132.848C10.7424 132.494 10.6374 133.003 10.6505 132.411C10.6527 132.349 10.7515 132.438 10.7626 131.525C10.7855 129.619 10.6612 129.92 10.6626 129.12C10.6632 129.046 10.7523 129.303 10.7734 127.921C10.8405 123.527 10.7051 127.943 10.6928 128.111C10.6766 128.333 10.3043 126.826 10.4363 130.558C10.3943 129.305 10.2296 129.179 10.2255 129.038C10.2221 128.913 10.2453 126.742 10.251 126.622C10.307 125.555 10.4195 126.494 10.4397 126.286C10.4559 126.116 10.3093 123.5 10.6478 122.886C10.3355 121.635 10.3641 123.607 10.3161 125.706C10.2521 126.012 10.1898 123.707 10.1899 123.586C10.1905 120.612 10.4474 122.259 10.6116 121.609C10.6975 121.267 10.5222 120.056 10.7526 121.174C10.7769 118.476 10.6434 120.112 10.6237 119.938C10.5946 119.675 10.6606 118.731 10.6519 118.612C10.6388 118.439 10.5591 119.042 10.531 118.358C10.5269 118.244 10.6641 117.142 10.7297 118.563C10.7102 116.665 10.8272 116.821 10.5914 116.177C11.0376 114.869 10.3277 115.228 10.3027 114.713C10.2368 113.344 10.5871 113.741 10.6042 113.669C10.7136 113.171 10.5933 109.38 10.6438 108.441C10.3915 108.811 10.641 111.446 10.5921 112.035C10.4293 113.999 10.466 109.267 10.149 110.693C10.236 110.095 10.3231 109.497 10.4101 108.899C10.2063 107.803 10.1175 109.358 10.1919 106.407C10.3679 105.925 10.1641 108.494 10.3027 107.978C10.384 107.675 10.4015 105.964 10.4444 105.93C10.496 105.896 10.4348 107.443 10.5142 107.199C10.6855 106.667 10.5224 101.026 10.4289 105.32C10.4319 104.122 10.0911 103.505 10.1973 102.467C10.2662 101.795 10.7368 105.573 10.6505 99.9048C10.4896 99.7841 10.603 102.171 10.5908 102.233C10.5729 102.32 10.2099 101.888 10.1919 101.814C10.1329 101.549 10.3274 95.7605 10.1449 94.5373C10.3548 95.0215 10.1824 90.1631 10.2463 89.6339C10.264 89.493 10.3925 90.0196 10.4061 89.869C10.4871 88.9295 10.2576 86.3884 10.2517 85.2096C10.245 83.8903 10.356 84.0575 10.3558 83.9837C10.3496 83.4033 10.2743 83.867 10.2745 83.5122C10.2749 82.9761 10.2595 79.2921 10.2752 79.1071C10.2801 79.053 10.4069 79.6544 10.431 78.8513C10.4351 78.7121 10.2848 78.8003 10.3497 76.4219C10.4278 73.5575 10.5367 78.411 10.6942 77.2208C10.47 75.3809 10.6921 75.4406 10.6747 74.9417C10.6683 74.7688 10.4794 73.4832 10.4914 72.0868C10.4607 73.089 10.4301 74.0912 10.3994 75.0934C10.3663 74.1082 10.4073 72.1949 10.3699 71.3831C10.3516 70.9872 10.1965 71.3135 10.2007 70.4533C10.2024 70.2707 10.5804 69.5464 10.4108 71.7997C10.5458 71.9798 10.4579 70.9076 10.4961 70.4102C10.502 70.335 10.7276 70.0383 10.5874 69.403C10.5529 69.2506 9.89506 70.9111 10.3712 66.6285C10.3865 66.4906 10.4689 66.9702 10.486 66.8353C10.4976 66.7432 10.4643 65.6499 10.4759 65.5291C10.4885 65.4056 10.5784 65.9336 10.5961 65.7865C10.6873 65.0325 10.3306 64.0427 10.3578 65.5976C10.3137 65.0779 10.2696 64.5582 10.2255 64.0385C10.4944 64.5947 10.3012 63.2222 10.3094 62.5032C10.3623 57.8947 10.5372 60.9807 10.6277 60.1884C10.7729 58.914 10.3129 59.8873 10.4511 57.9955C10.464 57.8205 10.6593 60.1073 10.5491 55.6421C10.5415 56.3011 10.5339 56.9601 10.5263 57.6192C10.2663 57.2392 10.5441 55.2394 10.5478 55.0857C10.5835 53.3322 10.4897 54.5176 10.6237 51.914C10.6357 51.6813 10.5715 51.1749 10.6035 50.6777C10.7354 48.6165 10.6835 53.3974 10.7888 53.5281C10.8404 53.59 10.8274 48.4485 10.8029 48.2721C10.6943 47.5227 10.7551 50.6028 10.6203 50.0157C10.5724 49.8014 10.6707 42.4734 10.6183 41.0034C10.6021 40.5525 10.5653 40.1677 10.5274 39.8452C10.4243 39.0753 10.332 38.7141 10.6216 38.7186C10.2479 38.2946 10.536 37.9378 10.5461 37.7535C10.7035 35.5079 10.7193 35.496 11.1182 33.6116C11.2139 33.196 11.1831 32.8193 11.2383 32.6772C11.2712 32.5952 11.3533 32.7827 11.4957 32.3784C11.6382 31.7993 12.6878 28.3825 12.7781 28.1243C12.8092 27.8471 12.1846 29.5207 12.1983 29.1843C12.6457 27.966 13.1844 26.8413 13.7856 25.6818C14.0372 25.2018 13.8352 25.4085 13.9466 25.2015C13.9821 25.1047 15.0086 23.5309 15.0012 23.6212C14.84 23.7508 12.2356 28.9016 13.0441 27.6001C13.1825 27.3436 13.4662 26.3322 13.5977 26.58C15.8182 21.9578 19.2662 17.9041 23.4976 14.9515C20.9422 16.4819 18.5538 18.9076 16.6507 21.3559C16.379 21.6859 15.5641 22.8719 15.5741 22.6668C17.0395 20.4496 19.3426 18.0562 21.2805 16.4008C21.3422 16.347 21.0451 16.4586 21.2719 16.2517C21.6895 15.8507 23.2916 14.8819 23.5336 14.6842C23.5711 14.642 22.623 15.1408 22.8381 14.8857C23.3974 14.2251 23.8475 14.5135 24.4417 14.1302C24.8689 13.7894 28.0466 11.8513 28.9885 11.6957C29.9404 11.4467 26.5383 12.8779 26.8598 12.9129C29.1321 11.902 31.461 10.9308 33.7628 10.4262C33.8031 10.4178 33.4761 10.5953 33.9893 10.4945C34.8843 10.3269 35.0911 10.1518 35.5278 10.0534C35.9956 9.93726 37.6868 9.76007 37.908 9.70044C37.9365 9.69073 37.5804 9.57883 37.5277 9.58044C36.7786 9.59555 36.5395 9.82095 36.4736 9.83066C36.2234 9.87085 35.969 9.83615 35.7396 9.87646C35.3629 9.94379 35.1669 10.0429 34.6765 10.1429C34.3385 10.2141 34.6413 10.0248 34.3148 10.097C34.188 10.1183 32.9737 10.6979 32.7829 10.4515C32.7272 10.3773 36.9695 9.25699 40.4884 9.31454C42.7904 9.3006 44.7733 9.30182 45.2263 9.32901C44.153 9.36438 43.0867 9.39972 42.0086 9.43509C44.1847 9.349 46.7992 9.58398 46.9904 9.23636C55.0566 9.20792 63.1371 9.1795 71.2103 9.15109C72.65 9.12146 71.8637 8.89807 74.2331 8.96307C73.6204 9.03427 73.0086 9.10544 72.3943 9.17661C73.6098 9.12668 78.9981 9.02914 79.869 9.07523C79.9816 9.08124 80.1399 9.28345 81.4848 9.30081C82.679 9.31613 82.8716 9.16467 83.5099 9.13565C84.0458 9.11169 84.648 9.1514 84.8071 9.14304C84.9292 9.13632 84.9775 9.0437 85.2713 9.02756C86.1988 8.9776 85.4471 9.23843 86.3679 8.9389C86.1437 8.92749 85.9195 8.91608 85.6954 8.90466C86.8148 8.86133 88.3439 8.72534 86.6952 8.65826C86.4117 8.6467 86.6552 8.7363 86.4437 8.73615C78.1645 8.71948 84.7757 8.54529 87.677 8.68445C88.4222 8.55167 92.5989 8.63272 92.7369 8.60657C92.9297 8.56866 92.2158 8.46252 93.1516 8.37091C93.3503 8.3515 98.9327 8.42587 96.9225 8.24939C96.5067 8.21298 93.8315 8.25122 93.1843 8.24603C94.7049 7.96457 98.2613 8.3678 98.6628 8.35748C100.279 8.3136 95.5597 8.11356 99.1989 8.08084C101.993 8.05576 99.3705 8.24368 100.445 8.32391C101.051 8.36893 104.214 8.1619 104.13 8.42999C105.216 8.45862 104.58 8.31665 104.714 8.30646C104.843 8.29745 106.984 8.37772 107.674 8.32123C107.758 8.31418 107.494 8.17484 107.58 8.16342C107.745 8.14392 109.813 8.17178 109.893 8.18356C109.945 8.19177 109.455 8.31378 109.657 8.34338C109.888 8.3775 111.876 8.34879 111.984 8.38367C112.14 8.4364 109.687 8.40164 110.097 8.53809C111.229 8.50372 113.06 8.59476 113.809 8.70459C113.627 8.67319 112.529 8.66867 112.153 8.67975C112.327 8.87958 114.683 8.87683 113.878 8.71869C114.388 8.80362 114.04 8.84869 114.327 8.92883C114.403 8.94916 115.124 8.95334 115.265 8.98792C115.281 8.99481 114.537 9.07022 114.686 9.11081C114.952 9.18414 117.16 9.16763 117.335 9.14841C117.839 9.09387 116.053 9.02789 115.901 8.9436C115.881 8.93066 117.403 8.7655 117.425 8.75092C117.515 8.59442 115.821 8.70721 116.014 8.56628C116.435 8.53653 116.853 8.50674 117.271 8.47699C115.658 8.33429 112.653 8.40765 111.889 8.24536C114.288 8.29364 116.8 8.28793 116.794 7.92239C116.793 7.76846 115.757 7.67819 115.797 7.63907C115.951 7.49899 117.385 7.65115 117.437 7.64377C117.48 7.63522 117.5 7.62692 117.5 7.61884C117.5 7.61884 117.5 7.61884 117.5 7.6188C117.502 7.5368 115.456 7.47775 115.35 7.44034C115.177 7.37381 116.092 7.10004 116.09 7.03949C116.059 7.02731 114.597 6.96252 115.089 6.85687C115.59 6.75012 116.867 6.74777 116.911 6.73669C117.157 6.67282 114.917 6.61459 114.854 6.57687C114.816 6.55783 116.02 6.4407 116.055 6.40701C116.086 6.37323 115.166 6.2995 114.812 6.19284C114.546 6.11359 115.322 6.05286 115.186 6.04044C115.09 6.0322 112.981 6.03354 112.874 6.01962C112.719 5.99902 113.215 5.9043 113.143 5.88065C113.039 5.84659 112.359 5.88077 112.448 5.84573C112.512 5.81961 115.16 5.49313 115.138 5.40594C115.11 5.2572 112.315 5.59943 114.914 5.01251C114.931 5.00864 115.567 5.05035 115.585 5.04675C115.977 4.93875 113.94 4.77264 116.43 4.80167C111.809 4.61411 115.852 4.57809 115.168 4.32767C114.907 4.23138 113.116 4.19171 113.106 4.17725C113.281 4.05515 113.852 4.14984 114.046 4.08997C114.154 4.05652 112.547 3.9274 112.908 3.84357C113.097 3.80035 114.799 3.81573 114.867 3.80731C115.537 3.72781 114.715 3.64221 114.863 3.58575C114.958 3.54788 115.99 3.54489 116.016 3.53809C116.059 3.5239 114.662 3.37094 114.375 3.31717C114.154 3.27582 114.981 3.211 114.827 3.19296C113.904 3.08511 111.921 3.36017 113.829 2.97476C113.945 2.95114 114.664 2.96066 114.685 2.95596C115.128 2.84671 113.807 2.83725 113.568 2.74783C113.161 2.59369 115.067 2.67963 113.482 2.57123C114.671 2.47046 115.331 2.47467 116.722 2.50275C112.873 2.42438 111.515 2.02542 115.788 2.03546C114.423 2.04169 114.581 1.8165 114.174 1.81256C113.923 1.81036 111.948 2.03424 112.852 1.53189C112.966 1.46915 114.166 1.54889 113.79 1.42044C110.912 1.45322 113.729 1.33871 113.732 1.32175C113.689 1.02585 106.675 1.26819 105.464 1.23447C104.069 1.19531 102.818 0.962158 102.516 0.961853C101.516 0.961761 102.346 1.08014 102.122 1.12369C101.895 1.16681 99.0483 0.940002 98.9056 0.952454C98.3535 1.0025 98.9139 1.14279 98.8565 1.14987C98.1718 1.23584 94.3508 1.12598 93.2782 1.1586C93.3119 1.0676 95.4616 1.06036 94.1194 0.914185C92.5547 0.743774 92.4676 1.14496 92.4262 1.16263C85.2661 1.15881 78.1049 1.155 70.946 1.15121C71.0332 0.937775 75.7157 1.09872 75.8229 1.07065C76.4471 0.904266 68.5389 0.907318 67.5694 0.982697C68.3098 0.936584 69.0417 0.890472 69.78 0.84436C68.5233 0.598999 65.7379 0.917786 63.9171 0.809448C63.3304 0.774323 64.4571 0.679626 64.4342 0.673157C63.774 0.57785 62.7155 0.651276 63.5076 0.779236C61.8916 0.656647 62.1271 0.791901 60.8926 0.802063C60.8287 0.80249 61.3619 0.703461 60.379 0.662415C59.9183 0.64325 57.4723 0.642944 57.1438 0.556335C57.0085 0.519867 58.2514 0.135864 58.4062 0.46637C61.0639 0.305267 59.2549 0.616974 60.2896 0.609375C60.4478 0.607635 60.0858 0.423157 62.6879 0.51001C62.1916 0.177338 59.1898 0.426086 58.68 0.385803C57.62 0.302979 61.9863 0.131165 62.7893 0.390503C62.4127 0.13089 63.1037 0.355499 64.073 0.344849C65.1383 0.333252 64.674 0.255951 65.2517 0.255554C66.8312 0.253601 66.1736 0.436859 67.4756 0.271667C66.2077 0.783081 69.7002 0.339142 70.7218 0.2052C69.0623 0.17923 67.4045 0.153259 65.7515 0.127289C65.8462 0.100433 65.9404 0.0735779 66.0349 0.0467224C65.6005 0.0505371 65.1603 0.0543518 64.7243 0.058136C64.7943 0.0838928 64.8642 0.109619 64.9342 0.135345C62.688 -0.0319824 62.1329 0.156097 61.951 0.158173C59.5872 0.179993 56.8658 0.178375 54.4723 0.179016C54.1164 0.179108 54.3573 0.0116882 51.7498 0.142731C50.9174 0.184479 51.7037 0.314697 50.7567 0.295166C49.5745 -0.0586853 49.6 0.223541 49.2503 0.223999C48.2353 0.223938 47.6236 0.136292 47.5305 0.135345C46.2858 0.121674 44.4602 0.136322 43.094 0.12326C43.0685 0.121948 43.7768 0.0132141 42.8928 0.0453796C42.7249 0.0518799 41.7305 0.203522 40.4884 0.306366C39.3977 0.383911 38.1404 0.484802 36.9432 0.527008C37.6516 0.432312 38.3745 0.356232 39.0857 0.30014C38.2375 0.252472 32.3486 0.957794 33.7633 0.645416C34.6359 0.40152 36.8316 0.454895 37.0412 0.161224C35.0035 0.00106812 24.3894 2.94135 23.7694 3.71091C23.6662 3.76801 24.3649 3.55197 24.2215 3.63065C24.1029 3.67297 21.8433 4.75763 21.5794 4.96609C21.4152 5.07663 22.4161 4.60883 22.3532 4.68286C22.2795 4.7149 19.5975 6.28922 19.3992 6.31232C20.0638 5.92966 21.9216 4.84305 20.8886 5.3118C20.7546 5.37177 20.1425 5.81796 19.985 5.89749C18.4937 6.60745 22.748 4.14978 23.4748 3.89499C20.5894 5.04333 16.6325 7.79767 13.9408 10.1485C12.9278 11.1789 15.6472 8.85242 14.4722 9.98541C12.0896 12.3762 13.7115 10.488 13.6256 10.5457C12.9099 11.0281 11.3139 13.4514 11.0341 13.1949C10.2665 14.154 10.5535 13.8756 9.42331 15.1847C9.54306 14.9893 9.66461 14.7947 9.78794 14.6011C8.32209 15.9179 6.60805 19.6798 6.83752 19.447C7.34643 18.8062 8.37344 16.9708 8.4936 16.8321C8.67173 16.6266 9.34987 16.2368 10.9684 13.8096C11.9098 13.0659 8.21031 17.4766 9.99292 15.5482C8.70592 16.8098 5.20518 23.1781 4.83077 24.158C4.7719 24.2678 4.73235 23.6175 4.17497 25.3354C3.91767 26.151 4.69325 24.2473 4.60547 24.6337C4.25208 25.4121 1.35842 33.8301 1.60926 39.8452C1.59842 41.8784 1.5872 43.5433 1.58443 44.3089C1.58413 44.4894 1.66846 44.4231 1.66769 44.6005C1.66533 45.1452 1.53957 47.1305 1.57839 48.1055C1.42229 46.0854 1.41015 50.0085 1.42732 51.0065C1.45348 52.5211 1.60188 52.4274 1.63344 53.0818C1.7551 55.6038 1.40275 59.5115 1.73214 61.4708C1.40522 61.3636 1.89243 64.8596 1.8953 66.45C1.89764 67.6957 1.6813 69.5032 1.54952 67.8216C1.56457 69.972 1.50358 72.2357 1.48372 74.2529C1.48039 74.5863 1.57706 74.1272 1.56832 74.6962C1.56682 74.7478 1.47209 74.8191 1.46223 75.3076C1.37966 79.3404 1.58098 77.3782 1.64016 78.1327C1.6733 78.5549 1.68978 78.8666 1.69521 79.0952C1.71373 76.7446 1.75094 74.0332 1.75363 73.3082C1.96283 73.9267 1.71345 78.5182 1.76974 79.8629C1.77179 79.9096 1.88709 79.7471 1.88791 79.7945C1.88791 79.7954 1.88791 79.7964 1.88791 79.7974C1.89674 80.3014 1.85419 83.5109 1.7167 82.8501C1.67997 82.6728 1.68004 81.1955 1.69253 79.4434C1.66674 79.9176 1.53757 79.5635 1.53206 79.6472C1.46821 80.662 1.59428 83.148 1.61129 84.0299C1.61502 84.2314 1.53226 84.217 1.53206 84.25C1.55086 85.0521 1.78716 84.7231 1.54348 85.5458C1.83797 86.9983 1.5872 82.8238 1.77847 83.1179C1.92573 83.3439 1.84664 92.6161 1.61465 92.5885C1.63946 92.6205 1.67025 92.7479 1.70529 93.0095C1.78313 93.5894 1.75878 96.1702 1.71603 96.6156C1.70761 96.6907 1.48244 96.6607 1.48036 96.754C1.47519 96.9871 1.65173 100.141 1.51863 101.32C1.48708 100.683 1.45552 100.047 1.42396 99.4109C1.42201 103.253 1.355 102.659 1.28767 101.379C1.28706 101.315 1.27851 101.253 1.2776 101.192C1.22781 100.199 1.17987 98.9274 1.16211 98.9081C1.09433 98.8353 1.05661 105.354 1.26551 104.1C1.29406 103.925 1.20105 100.909 1.35011 102.403C1.37622 102.664 1.33368 104.601 1.35011 104.703C1.45934 105.383 1.60445 101.154 1.75967 101.671C1.61189 102.697 1.68972 104.015 1.65157 105.192C1.63433 105.728 1.52143 105.859 1.5193 105.925C1.48983 106.913 1.6082 106.359 1.60525 106.689C1.60321 106.866 1.35128 108.812 1.69857 108.444C1.4431 114.857 1.44335 110.218 1.46291 106.284C1.33642 107.527 1.3976 109.964 1.36824 111.058C1.35758 111.45 1.24169 111.218 1.21851 111.881C1.17084 113.245 1.30396 119.758 1.33534 121.455C1.37628 120.413 1.50251 120.718 1.49379 121.522C1.48501 122.327 1.31652 121.651 1.29841 121.808C1.27966 121.976 1.35918 125.75 1.33735 126.378C1.39838 123.537 1.52426 124.178 1.53743 126.589C1.57369 126.241 1.60995 125.892 1.6462 125.543C1.59525 126.957 1.78728 129.929 1.73013 130.746C1.72094 130.874 1.6151 130.413 1.60995 130.485C1.56497 131.202 1.67291 133.64 1.6368 133.754C1.60674 133.85 1.518 132.81 1.47432 133.196C1.46512 133.277 1.60819 134.279 1.57302 135.267C1.56008 135.633 1.45998 135.413 1.45418 135.505C1.40603 136.274 1.57459 135.82 1.5475 137.226C1.52746 138.256 1.36267 139.023 1.41725 140.447C1.20718 135.773 1.29492 139.702 1.23127 141.656C1.22111 141.97 1.0394 141.701 1.12787 143.573C1.45644 139.59 1.30154 144.708 1.30512 145.755C1.30624 145.812 1.42607 145.832 1.42799 146.346C1.42789 146.389 1.3469 146.327 1.34071 146.804C1.28216 151.33 1.37365 148.436 1.45351 149.296C1.48753 149.662 1.37302 151.863 1.37025 152.455C1.36997 152.592 1.45411 152.529 1.45082 153.056C1.44478 153.989 1.3552 154.825 1.34809 155.441C1.34768 155.513 1.48045 155.516 1.43739 156.683C1.42535 157.012 1.37821 157.38 1.34004 156.914C1.21448 155.368 1.43178 152.435 1.30647 150.688C1.19234 149.095 1.18158 154.119 1.18091 154.38C1.1805 154.476 1.24642 153.495 1.25947 154.492C1.27033 155.343 1.04101 156.899 1.09094 158.168C1.09465 158.265 1.28908 159.279 1.30042 159.232C1.30871 159.189 1.35091 157.633 1.40718 157.859C1.41359 157.886 1.41228 158.875 1.45418 159.004C1.50517 159.162 2.00561 159.589 2.01816 159.8C2.04916 160.342 1.93503 159.989 1.94297 160.34C1.95971 161.092 2.1077 163.701 1.93424 163.786C1.92394 163.355 1.91365 162.924 1.90335 162.493C1.88551 164.89 1.81167 163.868 1.77914 164.208C1.74395 164.574 1.89642 164.471 1.91074 165.279C1.91389 165.455 1.88206 168.837 1.81808 168.775C1.9199 166.905 1.73148 167.598 1.72811 167.512C1.71584 167.185 1.82153 166.766 1.81943 166.327C1.80288 163.235 1.63606 166.353 1.59316 165.623C1.57872 165.372 1.66895 164.871 1.66433 164.764C1.64939 164.418 1.53123 164.412 1.54079 164.181C1.56297 163.642 1.73016 164.272 1.73886 164.229C1.84348 163.747 1.7133 161.859 1.53139 163.034C1.46583 162.329 1.68692 162.246 1.59853 161.686C1.42351 160.574 1.46847 162.241 1.43941 162.692C1.33458 164.312 1.41943 164.792 1.39039 167.085C1.38015 167.911 1.27275 168.889 1.26685 169.272C1.26315 169.513 1.63681 171.792 1.052 171.859C1.10859 172.745 1.49396 174.135 1.47633 175.047C1.46026 175.867 1.25337 175.606 1.24537 175.683C1.23279 175.8 1.24909 176.79 1.21985 177.126C1.18531 177.518 1.10634 177.322 1.07416 177.945C0.99428 179.496 1.20546 179.455 1.21918 179.614C1.37781 181.464 1.07744 180.654 1.05334 181.065C1.0312 181.447 1.14682 186.802 1.0708 187.929C1.1131 187.47 1.1554 187.012 1.1977 186.553C1.32942 187.374 1.11457 188.244 1.35078 188.259C0.969425 188.426 1.22434 190.12 1.21448 190.629C1.21043 190.83 1.14544 190.814 1.14264 191.065C1.13125 192.046 1.18298 194.257 1.15003 194.789C1.00816 197.089 0.772178 191.207 0.757923 190.744C0.76213 191.671 0.676719 196.915 0.493387 194.505C0.465101 194.132 0.635759 193.472 0.64244 193.262C0.686379 191.846 0.533445 192.96 0.5189 192.849C0.495422 192.66 0.643266 191.728 0.625655 191.482C0.62001 191.4 0.481529 191.928 0.478615 190.577C0.344367 191.242 0.453743 195.039 0.422217 195.537C0.41096 195.714 0.124094 194.602 0.402746 197.852C0.376113 197.814 0.349481 197.776 0.322848 197.739C0.311882 199.548 0.300915 201.358 0.289948 203.167C0.351307 202.971 0.474552 201.955 0.448402 203.234C0.433268 203.971 0.2966 203.426 0.292634 203.493C0.255017 204.154 0.300496 215.855 0.285249 218.123C0.2803 218.894 0.170464 221.044 0.168423 221.208C0.157429 222.189 0.22892 225.66 0.213408 226.353C0.203459 226.785 0.0892096 226.374 0.0945678 226.76C0.0997071 227.119 0.210132 226.747 0.21475 226.854C0.254765 227.738 0.109933 234.448 0.214079 236.042C0.182814 235.068 0.403435 230.208 0.481301 230.305C0.491978 230.327 0.57598 231.508 0.535014 231.751C0.63062 232.154 0.33953 233.536 0.396703 234.288C0.403196 234.373 0.566476 234.038 0.596113 235.38C0.606239 235.842 0.478966 237.052 0.621626 238.27C0.553079 240.034 0.764832 249.305 0.589398 249.941C0.580136 249.96 0.519728 248.655 0.447731 249.537C0.352031 250.709 0.674388 249.656 0.702196 251.023C0.706426 251.229 0.673804 255.031 0.653854 255.156C0.472937 256.307 0.399602 252.985 0.378575 253.031C0.325615 253.147 0.293574 255.908 0.306063 256.02C0.319056 256.127 0.558773 253.875 0.467873 256.581C0.439226 256.271 0.410579 255.961 0.381932 255.651C0.326141 256.923 0.491983 257.045 0.502115 257.353C0.53419 258.311 0.282282 259.348 0.593427 260.883C0.676002 261.289 0.767697 260.615 0.780079 260.666C0.891219 261.154 0.593908 261.776 0.815664 262.509C0.832204 262.564 0.965052 260.858 0.965389 263.841C0.944128 263.635 0.922866 263.43 0.901605 263.225C0.854137 263.645 0.82593 266.666 0.83715 267.072C0.869946 268.259 1.02257 267.224 1.00433 268.417C0.795166 267.652 0.767869 271.279 0.947933 271.071C0.721782 271.577 0.896237 274.659 0.901605 276.108C0.904825 277.022 0.806137 278.887 0.817678 279.177C0.831823 279.531 0.986099 279.423 1.02045 280.062C1.03024 280.244 0.917147 282.146 1.07684 283.816C1.10762 284.139 1.3693 284.819 1.43471 284.217C1.54663 283.188 1.33581 281.241 1.49043 281.266C1.65585 281.295 1.55747 283.918 1.57906 284.623C1.67891 287.882 1.85475 286.001 1.90805 286.084C2.03741 286.302 2.03339 288.082 2.04502 288.157C2.09668 288.465 2.19905 287.203 2.278 287.184C2.38079 287.161 2.5663 288.877 2.60095 288.487C2.65015 287.928 2.49554 286.351 2.50292 286.251C2.60265 284.949 2.84012 286.734 2.9568 287.225C2.99269 287.374 3.05168 286.78 3.06221 286.904C3.22195 288.791 2.72845 287.302 2.76142 288.557C2.79079 289.677 2.94685 288.236 2.95546 288.279C2.96491 288.334 2.97342 289.673 3.02864 289.882C3.05629 289.986 3.35984 286.506 3.49594 286.651C3.46595 287.761 3.43596 288.872 3.40597 289.982C3.58343 290.069 3.4528 288.472 3.4711 288.307C3.50781 287.974 3.59762 288.902 3.65372 288.862C3.68941 288.84 3.81675 287.752 3.86925 288.735C3.88738 289.073 3.76295 289.782 3.89006 291.013C4.05241 286.73 4.15216 289.698 4.21502 289.824C4.27788 289.948 4.42583 287.903 4.39966 290.385C4.74502 290.493 4.50883 290.332 4.56953 289.626C4.64414 288.763 4.75786 290.759 4.67158 287.602C4.83328 287.781 4.82184 290.319 4.83474 290.454C4.84643 290.57 4.92596 290.006 4.95291 290.207C5.26534 292.586 5.12267 290.952 5.32218 291.641C5.34001 291.702 5.41398 293.951 5.44304 292.239C5.49586 289.12 5.26673 287.816 5.75659 287.292C5.96937 289.599 5.65318 292.394 5.64782 293.096C5.6401 294.169 5.74 293.057 5.768 293.189C5.77705 293.235 5.76879 294.16 5.77673 294.173C6.15035 294.832 5.78293 290.055 5.8479 288.551C5.90385 288.954 5.9598 289.357 6.01575 289.76C6.01799 289.213 6.02023 288.666 6.02247 288.119C6.13494 290.725 6.06505 288.211 6.36757 287.562C6.43555 287.416 6.31897 289.128 6.5079 287.175C6.55151 288.615 6.61332 288.156 6.52804 289.46C6.6493 289.426 6.78608 286.492 6.8483 285.335C6.98457 289.423 6.53979 287.092 6.77512 290.626C6.62497 291.282 6.65421 289.595 6.62942 289.732C6.54031 290.226 6.68181 291.383 6.36959 292.779C6.31833 293.006 6.16054 292.044 6.16816 293.468C6.16924 293.625 6.30408 294.532 6.31386 294.519C6.41946 294.399 6.37989 293.502 6.42397 293.465C6.4657 293.43 6.4406 294.431 6.45217 294.435C6.58447 294.465 6.50273 293.599 6.54415 293.725C6.63423 293.997 6.91894 297.598 6.83555 292.898C6.68597 296.802 6.68946 293.398 6.74692 291.877C6.76132 291.49 6.84035 291.391 6.86777 290.839C6.90329 290.128 6.86536 289.296 6.87986 288.929C6.89585 288.533 7.08264 290.78 7.0269 287.53C7.2127 289.184 7.01461 292.106 7.14507 293.731C7.40869 297.009 7.4653 291.445 7.49084 290.866C7.49777 290.711 7.60449 291.229 7.61103 291.126C7.62106 290.958 7.57172 287.8 7.66004 287.489C7.74828 287.178 7.65598 288.645 7.748 288.743C7.80995 288.809 7.91983 285 7.96218 287.062C7.9912 288.483 7.7422 291.103 8.00985 291.544C8.032 289.454 8.05416 287.364 8.07632 285.274C8.17815 286.418 8.27998 287.562 8.38181 288.706C8.4141 286.36 8.29914 284.331 8.44492 282.103C8.77123 287.457 8.70533 280.365 8.74504 280.287C8.76879 280.261 9.03365 282.368 9.08209 282.707C9.18398 280.84 9.23377 275.165 9.56081 278.485C9.48696 277.883 9.66925 276.423 9.68301 276.443C9.82749 276.628 9.7338 279.811 9.86429 279.292C10.0157 278.69 9.81028 277.847 9.82669 276.922C9.91222 272.173 10.6665 273.476 10.5471 268.714C10.574 268.809 10.6008 268.904 10.6277 268.998C10.5849 263.823 10.5422 258.647 10.4994 253.472C10.7298 251.447 10.87 246.057 10.8445 243.41C10.8396 242.877 10.7187 240.261 10.6975 240.063C10.6569 239.697 10.6414 241.708 10.5652 240.8C10.5496 240.608 10.4988 236.177 10.6277 236.494C10.6426 236.991 10.5778 238.544 10.6082 238.799C10.8249 240.585 10.6518 226.927 10.7391 226.25C10.781 226.553 10.8228 226.855 10.8647 227.158C10.8441 226.296 10.8235 225.434 10.8029 224.572ZM0.453102 264.175C0.323797 264.693 0.420913 265.989 0.384618 266.755C0.33379 267.813 -0.164123 269.612 0.334933 268.838C0.374323 267.284 0.413713 265.729 0.453102 264.175ZM0.260406 241.462C0.329859 242.504 0.608582 241.695 0.492715 240.841C0.479547 240.746 0.166925 240.052 0.260406 241.462ZM0.392675 252.387C0.396366 252.343 0.388988 251.443 0.384618 251.411C0.27271 250.603 0.295582 253.319 0.392675 252.387ZM0.535686 199.609C0.523653 200.757 0.270273 199.925 0.374547 199.212C0.381167 199.167 0.536277 199.533 0.535686 199.609ZM0.5424 200.426C0.769299 201.317 0.309444 203.114 0.355747 201.686C0.360423 201.547 0.53135 200.384 0.5424 200.426ZM0.37119 245.176C0.458153 245.059 0.416162 243.984 0.39536 243.525C0.315965 243.537 0.380908 244.726 0.37119 245.176ZM0.39536 217.921C0.463727 217.875 0.459949 221.611 0.369847 221.866C0.408074 221.276 0.333923 217.964 0.39536 217.921ZM0.491372 208.338C0.503191 208.433 0.485223 209.724 0.424902 209.686C0.34577 209.056 0.437876 207.912 0.491372 208.338ZM0.487344 189.293C0.502497 189.223 0.88637 190.19 0.633712 187.899C0.596716 187.563 0.496417 188.764 0.482644 188.645C0.455781 188.394 0.443259 188.197 0.441016 188.038C0.409199 189.104 0.394231 190.213 0.417517 190.32C0.527493 190.823 0.48102 189.324 0.487344 189.293ZM0.773365 179.295C0.835979 179.075 0.802505 177.671 0.776722 177.352C0.771872 177.297 0.607306 177.536 0.619612 176.904C0.629771 176.396 0.798323 177.154 0.771351 176.166C0.74428 175.167 0.624156 176.502 0.615583 176.414C0.604346 176.297 0.680031 174.752 0.582013 174.8C0.509408 174.836 0.5585 176.492 0.543071 176.901C0.52324 177.425 0.402274 176.789 0.428259 177.666C0.444489 178.216 0.657207 177.911 0.667954 178.027C0.676614 178.124 0.554195 180.049 0.772694 179.292C0.772918 179.293 0.773142 179.294 0.773365 179.295ZM0.450416 187.749C0.443228 187.829 0.439407 187.924 0.441016 188.038C0.443904 187.941 0.447258 187.844 0.450416 187.749ZM0.546428 261.164C0.480822 260.623 0.396699 262.23 0.482644 262.839C0.551953 262.85 0.556641 261.251 0.546428 261.164ZM0.623641 186.76C0.570351 185.175 0.497062 186.341 0.450416 187.749C0.490456 187.302 0.641441 187.292 0.623641 186.76ZM0.535014 231.751C0.519149 231.685 0.494413 231.642 0.453773 231.637C0.498221 231.813 0.522093 231.828 0.535014 231.751ZM0.462502 228.055C0.586293 226.787 0.581297 229.362 0.492715 229.346C0.459276 229.338 0.457579 228.105 0.462502 228.055ZM0.5236 198.136C0.535714 198.252 0.90952 196.451 0.629012 199.066C0.584957 197.67 0.54425 199.143 0.511515 199.121C0.417427 199.064 0.507867 196.72 0.467202 196.201C0.635544 195.794 0.483688 197.753 0.5236 198.133C0.5236 198.134 0.5236 198.135 0.5236 198.136ZM0.682725 161.274C0.58408 161.592 0.615819 162.6 0.621626 163.28C0.720271 162.962 0.688531 161.954 0.682725 161.274ZM42.0281 0.0138245C41.4483 0.00253296 40.9354 -0.00119019 40.4884 0.000640869C37.0462 0.0951843 36.8971 0.365845 40.4884 0.183624C40.6584 0.17868 40.8383 0.172699 41.0285 0.165558C41.1099 0.162231 42.3113 0.0545654 42.0281 0.0138245ZM5.1125 21.7691C5.04287 22.2904 5.80751 20.8391 6.29861 19.8754C6.40618 19.6569 6.72188 18.7877 6.16064 19.6595C6.35455 19.7382 5.63415 21.1577 5.1125 21.7691ZM0.735766 185.864C0.852527 185.403 0.769415 183.982 0.75188 183.234C0.655743 183.691 0.699221 185.202 0.735766 185.864ZM25.2966 3.24228C24.7893 3.46762 24.3835 3.48367 24.4665 3.43259C24.839 3.20093 25.8501 2.92065 25.2966 3.24228ZM0.753894 190.449C0.823668 190.514 0.890829 188.633 0.71831 188.502C0.730793 188.904 0.71011 190.403 0.753894 190.449ZM0.735095 162.557C0.770571 162.849 0.834087 161.336 0.798879 160.879C0.724617 160.915 0.712035 162.365 0.735095 162.557ZM17.4565 7.54105C17.0552 7.83682 16.0688 8.59506 15.9247 8.63571C15.7369 8.67548 17.2106 7.58588 17.4565 7.54105ZM100.645 0.304565C100.701 0.276886 99.0015 0.0775146 98.2426 0.12796C96.8056 0.224518 100.588 0.324097 100.645 0.304565ZM30.302 1.62766C31.7859 1.0972 30.1337 1.66318 30.1603 1.50293C31.1768 1.20114 33.7621 0.677032 32.019 1.19147C31.6795 1.29263 30.7763 1.48828 30.302 1.62766ZM28.9261 2.07401C28.7527 2.07224 27.6222 2.27374 28.5614 1.98401C28.9966 1.85202 29.7418 1.81366 28.9261 2.07401ZM90.1021 0.236755C88.8588 0.371796 94.5579 0.299347 94.722 0.275696C94.8085 0.263184 94.8652 0.251404 94.8974 0.241455C95.1063 0.284241 96.1827 0.291962 96.3078 0.183716C95.9842 0.192627 95.1037 0.183105 95.0015 0.195129C94.9574 0.200226 94.9245 0.205017 94.9019 0.2099C94.5225 0.115906 90.3398 0.211151 90.1021 0.236755ZM80.6596 0.375732C82.0811 0.574951 82.3336 0.236237 82.2108 0.225342C80.6623 0.0867004 81.6722 0.336487 81.6247 0.348206C81.5164 0.367676 80.417 0.25177 80.664 0.375732C80.6625 0.375732 80.661 0.375732 80.6596 0.375732ZM88.1664 0.29248C88.2249 0.296875 89.4194 0.286407 89.4685 0.281067C90.4474 0.167236 87.0676 0.196381 88.1664 0.29248ZM1.01037 171.758C0.976704 170.903 0.852087 171.742 0.896905 172.31C0.901322 172.357 1.04012 172.512 1.01037 171.758ZM28.1797 2.27512C27.934 2.27139 22.6963 4.56854 22.9567 4.32794C23.345 4.0047 29.431 1.62534 28.1797 2.27512ZM1.59113 33.1172C1.76738 32.123 1.39306 33.1744 1.37786 33.7227C1.37129 33.9246 1.54713 33.3674 1.59113 33.1172ZM0.915033 192.986C0.817513 193.914 1.14467 193.722 1.03253 192.917C1.02814 192.886 0.918843 192.949 0.915033 192.986ZM3.6646 25.3273C2.39342 28.5832 3.06203 27.9235 4.63488 23.7099C4.55412 23.8282 4.47391 23.9471 4.39427 24.0667C6.56236 19.3246 4.44689 23.6969 3.96974 24.8867C3.77612 25.3322 3.84112 24.9189 3.66521 25.3239C3.66501 25.325 3.66481 25.3261 3.6646 25.3273ZM1.05698 38.3874C1.37021 41.7292 1.24092 35.3631 1.72091 33.5691C1.27867 35.2866 1.08909 37.6158 1.27704 34.4565C0.743911 39.0405 1.16232 37.1465 1.13178 37.3282C1.13106 37.5473 1.04344 38.2447 1.05698 38.3874ZM2.35784 29.6693C2.41317 29.4821 2.73791 28.0598 2.92286 27.562C2.53854 28.2145 1.95172 30.8984 2.35784 29.6693ZM70.7604 0.283081C70.8677 0.389984 71.1319 0.468719 72.1531 0.428772C71.8374 0.375061 71.1858 0.328857 70.7604 0.283081ZM1.01575 265.157C1.02341 265.86 1.0637 267.26 0.95129 266.831C0.941709 266.784 0.952655 265.159 1.01575 265.157ZM13.9717 10.6552C13.8155 10.737 10.788 13.8658 11.7477 12.7036C11.998 12.3112 14.9208 9.61707 13.9717 10.6552ZM34.0001 0.924225C33.637 0.977264 32.1826 1.24368 32.145 1.23215C32.0284 1.15878 33.8264 0.856995 34.0001 0.924225ZM1.12519 268.704C1.13628 268.796 1.11663 270.944 1.06476 270.708C0.966667 270.26 1.08698 268.386 1.12519 268.704ZM1.26081 168.647C1.26476 168.468 1.14863 168.23 1.14734 168.168C1.14568 168.022 1.19035 164.736 1.04126 165.992C1.01627 166.201 1.07353 170.929 1.08826 171.544C1.24768 171.782 1.09602 169.762 1.11243 169.271C1.11554 169.184 1.24892 169.129 1.26014 168.649C1.26036 168.648 1.26059 168.648 1.26081 168.647ZM76.0784 0.395874C76.2225 0.497223 80.0864 0.564331 80.0417 0.441528C78.7206 0.4263 77.3986 0.411072 76.0784 0.395874ZM74.1156 0.412659C73.2915 0.484344 75.2217 0.508057 75.7917 0.47644C75.7984 0.408264 74.2349 0.402161 74.1156 0.412659ZM26.1858 3.47351C25.7711 3.60782 26.9656 2.98749 26.677 3.06873C26.4887 3.11707 25.6034 3.52588 25.3015 3.60623C25.2129 3.62509 26.0806 3.11862 26.355 3.02371C26.7413 2.88528 26.4081 3.12793 26.8268 2.97195C28.2141 2.46188 29.4488 2.00113 30.7998 1.65939C30.9212 1.62869 29.9993 1.94342 31.0339 1.67975C31.1912 1.64169 32.1363 1.28458 33.3975 1.07321C35.8571 0.955872 37.6992 0.54129 40.4884 0.542389C40.8679 0.545288 41.2684 0.553925 41.6954 0.571106C41.6384 0.586975 41.0749 0.615448 40.4884 0.641418C39.7449 0.668762 38.969 0.724701 38.8868 0.730225C35.9091 0.826416 30.6275 1.80179 27.7003 2.90561C26.9462 3.17123 27.2875 2.97168 26.9619 3.08667C26.7053 3.18115 27.0556 3.1926 26.1858 3.47351ZM1.09296 264.784C1.23246 265.119 1.14416 266.294 1.15137 267.045C1.02554 266.781 1.12387 265.517 1.09296 264.784ZM56.7711 0.520752C56.3988 0.51535 55.2261 0.557373 55.1307 0.515381C55.0056 0.460541 56.6946 0.425934 56.7711 0.520752ZM1.2212 150.12C1.225 150.083 1.21753 149.178 1.21314 149.144C1.10118 148.335 1.12412 151.051 1.2212 150.12ZM1.19434 128.464C1.21156 127.777 1.25515 127.085 1.14197 126.854C1.1593 127.292 1.11551 128.544 1.19434 128.464ZM1.1977 98.5867C1.34592 98.7285 1.24993 96.6622 1.23664 96.2719C1.17077 96.4165 1.0909 98.4828 1.1977 98.5867ZM70.6116 0.748352C71.8731 0.739594 71.6067 0.964111 72.4091 0.862488C72.5404 0.845337 72.9629 0.377808 71.5744 0.552979C71.3249 0.584473 72.301 0.695557 70.6116 0.748352ZM4.93811 23.0418C5.17788 22.7568 5.65169 21.7335 6.01268 21.064C5.86126 21.1751 5.16821 22.5506 4.93811 23.0418ZM1.23731 272.582C1.37574 273.175 1.27305 275.912 1.18158 275.235C1.16965 275.138 1.24254 272.966 1.23731 272.582ZM1.18293 182.652C1.29193 181.526 1.3257 183.859 1.21918 184.595C1.22616 184.262 1.17575 182.728 1.18293 182.652ZM1.27827 105.763C1.28274 105.709 1.27222 104.515 1.26685 104.462C1.15302 103.483 1.18217 106.862 1.27827 105.763ZM1.37428 135.585C1.46399 135.155 1.3916 132.326 1.30177 131.692C1.1706 132.302 1.26224 136.119 1.37428 135.585ZM65.4127 0.68457C66.3153 0.689209 67.1664 0.661591 67.9973 0.622803C67.8199 0.547272 65.5111 0.628174 65.4127 0.68457ZM1.28767 101.379C1.28706 101.315 1.27851 101.253 1.2776 101.192C1.2808 101.256 1.28445 101.318 1.28767 101.379ZM45.2396 0.73761C44.4905 0.767456 44.6411 0.629059 44.6897 0.624817C45.2562 0.579987 46.0914 0.703949 45.2396 0.73761ZM1.29841 265.647C1.4233 265.908 1.32643 267.179 1.35615 267.909C1.25752 267.697 1.28531 266.235 1.29841 265.647ZM1.28632 41.7323C1.36979 42.3172 1.46157 41.075 1.49927 39.8452C1.52136 38.9888 1.55926 38.1482 1.5445 37.8007C1.50379 37.7653 1.38937 38.7903 1.34839 39.8452C1.30642 40.7505 1.27723 41.6641 1.28632 41.7323ZM1.37025 186.15C1.46811 186.226 1.35001 187.846 1.30378 187.502C1.27436 187.284 1.30945 186.104 1.37025 186.15ZM1.65874 35.6387C1.72828 35.2379 1.75785 34.2906 1.65577 34.6121C1.52248 35.0265 1.63848 35.7429 1.65874 35.6387ZM20.678 6.26212C20.5265 6.34836 18.4687 7.54938 19.2414 6.93329C19.78 6.50439 19.9505 6.57074 20.0869 6.48639C20.2237 6.3685 23.4787 4.34818 20.678 6.26212ZM1.37159 63.3542C1.40922 62.5495 1.36554 61.5766 1.36824 60.7344C1.30771 61.0775 1.29121 63.0118 1.37159 63.3542ZM1.39644 179.899C1.43601 180.094 1.45985 185.418 1.33802 182.393C1.33114 182.217 1.27658 179.305 1.39644 179.899ZM70.6116 0.748352C70.4519 0.749451 70.2676 0.75415 70.0541 0.763794C70.2661 0.76001 70.4508 0.753357 70.6116 0.748352ZM56.2642 0.763123C56.5577 0.834381 55.0847 0.853424 54.6549 0.815491C54.5202 0.728455 56.2242 0.753174 56.2642 0.763123ZM1.46761 60.6704C1.50837 60.1851 1.46487 59.3045 1.46962 58.7037C1.4034 58.8053 1.40033 60.4606 1.46761 60.6704ZM1.54213 94.7456C1.50278 93.782 1.52088 92.5963 1.60189 92.578C1.58923 92.558 1.57578 92.5113 1.56227 92.4337C1.5489 92.3554 1.58657 91.3231 1.55892 90.8746C1.39467 88.1897 1.46245 101.243 1.69119 93.6774C1.6415 94.0335 1.59182 94.3895 1.54213 94.7456ZM1.56496 139.413C1.66357 139.96 1.54 141.492 1.50118 141.094C1.47457 140.817 1.46568 138.866 1.56496 139.413ZM1.62337 118.368C1.64097 118.532 1.57191 120.027 1.51998 120.066C1.46525 119.206 1.54161 117.624 1.62337 118.368ZM1.68044 143.617C1.69532 143.96 1.53631 144.398 1.52938 144.358C1.47133 144.009 1.59191 143.041 1.68044 143.617ZM67.9943 1.17673C67.4805 1.22226 65.8569 1.10715 65.5007 1.00217C65.4346 1.02246 65.2561 1.04895 64.9298 1.08072C64.9308 1.08072 64.9318 1.08072 64.9328 1.08072C64.4939 1.12314 51.3316 1.16946 60.1599 0.967224C60.4364 0.960754 60.0598 1.05502 61.1849 1.03842C61.259 1.0372 61.2958 0.960236 61.5246 0.956482C62.0518 0.948364 64.8645 0.899933 65.4321 0.961853C65.4369 0.947601 65.4735 0.934021 65.5515 0.92157C66.2434 0.810608 68.3904 1.1416 67.9943 1.17673ZM1.63747 115.403C1.66599 115.704 1.63891 116.657 1.571 116.756C1.53772 116.283 1.57095 114.705 1.63747 115.403ZM1.67507 180.064C1.73093 180.677 1.62651 182.231 1.571 181.761C1.53686 181.473 1.61095 179.357 1.67507 180.064ZM1.60122 124.945C1.52094 121.429 1.60771 124.106 1.7073 123.568C1.67194 124.027 1.63658 124.486 1.60122 124.945ZM84.267 0.919556C83.7064 0.942474 84.3652 1.13901 84.9826 1.03238C85.1764 0.998505 84.5807 0.907104 84.267 0.919556ZM109.585 0.980682C109.107 1.15491 111.443 1.05252 110.531 0.932983C110.487 0.928955 109.62 0.97403 109.585 0.980682ZM91.8937 1.05185C91.5133 0.933197 91.2645 0.919128 90.1928 0.948425C91.7797 0.981873 90.308 1.08679 91.8937 1.05185ZM1.61465 92.5885C1.60985 92.5822 1.60631 92.5771 1.60189 92.578C1.60625 92.585 1.61038 92.5879 1.61465 92.5885ZM1.64956 146.923C1.75006 147.363 1.74267 148.596 1.6415 148.229C1.63213 148.193 1.5753 147.103 1.64956 146.923ZM65.5007 1.00217C65.5594 0.984161 65.5295 0.972504 65.4321 0.961853C65.4276 0.975281 65.4527 0.987976 65.5007 1.00217ZM1.73147 140.3C1.65648 140.344 1.62732 138.466 1.63613 138.391C1.76617 137.313 1.73599 139.524 1.73147 140.3ZM1.78048 192.477C1.77266 192.574 1.57909 191.949 1.65493 191.566C1.71377 191.27 1.81027 192.114 1.78048 192.477ZM95.5336 1.10019C96.1283 1.10004 96.9663 1.10013 97.1204 1.00821C96.7226 1.02231 95.5204 1.03271 95.5336 1.10019ZM108.67 1.1069C107.962 0.99881 106.365 0.999115 105.336 1.01694C105.318 1.15921 108.007 1.07343 108.67 1.1069ZM69.6059 1.12369C69.5564 1.12946 68.068 1.17191 68.2715 1.07669C68.5674 0.937012 70.0264 1.0719 69.6059 1.12369ZM1.67776 189.582C1.74335 188.915 1.94492 190.449 1.78921 191.153C1.70948 191.514 1.66677 189.694 1.67776 189.582ZM1.78116 150.774C1.72604 151.654 1.62786 149.474 1.72744 149.169C1.73543 149.574 1.80067 150.462 1.78116 150.774ZM1.88187 120.841C2.16908 123.613 1.64512 122.103 1.69119 121.611C1.69776 121.542 1.87511 120.773 1.88187 120.841ZM1.81137 279.461C1.77146 279.854 1.6269 278.39 1.72207 278.201C1.78163 278.084 1.8368 279.21 1.81137 279.461ZM1.69521 79.0952C1.69429 79.2123 1.69335 79.3284 1.69253 79.4434C1.69722 79.3572 1.69874 79.2437 1.69521 79.0952ZM2.16587 158.76C1.76036 156.809 2.07291 157.014 2.07121 156.844C2.06684 156.478 1.95719 155.626 1.97519 154.935C1.92954 155.726 1.88388 156.517 1.83823 157.308C1.80895 156.683 1.65967 151.256 1.72543 151.142C1.81907 150.979 1.78969 152.687 1.79794 152.737C1.80969 152.808 2.07003 153.075 2.07993 153.233C2.09576 153.494 2.10116 158.033 2.16587 158.76ZM1.83688 126.638C1.80593 126.193 1.70279 126.066 1.72744 125.859C1.73588 125.788 1.83426 125.777 1.85971 125.536C1.8521 125.903 1.84449 126.271 1.83688 126.638ZM1.8013 162.255C1.92152 162.807 1.87586 160.33 1.8624 160.251C1.78091 159.827 1.70309 161.803 1.8013 162.255ZM1.81875 141.237C1.82577 141.327 1.86331 143.229 1.7966 143.214C1.74574 142.711 1.73093 140.168 1.81875 141.237ZM1.86642 125.238C1.85495 124.57 1.75588 123.307 1.90402 123.452C1.90402 123.453 1.90402 123.454 1.90402 123.455C1.89149 124.049 1.87896 124.644 1.86642 125.238ZM1.99064 187.3C2.22658 188.538 1.92844 187.951 1.85232 186.855C1.95825 186.523 1.95224 187.097 1.99064 187.3ZM2.16655 191.263C2.209 191.607 2.16248 195.158 2.03763 194.616C1.99314 194.424 2.10535 192.382 2.09672 192.288C2.08393 192.145 1.94581 192.797 1.97318 191.708C2.01998 191.771 2.15236 191.145 2.16655 191.263ZM2.1417 188.325C2.32114 189.555 1.99019 189.832 1.98929 188.906C1.98871 188.545 2.11581 188.149 2.1417 188.325ZM2.1135 183.298C2.14489 183.741 2.19067 184.92 2.08061 185.733C2.07121 184.645 2.06181 183.557 2.05241 182.469C2.11476 182.344 2.08592 182.911 2.1135 183.301C2.1135 183.3 2.1135 183.299 2.1135 183.298ZM116.066 1.9549C115.088 2.04874 117.342 2.08469 117.434 2.06165C117.715 1.98511 116.505 1.91296 116.066 1.9549ZM4.81795 287.099C4.85536 287.371 4.97845 287.548 4.91396 288.146C4.8231 287.545 4.73224 286.943 4.64137 286.342C4.84957 285.874 4.77669 286.802 4.81795 287.099ZM5.57866 289.396C5.58371 289.311 5.90385 289.775 5.69012 288.677C5.5458 287.936 5.40515 291.969 5.54711 292.697C5.61307 291.893 5.53756 290.127 5.57866 289.396ZM6.96446 296.461C6.98999 296.507 7.02744 294.975 7.00944 294.798C6.91457 293.866 6.82768 296.209 6.96446 296.461ZM6.90336 291.572C6.96553 292.291 7.00561 290.699 6.96983 290.225C6.91024 290.179 6.8943 291.461 6.90336 291.572ZM106.163 6.59164C105.382 6.80923 104.689 6.34085 105.886 6.43521C105.943 6.43967 106.196 6.58099 106.163 6.59164ZM7.28741 294.963C7.22524 294.244 7.18516 295.836 7.22094 296.311C7.28046 296.355 7.2965 295.072 7.28741 294.963ZM105.614 7.10999C104.583 7.26657 104.946 6.74106 105.075 6.71991C105.604 6.63626 107.433 6.84253 107.801 6.8938C105.076 6.81494 106.1 7.03619 105.614 7.10999ZM100.851 6.79443C99.8907 6.73837 102.344 6.63113 102.809 6.77765C102.334 6.77063 101.124 6.81064 100.851 6.79443ZM95.0357 6.96295C94.5216 6.98178 92.9867 7.02682 92.731 6.94415C93.2924 6.95911 94.8192 6.87787 95.0357 6.96295ZM93.8694 7.21069C93.0633 7.32306 92.8699 6.9957 93.7994 7.0932C93.8355 7.09698 93.899 7.20447 93.8694 7.21069ZM89.342 7.32886C88.8136 7.45905 88.2104 7.14203 89.0668 7.13348C89.3211 7.13153 89.398 7.31393 89.342 7.32886ZM104.323 7.67532C103.566 7.73123 102.589 7.50421 104.207 7.47928C103.64 7.44458 103.069 7.40988 102.504 7.37518C104.62 7.24796 104.466 7.56277 105.072 7.54977C105.918 7.53128 105.855 7.27145 105.683 7.18988C106.382 7.34906 109.337 7.35159 111.046 7.3819C109.543 7.4487 107.11 7.56451 105.623 7.60684C105.2 7.61908 104.791 7.54785 104.43 7.55582C103.852 7.56897 104.365 7.67154 104.326 7.67532C104.325 7.67532 104.324 7.67532 104.323 7.67532ZM83.3909 7.33356C81.8376 7.48105 82.8203 7.16266 83.6973 7.21942C83.7348 7.22379 83.4295 7.32996 83.3909 7.33356ZM8.25491 297.022C8.12183 294.947 7.94545 296.455 8.21328 292.115C8.02368 293.939 8.07693 292.216 8.00045 292.572C7.93994 292.858 7.99005 293.927 7.86818 293.305C8.00082 294.123 7.96414 297.671 7.98568 297.83C7.98568 297.828 7.98568 297.827 7.98568 297.825C7.99844 297.92 8.29723 297.684 8.25491 297.022ZM95.0283 7.7955C94.5106 8.18182 94.3078 7.56866 93.2886 7.88882C91.9325 7.42389 97.0347 7.88876 97.6511 7.49606C92.1115 7.54169 101.309 7.10693 97.4445 7.69479C100.63 7.48141 98.4884 7.76761 98.9801 7.8425C99.5069 7.9223 101.306 7.83557 101.216 7.97946C101.215 7.97946 101.214 7.97946 101.213 7.97946C100.109 7.96939 99.0102 7.95932 97.9066 7.94925C98.9833 7.63885 96.7357 7.73193 95.9697 7.98483C95.6548 7.92172 95.3421 7.85861 95.0283 7.7955ZM101.265 7.50412C101.154 7.51123 98.7611 7.46771 98.9146 7.4054C99.2349 7.36566 102.637 7.41333 101.265 7.50412ZM111.814 7.57193C110.953 7.57266 109.622 7.63324 109.154 7.5162C110.013 7.51541 111.346 7.4548 111.814 7.57193ZM67.4994 7.59409C66.4019 7.49805 69.7801 7.46957 68.803 7.58334C68.7558 7.58868 67.5537 7.59857 67.4994 7.59409ZM92.5332 7.73709C91.4183 7.85513 91.9454 7.47937 92.7711 7.5773C92.8189 7.58307 92.5847 7.73169 92.5332 7.73709ZM8.30057 295.341C8.39264 295.266 8.32797 292.256 8.32877 291.723C8.24319 292.026 8.19502 295.426 8.30057 295.341ZM113.328 7.91635C111.617 8.24741 109.292 7.86502 109.038 7.87338C108.784 7.8819 109.182 8.02661 109.124 8.03049C108.991 8.0386 106.295 8.02646 106.163 8.01639C106.069 8.00854 106.559 7.80518 106 7.74112C107.087 7.85666 112.022 7.78439 112.276 7.80692C112.475 7.82492 110.98 8.03845 113.325 7.91635C113.326 7.91635 113.327 7.91635 113.328 7.91635ZM108.4 7.91769C109.075 7.83246 107.184 7.82178 106.727 7.85324C105.712 7.92365 108.31 7.9278 108.4 7.91769ZM103.854 7.99625C103.636 8.01538 101.691 8.03275 101.524 7.93784C102.446 7.81473 104.344 7.95169 103.854 7.99625ZM82.1736 7.98349C81.6674 7.97134 80.2768 8.04425 80.1965 7.96133C80.7039 7.97345 82.0938 7.90057 82.1736 7.98349ZM9.02435 285.071C9.09374 285.912 9.12209 283.964 9.08881 283.396C9.03349 283.365 9.01839 285 9.02435 285.071ZM92.3444 8.53003C92.0446 8.55524 85.9325 8.49231 85.0749 8.45349C85.9138 8.39078 91.9709 8.38596 92.2462 8.41656C92.3265 8.42572 92.3826 8.52606 92.3444 8.53003ZM105.562 8.5683C106.124 8.6904 106.49 8.54395 106.561 8.54211C107.254 8.52344 108.689 8.55096 108.375 8.43335C107.154 8.4808 104.447 8.32578 105.562 8.5683ZM81.7392 8.53607C79.6641 8.49075 83.6502 8.36209 83.1276 8.48975C83.0938 8.49747 81.9537 8.54083 81.7392 8.53607ZM93.0268 8.56561C93.4855 8.66428 99.6008 8.57919 100.58 8.57904C99.7029 8.39703 98.9925 8.53528 97.8116 8.526C97.4934 8.52328 97.5783 8.44757 97.5441 8.44745C96.9927 8.44394 97.4055 8.53137 97.0654 8.53271C96.85 8.53333 92.3825 8.42657 93.0268 8.56561ZM105.883 8.65289C106.226 8.7229 110.045 8.75275 110.195 8.73413C111.344 8.59576 106.182 8.62851 105.883 8.65289ZM92.4663 8.72742C93.1224 8.93893 96.1608 8.79727 94.0822 8.69183C93.8838 8.68225 93.0423 8.77393 92.4663 8.72742ZM81.9609 8.73749C81.8588 8.74371 79.6953 8.78598 79.6562 8.71869C79.9696 8.69254 83.1227 8.66907 81.9609 8.73749ZM83.0829 8.96509C83.0307 8.9635 83.5382 8.83386 82.5233 8.85028C82.4389 8.85184 82.2807 8.99768 81.006 8.94427C80.7475 8.93329 80.3462 8.83682 80.3752 8.83081C81.7026 8.60196 85.7025 9.04028 83.0829 8.96509ZM105.953 8.77106C105.746 8.83261 106.244 9.01532 106.692 8.92279C106.883 8.88284 106.526 8.77319 105.953 8.77106ZM75.0993 8.79657C76.3568 8.90738 72.4098 8.92834 72.2067 8.89996C72.3348 8.83096 74.9724 8.78577 75.0993 8.79657ZM9.87973 283.103C9.87973 283.104 9.87973 283.105 9.87973 283.106C9.85462 282.048 9.76244 282.703 9.75955 282.654C9.62415 280.4 9.83293 280.998 9.85757 280.645C9.91086 279.89 9.65697 280.011 9.76223 278.737C9.60678 280.844 9.67195 278.926 9.58162 278.866C9.21301 278.63 9.75423 281.672 9.67696 282.722C9.66626 282.869 9.54862 281.788 9.51515 282.163C9.40671 283.382 9.97574 287.163 9.87973 283.103ZM107.037 8.9389C107.523 9.04718 111.25 8.94217 110.262 8.85297C110.107 8.83868 106.314 8.7811 107.037 8.9389ZM9.7535 92.2507C9.84721 91.3559 9.95736 93.4298 9.88443 93.8143C9.84809 94.0051 9.71238 92.6438 9.7535 92.2507ZM10.1543 106.791C10.1353 107.855 9.74456 108.975 9.8052 107.653C9.81183 107.512 10.1001 106.669 10.1543 106.791ZM10.0551 37.3328C10.1235 38.3092 9.87239 38.2387 9.92373 37.5237C9.94418 37.2719 10.0533 37.3021 10.0551 37.3328ZM9.92001 79.3466C9.92907 79.4578 9.9125 80.7413 9.85287 80.6945C9.8171 80.22 9.85784 78.6281 9.92001 79.3466ZM10.1183 37.0299C10.0228 37.5988 9.91368 36.5921 10.1893 35.9137C10.1266 36.2659 10.1267 36.9731 10.1183 37.0299ZM90.172 9.30081C89.6213 9.19427 88.0607 9.22647 87.1653 9.20816C87.0685 9.34619 89.5324 9.27579 90.172 9.30081ZM9.99723 102.278C9.89995 103.284 9.8203 101.128 9.94888 101.326C9.95587 101.353 10.0014 102.238 9.99723 102.278ZM26.812 12.5812C26.2005 12.7893 27.978 11.7997 27.5372 12.175C27.5139 12.1899 26.8441 12.5676 26.812 12.5812ZM35.155 9.76553C34.6806 9.85718 32.6687 10.3182 33.4324 10.0576C33.5487 10.0065 35.1049 9.68781 35.155 9.76553ZM9.95694 280.583C10.0987 280.882 10.065 279.146 10.0402 278.897C10.0299 278.8 9.77247 280.193 9.95694 280.583ZM9.97574 44.1825C9.958 44.7569 9.99171 46.2468 9.91733 46.5092C9.93273 45.8064 9.82757 43.9936 9.97574 44.1825ZM9.9979 97.6882C10.152 98.5648 10.1368 100.062 9.93546 99.6921C9.94895 98.0378 10.1164 99.8966 9.9979 97.6882ZM10.7427 33.8723C10.6765 34.2639 10.4346 34.5328 10.4331 34.4868C10.4225 34.0406 10.7479 33.4691 10.7427 33.8723ZM9.99723 67.4884C10.0798 67.515 10.0423 68.9917 9.98917 68.7946C9.97132 68.7299 9.93037 67.4669 9.99723 67.4884ZM70.8316 9.34781C70.1562 9.42322 72.2187 9.49695 72.8322 9.40891C73.1291 9.28204 70.9157 9.33914 70.8316 9.34781ZM14.7879 23.6277C14.911 23.6358 13.8377 25.3219 14.1478 24.5912C14.2216 24.4051 14.7395 23.6215 14.7879 23.6277ZM29.3684 11.7092C28.721 11.8939 29.6863 11.4174 30.6802 11.0591C31.6764 10.6949 32.6843 10.4499 31.9975 10.7367C31.8917 10.7528 29.4708 11.6525 29.3684 11.7092ZM38.2663 9.5889C38.0369 9.62482 38.1814 10.0145 39.1213 9.80862C39.2456 9.78159 38.6557 9.70212 38.7559 9.67245C38.8003 9.65732 39.8327 9.57706 40.4884 9.56766C40.8008 9.56155 41.0344 9.55847 41.067 9.56131C41.1856 9.57224 41.046 9.70428 41.1663 9.71909C41.2986 9.73566 42.7893 9.61966 43.5567 9.61838C45.0211 9.61621 45.1767 9.7261 45.2958 9.72647C45.6432 9.7272 46.2283 9.64917 46.9409 9.64926C50.4979 9.65015 55.9606 9.74332 58.7823 9.51028C56.2648 9.60385 53.868 9.50458 51.3692 9.47403C52.0981 9.70346 47.6917 9.29727 50.2669 9.56198C49.4179 9.52072 43.8556 9.48538 40.4884 9.48746C39.3333 9.48825 38.4822 9.56009 38.2689 9.58871C38.2681 9.58878 38.2672 9.58884 38.2663 9.5889ZM10.2698 110.988C10.4105 110.335 10.3788 113.686 10.2161 113.971C10.1935 113.528 10.2539 111.069 10.2698 110.988ZM10.6129 95.5251C10.6372 95.2138 10.9122 94.9184 10.7727 93.2862C10.7727 93.2847 10.7727 93.2832 10.7727 93.2817C10.732 92.8045 10.665 93.3483 10.6411 93.2609C10.6314 93.229 10.4946 91.7406 10.4726 92.9767C10.4388 94.8619 10.6771 93.1542 10.6801 94.1594C10.6803 94.2823 10.5314 96.1847 10.4988 96.0741C10.495 96.0626 10.5265 95.4902 10.5129 95.3957C10.4618 95.0386 10.376 95.2124 10.3719 95.1621C10.3614 94.9974 10.5077 91.989 10.3799 91.5515C10.3387 91.4094 10.2437 96.3473 10.2651 96.5397C10.2786 96.6614 10.517 96.6101 10.5404 96.7361C10.5521 96.8009 10.4628 98.7871 10.4847 99.045C10.491 99.1198 10.4978 99.1771 10.5035 99.219C10.4297 98.9185 10.435 100.717 10.5182 100.662C10.5509 100.631 10.532 99.3928 10.5263 99.3484C10.5239 99.329 10.5205 99.3121 10.5182 99.2964C10.6081 99.5527 10.6041 95.3611 10.7378 96.266C10.8111 95.0509 10.5416 96.4383 10.6129 95.5251ZM10.76 89.6845C10.7349 89.8099 10.7098 89.9355 10.6848 90.0609C10.7461 87.9337 10.6254 85.4791 10.6263 83.0286C10.6264 82.4069 10.7797 83.1221 10.7378 82.3071C10.7042 81.6542 10.562 80.9316 10.5303 81.2866C10.5224 81.3732 10.615 82.7025 10.6055 83.3678C10.5774 85.3321 10.4459 84.8359 10.4424 84.9507C10.4386 85.0775 10.5311 86.3137 10.527 86.9888C10.5163 88.6862 10.4356 89.4616 10.5411 91.7806C10.6277 90.4423 10.8159 91.1754 10.76 89.6845ZM20.4911 17.4594C20.5943 17.4713 21.4498 16.6359 21.8014 16.3799C21.6931 16.3538 20.8175 17.174 20.4911 17.4594ZM10.5874 217.831C10.4516 218.259 10.418 215.054 10.531 215.899C10.5561 216.086 10.5864 217.429 10.5874 217.831ZM10.5048 203.435C10.5424 203.006 10.6401 204.733 10.535 204.729C10.5013 204.727 10.4999 203.49 10.5048 203.435ZM10.6263 62.1878C10.6306 62.1067 10.6003 60.9275 10.5934 60.8906C10.4493 60.1093 10.5326 63.9906 10.6263 62.1878ZM10.672 185.934C10.583 187.428 10.5444 182.931 10.6579 184.305C10.6634 184.374 10.6763 185.862 10.672 185.934ZM10.6968 179.683C10.6921 180.041 10.7363 181.632 10.6948 181.653C10.628 181.684 10.5823 179.864 10.6968 179.683ZM11.2986 33.7132C11.4099 33.8849 11.6906 32.1247 11.8983 31.5359C11.7835 31.3495 11.4282 33.1055 11.2986 33.7132ZM10.7821 45.8472C10.9027 37.0049 10.5758 38.9543 10.7076 46.3738C10.8057 46.3845 10.7745 46.4053 10.7821 45.8472ZM11.1029 35.334C10.963 35.5866 10.8777 36.442 10.8348 37.0179C10.9069 36.9229 11.0166 35.738 11.1029 35.334ZM10.7975 221.647C10.9214 221.093 10.7687 218.637 10.7177 219.074C10.7066 219.175 10.7295 221.851 10.7975 221.647ZM10.7573 61.447C10.9061 61.6529 10.8454 58.9977 10.8123 58.7944C10.6794 57.975 10.7901 61.2319 10.7573 61.447ZM15.4123 23.9356C15.7199 23.6604 16.2986 22.6923 16.7368 22.1126C16.4539 22.3134 15.7337 23.4103 15.4123 23.9356ZM13.0897 28.6214C13.1068 28.5802 13.4977 27.6481 13.5153 27.6066C13.741 26.7982 12.6362 29.4417 13.0897 28.6214ZM10.999 284.57C11.0027 284.53 10.9953 283.625 10.9909 283.594C10.879 282.787 10.9019 285.502 10.999 284.57Z" fill="#BD97EC"/>
</svg>
