<svg width="273" height="218" viewBox="0 0 273 218" fill="none" xmlns="http://www.w3.org/2000/svg">
<path d="M272.412 35.9799C272.398 36.2677 272.432 37.4249 272.426 37.9259C272.574 37.358 272.463 34.9422 272.412 35.9799ZM261.697 87.3683C261.734 86.9527 261.77 86.537 261.807 86.1213C261.83 87.3026 261.803 88.8904 261.838 89.9865C261.844 90.1658 261.95 89.7007 261.954 90.1249C261.959 90.5493 261.815 90.4675 261.799 91.0846C261.782 91.7768 261.883 94.9465 261.88 96.0442C261.871 100.15 261.788 104.291 261.848 108.404C261.955 104.157 262.064 108.437 262.017 109.627C262.007 109.89 261.738 109.848 261.806 114.109C261.849 116.817 262.232 114.316 262.04 118.835C261.772 115.36 261.791 118.777 261.782 121.501C261.78 121.97 261.82 125.763 261.809 127.438C261.804 128.011 261.664 128.884 261.66 129.645C261.658 130.168 261.735 130.563 261.731 131.34C261.713 134.962 261.707 138.524 261.733 142.152C262.095 140.032 261.887 143.816 261.905 143.986C262.003 144.85 262.031 140.941 262.092 142.487C262.081 144.648 262.069 146.808 262.058 148.969C262.014 147.196 261.754 151.316 261.872 152.075C261.553 151.741 262.15 161.922 262.044 163.472C262.021 163.795 261.863 161.682 261.935 166.583C261.943 167.114 262.04 166.913 262.031 167.192C262.025 167.358 261.719 168.367 261.888 169.443C261.95 169.835 262.151 167.323 262.07 172.839C261.874 171.456 261.858 174.847 261.893 178C261.918 179.597 261.801 181.106 261.757 181.685C261.753 181.372 261.744 181.057 261.73 180.747C261.693 182.284 261.516 182.537 261.473 182.88C261.284 184.251 260.926 186.14 260.503 187.367C260 188.798 259.828 188.737 259.192 190.378C259.326 189.98 259.452 189.579 259.568 189.178C259.123 190.304 258.609 191.405 258.029 192.47C259.573 190.103 257.769 193.023 257.621 193.194C257.429 193.497 257.786 193.108 257.463 193.616C257.427 193.667 257.398 193.546 256.887 194.315C255.788 195.903 256.038 195.709 255.548 196.359C255.498 196.414 255.605 196.17 254.695 197.234C251.654 200.485 254.788 197.291 254.881 197.138C255.015 196.955 254.416 198.461 256.604 195.314C255.893 196.382 255.923 196.575 255.841 196.694C255.78 196.811 254.309 198.501 254.206 198.574C253.411 199.337 253.994 198.556 253.832 198.698C253.723 198.829 251.882 200.807 251.163 200.924C250.364 201.966 251.96 200.725 253.507 199.212C253.787 199.043 252.116 200.739 252.005 200.805C249.65 202.776 250.788 201.474 250.17 201.766C249.845 201.912 248.952 202.773 249.733 201.919C247.49 203.481 248.913 202.628 248.785 202.751C248.582 202.93 247.737 203.393 247.638 203.46C247.494 203.563 248.06 203.31 247.479 203.698C247.381 203.763 246.351 204.214 247.554 203.419C245.909 204.421 245.976 204.204 245.506 204.721C244.12 204.907 244.751 205.378 244.278 205.623C243.01 206.242 243.251 205.744 243.178 205.761C242.688 205.907 239.055 207.175 238.085 207.25C238.518 207.45 241.054 206.525 241.624 206.348C243.58 205.874 238.966 207.313 240.444 207.18C239.825 207.267 239.209 207.333 238.592 207.381C237.527 207.795 239.13 207.64 236.109 208.041C235.594 207.952 238.237 207.732 237.688 207.676C237.368 207.668 235.631 207.902 235.59 207.852C235.552 207.814 237.123 207.651 236.865 207.605C236.323 207.627 230.578 208.13 234.97 207.933C233.761 208.039 233.137 208.398 232.067 208.305C232.059 208.304 232.05 208.303 232.041 208.303C231.884 208.289 231.937 208.259 232.067 208.22C232.399 208.111 233.262 207.923 232.067 207.867C231.518 207.839 230.585 207.83 229.018 207.849C228.883 208.01 231.709 207.897 231.77 207.909C231.871 207.927 231.368 208.29 231.28 208.308C230.992 208.367 224.089 208.173 222.603 208.355C223.139 208.145 217.432 208.318 216.75 208.254C216.579 208.236 217.218 208.107 217.035 208.094C215.879 208.013 212.926 208.242 211.481 208.248C209.877 208.255 210.102 208.144 210.009 208.144C209.328 208.15 209.872 208.226 209.455 208.225C208.843 208.225 204.415 208.241 204.191 208.225C204.127 208.22 204.833 208.093 203.89 208.069C203.723 208.065 203.844 208.215 201.012 208.15C197.584 208.072 203.387 207.963 201.964 207.806C199.773 208.03 199.835 207.808 199.236 207.825C199.021 207.832 197.49 208.021 195.84 208.009C197.033 208.039 198.195 208.07 199.419 208.101C198.205 208.134 195.981 208.093 195.003 208.13C194.53 208.148 194.921 208.304 193.891 208.299C193.67 208.298 192.811 207.92 195.499 208.089C195.713 207.954 194.437 208.042 193.84 208.004C193.749 207.998 193.394 207.772 192.629 207.913C192.461 207.947 194.393 208.605 189.33 208.129C189.166 208.113 189.735 208.031 189.575 208.014C189.467 208.002 188.166 208.036 188.021 208.024C187.873 208.012 188.503 207.922 188.328 207.904C187.428 207.813 186.242 208.169 188.102 208.142C187.482 208.186 186.859 208.23 186.234 208.274C186.909 208.006 185.233 208.199 184.397 208.191C178.932 208.138 182.591 207.963 181.651 207.872C180.128 207.727 181.297 208.187 179.024 208.049C178.824 208.036 181.528 207.841 176.225 207.951C177.01 207.958 177.776 207.966 178.57 207.974C178.107 208.234 175.752 207.956 175.564 207.952C173.474 207.917 174.896 208.01 171.769 207.876C171.487 207.864 170.884 207.928 170.298 207.896C167.848 207.765 173.54 207.816 173.706 207.711C173.769 207.66 167.651 207.673 167.439 207.697C166.548 207.806 170.213 207.745 169.513 207.88C169.269 207.928 160.524 207.829 158.767 207.882C156.729 207.943 155.827 208.295 155.814 207.899C155.247 208.288 154.745 208.023 154.487 208.025C151.367 208.061 151.344 208.065 148.662 208.028C148.073 208.02 147.575 208.138 147.366 208.118C147.244 208.106 147.472 207.98 146.876 207.941C146.059 207.888 141.033 208.017 140.683 208.087C140.312 208.157 142.784 208.117 142.342 208.232C140.547 208.244 138.844 208.215 137.034 208.227C136.283 208.233 136.669 208.313 136.344 208.315C136.208 208.316 133.602 208.245 133.72 208.215C133.981 208.147 141.978 208.193 139.872 208.052C139.468 208.025 138.034 208.21 138.262 207.985C131.105 208.036 123.987 208.087 116.834 208.138C120.943 208.307 125.536 208.156 129.856 208.172C130.446 208.174 132.433 208.152 132.191 208.266C128.542 208.295 123.996 208.236 120.484 208.31C120.372 208.313 120.785 208.415 120.364 208.431C119.572 208.461 117.015 208.296 116.586 208.339C116.513 208.349 117.966 208.484 117.524 208.569C116.39 208.789 116.102 208.302 115.125 208.308C114.371 208.313 109.278 208.548 108.02 208.399C106.678 208.241 111.755 208.307 111.386 208.178C107.947 208.048 104.453 208.187 101.201 208.17C101.143 208.17 101.64 208.068 100.915 208.054C99.6532 208.03 99.3213 208.174 98.7064 208.197C98.0435 208.221 95.6954 208.201 95.3808 208.253C95.3408 208.26 95.8168 208.403 95.889 208.407C96.9122 208.466 97.2753 208.28 97.3683 208.278C97.7179 208.271 98.0613 208.342 98.38 208.338C98.9047 208.331 99.1936 208.265 99.8857 208.259C100.363 208.255 99.9024 208.381 100.362 208.375C100.532 208.373 102.352 208.084 102.521 208.379C102.582 208.471 87.6665 208.59 86.1735 208.516C87.4515 208.481 88.7327 208.445 90.011 208.41C87.4128 208.496 84.2948 208.261 84.0742 208.609C74.4445 208.637 64.8208 208.666 55.1918 208.694C53.4749 208.724 54.4142 208.947 51.5839 208.882C52.3153 208.811 53.0471 208.74 53.7793 208.669C52.3205 208.719 45.9163 208.816 44.8649 208.77C44.7303 208.764 44.5421 208.562 42.9363 208.544C41.5119 208.529 41.2839 208.681 40.5235 208.71C39.8853 208.734 39.1695 208.694 38.9804 208.702C38.8349 208.709 38.779 208.802 38.4277 208.818C37.318 208.868 38.2171 208.607 37.1162 208.906C37.3841 208.918 37.6521 208.929 37.9203 208.941C36.5811 208.984 34.7559 209.12 36.725 209.187C37.0637 209.199 36.7728 209.109 37.0255 209.109C46.8885 209.126 39.0308 209.3 35.5523 209.161C34.658 209.294 29.6991 209.212 29.5223 209.239C29.2914 209.277 30.1462 209.383 29.0258 209.474C28.7834 209.494 22.1384 209.419 24.5307 209.596C25.0222 209.632 28.2132 209.594 28.9866 209.599C27.1662 209.881 22.9409 209.477 22.4596 209.488C20.5302 209.532 26.1608 209.732 21.818 209.764C18.4731 209.789 21.6127 209.602 20.3269 209.521C19.6016 209.476 15.8362 209.683 15.9405 209.415C14.6518 209.387 15.4061 209.529 15.247 209.539C15.0909 209.548 12.5302 209.467 11.7049 209.524C11.6046 209.531 11.9205 209.67 11.8168 209.682C11.6136 209.701 9.16138 209.673 9.06439 209.662C9.0018 209.653 9.5853 209.531 9.34537 209.502C9.06631 209.468 6.71188 209.496 6.57434 209.462C6.39569 209.409 9.30655 209.444 8.82065 209.307C7.49423 209.341 5.27396 209.25 4.39011 209.141C4.60754 209.172 5.91544 209.177 6.371 209.165C6.15482 208.966 3.34937 208.968 4.30838 209.127C3.6994 209.042 4.11514 208.997 3.77234 208.916C3.68225 208.896 2.81845 208.892 2.6524 208.857C2.63055 208.85 3.52155 208.775 3.34317 208.734C3.01813 208.661 0.407867 208.678 0.196747 208.697C-0.403015 208.751 1.72012 208.817 1.89899 208.902C1.92337 208.915 0.115845 209.08 0.0893555 209.094C-0.0170898 209.251 1.9942 209.138 1.76471 209.279C1.26651 209.309 0.769073 209.338 0.272461 209.368C2.1843 209.511 5.75983 209.438 6.68854 209.6C3.80869 209.552 0.833282 209.557 0.839874 209.923C0.841492 210.077 2.06989 210.167 2.02271 210.206C1.84052 210.346 0.137054 210.194 0.0752563 210.201C0.0235596 210.21 0 210.218 0 210.226C0 210.226 0 210.226 0 210.226C-0.00137329 210.308 2.42804 210.367 2.55151 210.405C2.75632 210.471 1.67264 210.745 1.67459 210.806C1.71155 210.818 3.44687 210.883 2.8613 210.988C2.26782 211.095 0.753082 211.097 0.700592 211.109C0.410217 211.172 3.0618 211.231 3.14294 211.268C3.1843 211.287 1.75787 211.405 1.71701 211.438C1.68124 211.472 2.76437 211.546 3.19254 211.652C3.51144 211.732 2.58292 211.792 2.74622 211.805C2.86127 211.813 5.3793 211.812 5.50507 211.826C5.68988 211.846 5.09857 211.941 5.18472 211.965C5.30655 211.999 6.12234 211.964 6.01627 211.999C5.93402 212.026 2.78021 212.352 2.80289 212.439C2.83728 212.588 6.17441 212.246 3.07031 212.833C3.04849 212.837 2.29459 212.795 2.27377 212.798C1.8092 212.906 4.22278 213.073 1.27206 213.044C6.76782 213.231 1.95401 213.267 2.76746 213.518C3.08035 213.614 5.21817 213.654 5.22919 213.668C5.02087 213.79 4.33914 213.695 4.10776 213.755C3.97952 213.789 5.89514 213.918 5.46411 214.002C5.23987 214.045 3.20963 214.029 3.12698 214.038C2.32553 214.117 3.30835 214.203 3.13232 214.259C3.01486 214.297 1.79431 214.3 1.76294 214.307C1.711 214.321 3.36853 214.474 3.71555 214.528C3.97861 214.569 2.99124 214.634 3.17484 214.652C4.27902 214.76 6.64105 214.485 4.367 214.87C4.22812 214.894 3.36996 214.885 3.34497 214.889C2.81491 214.999 4.39404 215.008 4.67792 215.097C5.16373 215.252 2.89011 215.166 4.78104 215.274C3.36212 215.375 2.57327 215.371 0.9245 215.342C5.49719 215.421 7.12778 215.82 2.03333 215.81C3.64969 215.804 3.47189 216.029 3.95508 216.033C4.25455 216.035 6.61325 215.811 5.53177 216.313C5.39548 216.376 3.96524 216.296 4.41318 216.425C7.84995 216.392 4.48483 216.506 4.48248 216.523C4.53888 216.819 12.8903 216.577 14.347 216.611C16.0253 216.65 17.4916 216.883 17.8572 216.883C19.0496 216.883 18.0601 216.765 18.3267 216.722C18.5948 216.678 21.9966 216.905 22.169 216.893C22.8298 216.843 22.1591 216.702 22.2278 216.695C23.0483 216.609 27.5887 216.719 28.8746 216.687C28.8342 216.778 26.2684 216.785 27.8703 216.931C29.7369 217.101 29.8458 216.7 29.8943 216.683C38.4245 216.686 46.9663 216.69 55.5071 216.694C55.4064 216.907 49.8126 216.746 49.6892 216.775C48.9424 216.941 58.3746 216.938 59.5304 216.863C58.6514 216.909 57.7727 216.955 56.8947 217.001C58.3923 217.246 61.7198 216.927 63.8872 217.036C64.5878 217.071 63.2424 217.166 63.2703 217.172C64.0576 217.267 65.3214 217.194 64.3765 217.066C66.2993 217.189 66.0185 217.053 67.4947 217.043C67.5708 217.043 66.9368 217.142 68.1051 217.183C68.6525 217.202 71.5725 217.202 71.9626 217.289C72.1233 217.325 70.6432 217.709 70.4603 217.379C67.284 217.54 69.4454 217.228 68.2116 217.236C68.0226 217.238 68.457 217.422 65.3518 217.335C65.9428 217.668 69.5199 217.419 70.1337 217.459C71.3984 217.542 66.186 217.714 65.2312 217.455C65.6778 217.714 64.8616 217.49 63.7011 217.5C62.4308 217.512 62.9852 217.589 62.2968 217.59C60.4133 217.592 61.1941 217.408 59.6422 217.574C61.1547 217.062 56.9862 217.506 55.7746 217.64C57.7478 217.666 59.7238 217.692 61.7018 217.718C61.5887 217.745 61.4756 217.772 61.3625 217.798C61.8831 217.795 62.4056 217.791 62.9247 217.787C62.8414 217.761 62.7581 217.736 62.6748 217.71C65.3557 217.877 66.0112 217.689 66.2298 217.687C69.0467 217.665 72.3012 217.667 75.1485 217.666C75.5757 217.666 75.2826 217.834 78.3966 217.702C79.3901 217.661 78.452 217.531 79.5785 217.55C80.9874 217.904 80.9607 217.622 81.3796 217.621C82.5814 217.621 83.3158 217.709 83.4268 217.71C84.9114 217.724 87.0839 217.709 88.7172 217.722C88.7478 217.723 87.8987 217.832 88.9587 217.8C89.3322 217.788 92.6659 217.324 95.5834 217.476C94.8225 217.507 94.0654 217.538 93.3076 217.57C94.1939 217.526 100.456 217.643 98.9246 217.767C97.9882 217.843 95.6982 217.544 95.4466 217.831C97.531 217.745 109.023 217.874 109.909 217.807C110.033 217.798 109.273 217.704 109.444 217.692C109.573 217.683 112.209 217.705 112.559 217.67C112.768 217.648 111.602 217.591 111.697 217.557C111.781 217.533 115.071 217.493 115.258 217.61C114.452 217.564 112.18 217.605 113.371 217.703C113.525 217.715 114.318 217.64 114.504 217.655C116.231 217.799 111.069 217.764 110.27 217.766C113.523 217.915 118.507 217.739 122.275 217.836C123.791 217.739 120.026 217.687 121.742 217.606C125.3 217.439 122.689 217.741 122.8 217.753C123.686 217.852 126.68 217.325 126.688 217.726C127.983 217.666 127.565 217.615 129.389 217.668C129.149 217.695 128.909 217.723 128.669 217.751C130.701 217.983 134.949 217.397 134.641 217.353C133.773 217.233 131.561 217.42 131.368 217.415C131.086 217.408 130.314 217.002 127.221 217.365C125.957 217.093 132.116 217.181 129.314 216.995C131.199 217.026 138.982 216.836 140.091 216.956C140.223 216.971 139.606 217.243 141.515 217.105C142.421 217.039 140.236 217.036 140.651 216.974C141.948 216.784 159.386 216.906 162.706 216.916C162.919 216.916 162.841 216.832 163.051 216.832C163.681 216.835 166.081 216.96 167.241 216.922C164.827 217.078 169.516 217.09 170.686 217.073C172.49 217.047 172.39 216.898 173.172 216.867C176.182 216.745 180.848 217.097 183.176 216.768C183.035 217.095 187.225 216.608 189.118 216.605C190.6 216.602 192.722 216.819 190.743 216.95C193.301 216.935 196.032 216.996 198.404 217.016C198.807 217.02 198.252 216.923 198.94 216.932C199.002 216.933 199.089 217.028 199.676 217.038C204.498 217.12 202.144 216.919 203.044 216.86C203.542 216.827 203.908 216.81 204.177 216.805C201.435 216.786 198.111 216.749 197.285 216.746C198.006 216.537 203.511 216.787 205.1 216.73C205.156 216.728 204.96 216.613 205.017 216.612C205.018 216.612 205.02 216.612 205.021 216.612C205.643 216.603 209.462 216.646 208.674 216.783C208.464 216.82 206.718 216.82 204.592 216.807C205.167 216.833 204.738 216.962 204.839 216.968C206.076 217.032 209.037 216.906 210.063 216.889C210.3 216.885 210.282 216.968 210.321 216.968C211.288 216.949 210.895 216.713 211.887 216.957C213.631 216.662 208.62 216.913 208.99 216.722C209.219 216.574 220.349 216.653 220.287 216.885C220.324 216.861 220.475 216.83 220.782 216.795C221.422 216.717 224.59 216.741 225.095 216.784C225.184 216.792 225.148 217.018 225.259 217.02C225.509 217.025 229.319 216.848 230.701 216.981C229.951 217.013 229.192 217.044 228.424 217.076C233.013 217.078 232.255 217.145 230.771 217.212C230.695 217.213 230.622 217.221 230.55 217.222C229.382 217.272 227.839 217.32 227.815 217.338C227.768 217.376 230.251 217.405 232.067 217.385C233.711 217.37 234.953 217.219 234.217 217.176C234.089 217.171 232.866 217.245 232.067 217.237C231.48 217.236 231.167 217.218 231.967 217.15C231.99 217.148 232.024 217.146 232.067 217.145C232.682 217.148 234.889 217.079 235.015 217.04C235.591 216.927 233.469 217.011 232.067 216.901C231.39 216.85 230.897 216.796 231.113 216.74C231.414 216.777 231.735 216.8 232.067 216.814C233.207 216.858 234.473 216.765 235.637 216.686C236.34 216.638 236.531 216.724 236.618 216.717C237.924 216.584 237.177 216.557 237.611 216.502C237.841 216.494 240.436 216.267 239.883 216.013C248.151 214.025 242.311 216.039 237.098 216.715C238.762 216.664 241.935 215.908 243.332 215.483C243.835 215.34 243.574 215.548 244.427 215.294C246.283 215 254.016 210.87 255.65 209.253C254.509 210.049 254.766 209.707 255.625 209.073C256.477 208.426 255.869 209.109 256.046 208.995C256.285 208.93 260 205.524 260.526 204.866C257.809 207.51 258.359 206.831 260.572 204.524C260.23 204.839 259.884 205.147 259.533 205.448C260.936 204.191 263.246 200.997 263.867 200.119C263.971 199.986 263.709 200.546 263.768 200.47C264.388 199.74 265.964 196.918 266.042 196.79C266.135 196.694 265.528 197.937 265.82 197.515C265.883 197.426 266.422 196.203 267.022 195.039C267.245 194.606 267.208 194.913 267.266 194.805C267.738 193.897 267.357 194.384 268.103 192.674C268.627 191.414 269.141 190.505 269.614 188.666C267.868 194.652 269.566 189.693 270.2 187.15C270.292 186.744 270.448 187.14 270.813 184.655C269.445 189.818 271.017 183.15 271.019 181.737C271.024 181.661 270.912 181.625 270.963 180.945C270.966 180.887 271.045 180.977 271.091 180.341C271.162 179.285 271.174 178.533 271.177 178C271.186 175.773 271.112 177.97 271.046 177.125C271.012 176.689 271.127 174.064 271.13 173.357C271.13 173.195 271.046 173.27 271.049 172.641C271.055 171.528 271.145 170.532 271.152 169.797C271.152 169.712 271.02 169.708 271.063 168.316C271.075 167.925 271.122 167.485 271.16 168.041C271.286 169.885 271.068 173.381 271.194 175.465C271.308 177.365 271.318 171.374 271.319 171.062C271.32 170.948 271.254 172.118 271.241 170.929C271.23 169.914 271.459 168.059 271.409 166.546C271.405 166.431 271.211 165.222 271.2 165.278C271.191 165.328 271.149 167.184 271.093 166.915C271.086 166.883 271.088 165.703 271.046 165.549C270.995 165.36 270.494 164.852 270.482 164.6C270.451 163.953 270.565 164.374 270.557 163.956C270.54 163.059 270.392 159.949 270.566 159.848C270.576 160.362 270.586 160.875 270.597 161.389C270.614 158.53 270.688 159.749 270.721 159.344C270.756 158.908 270.604 159.031 270.589 158.067C270.586 157.857 270.618 153.825 270.682 153.898C270.58 156.128 270.769 155.301 270.772 155.404C270.784 155.795 270.678 156.294 270.681 156.818C270.697 160.505 270.864 156.787 270.907 157.657C270.921 157.957 270.831 158.553 270.836 158.681C270.851 159.094 270.969 159.1 270.959 159.376C270.937 160.019 270.77 159.268 270.761 159.319C270.657 159.894 270.787 162.145 270.969 160.744C271.034 161.585 270.813 161.684 270.901 162.351C271.076 163.677 271.032 161.69 271.061 161.152C271.165 159.22 271.081 158.647 271.11 155.913C271.12 154.929 271.227 153.763 271.233 153.306C271.237 153.018 270.863 150.301 271.448 150.221C271.391 149.165 271.006 147.508 271.024 146.42C271.04 145.443 271.247 145.754 271.255 145.662C271.267 145.523 271.251 144.341 271.28 143.942C271.315 143.474 271.394 143.707 271.426 142.964C271.506 141.116 271.295 141.164 271.281 140.974C271.122 138.768 271.423 139.734 271.447 139.245C271.469 138.789 271.353 132.404 271.429 131.06C271.387 131.607 271.345 132.154 271.302 132.701C271.171 131.722 271.385 130.684 271.149 130.666C271.531 130.468 271.276 128.447 271.286 127.84C271.29 127.601 271.355 127.62 271.357 127.321C271.369 126.151 271.317 123.515 271.35 122.881C271.492 120.138 271.728 127.152 271.742 127.704C271.738 126.599 271.823 120.345 272.007 123.22C272.035 123.664 271.864 124.451 271.858 124.701C271.814 126.39 271.967 125.061 271.981 125.194C272.005 125.419 271.857 126.531 271.874 126.824C271.88 126.922 272.018 126.292 272.021 127.903C272.156 127.11 272.046 122.583 272.078 121.989C272.089 121.777 272.376 123.103 272.097 119.228C272.124 119.273 272.151 119.318 272.177 119.363C272.188 117.206 272.199 115.048 272.21 112.89C272.149 113.125 272.025 114.336 272.052 112.811C272.067 111.932 272.203 112.582 272.207 112.502C272.245 111.714 272.2 97.7618 272.215 95.058C272.22 94.1383 272.33 91.5745 272.332 91.379C272.343 90.2101 272.271 86.0708 272.287 85.2451C272.297 84.7294 272.411 85.2196 272.405 84.759C272.4 84.3309 272.29 84.7744 272.285 84.6473C272.245 83.5939 272.39 75.5921 272.286 73.692C272.317 74.8533 272.097 80.6485 272.019 80.5319C272.008 80.5067 271.924 79.0983 271.965 78.8078C271.869 78.3278 272.16 76.6797 272.103 75.7833C272.097 75.682 271.934 76.0812 271.904 74.4813C271.894 73.9302 272.021 72.4872 271.878 71.0348C271.947 68.9321 271.735 57.8774 271.911 57.1189C271.92 57.0965 271.98 58.6531 272.052 57.6014C272.148 56.2032 271.826 57.4589 271.798 55.8293C271.794 55.5838 271.826 51.05 271.846 50.9016C272.027 49.5284 272.1 53.4901 272.121 53.4346C272.174 53.2965 272.206 50.0047 272.194 49.871C272.181 49.7436 271.941 52.4282 272.032 49.2022C272.061 49.5718 272.089 49.9413 272.118 50.3109C272.174 48.7937 272.008 48.6491 271.998 48.2816C271.966 47.139 272.218 45.9029 271.907 44.0723C271.824 43.5882 271.732 44.3918 271.72 44.3312C271.609 43.7497 271.906 43.0079 271.684 42.1334C271.668 42.0676 271.535 44.1026 271.535 40.5458C271.556 40.7906 271.577 41.0354 271.598 41.2802C271.646 40.7787 271.674 37.1775 271.663 36.693C271.63 35.2778 271.477 36.512 271.496 35.0895C271.705 36.0019 271.732 31.6761 271.552 31.9249C271.778 31.3208 271.604 27.6461 271.598 25.9187C271.595 24.8287 271.694 22.6055 271.682 22.2592C271.668 21.8374 271.514 21.9656 271.48 21.2038C271.47 20.9866 271.583 18.7189 271.423 16.7284C271.392 16.3426 271.131 15.5324 271.065 16.2494C270.953 17.4767 271.164 19.7984 271.01 19.7688C270.844 19.7339 270.943 16.6069 270.921 15.7652C270.821 11.8793 270.645 14.1232 270.592 14.0233C270.463 13.7641 270.467 11.6409 270.455 11.5523C270.403 11.1851 270.301 12.6897 270.222 12.7124C270.119 12.7398 269.934 10.6932 269.899 11.1585C269.85 11.8245 270.004 13.7053 269.997 13.8246C269.897 15.3769 269.66 13.2491 269.543 12.6627C269.507 12.4849 269.448 13.1932 269.438 13.0459C269.278 10.796 269.772 12.5716 269.739 11.0751C269.709 9.73996 269.553 11.4578 269.545 11.4068C269.535 11.3409 269.527 9.74453 269.471 9.49462C269.444 9.37146 269.14 13.5207 269.004 13.3474C269.034 12.0235 269.064 10.6997 269.094 9.37577C268.917 9.27198 269.047 11.1762 269.029 11.3731C268.992 11.7696 268.902 10.664 268.846 10.7115C268.811 10.7369 268.683 12.0345 268.631 10.8623C268.613 10.4594 268.737 9.61386 268.61 8.14649C268.448 13.2531 268.348 9.71432 268.285 9.5638C268.222 9.41635 268.074 11.8543 268.1 8.89506C267.755 8.76675 267.991 8.95885 267.93 9.79972C267.856 10.8298 267.742 8.44907 267.828 12.2139C267.667 11.9997 267.678 8.97367 267.665 8.81346C267.654 8.67512 267.574 9.34776 267.547 9.10792C267.235 6.27107 267.377 8.21956 267.178 7.39793C267.16 7.32486 267.086 4.64359 267.057 6.68484C267.004 10.4037 267.233 11.9579 266.743 12.5829C266.531 9.83217 266.847 6.49928 266.852 5.66311C266.86 4.38322 266.76 5.70906 266.732 5.55135C266.723 5.49657 266.731 4.39365 266.723 4.37884C266.35 3.59239 266.717 9.28878 266.652 11.0822C266.596 10.6015 266.54 10.1208 266.484 9.64007C266.482 10.2923 266.48 10.9444 266.478 11.5966C266.365 8.48963 266.435 11.4871 266.132 12.2618C266.064 12.4358 266.181 10.3946 265.992 12.723C265.948 11.0057 265.887 11.5534 265.972 9.99839C265.851 10.0385 265.714 13.5373 265.652 14.9173C265.515 10.0421 265.96 12.8222 265.725 8.60769C265.875 7.82615 265.846 9.83782 265.871 9.67378C265.96 9.08524 265.818 7.70554 266.13 6.04093C266.182 5.7699 266.339 6.91677 266.332 5.21964C266.331 5.03194 266.196 3.95054 266.186 3.96553C266.081 4.10889 266.12 5.17901 266.076 5.22319C266.034 5.26465 266.059 4.07076 266.048 4.06664C265.916 4.02996 265.997 5.06278 265.956 4.91277C265.866 4.58881 265.581 0.294407 265.664 5.89903C265.814 1.24379 265.811 5.30301 265.753 7.11589C265.739 7.5782 265.66 7.69528 265.632 8.35403C265.597 9.2014 265.635 10.1932 265.62 10.6317C265.604 11.1032 265.417 8.42376 265.473 12.2991C265.287 10.3268 265.485 6.84305 265.355 4.90567C265.091 0.996947 265.035 7.631 265.009 8.3221C265.002 8.50623 264.896 7.88894 264.889 8.01168C264.879 8.21239 264.928 11.9775 264.84 12.3487C264.752 12.719 264.844 10.9697 264.752 10.8534C264.69 10.7746 264.58 15.3166 264.538 12.8578C264.509 11.1631 264.758 8.03939 264.49 7.51323C264.468 10.0055 264.446 12.4977 264.424 14.99C264.322 13.6259 264.22 12.2618 264.118 10.8977C264.086 13.695 264.201 16.1133 264.055 18.7701C263.729 12.3859 263.795 20.8429 263.755 20.9359C263.731 20.9671 263.466 18.4542 263.418 18.0499C263.316 20.2766 263.266 27.0426 262.939 23.0841C263.013 23.8026 262.831 25.5425 262.817 25.5196C262.673 25.2986 262.766 21.5037 262.636 22.1226C262.484 22.8399 262.69 23.845 262.673 24.9484C262.588 30.6106 261.834 29.0572 261.953 34.7347C261.926 34.6218 261.899 34.5088 261.872 34.3959C261.915 40.5671 261.958 46.7384 262.001 52.9096C261.77 55.3241 261.63 61.75 261.655 64.9061C261.66 65.5417 261.781 68.6618 261.802 68.8973C261.843 69.3333 261.859 66.9358 261.935 68.0192C261.95 68.2479 262.001 73.5305 261.872 73.1527C261.857 72.5608 261.922 70.7082 261.892 70.405C261.675 68.2752 261.848 84.5606 261.761 85.3674C261.719 85.0068 261.677 84.6461 261.635 84.2854C261.656 85.313 261.676 86.3407 261.697 87.3683ZM272.047 40.1467C272.176 39.53 272.079 37.9842 272.115 37.0709C272.166 35.809 272.664 33.6639 272.165 34.5875C272.126 36.4406 272.086 38.2936 272.047 40.1467ZM272.24 67.2298C272.17 65.9872 271.891 66.951 272.007 67.9695C272.02 68.0825 272.333 68.9111 272.24 67.2298ZM272.107 54.2027C272.104 54.255 272.111 55.3288 272.115 55.3663C272.227 56.3294 272.204 53.0918 272.107 54.2027ZM271.964 117.134C271.976 115.764 272.23 116.756 272.125 117.607C272.119 117.661 271.964 117.224 271.964 117.134ZM271.958 116.16C271.731 115.096 272.191 112.955 272.144 114.657C272.14 114.822 271.969 116.209 271.958 116.16ZM272.129 62.8005C272.042 62.9404 272.084 64.2222 272.105 64.7695C272.184 64.7546 272.119 63.3373 272.129 62.8005ZM272.105 95.2992C272.036 95.3536 272.04 90.8984 272.13 90.595C272.092 91.2981 272.166 95.248 272.105 95.2992ZM272.009 106.725C271.997 106.612 272.015 105.073 272.075 105.117C272.154 105.869 272.062 107.233 272.009 106.725ZM272.013 129.433C271.998 129.517 271.614 128.364 271.866 131.096C271.903 131.496 272.004 130.064 272.017 130.207C272.044 130.505 272.057 130.741 272.059 130.931C272.091 129.659 272.106 128.337 272.082 128.209C271.973 127.609 272.019 129.396 272.013 129.433ZM271.727 141.355C271.664 141.618 271.697 143.291 271.723 143.672C271.728 143.738 271.893 143.452 271.88 144.206C271.87 144.811 271.702 143.907 271.729 145.086C271.756 146.277 271.876 144.686 271.884 144.79C271.896 144.929 271.82 146.772 271.918 146.714C271.991 146.672 271.942 144.698 271.957 144.21C271.977 143.585 272.098 144.342 272.072 143.298C272.056 142.641 271.843 143.005 271.832 142.867C271.823 142.751 271.946 140.456 271.727 141.359C271.727 141.358 271.727 141.357 271.727 141.355ZM272.05 131.275C272.057 131.179 272.061 131.067 272.059 130.931C272.056 131.046 272.053 131.161 272.05 131.275ZM271.954 43.737C272.019 44.3829 272.103 42.4657 272.017 41.7396C271.948 41.7271 271.943 43.6341 271.954 43.737ZM271.876 132.454C271.93 134.344 272.003 132.954 272.05 131.275C272.01 131.808 271.859 131.82 271.876 132.454ZM271.965 78.8078C271.981 78.8874 272.006 78.938 272.046 78.9443C272.002 78.7349 271.978 78.7161 271.965 78.8078ZM272.037 83.2158C271.914 84.7269 271.919 81.6567 272.007 81.6761C272.041 81.6852 272.042 83.1553 272.037 83.2158ZM271.976 118.89C271.964 118.751 271.59 120.899 271.871 117.781C271.915 119.445 271.956 117.689 271.988 117.715C272.083 117.783 271.992 120.579 272.033 121.197C271.864 121.682 272.016 119.346 271.976 118.893C271.976 118.892 271.976 118.891 271.976 118.89ZM271.817 162.842C271.916 162.463 271.884 161.262 271.878 160.451C271.78 160.83 271.811 162.031 271.817 162.842ZM89.988 217.831C95.5427 217.923 96.2596 217.521 91.1801 217.68C91.0807 217.683 89.6507 217.791 89.988 217.831ZM137.679 217.727C138.202 217.552 136.47 217.524 135.326 217.596C135.067 217.613 134.11 217.79 135.203 217.825C135.169 217.612 136.856 217.531 137.679 217.727ZM271.764 133.522C271.647 134.072 271.731 135.766 271.748 136.658C271.844 136.114 271.801 134.311 271.764 133.522ZM108.247 217.622C108.832 217.609 109.226 217.761 109.125 217.774C108.674 217.832 107.58 217.709 108.247 217.622ZM271.746 128.055C271.676 127.978 271.609 130.221 271.782 130.377C271.769 129.898 271.79 128.111 271.746 128.055ZM271.765 161.313C271.729 160.965 271.666 162.768 271.701 163.314C271.775 163.27 271.788 161.541 271.765 161.313ZM117.673 217.674C118.193 217.66 119.508 217.656 119.654 217.718C119.834 217.795 117.907 217.769 117.673 217.674ZM20.087 217.541C20.0199 217.568 22.0554 217.768 22.9616 217.717C24.6749 217.621 20.1586 217.521 20.087 217.541ZM102.698 217.543C101.048 217.688 102.88 217.548 102.809 217.7C101.698 217.706 98.9326 217.713 100.834 217.563C101.204 217.534 102.181 217.553 102.698 217.543ZM104.228 217.492C104.405 217.542 105.599 217.698 104.567 217.686C104.09 217.681 103.32 217.508 104.228 217.492ZM32.6624 217.608C34.1463 217.473 27.3481 217.546 27.1512 217.57C27.0479 217.582 26.9803 217.594 26.9418 217.604C26.6919 217.561 25.4096 217.553 25.2615 217.662C25.6454 217.653 26.6954 217.662 26.8176 217.65C26.8702 217.645 26.9094 217.64 26.9365 217.635C27.3878 217.729 32.3858 217.634 32.6624 217.608ZM43.9215 217.469C42.2239 217.27 41.9247 217.609 42.0706 217.62C43.9171 217.759 42.7129 217.509 42.7695 217.497C42.8983 217.478 44.2111 217.593 43.9162 217.469C43.9179 217.469 43.9198 217.469 43.9215 217.469ZM34.9683 217.553C34.8983 217.548 33.4751 217.559 33.4168 217.564C32.2503 217.678 36.2781 217.649 34.9683 217.553ZM271.49 150.342C271.523 151.361 271.648 150.361 271.603 149.684C271.599 149.628 271.46 149.442 271.49 150.342ZM105.043 217.526C105.284 217.502 111.319 217.414 110.959 217.602C110.447 217.58 103.578 217.676 105.043 217.526ZM150.23 217.48C149.156 217.482 150.327 217.659 150.899 217.593C151.111 217.568 150.501 217.48 150.23 217.48ZM271.585 125.031C271.682 123.924 271.355 124.153 271.467 125.112C271.472 125.15 271.581 125.074 271.585 125.031ZM141.706 217.582C145.408 217.69 144.506 217.127 139.741 217.317C139.89 217.342 140.039 217.367 140.188 217.392C134.678 217.477 139.817 217.432 141.157 217.463C141.668 217.475 141.24 217.569 141.702 217.583C141.703 217.583 141.704 217.583 141.706 217.582ZM155.837 217.469C159.354 217.07 152.644 217.33 150.681 217.278C152.571 217.443 155.016 217.418 151.684 217.587C156.554 217.62 154.522 217.461 154.718 217.447C154.948 217.432 155.687 217.487 155.837 217.469ZM146.503 217.467C146.299 217.455 144.757 217.536 144.199 217.523C144.98 217.66 147.859 217.546 146.503 217.467ZM55.7285 217.562C55.6001 217.455 55.2861 217.376 54.0673 217.416C54.4454 217.47 55.2203 217.516 55.7285 217.562ZM271.484 38.976C271.477 38.1377 271.436 36.4685 271.549 36.9804C271.558 37.0364 271.547 38.9734 271.484 38.976ZM122.608 217.439C122.79 217.426 127.385 217.417 125.798 217.535C125.323 217.571 121.13 217.556 122.608 217.439ZM98.7277 217.453C99.1138 217.452 100.68 217.472 100.713 217.497C100.819 217.584 98.8966 217.536 98.7277 217.453ZM271.375 34.7471C271.364 34.6367 271.383 32.0763 271.435 32.3578C271.533 32.892 271.413 35.1255 271.375 34.7471ZM271.239 154.051C271.235 154.265 271.351 154.548 271.353 154.622C271.354 154.796 271.31 158.714 271.459 157.217C271.484 156.968 271.426 151.33 271.412 150.597C271.252 150.314 271.404 152.722 271.388 153.308C271.384 153.411 271.251 153.477 271.24 154.049C271.24 154.05 271.239 154.05 271.239 154.051ZM49.3842 217.449C49.2121 217.348 44.6085 217.281 44.6588 217.404C46.2399 217.419 47.81 217.434 49.3842 217.449ZM51.7242 217.433C52.7078 217.361 50.4041 217.337 49.7264 217.369C49.7189 217.437 51.5806 217.443 51.7242 217.433ZM107.465 217.074C107.928 217.099 106.505 217.247 106.823 217.275C107.027 217.293 108.061 217.238 108.39 217.284C108.484 217.299 107.43 217.438 107.125 217.432C106.692 217.424 107.112 217.314 106.639 217.314C105.069 217.311 103.671 217.389 102.199 217.388C102.067 217.387 103.095 217.31 101.964 217.311C101.789 217.311 100.738 217.426 99.3821 217.409C96.3864 217.053 94.1827 217.403 90.3837 217.274C90.5275 217.241 93.3693 217.151 93.5362 217.147C96.7197 217.089 102.398 217.082 105.739 217.081C106.594 217.081 106.179 217.157 106.547 217.159C106.837 217.161 106.492 217.022 107.465 217.074ZM271.407 39.4212C271.268 39.0217 271.356 37.6202 271.349 36.725C271.474 37.0401 271.376 38.5465 271.407 39.4212ZM72.4079 217.324C72.8566 217.33 74.2477 217.288 74.3627 217.33C74.5108 217.385 72.5027 217.419 72.4079 217.324ZM271.279 176.142C271.275 176.186 271.282 177.265 271.287 177.306C271.399 178.271 271.376 175.033 271.279 176.142ZM262.47 202.865C261.877 203.568 261.227 204.228 261.102 204.532C261.492 204.095 262.604 202.835 262.47 202.865ZM227.423 217.302C227.563 217.154 225.162 217.25 224.687 217.263C224.872 217.329 227.27 217.409 227.423 217.302ZM55.9057 217.097C54.4011 217.106 54.7202 216.881 53.7616 216.983C53.605 217 53.1007 217.467 54.7578 217.292C55.0555 217.261 53.8913 217.15 55.9057 217.097ZM138.964 217.322C138.582 217.224 137.385 217.253 136.574 217.261C136.756 217.334 138.39 217.315 138.964 217.322ZM271.263 30.1227C271.124 29.4163 271.227 26.1523 271.318 26.9599C271.33 27.0748 271.257 29.6648 271.263 30.1227ZM271.317 137.352C271.208 138.695 271.174 135.913 271.281 135.035C271.274 135.433 271.324 137.261 271.317 137.352ZM236.43 216.981C236.355 216.993 234.774 217.144 234.7 217.146C233.402 217.374 237.906 216.938 236.43 216.981ZM267.384 194.743C267.099 195.245 265.352 198.577 264.922 199.314C265.557 198.746 267.843 194.166 267.384 194.743ZM62.105 217.161C61.0289 217.156 60.0085 217.184 59.0211 217.222C59.2285 217.298 61.991 217.217 62.105 217.161ZM230.771 217.212C230.695 217.213 230.622 217.221 230.55 217.222C230.625 217.219 230.699 217.216 230.771 217.212ZM86.1575 217.108C87.0571 217.078 86.8714 217.216 86.8155 217.22C86.1378 217.265 85.1389 217.141 86.1575 217.108ZM271.202 38.3924C271.077 38.0802 271.174 36.5656 271.144 35.6944C271.242 35.9471 271.215 37.6906 271.202 38.3924ZM159.639 217.214C160.781 217.078 156.137 216.921 155.192 217.008C155.109 217.092 159.474 217.232 159.639 217.214ZM271.13 133.182C271.032 133.091 271.15 131.159 271.196 131.569C271.226 131.829 271.191 133.236 271.13 133.182ZM152.882 217.065C152.45 217.035 151.439 217.132 151.795 217.191C152.252 217.266 152.994 217.074 152.882 217.065ZM114.071 216.987C114.261 216.972 116.802 217.072 115.752 217.172C115.024 217.241 114.908 217.1 114.736 217.1C114.546 217.1 110.457 217.273 114.071 216.987ZM185.409 217.128C184.443 217.091 183.307 217.134 182.301 217.132C182.716 217.192 184.988 217.209 185.409 217.128ZM271.104 140.635C271.064 140.402 271.04 134.054 271.162 137.661C271.169 137.871 271.223 141.343 271.104 140.635ZM55.9057 217.097C56.0954 217.096 56.3145 217.091 56.5685 217.081C56.3162 217.085 56.0968 217.092 55.9057 217.097ZM73.0145 217.082C72.6677 217.011 74.4148 216.992 74.9303 217.03C75.0891 217.117 73.0622 217.092 73.0145 217.082ZM182.225 217.032C181.648 216.992 180.597 217.035 179.875 217.03C179.999 217.097 181.978 217.1 182.225 217.032ZM222.855 216.958C221.662 216.997 220.305 216.979 220.274 216.898C220.251 216.911 220.196 216.924 220.104 216.938C220.013 216.951 218.787 216.913 218.247 216.941C215.04 217.105 230.647 217.038 221.565 216.809C221.981 216.859 222.428 216.908 222.855 216.958ZM269.076 189.939C269.218 189.225 269.856 187.293 269.758 187.812C269.713 188.184 268.956 190.666 269.076 189.939ZM252.093 211.318C252.276 211.202 253.975 210.182 254.042 210.185C253.138 210.89 251.286 211.895 252.093 211.318ZM270.278 184.505C270.34 184.054 270.579 183.504 270.578 183.557C270.576 184.023 270.236 185.274 270.278 184.505ZM59.0247 216.668C59.6336 216.623 61.5768 216.738 62.0002 216.843C62.0788 216.823 62.2917 216.796 62.6801 216.765C62.679 216.765 62.6778 216.765 62.6766 216.765C63.197 216.722 78.894 216.676 68.366 216.878C68.0363 216.884 68.4865 216.79 67.1452 216.807C67.0565 216.808 67.0125 216.885 66.7389 216.889C66.1082 216.897 62.7572 216.945 62.0819 216.883C62.0761 216.898 62.0325 216.911 61.9398 216.924C61.1115 217.035 58.5519 216.704 59.0247 216.668ZM248.626 213.162C248.976 212.971 250.113 212.423 250.258 212.417C249.727 212.755 247.816 213.617 248.626 213.162ZM270.825 140.438C270.769 139.707 270.873 137.854 270.929 138.414C270.963 138.758 270.889 141.282 270.825 140.438ZM259 206.036C255.61 209.234 258.181 206.786 257.587 207.192C258.066 206.818 258.538 206.432 259 206.036ZM39.6225 216.926C40.2894 216.903 39.5054 216.706 38.7717 216.813C38.5415 216.847 39.2494 216.938 39.6225 216.926ZM9.43024 216.865C9.99792 216.69 7.22464 216.793 8.30524 216.912C8.35513 216.916 9.38934 216.871 9.43024 216.865ZM30.5321 216.793C30.987 216.912 31.2786 216.926 32.5544 216.897C30.6668 216.863 32.4181 216.758 30.5321 216.793ZM220.287 216.885C220.279 216.89 220.273 216.894 220.274 216.898C220.283 216.894 220.286 216.89 220.287 216.885ZM270.791 180.165C270.733 179.581 270.762 177.956 270.856 178.442C270.871 178.49 270.886 179.93 270.791 180.165ZM62.0002 216.843C61.9303 216.861 61.9659 216.873 62.0819 216.883C62.0873 216.87 62.0573 216.857 62.0002 216.843ZM269.258 188.768C269.364 188.736 268.632 191.116 268.572 191.199C267.962 192.494 269 189.76 269.258 188.768ZM270.72 125.637C270.727 125.522 270.921 126.266 270.845 126.723C270.786 127.076 270.69 126.07 270.72 125.637ZM26.1827 216.745C25.4742 216.745 24.4788 216.745 24.2954 216.837C24.7685 216.823 26.1971 216.812 26.1827 216.745ZM10.5186 216.738C11.3546 216.846 13.271 216.846 14.5004 216.828C14.5212 216.686 11.3012 216.772 10.5186 216.738ZM57.1021 216.722C57.16 216.716 58.9374 216.673 58.6947 216.769C58.3398 216.908 56.6008 216.773 57.1021 216.722ZM270.822 129.089C270.757 129.884 270.555 128.055 270.711 127.216C270.791 126.785 270.833 128.955 270.822 129.089ZM270.719 175.362C270.774 174.313 270.872 176.913 270.773 177.276C270.765 176.793 270.699 175.735 270.719 175.362ZM254.67 209.299C257.392 206.866 256.14 208.473 255.599 208.844C255.523 208.898 254.603 209.359 254.67 209.299ZM270.689 21.9204C270.729 21.4525 270.873 23.1971 270.778 23.4229C270.718 23.5624 270.663 22.2197 270.689 21.9204ZM204.177 216.805C204.313 216.806 204.452 216.807 204.592 216.807C204.487 216.803 204.349 216.801 204.177 216.805ZM270.334 165.84C270.74 168.167 270.427 167.922 270.429 168.125C270.433 168.562 270.543 169.577 270.525 170.4C270.57 169.457 270.616 168.514 270.662 167.571C270.691 168.316 270.84 174.788 270.775 174.924C270.681 175.118 270.71 173.082 270.702 173.022C270.69 172.937 270.43 172.619 270.42 172.43C270.404 172.119 270.399 166.707 270.334 165.84ZM260.396 204.273C260.019 204.724 259.976 204.915 259.768 205.094C259.696 205.155 259.616 205.098 259.375 205.304C259.721 204.967 260.062 204.624 260.396 204.273ZM270.699 161.673C270.578 161.014 270.624 163.968 270.638 164.062C270.719 164.568 270.797 162.211 270.699 161.673ZM269.497 187.55C269.539 187.439 270.029 184.979 270.072 185.009C270.042 185.676 269.237 188.942 269.497 187.55ZM259.092 205.576C258.482 206.208 257.299 207.384 257.343 207.144C257.344 207.143 257.345 207.142 257.346 207.142C257.943 206.638 258.526 206.115 259.092 205.576ZM270.509 131.81C270.273 130.334 270.572 131.033 270.648 132.341C270.542 132.737 270.548 132.052 270.509 131.81ZM270.333 127.085C270.291 126.674 270.338 122.441 270.462 123.087C270.507 123.316 270.395 125.751 270.403 125.863C270.416 126.033 270.554 125.256 270.527 126.554C270.48 126.479 270.348 127.226 270.333 127.085ZM270.358 130.588C270.179 129.121 270.51 128.791 270.511 129.895C270.511 130.326 270.384 130.798 270.358 130.588ZM270.386 136.582C270.355 136.054 270.309 134.648 270.419 133.678C270.429 134.976 270.438 136.273 270.448 137.57C270.385 137.72 270.414 137.044 270.386 136.578C270.386 136.58 270.386 136.581 270.386 136.582ZM1.70288 215.89C2.86374 215.796 0.189728 215.761 0.0787964 215.784C-0.256195 215.86 1.18314 215.932 1.70288 215.89ZM267.682 12.8135C267.645 12.4895 267.522 12.2777 267.586 11.5647C267.677 12.2819 267.768 12.9992 267.859 13.7164C267.65 14.2738 267.723 13.1676 267.682 12.8135ZM266.921 10.0747C266.916 10.176 266.596 9.62254 266.81 10.9314C266.954 11.8158 267.095 7.0066 266.953 6.1385C266.887 7.09771 266.962 9.20254 266.921 10.0747ZM265.536 1.65066C265.51 1.59521 265.473 3.42234 265.491 3.63382C265.585 4.7443 265.672 1.95067 265.536 1.65066ZM265.597 7.47953C265.534 6.62264 265.494 8.52091 265.53 9.08663C265.59 9.14151 265.606 7.6119 265.597 7.47953ZM13.5113 211.254C14.4423 211.036 15.2766 211.504 13.8426 211.41C13.7742 211.406 13.4717 211.264 13.5113 211.254ZM265.213 3.43692C265.275 4.29381 265.315 2.39554 265.279 1.82982C265.22 1.77721 265.204 3.30645 265.213 3.43692ZM14.167 210.735C15.4051 210.579 14.9694 211.104 14.8144 211.125C14.1755 211.209 11.9955 211.003 11.5523 210.951C14.8113 211.03 13.5856 210.809 14.167 210.735ZM19.8418 211.051C20.9856 211.107 18.0626 211.214 17.5085 211.068C18.0746 211.075 19.5161 211.035 19.8418 211.051ZM26.7768 210.882C27.3905 210.863 29.2213 210.818 29.5294 210.901C28.8559 210.886 27.0356 210.967 26.7768 210.882ZM28.1688 210.635C29.131 210.522 29.362 210.85 28.2523 210.752C28.2092 210.748 28.1335 210.641 28.1688 210.635ZM33.5674 210.516C34.1968 210.386 34.9156 210.703 33.8953 210.712C33.5923 210.714 33.5008 210.531 33.5674 210.516ZM15.711 210.17C16.6086 210.114 17.7667 210.341 15.8487 210.366C16.5218 210.401 17.1961 210.435 17.8714 210.47C15.3536 210.597 15.5474 210.282 14.818 210.295C13.8001 210.314 13.881 210.574 14.085 210.655C13.249 210.496 9.71796 210.494 7.6969 210.463C9.4743 210.396 12.3789 210.281 14.1563 210.238C14.6627 210.226 15.1587 210.297 15.584 210.289C16.2702 210.276 15.6607 210.174 15.7075 210.17C15.7087 210.17 15.7098 210.17 15.711 210.17ZM40.6652 210.512C42.5147 210.364 41.3446 210.683 40.3004 210.626C40.2557 210.621 40.6193 210.515 40.6652 210.512ZM264.245 0.981918C264.378 3.45546 264.555 1.6575 264.287 6.83207C264.476 4.65811 264.423 6.71184 264.5 6.2875C264.56 5.94708 264.51 4.67156 264.632 5.41299C264.499 4.43843 264.536 0.207348 264.514 0.0187182C264.514 0.020492 264.514 0.0222659 264.514 0.0240397C264.502 -0.0892528 264.203 0.192615 264.245 0.981918ZM26.7856 210.05C27.4034 209.663 27.6453 210.277 28.8622 209.956C30.4801 210.421 24.3914 209.956 23.6645 210.349C30.2501 210.304 19.3166 210.738 23.9101 210.15C20.1138 210.364 22.6659 210.078 22.0799 210.003C21.4489 209.923 19.297 210.01 19.4068 209.866C19.408 209.866 19.4091 209.866 19.4103 209.866C20.7233 209.876 22.0494 209.886 23.3607 209.896C22.0806 210.206 24.7528 210.113 25.6635 209.86C26.0373 209.923 26.4113 209.987 26.7856 210.05ZM19.3482 210.341C19.4763 210.334 22.3425 210.378 22.1583 210.44C21.7719 210.48 17.7122 210.432 19.3482 210.341ZM6.77774 210.273C7.81711 210.273 9.38144 210.212 9.94321 210.329C8.91721 210.33 7.34787 210.39 6.77774 210.273ZM59.6138 210.251C60.9221 210.347 56.8945 210.376 58.0596 210.262C58.1169 210.257 59.5494 210.247 59.6138 210.251ZM29.7661 210.108C31.1015 209.99 30.47 210.366 29.4813 210.268C29.4241 210.262 29.7045 210.114 29.7661 210.108ZM264.199 2.98637C264.107 3.07532 264.172 6.6642 264.171 7.30037C264.257 6.93892 264.305 2.88433 264.199 2.98637ZM4.96417 209.929C7.02133 209.598 9.77689 209.98 10.0812 209.972C10.3827 209.963 9.90985 209.819 9.97858 209.815C10.133 209.807 13.3528 209.819 13.5113 209.829C13.6232 209.837 13.0388 210.04 13.7055 210.104C12.392 209.989 6.55017 210.061 6.22302 210.038C5.98584 210.02 7.77493 209.807 4.96771 209.929C4.96652 209.929 4.96536 209.929 4.96417 209.929ZM10.8393 209.928C10.036 210.013 12.2887 210.023 12.8368 209.992C14.0517 209.922 10.9403 209.917 10.8393 209.928ZM16.2672 209.849C16.5224 209.83 18.8408 209.812 19.0395 209.907C17.9385 210.03 15.6855 209.894 16.2672 209.849ZM42.1149 209.862C42.7178 209.874 44.3785 209.801 44.474 209.884C43.8687 209.872 42.2094 209.945 42.1149 209.862ZM263.476 15.2312C263.406 14.229 263.378 16.5511 263.411 17.2286C263.467 17.2654 263.482 15.3166 263.476 15.2312ZM29.9923 209.315C30.3537 209.29 37.6278 209.353 38.6621 209.392C37.6506 209.454 30.4399 209.459 30.1098 209.429C30.0137 209.419 29.9465 209.319 29.9923 209.315ZM14.2294 209.277C13.5578 209.155 13.1207 209.301 13.0361 209.303C12.2065 209.322 10.4938 209.294 10.8694 209.412C12.3239 209.364 15.5665 209.519 14.2294 209.277ZM42.6329 209.309C45.1081 209.354 40.3545 209.483 40.9788 209.355C41.0187 209.348 42.3767 209.304 42.6329 209.309ZM29.1752 209.28C28.6183 209.181 21.3511 209.266 20.1652 209.266C21.2134 209.448 22.0703 209.31 23.4737 209.319C23.852 209.322 23.7511 209.398 23.7917 209.398C24.4473 209.401 23.9565 209.314 24.3609 209.312C24.6117 209.312 29.9426 209.419 29.1752 209.28ZM13.8462 209.192C13.4322 209.122 8.8819 209.092 8.7041 209.111C7.33582 209.249 13.4825 209.217 13.8462 209.192ZM29.8463 209.118C29.0576 208.906 25.4347 209.048 27.9147 209.153C28.1516 209.163 29.1557 209.071 29.8463 209.118ZM42.3685 209.108C42.4896 209.102 45.072 209.059 45.1191 209.127C44.7441 209.153 40.9828 209.176 42.3685 209.108ZM41.0319 208.88C41.0941 208.882 40.4897 209.011 41.6983 208.995C41.7991 208.993 41.9863 208.848 43.5078 208.901C43.8166 208.912 44.2953 209.008 44.2608 209.014C42.6727 209.243 37.9139 208.805 41.0319 208.88ZM13.7625 209.074C14.0089 209.013 13.4145 208.83 12.8795 208.922C12.6503 208.962 13.0777 209.072 13.7625 209.074ZM50.5511 209.049C49.0508 208.938 53.7614 208.917 54.0033 208.945C53.8511 209.014 50.7003 209.059 50.5511 209.049ZM262.62 17.578C262.62 17.5769 262.62 17.5757 262.62 17.5745C262.645 18.8361 262.738 18.0547 262.74 18.1138C262.876 20.801 262.667 20.0882 262.642 20.5084C262.589 21.4095 262.843 21.2643 262.738 22.7843C262.893 20.2718 262.828 22.5588 262.918 22.63C263.287 22.9115 262.746 19.2848 262.823 18.0322C262.834 17.8576 262.951 19.1463 262.985 18.6991C263.093 17.2452 262.524 12.7371 262.62 17.578ZM12.467 208.906C11.8759 208.798 7.45126 208.903 8.62466 208.992C8.80847 209.007 13.3261 209.064 12.467 208.906ZM219.888 208.747C218.828 208.653 221.283 208.543 221.724 208.616C221.948 208.652 220.356 208.788 219.888 208.747ZM236.506 208.024C237.592 207.884 238.813 208.025 237.446 208.226C237.298 208.248 236.386 208.098 236.506 208.024ZM153.961 208.546C155.281 208.407 155.202 208.666 154.234 208.663C153.892 208.661 153.92 208.551 153.961 208.546ZM204.475 208.58C204.611 208.571 206.161 208.587 206.103 208.647C205.532 208.683 203.612 208.642 204.475 208.58ZM153.542 208.509C154.325 208.556 152.977 208.744 152.015 208.561C152.504 208.576 153.461 208.505 153.542 208.509ZM32.5792 208.544C33.2346 208.651 35.093 208.619 36.1634 208.637C36.2778 208.499 33.3393 208.569 32.5792 208.544ZM231.822 208.503C231.938 208.512 232.018 208.522 232.067 208.531C232.154 208.549 232.141 208.565 232.067 208.578C231.769 208.629 230.544 208.642 230.708 208.551C230.741 208.544 231.777 208.499 231.822 208.503ZM111.238 208.495C112.111 208.578 109.339 208.688 110.102 208.544C110.139 208.538 111.189 208.491 111.238 208.495ZM99.1445 208.543C99.8069 208.515 102.625 208.524 101.528 208.604C101.358 208.617 99.1945 208.618 99.1445 208.543ZM262.543 20.5829C262.401 20.2263 262.435 22.2964 262.46 22.5927C262.47 22.7091 262.728 21.0481 262.543 20.5829ZM162.556 208.524C163.232 208.542 165.011 208.508 165.33 208.583C164.475 208.567 162.333 208.672 162.556 208.524ZM226.358 208.502C227.366 208.348 229.221 208.363 228.763 208.565C226.771 208.551 228.985 208.384 226.358 208.502ZM149.116 208.344C149.664 208.332 150.092 208.525 150.028 208.534C149.425 208.621 148.574 208.419 149.116 208.344ZM190.349 208.503C190.382 208.42 192.119 208.458 191.894 208.511C191.806 208.529 190.327 208.57 190.349 208.503ZM55.6435 208.497C56.4492 208.422 53.9893 208.348 53.2569 208.436C52.9025 208.563 55.5433 208.506 55.6435 208.497ZM133.884 208.392C133.797 208.269 136.566 208.339 135.476 208.44C135.204 208.466 133.907 208.433 133.884 208.392ZM107.542 208.245C109.39 208.391 101.631 208.495 103.669 208.313C103.817 208.3 107.382 208.233 107.542 208.245ZM94.8761 208.336C95.1957 208.32 95.0342 207.908 93.7187 208.067C93.5459 208.088 94.3542 208.197 94.2129 208.221C94.1303 208.236 91.2664 208.294 91.134 208.284C90.992 208.273 91.1592 208.141 91.0152 208.126C90.853 208.11 89.0884 208.226 88.1633 208.227C86.4201 208.229 86.2329 208.119 86.0902 208.119C85.6745 208.118 84.9758 208.196 84.1327 208.196C79.8824 208.195 73.3803 208.102 70.0112 208.335C73.0099 208.241 75.867 208.341 78.8508 208.371C77.9768 208.142 83.2418 208.548 80.1623 208.283C81.5797 208.341 93.8371 208.387 94.8725 208.336C94.8737 208.336 94.8749 208.336 94.8761 208.336ZM240.701 206.979C240.029 207.064 243.293 206.015 243.61 206.004C243.208 206.227 240.789 206.995 240.701 206.979ZM223.795 207.887C223.429 207.863 223.041 207.588 221.107 207.727C221.105 207.727 221.104 207.727 221.102 207.727C220.542 207.768 221.18 207.835 221.078 207.859C221.042 207.869 219.287 208.005 220.744 208.027C222.956 208.061 220.934 207.823 222.144 207.82C222.3 207.82 224.588 207.969 224.451 208.001C224.438 208.005 223.753 207.974 223.639 207.987C223.21 208.038 223.419 208.124 223.358 208.128C223.138 208.139 219.58 207.992 219.057 208.12C218.879 208.161 224.779 208.256 225.005 208.235C225.149 208.221 225.088 207.983 225.237 207.96C225.319 207.948 227.642 208.037 227.981 208.015C228.072 208.009 228.141 208.002 228.192 207.997C227.832 208.07 229.994 208.065 229.923 207.982C229.888 207.949 228.405 207.968 228.348 207.974C228.325 207.976 228.305 207.979 228.286 207.982C228.56 207.892 223.613 207.896 224.68 207.762C223.229 207.689 224.887 207.958 223.795 207.887ZM216.811 207.74C216.964 207.765 217.116 207.79 217.267 207.815C214.73 207.754 211.784 207.875 208.885 207.874C208.149 207.874 208.997 207.72 208.03 207.762C207.255 207.796 206.388 207.938 206.813 207.97C206.918 207.978 208.503 207.885 209.285 207.894C211.59 207.923 211.041 208.054 211.168 208.058C211.323 208.061 212.814 207.969 213.615 207.973C215.621 207.984 216.551 208.064 219.33 207.959C217.731 207.872 218.613 207.684 216.811 207.74ZM122.268 208.02C122.172 207.937 120.51 208.011 119.905 207.999C120 208.081 121.665 208.008 122.268 208.02ZM261.913 95.4057C262.048 94.8958 262.082 98.7169 261.969 97.7099C261.944 97.4871 261.914 95.8858 261.913 95.4057ZM261.995 112.571C261.958 113.082 261.86 111.024 261.965 111.028C261.999 111.031 262 112.505 261.995 112.571ZM184.025 207.874C183.93 207.869 182.532 207.9 182.487 207.907C181.564 208.051 186.155 207.967 184.025 207.874ZM261.828 133.439C261.917 131.657 261.956 137.02 261.842 135.381C261.837 135.299 261.824 133.524 261.828 133.439ZM261.803 140.892C261.808 140.465 261.764 138.569 261.805 138.544C261.872 138.506 261.918 140.677 261.803 140.892ZM148.748 207.831C148.953 207.678 146.465 207.794 145.593 207.774C145.388 207.927 147.886 207.811 148.748 207.831ZM164.534 207.718C154.008 207.597 156.333 207.924 165.167 207.792C165.18 207.694 165.205 207.725 164.534 207.718ZM151.04 207.736C151.425 207.834 152.626 207.805 153.433 207.797C153.289 207.729 151.627 207.754 151.04 207.736ZM261.702 90.8557C261.579 91.5169 261.731 94.4451 261.782 93.9245C261.793 93.8033 261.771 90.6129 261.702 90.8557ZM183.148 207.743C183.396 207.594 180.233 207.655 179.984 207.688C179.004 207.821 182.9 207.71 183.148 207.743ZM133.782 207.7C133.226 207.583 131.644 207.643 130.622 207.645C131.088 207.744 132.92 207.702 133.782 207.7ZM141.156 207.608C141.092 207.604 139.674 207.615 139.61 207.62C138.448 207.734 142.46 207.705 141.156 207.608ZM261.501 15.829C261.497 15.8765 261.505 16.9551 261.509 16.9927C261.621 17.9554 261.598 14.7182 261.501 15.829Z" fill="#ACFC17"/>
</svg>
