<svg width="518" height="884" viewBox="0 0 518 884" fill="none" xmlns="http://www.w3.org/2000/svg">
<path d="M517.412 777.374C517.398 776.522 517.432 773.098 517.426 771.615C517.574 773.296 517.463 780.445 517.412 777.374ZM506.697 625.306C506.734 626.536 506.77 627.766 506.806 628.996C506.83 625.501 506.803 620.802 506.838 617.558C506.844 617.028 506.949 618.404 506.954 617.149C506.959 615.893 506.815 616.135 506.799 614.309C506.782 612.26 506.883 602.881 506.88 599.632C506.871 587.483 506.788 575.23 506.848 563.056C506.955 575.624 507.064 562.96 507.017 559.44C507.007 558.66 506.738 558.784 506.806 546.175C506.849 538.162 507.232 545.563 507.04 532.191C506.772 542.474 506.791 532.362 506.782 524.302C506.78 522.912 506.82 511.69 506.809 506.733C506.804 505.037 506.664 502.453 506.66 500.203C506.658 498.655 506.735 497.484 506.731 495.185C506.713 484.467 506.707 473.927 506.733 463.191C507.095 469.465 506.887 458.267 506.905 457.764C507.003 455.206 507.03 466.774 507.092 462.199C507.081 455.806 507.069 449.412 507.058 443.019C507.014 448.266 506.754 436.072 506.872 433.827C506.553 434.816 507.15 404.688 507.043 400.102C507.021 399.147 506.863 405.399 506.935 390.895C506.943 389.324 507.04 389.918 507.031 389.094C507.025 388.601 506.719 385.615 506.888 382.433C506.95 381.271 507.151 388.704 507.07 372.381C506.759 378.882 506.902 349.747 506.98 344.387C506.938 345.458 506.896 346.529 506.854 347.6C506.967 342.301 506.861 341.345 506.867 340.151C506.89 335.341 506.997 328.727 506.987 324.246C506.976 319.002 506.782 318.985 506.857 312.871C506.815 314.322 506.772 315.772 506.729 317.223C506.74 313.001 506.75 308.779 506.76 304.557C507.017 314.334 506.772 302.447 506.767 301.664C506.758 300.415 506.863 302.21 506.849 300.121C506.847 299.905 506.748 300.217 506.737 296.998C506.714 290.271 506.839 291.334 506.837 288.51C506.837 288.251 506.748 289.157 506.727 284.279C506.659 268.775 506.795 284.356 506.807 284.951C506.823 285.732 507.196 280.416 507.064 293.586C507.106 289.164 507.27 288.719 507.274 288.221C507.278 287.781 507.255 280.119 507.249 279.697C507.193 275.93 507.08 279.244 507.06 278.51C507.044 277.91 507.191 268.679 506.852 266.516C507.164 262.1 507.136 269.057 507.184 276.463C507.248 277.544 507.31 269.411 507.31 268.983C507.309 258.492 507.053 264.301 506.888 262.007C506.802 260.802 506.978 256.528 506.747 260.474C506.723 250.952 506.857 256.727 506.876 256.112C506.905 255.184 506.839 251.852 506.848 251.435C506.861 250.823 506.941 252.951 506.969 250.538C506.973 250.136 506.836 246.248 506.77 251.262C506.79 244.563 506.673 245.115 506.909 242.842C506.462 238.228 507.172 239.494 507.197 237.677C507.263 232.846 506.913 234.247 506.896 233.992C506.786 232.234 506.907 218.859 506.856 215.547C507.108 216.853 506.859 226.15 506.908 228.229C507.071 235.159 507.034 218.461 507.351 223.494C507.264 221.384 507.177 219.274 507.09 217.163C507.294 213.294 507.382 218.784 507.308 208.371C507.132 206.668 507.336 215.733 507.197 213.914C507.116 212.842 507.098 206.805 507.056 206.686C507.004 206.567 507.065 212.024 506.986 211.164C506.814 209.286 506.978 189.383 507.071 204.534C507.068 200.308 507.409 198.131 507.303 194.466C507.234 192.097 506.763 205.428 506.849 185.427C507.01 185.001 506.897 193.424 506.909 193.642C506.927 193.949 507.29 192.426 507.308 192.162C507.367 191.229 507.173 170.804 507.355 166.488C507.145 168.197 507.318 151.054 507.254 149.187C507.236 148.69 507.107 150.548 507.094 150.016C507.013 146.702 507.242 137.735 507.248 133.576C507.255 128.921 507.144 129.511 507.144 129.251C507.15 127.203 507.226 128.839 507.225 127.587C507.225 125.695 507.24 112.697 507.225 112.044C507.22 111.853 507.093 113.975 507.069 111.141C507.065 110.65 507.215 110.962 507.15 102.569C507.072 92.4623 506.963 109.588 506.806 105.388C507.03 98.8962 506.808 99.1066 506.825 97.3464C506.832 96.7365 507.02 92.2003 507.009 87.2733C507.039 90.8094 507.07 94.3455 507.101 97.8818C507.134 94.4056 507.093 87.6545 507.13 84.7905C507.148 83.3934 507.303 84.5447 507.299 81.5097C507.298 80.8654 506.919 78.3096 507.089 86.2602C506.954 86.8959 507.042 83.1124 507.004 81.3575C506.998 81.0921 506.772 80.0451 506.913 77.8038C506.947 77.2659 507.605 83.1248 507.129 68.0142C507.113 67.5275 507.031 69.2195 507.014 68.7438C507.002 68.4186 507.036 64.5612 507.024 64.135C507.011 63.6992 506.922 65.5621 506.904 65.0432C506.813 62.3826 507.169 58.8903 507.142 64.3765C507.186 62.5427 507.23 60.7092 507.274 58.8753C507.006 60.838 507.199 55.9954 507.19 53.4583C507.138 37.1975 506.963 48.0863 506.872 45.2906C506.748 41.4355 507.068 43.4097 507.075 39.8452C507.076 39.3287 507.058 38.6893 506.986 37.8693C506.97 37.6053 506.993 39.2076 506.947 39.1834C506.781 39.1843 507.35 37.4178 505.607 30.8981C506.202 32.796 506.608 34.7548 506.817 36.7393C507.125 35.525 505.369 29.6796 505.067 29.308C502.861 24.5289 504.892 27.4155 500.297 21.0659C499.853 20.5258 498.909 19.3174 497.804 18.3004C495.454 16.2679 497.053 17.5658 498.995 19.6738C500.968 21.7681 502.851 24.9643 502.876 25.1678C502.904 25.2695 501.062 21.8926 498.31 19.1185C495.628 16.2748 492.161 14.2369 491.942 14.11C490.989 13.5167 492.542 14.318 494.032 15.3456C495.532 16.3585 496.937 17.6062 496.315 16.9738C496.28 16.3855 485.618 9.27924 477.148 9.97907C473.999 9.98053 471.21 9.97705 469.822 9.9635C463.933 9.90247 461.152 9.54987 461.109 9.94605C459.306 9.55719 457.967 9.82245 457.186 9.81983C447.847 9.78382 448.031 9.77985 439.919 9.81714C438.159 9.8252 436.742 9.70722 436.119 9.72712C435.761 9.7392 436.434 9.86542 434.676 9.90443C432.159 9.95771 417.506 9.82783 416.291 9.75807C415.173 9.68824 422.622 9.72779 421.28 9.61298C415.82 9.60139 410.978 9.62983 405.505 9.61769C403.245 9.61231 404.395 9.53205 403.449 9.5304C403.074 9.52943 395.452 9.60017 395.758 9.62977C396.52 9.69868 420.151 9.65235 413.926 9.79298C412.751 9.82014 408.504 9.63502 409.177 9.86012C387.991 9.80909 366.867 9.75807 345.754 9.70698C357.947 9.53865 371.521 9.68922 384.3 9.67341C386.06 9.67152 391.857 9.69319 391.158 9.57942C380.5 9.55 366.836 9.60927 356.571 9.53511C356.239 9.53267 357.458 9.43049 356.214 9.41426C353.888 9.38405 346.256 9.5489 345.024 9.50624C344.812 9.49635 349.08 9.36159 347.782 9.27595C344.451 9.05623 343.598 9.54292 340.703 9.53712C338.407 9.53249 323.473 9.29714 319.643 9.44582C315.64 9.60433 330.788 9.53786 329.643 9.66737C319.43 9.79762 309.126 9.65859 299.491 9.67476C299.322 9.67519 300.788 9.77675 298.65 9.79097C294.923 9.81569 293.934 9.67165 292.109 9.64858C290.122 9.6241 283.195 9.64473 282.275 9.59218C282.157 9.58535 283.559 9.44246 283.771 9.43844C286.777 9.3796 287.843 9.56496 288.126 9.56734C289.169 9.57442 290.191 9.50338 291.139 9.50759C292.698 9.51467 293.557 9.58034 295.606 9.58614C297.019 9.59041 295.656 9.46425 297.017 9.46999C297.521 9.47261 302.883 9.76076 303.38 9.46663C303.609 9.37392 259.453 9.25484 255.005 9.329C258.813 9.3644 262.604 9.39974 266.376 9.43508C258.705 9.34902 249.449 9.58401 248.811 9.23635C220.325 9.20791 191.809 9.17953 163.33 9.15109C158.243 9.12149 161.034 8.8981 152.66 8.96311C154.824 9.03427 156.988 9.10544 159.151 9.17661C154.857 9.12668 135.853 9.02915 132.774 9.07523C132.376 9.08127 131.822 9.28348 127.071 9.30081C122.856 9.3162 122.18 9.16471 119.929 9.13565C118.041 9.11173 115.913 9.1514 115.35 9.14304C114.919 9.13633 114.748 9.04374 113.71 9.02756C110.435 8.97764 113.089 9.23844 109.839 8.93894C110.63 8.92753 111.421 8.91611 112.213 8.9047C108.26 8.86136 102.869 8.72538 108.684 8.6583C109.684 8.6467 108.825 8.7363 109.571 8.73618C138.792 8.71952 115.46 8.54532 105.221 8.68448C102.61 8.55167 87.8422 8.63279 87.3662 8.6066C86.6865 8.5687 89.2034 8.46256 85.9044 8.37095C85.2255 8.35154 65.4941 8.42588 72.5937 8.24943C74.0445 8.21299 83.534 8.25126 85.7892 8.24607C80.433 7.96458 67.8587 8.36784 66.4677 8.35752C60.773 8.31364 77.393 8.11356 64.5718 8.08085C54.6767 8.05577 63.964 8.24369 60.1605 8.32395C58.0107 8.36894 46.8972 8.16191 47.172 8.43003C43.3236 8.45866 45.5762 8.31669 45.1011 8.3065C44.6323 8.29753 37.0917 8.37773 34.6634 8.32127C34.368 8.31419 35.2978 8.17485 34.9925 8.16349C34.4209 8.14396 27.1077 8.1718 26.8208 8.18364C26.6343 8.19181 28.372 8.31382 27.6575 8.34343C26.8192 8.37754 19.8319 8.3488 19.4535 8.38371C18.9038 8.43644 27.5304 8.40165 26.095 8.53813C22.0949 8.50377 15.6875 8.59477 13.011 8.70463C13.6604 8.6732 17.5369 8.66868 18.858 8.67979C18.2569 8.87962 9.91972 8.87687 12.7683 8.71873C10.9598 8.80363 12.1942 8.84874 11.1765 8.92888C10.9088 8.9492 8.34581 8.95335 7.85371 8.98796C7.78865 8.99486 10.4318 9.07023 9.90282 9.11082C8.93535 9.18419 1.20314 9.16765 0.581772 9.14842C-1.19258 9.09392 5.08867 9.02794 5.6205 8.94365C5.69157 8.93071 0.34111 8.76555 0.264206 8.75096C-0.0520785 8.59447 5.90129 8.70726 5.22264 8.56633C3.74678 8.53654 2.27437 8.50676 0.805679 8.47703C6.43922 8.33433 17.1291 8.4077 19.788 8.2454C11.3341 8.29368 2.44472 8.28795 2.48433 7.92241C2.48851 7.76848 6.12642 7.67827 5.98708 7.63908C5.44603 7.49907 0.403976 7.65117 0.22258 7.64378C0.0696866 7.63524 0.000106504 7.62694 -1.5567e-05 7.61888C-1.5567e-05 7.61888 -1.5567e-05 7.61888 -1.5567e-05 7.61882C-0.00636323 7.53685 7.18599 7.47777 7.55458 7.44035C8.16148 7.37382 4.94948 7.10008 4.95576 7.03953C5.0641 7.02739 10.2095 6.96257 8.47319 6.85692C6.7119 6.75017 2.22673 6.74779 2.07216 6.73674C1.2108 6.67284 9.06517 6.61461 9.30864 6.57695C9.43065 6.55784 5.20171 6.44072 5.08134 6.40703C4.97523 6.37327 8.18483 6.29954 9.45579 6.19285C10.4018 6.11363 7.64745 6.0529 8.13188 6.04045C8.46999 6.03221 15.9509 6.03355 16.3227 6.01964C16.8692 5.99907 15.118 5.90434 15.3723 5.88066C15.7458 5.8466 18.1286 5.88078 17.8191 5.84575C17.6242 5.81962 8.22121 5.49321 8.29991 5.40599C8.39995 5.25725 18.308 5.59947 9.09312 5.01256C9.02815 5.00865 6.79274 5.0504 6.73115 5.0468C5.35454 4.93876 12.507 4.77269 3.76363 4.80168C20.0581 4.61412 5.78264 4.57811 8.19487 4.32768C9.12096 4.23143 15.4703 4.19175 15.5046 4.17729C14.8851 4.05516 12.8593 4.14988 12.1724 4.09001C11.7906 4.05656 17.484 3.92741 16.2029 3.84361C15.5348 3.8004 9.50496 3.81578 9.26131 3.80736C6.88408 3.72783 9.79921 3.64226 9.27708 3.5858C8.92808 3.5479 5.3098 3.54491 5.21742 3.53813C5.0627 3.52391 9.97658 3.37095 11.0079 3.31724C11.7886 3.27586 8.85838 3.21104 9.40324 3.19298C12.6779 3.08519 19.7012 3.36021 12.9424 2.97478C12.5295 2.95115 9.98204 2.96068 9.90807 2.95598C8.33498 2.84672 13.0215 2.83732 13.8661 2.74785C15.309 2.59373 8.55559 2.67967 14.1725 2.57127C9.95708 2.4705 7.6158 2.47471 2.73482 2.50279C16.2837 2.42442 21.1399 2.02543 6.01851 2.03551C10.81 2.04173 10.2852 1.81651 11.7191 1.8126C12.6186 1.81041 19.5835 2.03428 16.4009 1.5319C16.0018 1.46916 11.7476 1.54893 13.0796 1.42045C23.2446 1.45323 13.3081 1.33873 13.2854 1.32176C13.4451 1.02586 38.1942 1.26823 42.4446 1.23448C47.3981 1.19535 51.7956 0.962198 52.8588 0.961893C56.383 0.961771 53.4582 1.08018 54.2463 1.1237C55.0375 1.16685 65.0992 0.940042 65.6103 0.952493C67.5602 1.00254 65.5829 1.1428 65.7844 1.14988C68.1738 1.23588 81.6844 1.12601 85.4592 1.15861C85.3531 1.0676 77.7476 1.0604 82.4969 0.914222C88.0043 0.743811 88.317 1.145 88.4618 1.16263C113.726 1.15885 138.998 1.155 164.264 1.15121C163.952 0.937775 147.427 1.09873 147.054 1.07065C144.85 0.904268 172.741 0.907317 176.178 0.982695C173.578 0.936614 170.97 0.890472 168.372 0.84439C172.818 0.599029 182.639 0.917814 189.063 0.809476C191.142 0.774381 187.15 0.679655 187.232 0.673185C189.57 0.577848 193.316 0.651273 190.514 0.779264C196.213 0.656644 195.38 0.791959 199.744 0.80209C199.968 0.802518 198.097 0.703519 201.546 0.662442C203.144 0.643277 211.821 0.642971 212.968 0.556362C213.445 0.519863 209.061 0.135891 208.518 0.466396C199.098 0.305264 205.508 0.61697 201.86 0.609402C201.3 0.607632 202.596 0.423184 193.405 0.510038C195.165 0.177335 205.714 0.426113 207.551 0.38583C211.288 0.303005 195.879 0.131192 193.048 0.390531C194.37 0.130887 191.955 0.355497 188.511 0.344877C184.74 0.333281 186.388 0.255949 184.353 0.255583C178.793 0.25363 181.099 0.436858 176.509 0.271697C180.989 0.78311 168.639 0.339141 165.056 0.205231C170.89 0.179229 176.761 0.153289 182.597 0.127348C182.263 0.100493 181.929 0.0735762 181.595 0.0467208C183.134 0.0505659 184.671 0.0543499 186.208 0.058134C185.962 0.0838908 185.716 0.109648 185.469 0.135405C193.418 -0.0319546 195.357 0.156095 196.004 0.158231C204.312 0.18002 213.984 0.178371 222.385 0.179041C223.65 0.179102 222.798 0.011683 232.01 0.142786C234.943 0.184472 232.175 0.314722 235.497 0.29519C239.637 -0.058692 239.592 0.223535 240.828 0.224023C244.398 0.223961 246.568 0.136315 246.897 0.135399C251.278 0.121666 257.715 0.136314 262.554 0.123313C262.645 0.12197 260.132 0.0132056 263.268 0.0453709C264.361 0.0569064 274.247 0.520956 282.871 0.36971C280.635 0.338338 278.39 0.307027 276.138 0.275716C278.788 0.319478 297.276 0.202533 292.757 0.0782662C289.959 0.00239978 283.203 0.301473 282.469 0.013814C288.648 0.0999341 322.541 -0.0288531 325.281 0.0379802C325.649 0.0475627 323.389 0.140886 323.896 0.152848C324.301 0.161943 332.071 0.139786 333.081 0.175675C333.691 0.196915 330.281 0.254166 330.556 0.287797C330.763 0.311722 340.548 0.3517 341.097 0.234756C338.717 0.281692 331.919 0.240677 335.482 0.142105C335.942 0.129837 338.308 0.205276 338.859 0.189773C343.976 0.0464014 328.69 0.0808266 326.354 0.0796061C335.81 -0.0693816 350.808 0.106276 361.83 0.00910737C366.268 0.106519 355.239 0.158095 360.271 0.238783C370.772 0.405957 363.052 0.104139 363.363 0.0916878C366.04 -0.006518 374.942 0.51997 374.925 0.119275C378.676 0.179577 377.503 0.230114 382.917 0.177685C382.205 0.149914 381.492 0.122143 380.776 0.0943718C386.78 -0.137684 399.437 0.447886 398.487 0.492564C395.962 0.612071 389.246 0.425609 388.751 0.430126C387.921 0.436717 385.68 0.843334 376.474 0.479809C372.69 0.752515 391.013 0.663829 382.696 0.849743C388.178 0.819225 411.359 1.00904 414.567 0.889352C414.985 0.873727 413.049 0.601998 418.814 0.740304C421.56 0.80616 414.922 0.809335 416.199 0.871224C419.705 1.04151 461.546 0.961491 477.148 0.935855C479.169 0.933414 480.786 1.08301 481.913 1.21918C482.616 1.3086 482.347 1.35706 483.032 1.45691C485.171 1.59052 492.754 3.69348 496.005 5.80884C489.029 1.93463 502.856 9.10864 505.104 12.6262C509.097 17.062 508.536 17.0389 509.955 19.1636C513.28 24.3928 516.024 32.5601 515.912 39.8452C515.919 43.7166 515.89 47.2423 515.768 49.8154C516.095 49.437 515.608 61.7726 515.605 67.3843C515.602 71.7796 515.819 78.157 515.95 72.224C515.935 79.8115 515.996 87.7984 516.016 94.9161C516.02 96.0925 515.923 94.4729 515.932 96.4803C515.933 96.6626 516.028 96.9138 516.038 98.6377C516.12 112.867 515.919 105.943 515.86 108.606C515.827 110.096 515.81 111.195 515.805 112.002C515.786 103.708 515.749 94.1412 515.746 91.5828C515.537 93.7652 515.786 109.966 515.73 114.711C515.728 114.875 515.613 114.302 515.612 114.469C515.612 114.473 515.612 114.476 515.612 114.48C515.603 116.258 515.646 127.582 515.783 125.251C515.82 124.625 515.82 119.413 515.807 113.23C515.833 114.904 515.962 113.654 515.968 113.949C516.032 117.53 515.906 126.302 515.889 129.413C515.885 130.125 515.968 130.074 515.968 130.19C515.949 133.02 515.713 131.859 515.956 134.762C515.662 139.887 515.913 125.158 515.721 126.196C515.574 126.993 515.653 159.709 515.885 159.612C515.86 159.725 515.83 160.175 515.795 161.097C515.717 163.143 515.741 172.25 515.784 173.821C515.792 174.086 516.017 173.981 516.02 174.309C516.025 175.132 515.848 186.262 515.981 190.419C516.013 188.174 516.044 185.929 516.076 183.684C516.078 197.241 516.145 195.146 516.212 190.629C516.213 190.403 516.221 190.183 516.222 189.968C516.272 186.467 516.32 181.978 516.338 181.91C516.406 181.653 516.443 204.654 516.234 200.23C516.206 199.613 516.299 188.972 516.15 194.24C516.124 195.162 516.166 201.997 516.15 202.356C516.041 204.757 515.895 189.833 515.74 191.658C515.888 195.28 515.81 199.928 515.848 204.083C515.866 205.973 515.979 206.437 515.981 206.67C516.01 210.156 515.892 208.2 515.895 209.363C515.897 209.987 516.149 216.855 515.801 215.557C516.057 238.186 516.057 221.817 516.037 207.935C516.164 212.322 516.102 220.921 516.132 224.78C516.142 226.165 516.258 225.344 516.281 227.683C516.329 232.496 516.196 255.479 516.165 261.466C516.124 257.789 515.997 258.864 516.006 261.703C516.015 264.541 516.183 262.157 516.202 262.71C516.22 263.304 516.141 276.62 516.163 278.836C516.102 268.81 515.976 271.072 515.963 279.581C515.926 278.351 515.89 277.121 515.854 275.891C515.905 280.878 515.713 291.364 515.77 294.247C515.779 294.699 515.885 293.075 515.89 293.329C515.935 295.857 515.827 304.461 515.863 304.861C515.893 305.2 515.982 301.531 516.026 302.893C516.035 303.177 515.892 306.715 515.927 310.199C515.94 311.492 516.04 310.714 516.046 311.039C516.094 313.754 515.925 312.152 515.952 317.113C515.972 320.747 516.137 323.454 516.083 328.477C516.293 311.985 516.205 325.849 516.269 332.745C516.279 333.85 516.461 332.902 516.372 339.505C516.044 325.453 516.198 343.512 516.195 347.206C516.194 347.409 516.074 347.478 516.072 349.29C516.072 349.443 516.153 349.223 516.159 350.907C516.218 366.876 516.126 356.665 516.046 359.699C516.012 360.991 516.127 368.757 516.13 370.848C516.13 371.329 516.046 371.108 516.049 372.969C516.055 376.261 516.145 379.21 516.152 381.383C516.152 381.637 516.02 381.647 516.063 385.766C516.075 386.924 516.122 388.224 516.16 386.58C516.285 381.125 516.068 370.778 516.193 364.612C516.308 358.99 516.318 376.718 516.319 377.64C516.319 377.979 516.254 374.517 516.24 378.034C516.23 381.038 516.459 386.528 516.409 391.005C516.405 391.346 516.211 394.923 516.2 394.758C516.191 394.608 516.149 389.115 516.093 389.913C516.086 390.008 516.088 393.499 516.046 393.955C515.995 394.513 515.494 396.018 515.482 396.763C515.451 398.676 515.565 397.431 515.557 398.669C515.54 401.322 515.392 410.526 515.566 410.826C515.576 409.305 515.586 407.785 515.597 406.264C515.614 414.724 515.688 411.118 515.721 412.316C515.756 413.607 515.604 413.244 515.589 416.096C515.586 416.716 515.618 428.648 515.682 428.431C515.58 421.833 515.768 424.279 515.772 423.975C515.784 422.819 515.678 421.342 515.681 419.791C515.697 408.882 515.864 419.884 515.907 417.308C515.921 416.422 515.831 414.656 515.836 414.28C515.851 413.057 515.969 413.037 515.959 412.222C515.937 410.319 515.77 412.541 515.761 412.39C515.656 410.69 515.787 404.027 515.969 408.175C516.034 405.685 515.813 405.393 515.901 403.419C516.076 399.494 516.031 405.374 516.061 406.967C516.165 412.683 516.081 414.378 516.11 422.468C516.12 425.382 516.227 428.833 516.233 430.184C516.237 431.036 515.863 439.076 516.448 439.313C516.391 442.438 516.006 447.342 516.024 450.562C516.04 453.452 516.247 452.533 516.255 452.803C516.267 453.217 516.251 456.712 516.28 457.895C516.315 459.28 516.394 458.589 516.426 460.787C516.506 466.258 516.295 466.114 516.281 466.677C516.122 473.204 516.423 470.346 516.447 471.794C516.469 473.142 516.353 492.037 516.429 496.014C516.387 494.396 516.345 492.777 516.302 491.159C516.171 494.055 516.385 497.125 516.149 497.179C516.531 497.767 516.276 503.746 516.285 505.541C516.29 506.249 516.355 506.193 516.357 507.079C516.369 510.54 516.317 518.341 516.35 520.218C516.492 528.335 516.728 507.58 516.742 505.945C516.738 509.216 516.823 527.721 517.007 519.215C517.035 517.9 516.864 515.571 516.858 514.832C516.814 509.834 516.967 513.765 516.981 513.373C517.005 512.707 516.857 509.417 516.874 508.549C516.88 508.259 517.018 510.124 517.021 505.358C517.156 507.702 517.046 521.1 517.078 522.858C517.089 523.484 517.376 519.559 517.097 531.026C517.124 530.893 517.15 530.76 517.177 530.627C517.188 537.012 517.199 543.396 517.21 549.781C517.149 549.087 517.025 545.503 517.052 550.017C517.067 552.617 517.203 550.694 517.207 550.931C517.245 553.263 517.199 594.55 517.215 602.551C517.22 605.273 517.33 612.859 517.332 613.438C517.343 616.897 517.271 629.146 517.287 631.589C517.297 633.115 517.411 631.664 517.405 633.027C517.4 634.294 517.29 632.982 517.285 633.358C517.245 636.475 517.39 660.154 517.286 665.777C517.317 662.34 517.097 645.191 517.019 645.536C517.008 645.611 516.924 649.779 516.965 650.638C516.869 652.059 517.16 656.936 517.103 659.588C517.097 659.888 516.934 658.707 516.904 663.441C516.894 665.072 517.021 669.342 516.878 673.64C516.947 679.862 516.735 712.575 516.911 714.82C516.92 714.886 516.98 710.28 517.052 713.392C517.148 717.529 516.826 713.814 516.798 718.636C516.794 719.363 516.826 732.779 516.846 733.218C517.027 737.281 517.1 725.558 517.121 725.722C517.174 726.131 517.206 735.872 517.194 736.268C517.181 736.645 516.941 728.701 517.032 738.247C517.061 737.153 517.089 736.059 517.118 734.966C517.174 739.455 517.008 739.883 516.998 740.971C516.966 744.352 517.218 748.01 516.907 753.427C516.824 754.86 516.732 752.482 516.72 752.661C516.609 754.382 516.906 756.577 516.684 759.164C516.668 759.359 516.535 753.337 516.535 763.862C516.556 763.138 516.577 762.414 516.598 761.689C516.646 763.173 516.674 773.83 516.663 775.264C516.63 779.452 516.477 775.799 516.496 780.009C516.705 777.309 516.732 790.11 516.552 789.373C516.778 791.161 516.604 802.035 516.598 807.147C516.595 810.372 516.694 816.951 516.682 817.976C516.668 819.224 516.514 818.845 516.48 821.099C516.47 821.742 516.583 828.453 516.423 834.343C516.392 835.484 516.131 837.882 516.065 835.76C515.953 832.128 516.164 825.258 516.01 825.346C515.844 825.449 515.943 834.702 515.921 837.193C515.821 848.692 515.645 842.052 515.592 842.348C515.463 843.115 515.467 849.398 515.455 849.66C515.403 850.746 515.301 846.294 515.222 846.227C515.119 846.146 514.934 852.202 514.899 850.825C514.85 848.854 515.004 843.289 514.997 842.936C514.897 838.342 514.66 844.639 514.543 846.374C514.507 846.9 514.448 844.804 514.438 845.24C514.278 851.898 514.772 846.644 514.739 851.072C514.709 855.023 514.553 849.939 514.545 850.09C514.535 850.285 514.527 855.009 514.471 855.749C514.444 856.113 514.14 843.835 514.004 844.348C514.034 848.265 514.064 852.183 514.094 856.101C513.917 856.408 514.047 850.773 514.029 850.19C513.992 849.017 513.902 852.288 513.846 852.148C513.811 852.073 513.683 848.233 513.631 851.702C513.613 852.894 513.737 855.396 513.61 859.738C513.448 844.627 513.348 855.099 513.285 855.544C513.222 855.98 513.074 848.766 513.1 857.523C512.755 857.903 512.991 857.334 512.93 854.846C512.856 851.798 512.742 858.843 512.828 847.702C512.667 848.336 512.678 857.29 512.665 857.765C512.654 858.174 512.574 856.183 512.547 856.893C512.235 865.288 512.377 859.522 512.178 861.953C512.16 862.17 512.086 870.104 512.057 864.064C512.004 853.059 512.233 848.459 511.743 846.61C511.531 854.75 511.847 864.613 511.852 867.087C511.86 870.874 511.76 866.951 511.732 867.418C511.723 867.58 511.731 870.844 511.723 870.887C511.35 873.215 511.717 856.358 511.652 851.051C511.596 852.473 511.54 853.896 511.484 855.318C511.482 853.388 511.48 851.459 511.478 849.529C511.365 858.723 511.435 849.853 511.132 847.56C511.064 847.046 511.181 853.086 510.992 846.195C510.948 851.277 510.887 849.656 510.972 854.258C510.851 854.139 510.714 843.786 510.652 839.702C510.515 854.129 510.96 845.902 510.725 858.373C510.875 860.686 510.846 854.733 510.871 855.219C510.96 856.96 510.818 861.043 511.13 865.969C511.182 866.771 511.339 863.377 511.332 868.399C511.331 868.955 511.196 872.155 511.186 872.11C511.081 871.686 511.12 868.52 511.076 868.389C511.034 868.266 511.059 871.799 511.048 871.811C510.916 871.92 510.997 868.864 510.956 869.307C510.866 870.266 510.581 882.974 510.664 866.389C510.814 880.165 510.811 868.153 510.753 862.788C510.739 861.42 510.66 861.073 510.632 859.124C510.597 856.617 510.635 853.682 510.62 852.384C510.604 850.989 510.417 858.918 510.473 847.45C510.287 853.286 510.485 863.595 510.355 869.328C510.091 880.895 510.035 861.264 510.009 859.219C510.002 858.674 509.896 860.5 509.889 860.137C509.879 859.543 509.928 848.402 509.84 847.303C509.752 846.207 509.844 851.384 509.752 851.728C509.69 851.961 509.58 838.52 509.538 845.796C509.509 850.811 509.758 860.055 509.49 861.612C509.468 854.237 509.446 846.862 509.424 839.487C509.322 843.524 509.22 847.56 509.118 851.597C509.086 843.319 509.201 836.163 509.055 828.301C508.729 847.193 508.795 822.167 508.755 821.892C508.731 821.8 508.466 829.236 508.418 830.432C508.316 823.843 508.266 803.821 507.939 815.535C508.013 813.409 507.831 808.26 507.817 808.328C507.673 808.982 507.766 820.212 507.636 818.38C507.484 816.258 507.69 813.284 507.673 810.018C507.588 793.263 506.834 797.86 506.953 781.059C506.926 781.393 506.899 781.727 506.872 782.061C506.915 763.799 506.958 745.538 507.001 727.276C506.77 720.131 506.63 701.115 506.655 691.776C506.66 689.895 506.781 680.662 506.802 679.965C506.843 678.675 506.859 685.77 506.935 682.564C506.95 681.887 507.001 666.255 506.872 667.373C506.857 669.124 506.922 674.606 506.892 675.504C506.675 681.806 506.848 633.614 506.761 631.227C506.719 632.294 506.677 633.362 506.635 634.429C506.656 631.388 506.676 628.347 506.697 625.306ZM517.047 765.044C517.176 766.869 517.079 771.443 517.115 774.146C517.166 777.88 517.664 784.227 517.165 781.494C517.126 776.011 517.086 770.527 517.047 765.044ZM517.24 684.9C517.17 688.577 516.891 685.725 517.007 682.711C517.02 682.376 517.333 679.924 517.24 684.9ZM517.107 723.449C517.104 723.295 517.111 720.117 517.115 720.006C517.227 717.156 517.204 726.737 517.107 723.449ZM516.964 537.225C516.976 541.277 517.23 538.343 517.125 535.824C517.119 535.665 516.964 536.959 516.964 537.225ZM516.958 540.107C516.731 543.254 517.191 549.591 517.144 544.553C517.14 544.064 516.969 539.961 516.958 540.107ZM517.129 698.007C517.042 697.593 517.084 693.8 517.105 692.18C517.184 692.224 517.119 696.418 517.129 698.007ZM517.105 601.837C517.036 601.676 517.04 614.86 517.13 615.758C517.092 613.677 517.166 601.989 517.105 601.837ZM517.009 568.027C516.997 568.361 517.015 572.916 517.075 572.783C517.154 570.56 517.062 566.523 517.009 568.027ZM517.013 500.828C516.997 500.58 516.614 503.991 516.866 495.909C516.903 494.723 517.004 498.96 517.017 498.539C517.044 497.656 517.057 496.958 517.059 496.397C517.091 500.161 517.106 504.071 517.082 504.449C516.972 506.226 517.019 500.937 517.013 500.828ZM516.727 465.548C516.664 464.772 516.697 459.82 516.723 458.693C516.728 458.499 516.893 459.343 516.88 457.113C516.87 455.322 516.702 457.997 516.729 454.509C516.756 450.984 516.876 455.693 516.884 455.386C516.896 454.973 516.82 449.521 516.918 449.69C516.991 449.817 516.941 455.658 516.957 457.102C516.977 458.952 517.098 456.709 517.072 459.8C517.055 461.742 516.843 460.666 516.832 461.076C516.823 461.419 516.946 468.209 516.727 465.538C516.727 465.541 516.727 465.544 516.727 465.548ZM517.05 495.379C517.057 495.662 517.061 495.995 517.059 496.397C517.056 496.056 517.053 495.716 517.05 495.379ZM516.954 754.419C517.019 752.508 517.103 758.181 517.017 760.33C516.948 760.367 516.943 754.724 516.954 754.419ZM516.876 491.888C516.93 486.297 517.003 490.409 517.05 495.379C517.01 493.801 516.859 493.766 516.876 491.888ZM516.965 650.638C516.981 650.403 517.006 650.253 517.046 650.234C517.002 650.854 516.978 650.909 516.965 650.638ZM517.037 637.594C516.914 633.122 516.919 642.208 517.007 642.15C517.041 642.123 517.042 637.773 517.037 637.594ZM516.976 532.029C516.964 532.437 516.59 526.083 516.871 535.309C516.915 530.385 516.956 535.58 516.988 535.503C517.083 535.303 516.992 527.031 517.033 525.199C516.864 523.765 517.016 530.678 516.976 532.018C516.976 532.021 516.976 532.025 516.976 532.029ZM516.817 401.965C516.916 403.086 516.884 406.642 516.878 409.041C516.78 407.92 516.811 404.364 516.817 401.965ZM266.308 0.0138154C282.744 -0.0773725 284.915 0.324361 269.819 0.16561C269.529 0.162253 265.314 0.054587 266.308 0.0138154ZM407.437 0.117929C409.023 0.292978 403.754 0.321115 400.49 0.24885C399.737 0.232554 396.932 0.0552469 400.131 0.0205176C400.038 0.232737 404.923 0.313852 407.437 0.117929ZM516.764 488.728C516.647 487.1 516.731 482.088 516.748 479.448C516.844 481.059 516.801 486.393 516.764 488.728ZM320.322 0.223344C322.072 0.236589 323.247 0.084245 322.947 0.0715497C321.602 0.0134444 318.327 0.136614 320.322 0.223344ZM516.746 504.906C516.676 505.135 516.609 498.497 516.782 498.035C516.769 499.454 516.79 504.742 516.746 504.906ZM516.765 406.49C516.729 407.52 516.666 402.183 516.701 400.569C516.775 400.699 516.788 405.814 516.765 406.49ZM348.218 0.171645C349.747 0.184829 353.695 0.188857 354.114 0.127333C354.665 0.0503067 348.892 0.0765523 348.218 0.171645ZM59.451 0.304605C59.2477 0.276895 65.2886 0.0775537 67.9424 0.12803C73.0084 0.224526 59.6676 0.324136 59.451 0.304605ZM303.91 0.301898C299.036 0.157001 304.432 0.29732 304.238 0.144794C300.952 0.139301 292.795 0.131733 298.409 0.281757C299.507 0.310749 302.366 0.292011 303.91 0.301898ZM308.455 0.352923C308.983 0.303485 312.515 0.147723 309.461 0.158892C308.048 0.164263 305.763 0.337359 308.455 0.352923ZM96.6637 0.236792C101.041 0.371801 80.9634 0.299354 80.3643 0.275734C80.0581 0.263221 79.8576 0.251442 79.7433 0.241493C79.0022 0.284279 75.1997 0.291969 74.7607 0.183754C75.8992 0.192665 79.0127 0.183143 79.375 0.195167C79.531 0.200233 79.6474 0.205055 79.7276 0.209938C81.0949 0.115943 95.8063 0.211157 96.6637 0.236792ZM129.985 0.375766C124.964 0.574985 124.077 0.23624 124.509 0.225376C129.973 0.0867033 126.41 0.336521 126.577 0.348239C126.959 0.367709 130.842 0.251803 129.969 0.375766C129.975 0.375766 129.98 0.375766 129.985 0.375766ZM103.496 0.292516C103.29 0.296911 99.083 0.286413 98.9046 0.281103C95.4512 0.167273 107.371 0.196385 103.496 0.292516ZM516.49 438.956C516.523 435.939 516.648 438.898 516.603 440.903C516.599 441.068 516.46 441.617 516.49 438.956ZM310.87 0.319354C311.551 0.342852 329.475 0.431657 328.388 0.243485C326.865 0.265702 306.53 0.16878 310.87 0.319354ZM444.624 0.364996C441.45 0.363532 444.925 0.186041 446.582 0.252203C447.2 0.276739 445.423 0.36524 444.624 0.364996ZM516.585 513.856C516.682 517.132 516.355 516.455 516.467 513.614C516.472 513.503 516.581 513.727 516.585 513.856ZM419.389 0.262948C430.263 0.155342 427.747 0.718086 413.543 0.528146C413.98 0.50306 414.416 0.477975 414.851 0.45295C398.578 0.36854 413.772 0.413278 417.729 0.381783C419.277 0.369759 417.981 0.275826 419.379 0.262276C419.382 0.262459 419.386 0.262703 419.389 0.262948ZM461.18 0.375737C471.777 0.77515 451.615 0.51502 445.948 0.567083C451.291 0.402105 458.874 0.427068 448.854 0.258245C463.385 0.22559 457.231 0.384648 457.861 0.397893C458.514 0.412724 460.693 0.358586 461.18 0.375737ZM433.57 0.378425C433.005 0.390083 428.25 0.308723 426.711 0.322029C428.964 0.185554 437.622 0.29914 433.57 0.378425ZM164.92 0.283111C164.541 0.389984 163.605 0.468719 160.002 0.428803C161.115 0.375092 163.416 0.328888 164.92 0.283111ZM516.484 768.508C516.477 770.989 516.436 775.928 516.549 774.413C516.558 774.247 516.547 768.516 516.484 768.508ZM362.805 0.405958C363.345 0.41908 377.027 0.427929 372.309 0.309949C370.912 0.274365 358.421 0.289442 362.805 0.405958ZM292.172 0.392536C293.322 0.393635 297.958 0.373493 298.053 0.348224C298.37 0.260761 292.678 0.308857 292.172 0.392536ZM516.375 781.022C516.364 781.349 516.383 788.925 516.435 788.093C516.533 786.512 516.413 779.902 516.375 781.022ZM516.239 427.98C516.235 427.346 516.351 426.509 516.353 426.29C516.354 425.775 516.31 414.181 516.459 418.61C516.484 419.349 516.426 436.03 516.412 438.2C516.252 439.039 516.404 431.913 516.388 430.179C516.384 429.874 516.251 429.678 516.24 427.985C516.24 427.983 516.239 427.982 516.239 427.98ZM146.151 0.395906C145.638 0.497224 132.01 0.564364 132.165 0.441562C136.831 0.426302 141.488 0.411104 146.151 0.395906ZM153.075 0.41269C155.985 0.484345 149.171 0.508088 147.164 0.476472C147.143 0.408296 152.65 0.402192 153.075 0.41269ZM318.002 0.771196C319.359 0.746416 315.184 0.598528 316.118 0.56978C316.717 0.551836 319.749 0.607317 320.752 0.561052C321.028 0.546342 317.885 0.407305 317.003 0.413347C315.731 0.421343 316.965 0.530779 315.575 0.531511C310.962 0.533831 306.801 0.455828 302.431 0.45766C302.042 0.458026 305.065 0.535296 301.739 0.534198C301.224 0.534137 298.135 0.419086 294.114 0.436176C285.166 0.7925 278.756 0.442647 267.474 0.571127C267.878 0.604697 276.319 0.694662 276.817 0.698019C286.205 0.756612 303.016 0.763019 312.925 0.763811C315.444 0.764116 314.221 0.688677 315.304 0.68593C316.158 0.683855 315.146 0.823565 318.002 0.771196ZM516.407 767.19C516.268 768.373 516.356 772.52 516.349 775.169C516.474 774.237 516.376 769.779 516.407 767.19ZM214.285 0.520778C215.614 0.515407 219.719 0.557399 220.057 0.515406C220.496 0.460536 214.568 0.425929 214.285 0.520778ZM516.279 362.607C516.275 362.479 516.282 359.284 516.287 359.164C516.399 356.309 516.376 365.891 516.279 362.607ZM516.306 286.195C516.288 283.773 516.245 281.33 516.358 280.515C516.341 282.059 516.384 286.479 516.306 286.195ZM516.302 180.776C516.154 181.277 516.25 173.986 516.263 172.609C516.329 173.119 516.409 180.41 516.302 180.776ZM165.445 0.748382C160.989 0.739594 161.929 0.964142 159.099 0.862519C158.637 0.845368 157.144 0.377839 162.044 0.553009C162.926 0.584503 159.477 0.695587 165.445 0.748382ZM411.256 0.523446C410.132 0.621469 406.572 0.592355 404.118 0.584543C404.676 0.511667 409.572 0.530404 411.256 0.523446ZM516.263 794.706C516.124 796.797 516.227 806.456 516.318 804.066C516.33 803.726 516.257 796.061 516.263 794.706ZM516.317 477.395C516.208 473.421 516.174 481.652 516.281 484.251C516.274 483.074 516.324 477.663 516.317 477.395ZM516.222 206.098C516.217 205.908 516.228 201.694 516.233 201.505C516.347 198.052 516.318 209.975 516.222 206.098ZM516.126 311.323C516.036 309.804 516.108 299.823 516.198 297.586C516.329 299.739 516.238 313.207 516.126 311.323ZM183.787 0.684599C180.611 0.689238 177.594 0.661589 174.671 0.622832C175.288 0.547271 183.453 0.628203 183.787 0.684599ZM516.212 190.629C516.213 190.403 516.221 190.183 516.222 189.968C516.219 190.193 516.215 190.413 516.212 190.629ZM254.958 0.737632C257.639 0.767478 257.081 0.629051 256.917 0.624839C254.891 0.58004 251.95 0.703941 254.958 0.737632ZM516.202 770.235C516.077 771.159 516.174 775.641 516.144 778.219C516.242 777.471 516.215 772.312 516.202 770.235ZM472.45 0.631534C475.776 0.76691 462.236 0.92426 459.229 0.83698C459.092 0.753301 471.853 0.61298 472.45 0.631534ZM516.13 489.736C516.032 490.003 516.15 495.723 516.196 494.508C516.226 493.738 516.191 489.576 516.13 489.736ZM452.427 0.779912C451.095 0.809759 448.13 0.713201 449.171 0.654363C450.467 0.578924 452.783 0.771367 452.427 0.779912ZM337.57 0.858475C338.147 0.873428 345.667 0.772964 342.562 0.673172C340.406 0.603775 340.058 0.745254 339.55 0.745682C338.979 0.745254 326.831 0.572099 337.57 0.858475ZM516.128 56.4608C516.091 53.6218 516.134 50.1885 516.132 47.217C516.192 48.4274 516.209 55.2531 516.128 56.4608ZM516.104 467.679C516.064 468.369 516.04 487.153 516.162 476.482C516.169 475.86 516.223 465.585 516.104 467.679ZM165.445 0.748382C166.006 0.749481 166.655 0.754181 167.407 0.763824C166.66 0.76004 166.01 0.753387 165.445 0.748382ZM216.078 0.763148C215.057 0.834377 220.206 0.853419 221.737 0.815516C222.194 0.72848 216.223 0.7532 216.078 0.763148ZM516.032 46.9913C515.992 45.2792 516.035 42.1718 516.03 40.0519C516.097 40.4107 516.1 46.251 516.032 46.9913ZM515.958 167.223C515.997 163.823 515.979 159.64 515.898 159.575C515.911 159.505 515.924 159.34 515.938 159.066C515.951 158.789 515.913 155.147 515.941 153.565C516.105 144.091 516.037 190.149 515.809 163.454C515.858 164.71 515.908 165.967 515.958 167.223ZM515.935 324.829C515.836 326.758 515.96 332.163 515.999 330.76C516.025 329.784 516.034 322.897 515.935 324.829ZM515.877 250.574C515.859 251.151 515.928 256.428 515.98 256.564C516.035 253.53 515.958 247.947 515.877 250.574ZM515.82 339.663C515.805 340.874 515.964 342.419 515.971 342.277C516.029 341.046 515.908 337.629 515.82 339.663ZM174.681 1.17673C176.486 1.22226 182.229 1.10721 183.478 1.00216C183.71 1.02249 184.337 1.04898 185.485 1.08072C185.482 1.08072 185.478 1.08072 185.475 1.08072C187.04 1.12314 233.485 1.16946 202.316 0.967251C201.343 0.960782 202.674 1.05502 198.711 1.03842C198.449 1.0372 198.319 0.960233 197.51 0.956509C195.655 0.948392 185.698 0.899931 183.719 0.961882C183.702 0.9476 183.573 0.93405 183.299 0.921599C180.858 0.810637 173.283 1.14163 174.681 1.17673ZM515.862 240.113C515.834 241.174 515.861 244.536 515.929 244.884C515.962 243.217 515.929 237.648 515.862 240.113ZM515.825 468.262C515.769 470.425 515.873 475.908 515.929 474.251C515.963 473.235 515.889 465.767 515.825 468.262ZM515.899 273.781C515.979 261.375 515.892 270.82 515.793 268.92C515.828 270.54 515.863 272.161 515.899 273.781ZM117.259 0.91959C119.238 0.942478 116.912 1.13901 114.73 1.03238C114.046 0.998509 116.15 0.907139 117.259 0.91959ZM27.9103 0.980694C29.5997 1.15495 21.3446 1.05259 24.5608 0.933026C24.7091 0.928998 27.788 0.974041 27.9103 0.980694ZM90.3395 1.05186C91.6821 0.933203 92.5548 0.919165 96.343 0.948462C90.7371 0.981909 95.9338 1.08683 90.3395 1.05186ZM515.885 159.612C515.89 159.59 515.894 159.572 515.898 159.575C515.894 159.599 515.89 159.61 515.885 159.612ZM515.85 351.327C515.75 352.879 515.757 357.232 515.858 355.935C515.868 355.81 515.925 351.963 515.85 351.327ZM183.478 1.00216C183.271 0.98416 183.377 0.972502 183.719 0.961882C183.735 0.975309 183.646 0.988005 183.478 1.00216ZM515.768 327.957C515.843 328.113 515.873 321.488 515.864 321.223C515.734 317.421 515.764 325.222 515.768 327.957ZM515.719 512.061C515.727 512.402 515.921 510.199 515.845 508.848C515.786 507.802 515.69 510.781 515.719 512.061ZM77.4924 1.1002C75.3913 1.10007 72.44 1.10014 71.8964 1.00822C73.2987 1.02232 77.535 1.03275 77.4924 1.1002ZM31.1532 1.10691C33.6535 0.998821 39.2655 0.999126 42.8967 1.01695C42.9496 1.15922 33.4945 1.07347 31.1532 1.10691ZM168.985 1.12369C169.155 1.12949 174.424 1.1719 173.704 1.07669C172.653 0.937041 167.5 1.07193 168.985 1.12369ZM515.822 501.846C515.757 499.494 515.555 504.907 515.711 507.389C515.79 508.663 515.833 502.243 515.822 501.846ZM515.719 364.917C515.774 368.021 515.872 360.327 515.773 359.253C515.765 360.682 515.699 363.814 515.719 364.917ZM515.618 259.298C515.331 269.08 515.855 263.753 515.809 262.017C515.802 261.773 515.625 259.059 515.618 259.298ZM515.689 818.979C515.729 820.363 515.873 815.201 515.778 814.533C515.718 814.12 515.663 818.093 515.689 818.979ZM515.805 112.002C515.806 112.415 515.807 112.825 515.807 113.23C515.803 112.926 515.801 112.526 515.805 112.002ZM515.334 393.094C515.74 386.208 515.427 386.931 515.429 386.333C515.433 385.04 515.543 382.035 515.525 379.598C515.57 382.389 515.616 385.18 515.662 387.971C515.691 385.766 515.84 366.615 515.775 366.213C515.681 365.638 515.71 371.664 515.702 371.84C515.69 372.093 515.43 373.034 515.42 373.593C515.404 374.513 515.399 390.527 515.334 393.094ZM515.663 279.754C515.694 278.181 515.797 277.734 515.773 277.004C515.764 276.755 515.666 276.715 515.64 275.865C515.648 277.161 515.655 278.458 515.663 279.754ZM515.699 405.424C515.578 407.374 515.624 398.634 515.638 398.354C515.719 396.859 515.797 403.831 515.699 405.424ZM515.681 331.264C515.674 331.583 515.637 338.295 515.703 338.24C515.754 336.465 515.769 327.492 515.681 331.264ZM515.634 274.815C515.645 272.457 515.744 268 515.596 268.511C515.596 268.514 515.596 268.518 515.596 268.521C515.608 270.619 515.621 272.717 515.634 274.815ZM515.509 493.794C515.273 498.163 515.572 496.093 515.648 492.224C515.542 491.052 515.548 493.077 515.509 493.794ZM515.333 507.777C515.291 508.993 515.337 521.52 515.462 519.609C515.507 518.93 515.395 511.726 515.403 511.394C515.416 510.891 515.554 513.189 515.527 509.347C515.48 509.572 515.348 507.361 515.333 507.777ZM515.358 497.41C515.179 501.753 515.51 502.728 515.511 499.463C515.511 498.187 515.384 496.791 515.358 497.41ZM515.386 479.673C515.355 481.236 515.309 485.398 515.419 488.266C515.429 484.427 515.438 480.589 515.448 476.75C515.385 476.307 515.414 478.307 515.386 479.684C515.386 479.681 515.386 479.677 515.386 479.673ZM5.0395 1.95494C8.47816 2.04875 0.55815 2.08476 0.232986 2.06169C-0.75789 1.98515 3.49889 1.91301 5.0395 1.95494ZM512.682 845.928C512.645 846.886 512.522 847.513 512.586 849.623C512.677 847.501 512.768 845.378 512.859 843.256C512.65 841.607 512.723 844.88 512.682 845.928ZM511.921 854.032C511.916 853.733 511.596 855.37 511.81 851.497C511.954 848.88 512.095 863.111 511.953 865.68C511.887 862.842 511.962 856.613 511.921 854.032ZM510.536 878.961C510.51 879.125 510.473 873.718 510.491 873.092C510.585 869.806 510.672 878.073 510.536 878.961ZM510.597 861.712C510.534 864.248 510.494 858.63 510.53 856.956C510.59 856.794 510.606 861.32 510.597 861.712ZM39.9821 6.59172C42.7249 6.80925 45.1842 6.34086 40.9581 6.43522C40.7566 6.43968 39.8651 6.58103 39.9821 6.59172ZM510.213 873.675C510.275 871.139 510.315 876.756 510.279 878.43C510.22 878.586 510.204 874.061 510.213 873.675ZM41.9139 7.11003C45.5632 7.26658 44.2792 6.74113 43.8222 6.71995C41.9379 6.63627 35.5172 6.84257 34.2142 6.89384C43.8081 6.81498 40.2023 7.03624 41.9139 7.11003ZM58.7259 6.79447C62.1083 6.73838 53.4644 6.6312 51.8282 6.77769C53.5006 6.77067 57.7624 6.81065 58.7259 6.79447ZM79.254 6.96299C81.0817 6.98179 86.4839 7.02683 87.3872 6.94419C85.4115 6.95914 80.0251 6.87791 79.254 6.96299ZM83.3811 7.21073C86.2143 7.3231 86.8943 6.9957 83.627 7.09324C83.5001 7.09702 83.2771 7.20451 83.3811 7.21073ZM99.3519 7.32889C101.222 7.45908 103.339 7.14206 100.326 7.13352C99.4258 7.13157 99.1541 7.31394 99.3519 7.32889ZM46.4866 7.67533C49.1705 7.73124 52.6185 7.50425 46.8978 7.47929C48.9158 7.44462 50.905 7.40989 52.9007 7.37522C45.4662 7.24797 45.971 7.56278 43.8327 7.54978C40.8325 7.53129 41.0712 7.27153 41.6723 7.18992C39.2191 7.3491 28.7894 7.3516 22.7509 7.38194C28.0518 7.44871 36.6633 7.56456 41.8824 7.60685C43.3767 7.61912 44.8292 7.54789 46.1072 7.55583C48.1566 7.56901 46.3363 7.67161 46.4761 7.67533C46.4796 7.67533 46.4831 7.67533 46.4866 7.67533ZM120.349 7.33359C125.824 7.48105 122.361 7.16269 119.268 7.21946C119.136 7.22385 120.212 7.32999 120.349 7.33359ZM509.245 880.94C509.378 873.62 509.555 878.94 509.287 863.628C509.476 870.061 509.423 863.984 509.5 865.239C509.56 866.247 509.51 870.021 509.632 867.827C509.499 870.711 509.536 883.232 509.514 883.79C509.514 883.785 509.514 883.779 509.514 883.774C509.502 884.109 509.203 883.275 509.245 880.94ZM79.2803 7.79551C81.107 8.18186 81.8471 7.5687 85.4226 7.88883C90.2139 7.42393 72.1876 7.88877 70.0257 7.49607C89.5506 7.54172 57.138 7.10697 70.7539 7.6948C59.538 7.48142 67.0777 7.76762 65.3467 7.84251C63.479 7.92234 57.1145 7.83561 57.4395 7.97947C57.443 7.97947 57.4465 7.97947 57.45 7.97947C61.3286 7.9694 65.2687 7.95933 69.1251 7.94926C65.3308 7.63889 73.2515 7.73197 75.9528 7.98484C77.0611 7.92173 78.1703 7.85862 79.2803 7.79551ZM57.2663 7.50413C57.6441 7.51127 66.1229 7.46775 65.5787 7.40543C64.4335 7.3657 52.4284 7.41337 57.2663 7.50413ZM20.0495 7.57194C23.0712 7.57274 27.7746 7.63328 29.4384 7.51622C26.3853 7.51542 21.6939 7.45488 20.0495 7.57194ZM176.425 7.59408C180.299 7.49808 168.372 7.46957 171.823 7.58334C171.993 7.58871 176.235 7.5986 176.425 7.59408ZM88.0843 7.7371C92.0159 7.8552 90.1566 7.47941 87.2457 7.57731C87.0772 7.58311 87.9028 7.73173 88.0843 7.7371ZM509.199 875.008C509.107 874.745 509.172 864.125 509.171 862.242C509.257 863.312 509.305 875.31 509.199 875.008ZM14.7167 7.91636C20.7451 8.24742 28.9349 7.86503 29.8497 7.87339C30.7481 7.88194 29.3389 8.02665 29.5438 8.0305C30.0356 8.03862 39.515 8.02647 39.9821 8.0164C40.3116 8.00859 38.5901 7.80522 40.554 7.74113C36.7537 7.85673 19.2904 7.78441 18.4245 7.80693C17.723 7.82493 22.9929 8.03849 14.7272 7.91636C14.7237 7.91636 14.7202 7.91636 14.7167 7.91636ZM32.1094 7.91771C29.7312 7.8325 36.3878 7.82182 37.9955 7.85325C41.57 7.92369 32.4199 7.92784 32.1094 7.91771ZM48.1479 7.99626C48.9291 8.01542 55.7611 8.03275 56.3534 7.93785C53.1041 7.81474 46.4251 7.9517 48.1479 7.99626ZM124.64 7.98349C126.425 7.97135 131.337 8.04428 131.619 7.96134C129.83 7.97348 124.921 7.90061 124.64 7.98349ZM508.476 838.773C508.406 841.739 508.378 834.867 508.411 832.863C508.467 832.754 508.482 838.521 508.476 838.773ZM88.7502 8.53007C89.8035 8.55527 111.374 8.49234 114.404 8.45353C111.44 8.39078 90.0636 8.38596 89.0963 8.4166C88.8134 8.42576 88.6155 8.5261 88.7502 8.53007ZM42.0978 8.56834C40.1188 8.69047 38.8313 8.54399 38.5822 8.54216C36.1394 8.52348 31.0974 8.55101 32.1992 8.43339C36.4876 8.48082 46.0366 8.32585 42.0978 8.56834ZM126.173 8.53611C133.497 8.49076 119.431 8.36209 121.277 8.48978C121.396 8.49747 125.416 8.54087 126.173 8.53611ZM86.3445 8.56565C84.7322 8.66428 63.1759 8.5792 59.6822 8.57908C62.7823 8.39707 65.3198 8.53532 69.4602 8.52604C70.5817 8.52329 70.2825 8.44761 70.4029 8.44749C72.3463 8.44395 70.8916 8.53141 72.0904 8.53275C72.8382 8.53336 88.6299 8.42661 86.3445 8.56565ZM40.9686 8.65293C39.7667 8.72294 26.3011 8.75279 25.748 8.73417C21.691 8.59581 39.934 8.62858 40.9686 8.65293ZM88.3202 8.72745C86.0166 8.93894 75.2758 8.79734 82.6286 8.69187C83.3352 8.68229 86.2856 8.77396 88.3202 8.72745ZM125.391 8.73752C125.751 8.74375 133.388 8.78604 133.525 8.71872C132.42 8.69254 121.291 8.6691 125.391 8.73752ZM121.434 8.96512C121.618 8.96354 119.829 8.8339 123.407 8.85031C123.706 8.85184 124.261 8.99771 128.762 8.94431C129.675 8.93332 131.091 8.83683 130.988 8.83084C126.296 8.60196 112.199 9.04032 121.434 8.96512ZM40.7219 8.7711C41.4479 8.83262 39.6964 9.01536 38.1212 8.92283C37.4463 8.88285 38.7046 8.77323 40.7219 8.7711ZM149.605 8.7966C145.166 8.90738 159.103 8.92838 159.813 8.89999C159.366 8.83096 150.047 8.7858 149.605 8.7966ZM507.62 831.828C507.62 831.832 507.62 831.835 507.62 831.839C507.645 828.106 507.738 830.418 507.74 830.243C507.876 822.291 507.667 824.4 507.642 823.157C507.589 820.49 507.843 820.92 507.738 816.422C507.893 823.857 507.828 817.09 507.918 816.879C508.287 816.046 507.746 826.778 507.823 830.485C507.834 831.001 507.951 827.188 507.985 828.511C508.093 832.813 507.524 846.154 507.62 831.828ZM36.9065 8.93895C35.2139 9.04722 22.0122 8.94218 25.5115 8.85301C26.078 8.83873 39.4581 8.78111 36.9065 8.93895ZM507.746 158.42C507.653 155.263 507.543 162.581 507.616 163.937C507.652 164.61 507.788 159.807 507.746 158.42ZM507.346 209.725C507.365 213.477 507.755 217.432 507.695 212.765C507.688 212.269 507.4 209.295 507.346 209.725ZM455.645 9.29877C459.513 9.43842 459.268 9.17896 456.446 9.18262C455.441 9.1839 455.521 9.29438 455.645 9.29877ZM507.58 112.889C507.571 113.281 507.587 117.81 507.647 117.645C507.683 115.971 507.642 110.353 507.58 112.889ZM454.401 9.3357C456.724 9.28895 452.743 9.10126 449.803 9.28467C451.288 9.26966 454.17 9.34052 454.401 9.3357ZM96.4166 9.30082C98.3703 9.19431 103.867 9.22648 107.026 9.20817C107.364 9.34623 98.6889 9.27579 96.4166 9.30082ZM507.503 193.8C507.6 197.351 507.68 189.742 507.551 190.44C507.544 190.537 507.499 193.66 507.503 193.8ZM329.209 9.34981C331.786 9.26747 323.602 9.15675 325.855 9.30147C325.968 9.30739 329.07 9.35439 329.209 9.34981ZM293.41 9.30214C295.385 9.32991 303.689 9.32137 300.457 9.24105C299.961 9.22872 293.563 9.22676 293.41 9.30214ZM507.543 822.936C507.401 823.992 507.435 817.866 507.46 816.989C507.47 816.645 507.728 821.56 507.543 822.936ZM480.506 9.50342C482.29 9.57855 486.716 10.7718 487.475 11.0551C485.479 10.1825 479.954 9.21582 480.506 9.50342ZM507.502 177.606C507.348 180.699 507.363 185.983 507.564 184.677C507.551 178.84 507.384 185.398 507.502 177.606ZM441.307 9.50153C442.967 9.51331 444.213 9.31995 444.029 9.31086C442.265 9.22419 439.653 9.42634 441.307 9.50153ZM507.503 71.0482C507.42 71.142 507.458 76.3524 507.511 75.6569C507.529 75.4288 507.57 70.9724 507.503 71.0482ZM164.668 9.34781C167.055 9.42325 159.766 9.49698 157.608 9.40891C156.559 9.28207 164.367 9.33914 164.668 9.34781ZM396.249 9.4532C396.029 9.57582 404.106 9.50648 400.927 9.40486C400.139 9.37947 396.339 9.41224 396.249 9.4532ZM318.225 9.60024C323.685 9.45406 300.78 9.35024 306.799 9.53243C307.251 9.54543 317.774 9.61263 318.225 9.60024ZM280.788 9.50893C281.727 9.52504 281.265 9.93703 277.359 9.77822C276.847 9.75759 279.245 9.6487 278.825 9.62374C278.595 9.60958 270.04 9.55172 269.683 9.5613C269.266 9.57223 269.758 9.70431 269.334 9.71908C268.859 9.73568 263.658 9.61965 260.915 9.61837C255.749 9.61623 255.18 9.72616 254.757 9.72646C253.53 9.7272 251.475 9.64919 248.984 9.64925C236.359 9.65017 217.178 9.74331 207.188 9.51028C216.072 9.60385 224.525 9.5046 233.351 9.47402C230.76 9.70345 246.341 9.29726 237.217 9.56197C241.468 9.5046 277.649 9.45864 280.777 9.50893C280.781 9.50893 280.784 9.50893 280.788 9.50893ZM507.23 224.533C507.089 222.229 507.121 234.054 507.284 235.058C507.306 233.497 507.246 224.819 507.23 224.533ZM506.887 169.974C506.863 168.875 506.588 167.833 506.727 162.074C506.727 162.068 506.727 162.063 506.727 162.058C506.768 160.374 506.835 162.293 506.859 161.984C506.869 161.872 507.005 156.62 507.027 160.982C507.061 167.634 506.823 161.608 506.82 165.155C506.82 165.589 506.968 172.301 507.001 171.911C507.005 171.87 506.973 169.85 506.987 169.517C507.038 168.257 507.124 168.87 507.128 168.693C507.139 168.112 506.992 157.497 507.12 155.953C507.161 155.452 507.256 172.875 507.235 173.554C507.221 173.983 506.983 173.802 506.96 174.246C506.948 174.475 507.037 181.483 507.015 182.393C507.009 182.657 507.002 182.859 506.996 183.007C507.07 181.947 507.065 188.294 506.982 188.099C506.949 187.989 506.968 183.62 506.974 183.464C506.976 183.395 506.979 183.336 506.982 183.28C506.892 184.185 506.896 169.395 506.762 172.588C506.689 168.3 506.958 173.196 506.887 169.974ZM506.74 149.365C506.765 149.808 506.79 150.251 506.815 150.694C506.754 143.188 506.874 134.527 506.874 125.881C506.874 123.687 506.72 126.211 506.762 123.335C506.796 121.031 506.938 118.482 506.97 119.734C506.978 120.04 506.885 124.73 506.894 127.078C506.923 134.008 507.054 132.257 507.058 132.663C507.061 133.11 506.969 137.472 506.973 139.854C506.984 145.843 507.064 148.579 506.959 156.762C506.872 152.039 506.684 154.626 506.74 149.365ZM361.81 9.82521C361.533 9.90791 356.656 9.83449 354.857 9.84669C355.144 9.76369 360.053 9.83735 361.81 9.82521ZM506.913 601.522C507.048 603.031 507.082 591.723 506.969 594.703C506.944 595.363 506.914 600.101 506.913 601.522ZM506.995 550.726C506.958 549.213 506.86 555.304 506.965 555.293C506.999 555.284 507 550.921 506.995 550.726ZM506.874 52.3455C506.869 52.0593 506.9 47.8984 506.906 47.7682C507.051 45.0116 506.967 58.7065 506.874 52.3455ZM506.828 488.975C506.917 494.247 506.956 478.378 506.842 483.227C506.837 483.469 506.824 488.721 506.828 488.975ZM506.803 466.918C506.808 468.182 506.764 473.794 506.805 473.868C506.872 473.98 506.918 467.556 506.803 466.918ZM440.183 10.0145C440.7 10.1675 433.526 10.0516 430.854 10.0709C430.272 9.91779 437.644 10.0338 440.183 10.0145ZM485.3 11.2613C482.201 10.3937 479.449 10.1522 477.148 10.1531C461.416 10.1709 463.673 10.0195 477.148 10.0209C479.921 10.021 483.255 10.4088 486.825 11.6637C486.821 11.7749 486.9 11.7291 485.3 11.2613ZM446.992 10.1092C448.081 10.0112 451.644 10.0402 454.079 10.0481C453.66 10.1162 448.627 10.0916 446.992 10.1092ZM506.702 614.986C506.579 613.029 506.731 604.364 506.782 605.905C506.793 606.264 506.771 615.705 506.702 614.986ZM506.743 49.7314C506.594 50.458 506.655 41.0893 506.688 40.3721C506.821 37.4808 506.71 48.9727 506.743 49.7314ZM395.943 10.1455C394.276 10.262 389.527 10.202 386.561 10.2005C387.914 10.1008 393.338 10.1433 395.943 10.1455ZM417.724 10.2368C417.483 10.2412 413.352 10.2307 413.159 10.2254C409.719 10.1115 421.606 10.1406 417.724 10.2368ZM506.501 837.004C506.497 836.864 506.505 833.672 506.509 833.561C506.621 830.712 506.598 840.291 506.501 837.004Z" fill="#ACFC17"/>
</svg>
