<svg width="40" height="40" viewBox="0 0 40 40" fill="none" xmlns="http://www.w3.org/2000/svg">
<g clip-path="url(#clip0_39_28)">
<path d="M20 0C31 0 40 9 40 20C40 29.9 32.7998 38.0998 23.2998 39.7998L23.2158 39.7314C23.2772 39.7209 23.339 39.7114 23.4004 39.7002V25.5996H27.7998L28.7002 20H23.4004V16.0996C23.4004 14.4997 24.0005 13.2998 26.4004 13.2998H29V8.2002C27.6 8.0002 25.9996 7.7998 24.5996 7.7998C19.9999 7.79998 16.7999 10.5999 16.7998 15.5996V20H11.7998V25.5996H16.7998V39.7002C16.8056 39.7012 16.8116 39.7021 16.8174 39.7031L16.7002 39.7998C7.2002 38.0998 0 29.9 0 20C0 9 9 0 20 0Z" fill="white"/>
</g>
<defs>
<clipPath id="clip0_39_28">
<rect width="40" height="40" fill="white"/>
</clipPath>
</defs>
</svg>
