<svg width="168" height="49" viewBox="0 0 168 49" fill="none" xmlns="http://www.w3.org/2000/svg">
<path d="M21.2196 38.1446C17.2114 45.6831 11.4638 49 5.4893 49C-0.863337 49 -1.39272 45.08 2.31298 38.22C3.67426 35.6569 5.18679 33.2446 6.39682 31.5862L12.2201 32.34C11.01 34.1492 9.87564 35.9585 8.96812 37.6169C6.85058 41.6123 6.9262 42.6677 8.43874 42.6677C9.80002 42.6677 11.0857 41.6123 12.6738 38.7477L13.3545 37.4662C15.2451 33.9231 15.9258 30.7569 14.5645 25.8569C13.1276 21.0323 13.5813 17.1123 16.4552 11.6846L16.8333 10.9308C20.0096 4.67385 24.9253 0 32.0342 0C38.765 0 38.6138 4.29692 35.1349 10.78C33.8493 13.1169 32.7905 14.7754 31.5805 16.66L25.6816 15.9062C26.7404 14.3231 27.0429 13.9462 28.3285 11.4585C30.5217 7.31231 30.4461 6.33231 29.1604 6.33231C27.7991 6.33231 26.8916 7.23692 25.3791 10.0262L24.9253 11.0062C23.4884 13.72 23.0347 16.5092 24.0178 20.2031C25.3035 25.48 25.001 31.1338 21.749 37.1646L21.2196 38.1446Z" fill="#ACFC17"/>
<path d="M66.3683 31.2846H64.4777L55.4025 48.2461H47.1592L72.4941 0.829224H82.2499C89.2832 0.829224 90.7957 4.59845 84.7456 15.8308C78.4686 27.6661 72.1916 31.2846 66.3683 31.2846ZM78.0905 7.3123H77.2586L68.0321 24.6508H68.9396C70.8303 24.6508 73.0235 22.7661 76.8048 15.68C80.2836 9.12153 80.1324 7.3123 78.0905 7.3123Z" fill="#ACFC17"/>
<path d="M93.065 48.2461H84.7461L87.6199 41.6123H82.7041L78.6203 48.2461H71.7383L103.199 0.829224H112.047L93.065 48.2461ZM90.3424 35.0538L98.9639 16.1323L86.9392 35.0538H90.3424Z" fill="#ACFC17"/>
<path d="M108.493 49C102.367 49 100.174 45.9092 103.88 38.8985L119.156 10.3277C122.786 3.46769 128.458 0 134.508 0C139.954 0 142.903 1.88462 138.365 10.4031C137.08 12.74 135.643 15.0769 134.433 16.8862L128.458 16.3585C129.593 14.7 130.727 12.9662 131.559 11.3077C133.903 6.86 133.223 6.25692 131.71 6.25692C130.198 6.25692 129.215 6.86 127.929 9.27231L111.82 39.5015C110.686 41.6877 110.686 42.6677 112.577 42.6677C113.938 42.6677 115.375 41.7631 117.795 37.24C118.551 35.7323 119.383 33.9985 120.064 32.1892L126.643 31.6615C125.963 33.3954 125.131 35.4308 123.618 38.22C118.929 46.9646 113.862 49 108.493 49Z" fill="#ACFC17"/>
<path d="M142.6 48.2461H125.887L151.222 0.829224H167.859L164.381 7.38768H155.986L148.953 20.58H155.986L152.432 27.2138H145.398L137.609 41.6877H146.079L142.6 48.2461Z" fill="#ACFC17"/>
</svg>
