<svg width="102" height="102" viewBox="0 0 102 102" fill="none" xmlns="http://www.w3.org/2000/svg">
<g clip-path="url(#clip0_34_7)">
<path d="M34 51C34 47.6377 34.997 44.3509 36.865 41.5553C38.733 38.7597 41.388 36.5807 44.4944 35.294C47.6007 34.0074 51.0189 33.6707 54.3165 34.3266C57.6142 34.9826 60.6433 36.6017 63.0208 38.9792C65.3983 41.3567 67.0174 44.3858 67.6733 47.6835C68.3293 50.9811 67.9926 54.3993 66.706 57.5056C65.4193 60.612 63.2403 63.267 60.4447 65.135C57.6491 67.003 54.3623 68 51 68C46.4913 68 42.1673 66.2089 38.9792 63.0208C35.7911 59.8327 34 55.5087 34 51ZM24.809 51C24.809 56.1794 26.3448 61.2424 29.2223 65.549C32.0997 69.8555 36.1895 73.2121 40.9746 75.1943C45.7597 77.1765 51.025 77.6952 56.1049 76.685C61.1848 75.6748 65.8511 73.1809 69.5136 69.5188C73.1762 65.8566 75.6706 61.1906 76.6814 56.1109C77.6923 51.0311 77.1741 45.7656 75.1924 40.9804C73.2108 36.1951 69.8547 32.1049 65.5485 29.2269C61.2423 26.349 56.1794 24.8126 51 24.812C47.5609 24.8119 44.1555 25.4892 40.9781 26.8052C37.8008 28.1212 34.9138 30.0502 32.482 32.482C30.0502 34.9138 28.1212 37.8008 26.8052 40.9781C25.4892 44.1555 24.8119 47.5609 24.812 51M72.1 23.774C72.0996 24.9844 72.4581 26.1678 73.1303 27.1744C73.8024 28.1811 74.758 28.9658 75.8761 29.4294C76.9943 29.893 78.2247 30.0145 79.412 29.7788C80.5992 29.543 81.6899 28.9605 82.5461 28.1049C83.4023 27.2493 83.9855 26.159 84.222 24.9719C84.4585 23.7848 84.3378 22.5543 83.8749 21.4358C83.4121 20.3174 82.628 19.3613 81.6217 18.6885C80.6155 18.0157 79.4324 17.6564 78.222 17.656C76.5995 17.6568 75.0436 18.3016 73.8961 19.4487C72.7486 20.5958 72.1033 22.1515 72.102 23.774M30.4 92.513C27.1657 92.4761 23.962 91.8827 20.929 90.759C18.7139 89.9402 16.7097 88.6368 15.063 86.944C13.3677 85.3009 12.0638 83.2975 11.248 81.082C10.1224 78.0494 9.5277 74.8455 9.49 71.611C9.243 66.235 9.19 64.62 9.19 51.001C9.19 37.382 9.243 35.771 9.49 30.391C9.53063 27.1571 10.1238 23.954 11.244 20.92C12.0628 18.7049 13.3662 16.7007 15.059 15.054C16.7028 13.3577 18.7078 12.0537 20.925 11.239C23.959 10.114 27.1643 9.52028 30.4 9.484C35.776 9.237 37.391 9.184 51 9.184C64.609 9.184 66.23 9.237 71.61 9.484C74.8439 9.52461 78.047 10.1178 81.081 11.238C83.2969 12.0553 85.3014 13.3589 86.947 15.053C88.6411 16.6986 89.9447 18.7031 90.762 20.919C91.8862 23.9518 92.4796 27.1557 92.516 30.39C92.763 35.77 92.816 37.381 92.816 51C92.816 64.619 92.767 66.23 92.516 71.61C92.4769 74.844 91.8837 78.0475 90.762 81.081C89.9133 83.2804 88.6134 85.2778 86.946 86.9444C85.2787 88.6111 83.2808 89.9102 81.081 90.758C78.0482 91.8822 74.8443 92.4756 71.61 92.512C66.234 92.759 64.619 92.812 51 92.812C37.381 92.812 35.77 92.764 30.4 92.513ZM29.974 0.309C25.7434 0.392696 21.5576 1.19373 17.595 2.678C14.1916 3.95866 11.1083 5.96594 8.56 8.56C5.96327 11.106 3.95528 14.1895 2.677 17.594C1.1931 21.557 0.392398 25.7431 0.309 29.974C0.058 35.412 0 37.15 0 51C0 64.85 0.058 66.588 0.309 72.026C0.392792 76.2566 1.19383 80.4424 2.678 84.405C3.95624 87.8096 5.96384 90.8934 8.56 93.44C11.1092 96.0328 14.1918 98.0402 17.594 99.323C21.5568 100.807 25.7424 101.608 29.973 101.692C35.414 101.939 37.149 102.001 50.999 102.001C64.849 102.001 66.587 101.943 72.025 101.692C76.2556 101.608 80.4414 100.807 84.404 99.323C87.7927 98.0129 90.8701 96.0091 93.4391 93.4401C96.0081 90.8711 98.0119 87.7937 99.322 84.405C100.808 80.4429 101.609 76.2568 101.691 72.026C101.938 66.584 101.991 64.85 101.991 51C101.991 37.15 101.933 35.412 101.691 29.974C101.607 25.7434 100.806 21.5576 99.322 17.595C98.0395 14.1925 96.0324 11.1097 93.44 8.56C90.8944 5.96469 87.8126 3.95687 84.41 2.677C80.4473 1.19197 76.261 0.391238 72.03 0.309C66.593 0.062 64.854 0 51 0C37.146 0 35.41 0.058 29.97 0.309" fill="url(#paint0_linear_34_7)"/>
<path d="M34 51C34 47.6377 34.997 44.3509 36.865 41.5553C38.733 38.7597 41.388 36.5807 44.4944 35.294C47.6007 34.0074 51.0189 33.6707 54.3165 34.3266C57.6142 34.9826 60.6433 36.6017 63.0208 38.9792C65.3983 41.3567 67.0174 44.3858 67.6733 47.6835C68.3293 50.9811 67.9926 54.3993 66.706 57.5056C65.4193 60.612 63.2403 63.267 60.4447 65.135C57.6491 67.003 54.3623 68 51 68C46.4913 68 42.1673 66.2089 38.9792 63.0208C35.7911 59.8327 34 55.5087 34 51ZM24.809 51C24.809 56.1794 26.3448 61.2424 29.2223 65.549C32.0997 69.8555 36.1895 73.2121 40.9746 75.1943C45.7597 77.1765 51.025 77.6952 56.1049 76.685C61.1848 75.6748 65.8511 73.1809 69.5136 69.5188C73.1762 65.8566 75.6706 61.1906 76.6814 56.1109C77.6923 51.0311 77.1741 45.7656 75.1924 40.9804C73.2108 36.1951 69.8547 32.1049 65.5485 29.2269C61.2423 26.349 56.1794 24.8126 51 24.812C47.5609 24.8119 44.1555 25.4892 40.9781 26.8052C37.8008 28.1212 34.9138 30.0502 32.482 32.482C30.0502 34.9138 28.1212 37.8008 26.8052 40.9781C25.4892 44.1555 24.8119 47.5609 24.812 51M72.1 23.774C72.0996 24.9844 72.4581 26.1678 73.1303 27.1744C73.8024 28.1811 74.758 28.9658 75.8761 29.4294C76.9943 29.893 78.2247 30.0145 79.412 29.7788C80.5992 29.543 81.6899 28.9605 82.5461 28.1049C83.4023 27.2493 83.9855 26.159 84.222 24.9719C84.4585 23.7848 84.3378 22.5543 83.8749 21.4358C83.4121 20.3174 82.628 19.3613 81.6217 18.6885C80.6155 18.0157 79.4324 17.6564 78.222 17.656C76.5995 17.6568 75.0436 18.3016 73.8961 19.4487C72.7486 20.5958 72.1033 22.1515 72.102 23.774M30.4 92.513C27.1657 92.4761 23.962 91.8827 20.929 90.759C18.7139 89.9402 16.7097 88.6368 15.063 86.944C13.3677 85.3009 12.0638 83.2975 11.248 81.082C10.1224 78.0494 9.5277 74.8455 9.49 71.611C9.243 66.235 9.19 64.62 9.19 51.001C9.19 37.382 9.243 35.771 9.49 30.391C9.53063 27.1571 10.1238 23.954 11.244 20.92C12.0628 18.7049 13.3662 16.7007 15.059 15.054C16.7028 13.3577 18.7078 12.0537 20.925 11.239C23.959 10.114 27.1643 9.52028 30.4 9.484C35.776 9.237 37.391 9.184 51 9.184C64.609 9.184 66.23 9.237 71.61 9.484C74.8439 9.52461 78.047 10.1178 81.081 11.238C83.2969 12.0553 85.3014 13.3589 86.947 15.053C88.6411 16.6986 89.9447 18.7031 90.762 20.919C91.8862 23.9518 92.4796 27.1557 92.516 30.39C92.763 35.77 92.816 37.381 92.816 51C92.816 64.619 92.767 66.23 92.516 71.61C92.4769 74.844 91.8837 78.0475 90.762 81.081C89.9133 83.2804 88.6134 85.2778 86.946 86.9444C85.2787 88.6111 83.2808 89.9102 81.081 90.758C78.0482 91.8822 74.8443 92.4756 71.61 92.512C66.234 92.759 64.619 92.812 51 92.812C37.381 92.812 35.77 92.764 30.4 92.513ZM29.974 0.309C25.7434 0.392696 21.5576 1.19373 17.595 2.678C14.1916 3.95866 11.1083 5.96594 8.56 8.56C5.96327 11.106 3.95528 14.1895 2.677 17.594C1.1931 21.557 0.392398 25.7431 0.309 29.974C0.058 35.412 0 37.15 0 51C0 64.85 0.058 66.588 0.309 72.026C0.392792 76.2566 1.19383 80.4424 2.678 84.405C3.95624 87.8096 5.96384 90.8934 8.56 93.44C11.1092 96.0328 14.1918 98.0402 17.594 99.323C21.5568 100.807 25.7424 101.608 29.973 101.692C35.414 101.939 37.149 102.001 50.999 102.001C64.849 102.001 66.587 101.943 72.025 101.692C76.2556 101.608 80.4414 100.807 84.404 99.323C87.7927 98.0129 90.8701 96.0091 93.4391 93.4401C96.0081 90.8711 98.0119 87.7937 99.322 84.405C100.808 80.4429 101.609 76.2568 101.691 72.026C101.938 66.584 101.991 64.85 101.991 51C101.991 37.15 101.933 35.412 101.691 29.974C101.607 25.7434 100.806 21.5576 99.322 17.595C98.0395 14.1925 96.0324 11.1097 93.44 8.56C90.8944 5.96469 87.8126 3.95687 84.41 2.677C80.4473 1.19197 76.261 0.391238 72.03 0.309C66.593 0.062 64.854 0 51 0C37.146 0 35.41 0.058 29.97 0.309" fill="url(#paint1_linear_34_7)"/>
</g>
<defs>
<linearGradient id="paint0_linear_34_7" x1="51" y1="102" x2="51" y2="26.5" gradientUnits="userSpaceOnUse">
<stop offset="0.09" stop-color="#FA8F21"/>
<stop offset="0.78" stop-color="#D82D7E"/>
</linearGradient>
<linearGradient id="paint1_linear_34_7" x1="51" y1="102" x2="51" y2="-4.40471e-07" gradientUnits="userSpaceOnUse">
<stop offset="0.64" stop-color="#8C3AAA" stop-opacity="0"/>
<stop offset="1" stop-color="#8C3AAA"/>
</linearGradient>
<clipPath id="clip0_34_7">
<rect width="101.996" height="102" fill="white"/>
</clipPath>
</defs>
</svg>
