<svg width="584" height="132" viewBox="0 0 584 132" fill="none" xmlns="http://www.w3.org/2000/svg">
<g clip-path="url(#clip0_113_706)">
<path d="M584.001 132V109.255L563.147 132H584.001Z" fill="#ACFC17"/>
<path d="M584 1.08984H563.395L584 23.5677V1.08984Z" fill="#ACFC17"/>
<path d="M549.735 66.4782L489.675 132H523.921L584 66.4782L524.036 1.08984H489.789L549.735 66.4782Z" fill="#ACFC17"/>
<path d="M454.055 2.02637V40.1011L478.247 66.4781L454.055 92.8552V130.93L513.161 66.4781L454.055 2.02637Z" fill="#ACFC17"/>
<path d="M53.6305 96.6203C43.4043 115.887 28.9999 124.24 13.8323 124.24C-2.27015 124.24 -3.33856 114.377 5.80015 96.9835C8.91181 91.1576 12.3252 85.4986 16.0264 80.0295L30.6597 81.9409C27.6262 86.49 24.6499 91.1729 22.494 95.3206C17.0948 105.508 17.4 108.165 21.1585 108.165C24.5927 108.165 27.8742 105.508 31.7854 98.1494L33.5215 94.8619C38.2722 85.9357 40.0846 77.7932 36.4978 65.4075C32.911 53.0217 33.9794 43.2163 41.3057 29.4353L42.2978 27.5239C50.6161 11.9079 62.96 0 80.8368 0C97.8741 0 97.4544 10.7993 88.7354 27.2563C85.9941 32.3381 82.9948 37.2759 79.7493 42.0504L64.9442 40.139C67.4317 36.5234 69.6937 32.7572 71.7172 28.8619C77.2882 18.3684 77.0592 15.8645 73.7777 15.8645C70.4961 15.8645 68.054 18.2155 64.2383 25.2493L62.96 27.8679C59.2969 34.768 58.2285 41.821 60.5752 51.2059C64.2349 65.7655 62.1866 81.1765 54.8516 94.2693L53.6305 96.6203Z" fill="#ACFC17"/>
<path d="M167.435 79.2462H162.742L139.885 122.329H119.089L182.927 2.02637H207.615C225.434 2.02637 229.135 11.5833 214.006 40.082C198.037 70.148 182.125 79.2462 167.435 79.2462ZM197.102 18.6363H194.908L171.556 62.598H173.903C178.577 62.598 184.205 57.896 193.764 39.8908C202.654 23.1854 202.234 18.6363 197.102 18.6363Z" fill="#ACFC17"/>
<path d="M234.764 122.329H213.778L221.123 105.566H208.76L198.419 122.329H181L260.311 2.02637H282.652L234.764 122.329ZM228.01 88.8031L249.703 40.8848L219.406 88.784L228.01 88.8031Z" fill="#ACFC17"/>
<path d="M273.8 124.24C258.308 124.24 252.813 116.403 262.181 98.7228L300.662 26.205C309.877 8.77324 324.225 0 339.392 0C353.148 0 360.589 4.85491 349.142 26.4726C345.974 32.417 342.197 38.3614 339.163 42.9105L324.034 41.649C326.905 37.5184 329.555 33.2372 331.971 28.8236C337.942 17.5465 336.13 15.9791 332.371 15.9791C328.613 15.9791 326.075 17.5465 322.832 23.6247L282.042 100.386C279.142 105.852 279.218 108.375 283.949 108.375C287.384 108.375 290.97 106.024 297.037 94.5943C299.174 90.4186 301.084 86.1309 302.761 81.7498L319.379 80.4883C317.179 86.1773 314.631 91.7245 311.747 97.0982C300.052 119.175 287.384 124.24 273.8 124.24Z" fill="#ACFC17"/>
<path d="M359.824 122.329H317.622L381.44 2.02637H423.414L414.599 18.6363H393.422L375.717 51.9899H393.384L384.417 68.9056H366.75L347.232 105.7H368.658L359.824 122.329Z" fill="#ACFC17"/>
</g>
<defs>
<clipPath id="clip0_113_706">
<rect width="584" height="132" fill="white"/>
</clipPath>
</defs>
</svg>
