<svg width="432" height="91" viewBox="0 0 432 91" fill="none" xmlns="http://www.w3.org/2000/svg">
<g clip-path="url(#clip0_34_18)">
<path d="M74.5 49.4998C76.1 52.2998 77 55.7998 77 59.8998V60.0998C77 64.2998 76.2 68.0998 74.5 71.4998C72.8 74.8998 70.4 77.6998 67.4 80.0998C64.3 82.3998 60.6 84.1998 56.2 85.4998C51.8 86.7998 46.9 87.3998 41.5 87.3998C33.3 87.3998 25.6 86.2998 18.5 83.9998C11.4 81.6998 5.29995 78.2998 0.199951 73.7998L14.6 56.6998C19 60.0998 23.5999 62.4998 28.4 63.8998C33.2 65.3998 37.9999 66.0998 42.7999 66.0998C45.2999 66.0998 46.9999 65.7998 48.0999 65.1998C49.1999 64.5998 49.7 63.6998 49.7 62.6998V62.4998C49.7 61.2998 48.8999 60.3998 47.2999 59.5998C45.6999 58.7998 42.8 57.9998 38.5 57.1998C34 56.2998 29.7 55.1998 25.6 53.9998C21.5 52.7998 17.9 51.1998 14.8 49.2998C11.7 47.3998 9.19995 44.9998 7.39995 42.0998C5.39995 38.9998 4.49995 35.3998 4.49995 31.1998V30.9998C4.49995 27.1998 5.19995 23.5998 6.69995 20.2998C8.19995 16.9998 10.4 14.0998 13.3 11.6998C16.2 9.1998 19.8 7.2998 24 5.8998C28.2 4.4998 33.1 3.7998 38.7 3.7998C46.5 3.7998 53.4 4.6998 59.2 6.5998C65.1 8.3998 70.3 11.1998 75 14.8998L61.9 32.9998C58.1 30.1998 53.9999 28.1998 49.7999 26.8998C45.4999 25.5998 41.4999 24.9998 37.7999 24.9998C35.7999 24.9998 34.3 25.2998 33.4 25.8998C32.4 26.4998 32 27.2998 32 28.2998V28.4998C32 29.5998 32.7 30.4998 34.2 31.2998C35.7 32.0998 38.5 32.8998 42.7 33.6998C47.8 34.5998 52.5 35.6998 56.7 36.9998C60.9 38.2998 64.5 39.9998 67.6 41.9998C70.5 44.1998 72.9 46.5998 74.5 49.4998ZM75.5 28.0998H99.2V85.8998H126.1V28.0998H149.8V5.2998H75.5V28.0998ZM387.9 0.299805L344.6 85.8998H370.4L387.9 51.2998L405.5 85.8998H431.3L387.9 0.299805ZM267.3 0.299805L310.7 85.8998H284.9L267.4 51.2998L249.9 85.8998H232.4H224.1H201.7L186.5 62.8998H186.3H180.8V85.8998H153.9V5.2998H193C200.2 5.2998 206.1 6.0998 210.8 7.7998C215.4 9.3998 219.2 11.6998 222 14.4998C224.5 16.8998 226.3 19.6998 227.5 22.7998C228.7 25.8998 229.3 29.4998 229.3 33.5998V33.7998C229.3 39.6998 227.9 44.6998 225 48.6998C222.2 52.7998 218.3 55.9998 213.4 58.3998L227.4 78.7998L267.3 0.299805ZM202.5 35.5998C202.5 32.9998 201.6 31.0998 199.7 29.7998C197.9 28.4998 195.4 27.8998 192.2 27.8998H180.5V43.6998H192.1C195.3 43.6998 197.9 42.9998 199.7 41.5998C201.5 40.1998 202.5 38.2998 202.5 35.7998V35.5998ZM345.2 5.2998L327.6 39.9998L310 5.2998H284.2L327.6 90.8998L370.9 5.2998H345.2Z" fill="white"/>
</g>
<defs>
<clipPath id="clip0_34_18">
<rect width="432" height="91" fill="white"/>
</clipPath>
</defs>
</svg>
